<svg width="16" height="16" viewBox="0 0 16 16" fill="none" xmlns="http://www.w3.org/2000/svg">
<g id="Frame" clip-path="url(#clip0_126_1196)">
<g id="Group">
<path id="Vector" d="M8 9.33335C7.92 9.33335 0 9.26068 0 6.66668C0 5.90335 0.803333 5.24068 2.324 4.75002C2.3661 4.73469 2.41086 4.72802 2.45561 4.73039C2.50035 4.73275 2.54415 4.74412 2.58441 4.7638C2.62466 4.78348 2.66053 4.81107 2.68987 4.84493C2.71922 4.87879 2.74144 4.91821 2.7552 4.96085C2.76897 5.00349 2.77399 5.04846 2.76998 5.09309C2.76597 5.13771 2.75301 5.18107 2.73186 5.22057C2.71071 5.26007 2.68182 5.29491 2.64691 5.32299C2.612 5.35107 2.57178 5.37183 2.52867 5.38402C1.15533 5.82735 0.666667 6.33735 0.666667 6.66668C0.666667 7.90602 4.938 8.66668 8 8.66668C10.632 8.66668 15.3333 7.99868 15.3333 6.66668C15.3333 6.25335 14.6707 5.78335 13.5607 5.40935C13.5177 5.39665 13.4777 5.37541 13.4431 5.3469C13.4085 5.31839 13.38 5.28319 13.3593 5.24341C13.3386 5.20362 13.3262 5.16008 13.3227 5.11538C13.3193 5.07068 13.3249 5.02574 13.3392 4.98325C13.3535 4.94076 13.3762 4.90159 13.406 4.8681C13.4358 4.8346 13.4721 4.80746 13.5126 4.7883C13.5531 4.76914 13.5971 4.75835 13.6419 4.75658C13.6867 4.75482 13.7314 4.76211 13.7733 4.77802C15.614 5.39735 16 6.14735 16 6.66668C16 9.26068 8.08 9.33335 8 9.33335Z" fill="black"/>
<path id="Vector_2" d="M8 16C4.122 16 0 15.0653 0 13.3333V6.66665C0 6.57824 0.035119 6.49346 0.0976311 6.43094C0.160143 6.36843 0.244928 6.33331 0.333333 6.33331C0.421739 6.33331 0.506523 6.36843 0.569036 6.43094C0.631548 6.49346 0.666667 6.57824 0.666667 6.66665V13.3333C0.666667 14.1686 3.45667 15.3333 8 15.3333C12.5433 15.3333 15.3333 14.1686 15.3333 13.3333V6.66665C15.3333 6.57824 15.3685 6.49346 15.431 6.43094C15.4935 6.36843 15.5783 6.33331 15.6667 6.33331C15.7551 6.33331 15.8399 6.36843 15.9024 6.43094C15.9649 6.49346 16 6.57824 16 6.66665V13.3333C16 15.0653 11.878 16 8 16Z" fill="black"/>
<path id="Vector_3" d="M2.40679 15.26C2.34089 15.2597 2.27657 15.2399 2.22191 15.2031C2.16725 15.1663 2.1247 15.1141 2.09961 15.0532C2.07453 14.9922 2.06803 14.9252 2.08093 14.8606C2.09383 14.796 2.12556 14.7366 2.17212 14.69L4.49145 12.39C4.57305 12.3069 4.67039 12.241 4.77779 12.1959C4.88518 12.1509 5.00048 12.1278 5.11693 12.1278C5.23338 12.1279 5.34865 12.1512 5.456 12.1963C5.56334 12.2414 5.66061 12.3075 5.74212 12.3907L7.07012 13.6587C7.12079 13.7094 7.18345 13.7394 7.22479 13.7327C7.25577 13.731 7.28611 13.7232 7.31404 13.7097C7.34197 13.6962 7.36693 13.6773 7.38745 13.654L9.35212 11.6147C9.70945 11.258 10.2381 11.24 10.5881 11.5707L13.8861 14.476C13.9212 14.5042 13.9501 14.5393 13.9713 14.579C13.9924 14.6187 14.0053 14.6623 14.0091 14.7071C14.013 14.752 14.0077 14.7971 13.9936 14.8399C13.9796 14.8826 13.957 14.922 13.9273 14.9558C13.8975 14.9896 13.8613 15.017 13.8207 15.0364C13.7801 15.0558 13.736 15.0668 13.691 15.0687C13.646 15.0705 13.6012 15.0633 13.5591 15.0474C13.517 15.0315 13.4786 15.0072 13.4461 14.976L10.1395 12.0627C10.0255 11.958 9.90612 12.004 9.82812 12.0814L7.86679 14.1174C7.69079 14.2974 7.46479 14.3967 7.22945 14.3987C6.97079 14.4054 6.77479 14.3067 6.60412 14.1347L5.27612 12.8667C5.17679 12.7667 5.05545 12.7687 4.96212 12.8614L2.64212 15.1627C2.61125 15.1936 2.57457 15.2182 2.53418 15.2349C2.49379 15.2516 2.45049 15.2601 2.40679 15.26Z" fill="black"/>
<path id="Vector_4" d="M7.00008 12C6.44875 12 6.00008 11.5513 6.00008 11C6.00008 10.4487 6.44875 10 7.00008 10C7.55141 10 8.00008 10.4487 8.00008 11C8.00008 11.5513 7.55141 12 7.00008 12ZM7.00008 10.6667C6.9115 10.6668 6.82662 10.7022 6.7641 10.765C6.70159 10.8277 6.66657 10.9128 6.66675 11.0013C6.66692 11.0899 6.70228 11.1748 6.76505 11.2373C6.82781 11.2998 6.91283 11.3348 7.00141 11.3347C7.09 11.3345 7.17488 11.2991 7.23739 11.2364C7.29991 11.1736 7.33492 11.0886 7.33475 11C7.33457 10.9114 7.29921 10.8265 7.23645 10.764C7.17369 10.7015 7.08866 10.6665 7.00008 10.6667ZM13.0001 8.76667C12.9117 8.76667 12.8269 8.73155 12.7644 8.66904C12.7019 8.60652 12.6667 8.52174 12.6667 8.43333V6.96C12.6667 6.87159 12.7019 6.78681 12.7644 6.7243C12.8269 6.66179 12.9117 6.62667 13.0001 6.62667C13.0885 6.62667 13.1733 6.66179 13.2358 6.7243C13.2983 6.78681 13.3334 6.87159 13.3334 6.96V8.43333C13.3334 8.52174 13.2983 8.60652 13.2358 8.66904C13.1733 8.73155 13.0885 8.76667 13.0001 8.76667ZM3.00008 8.76667C2.91168 8.76667 2.82689 8.73155 2.76438 8.66904C2.70187 8.60652 2.66675 8.52174 2.66675 8.43333V7.15333C2.66675 7.06493 2.70187 6.98014 2.76438 6.91763C2.82689 6.85512 2.91168 6.82 3.00008 6.82C3.08849 6.82 3.17327 6.85512 3.23578 6.91763C3.2983 6.98014 3.33341 7.06493 3.33341 7.15333V8.43333C3.33341 8.52174 3.2983 8.60652 3.23578 8.66904C3.17327 8.73155 3.08849 8.76667 3.00008 8.76667ZM8.33342 6H7.33342C6.96542 6 6.66675 5.70067 6.66675 5.33333V2.66667C6.66675 2.29933 6.96542 2 7.33342 2H8.66675C8.75515 2 8.83994 2.03512 8.90245 2.09763C8.96496 2.16014 9.00008 2.24493 9.00008 2.33333C9.00008 2.42174 8.96496 2.50652 8.90245 2.56904C8.83994 2.63155 8.75515 2.66667 8.66675 2.66667H7.33342V3.66667H8.33342C8.70142 3.66667 9.00008 3.966 9.00008 4.33333V5.33333C9.00008 5.70067 8.70142 6 8.33342 6ZM7.33342 4.33333V5.33333H8.33342V4.33333H7.33342ZM11.3334 6H10.3334C9.96542 6 9.66675 5.70067 9.66675 5.33333V2.66667C9.66675 2.29933 9.96542 2 10.3334 2H11.3334C11.7014 2 12.0001 2.29933 12.0001 2.66667V5.33333C12.0001 5.70067 11.7014 6 11.3334 6ZM10.0001 5.33333L10.3334 5.334V5.33333H10.0001ZM10.3334 5.33333H11.3334V2.66667H10.3334V5.33333ZM5.33341 6H4.33341C4.24501 6 4.16022 5.96488 4.09771 5.90237C4.0352 5.83986 4.00008 5.75507 4.00008 5.66667C4.00008 5.57826 4.0352 5.49348 4.09771 5.43096C4.16022 5.36845 4.24501 5.33333 4.33341 5.33333H5.33341V4.33333H4.33341C4.24501 4.33333 4.16022 4.29821 4.09771 4.2357C4.0352 4.17319 4.00008 4.08841 4.00008 4C4.00008 3.91159 4.0352 3.82681 4.09771 3.7643C4.16022 3.70179 4.24501 3.66667 4.33341 3.66667H5.33341C5.70141 3.66667 6.00008 3.966 6.00008 4.33333V5.33333C6.00008 5.70067 5.70141 6 5.33341 6Z" fill="black"/>
<path id="Vector_5" d="M5.33333 4.33333H4.33333C4.24493 4.33333 4.16014 4.29821 4.09763 4.2357C4.03512 4.17319 4 4.08841 4 4C4 3.91159 4.03512 3.82681 4.09763 3.7643C4.16014 3.70179 4.24493 3.66667 4.33333 3.66667H5.33333V2.66667H4.33333C4.24493 2.66667 4.16014 2.63155 4.09763 2.56904C4.03512 2.50652 4 2.42174 4 2.33333C4 2.24493 4.03512 2.16014 4.09763 2.09763C4.16014 2.03512 4.24493 2 4.33333 2H5.33333C5.70133 2 6 2.29933 6 2.66667V3.66667C6 4.034 5.70133 4.33333 5.33333 4.33333ZM13.6667 2C13.1153 2 12.6667 1.55133 12.6667 1C12.6667 0.448667 13.1153 0 13.6667 0C14.218 0 14.6667 0.448667 14.6667 1C14.6667 1.55133 14.218 2 13.6667 2ZM13.6667 0.666667C13.6228 0.666754 13.5794 0.67548 13.5389 0.692346C13.4984 0.709212 13.4616 0.733888 13.4307 0.764964C13.3997 0.796041 13.3752 0.83291 13.3585 0.873466C13.3418 0.914023 13.3332 0.957472 13.3333 1.00133C13.3334 1.04519 13.3421 1.08861 13.359 1.1291C13.3759 1.16959 13.4006 1.20636 13.4316 1.23731C13.4627 1.26826 13.4996 1.29279 13.5401 1.3095C13.5807 1.3262 13.6241 1.33475 13.668 1.33467C13.7566 1.33449 13.8415 1.29913 13.904 1.23637C13.9665 1.17361 14.0015 1.08858 14.0013 1C14.0012 0.911418 13.9658 0.826534 13.903 0.764022C13.8403 0.70151 13.7552 0.66649 13.6667 0.666667Z" fill="black"/>
</g>
</g>
<defs>
<clipPath id="clip0_126_1196">
<rect width="16" height="16" fill="white"/>
</clipPath>
</defs>
</svg>
