<svg width="32" height="32" viewBox="0 0 32 32" fill="none" xmlns="http://www.w3.org/2000/svg">
<g id="Frame">
<g id="Group">
<path id="Vector" fill-rule="evenodd" clip-rule="evenodd" d="M15.9998 27.933C9.40644 27.933 4.0531 22.5797 4.0531 15.9864C4.05266 14.0689 4.51408 12.1795 5.39833 10.4781C6.28258 8.77666 7.56363 7.31326 9.1331 6.21168C9.35005 6.0591 9.4975 5.82658 9.543 5.56527C9.58851 5.30397 9.52836 5.0353 9.37577 4.81835C9.22318 4.6014 8.99066 4.45396 8.72936 4.40845C8.46806 4.36294 8.19938 4.4231 7.98244 4.57568C6.15031 5.8616 4.65493 7.56995 3.62283 9.55616C2.59073 11.5424 2.0523 13.748 2.0531 15.9864C2.0531 23.6837 8.30244 29.933 15.9998 29.933C16.265 29.933 16.5193 29.8277 16.7069 29.6401C16.8944 29.4526 16.9998 29.1982 16.9998 28.933C16.9998 28.6678 16.8944 28.4134 16.7069 28.2259C16.5193 28.0384 16.265 27.933 15.9998 27.933ZM16.7704 4.06368C23.0051 4.46102 27.9464 9.65168 27.9464 15.9864C27.9477 17.7166 27.5724 19.4263 26.8464 20.9968C26.1204 22.5674 25.0612 23.961 23.7424 25.081C23.5405 25.2531 23.4152 25.4983 23.3941 25.7627C23.373 26.0271 23.4577 26.2891 23.6298 26.491C23.8018 26.6929 24.047 26.8182 24.3114 26.8394C24.5759 26.8605 24.8379 26.7757 25.0398 26.6037C26.5791 25.2961 27.8154 23.669 28.6627 21.8355C29.51 20.0021 29.9481 18.0061 29.9464 15.9864C29.9464 8.59035 24.1771 2.53168 16.8971 2.06768C16.6324 2.05089 16.3719 2.13992 16.1729 2.31521C15.9738 2.49049 15.8526 2.73766 15.8358 3.00235C15.819 3.26704 15.908 3.52755 16.0833 3.72659C16.2586 3.92563 16.5058 4.04689 16.7704 4.06368Z" fill="#26234F"/>
<path id="Vector_2" fill-rule="evenodd" clip-rule="evenodd" d="M26.3865 25.5793H24.0611V23.254C24.0611 22.9888 23.9558 22.7344 23.7682 22.5469C23.5807 22.3594 23.3264 22.254 23.0611 22.254C22.7959 22.254 22.5416 22.3594 22.354 22.5469C22.1665 22.7344 22.0611 22.9888 22.0611 23.254V26.5793C22.0611 27.1313 22.5091 27.5793 23.0611 27.5793H26.3865C26.6517 27.5793 26.906 27.474 27.0936 27.2864C27.2811 27.0989 27.3865 26.8446 27.3865 26.5793C27.3865 26.3141 27.2811 26.0598 27.0936 25.8722C26.906 25.6847 26.6517 25.5793 26.3865 25.5793ZM6.38647 5.21667H8.71047V7.54067C8.71047 7.80589 8.81583 8.06025 9.00337 8.24778C9.1909 8.43532 9.44526 8.54067 9.71047 8.54067C9.97569 8.54067 10.23 8.43532 10.4176 8.24778C10.6051 8.06025 10.7105 7.80589 10.7105 7.54067V4.21667C10.7105 3.95146 10.6051 3.6971 10.4176 3.50957C10.23 3.32203 9.97569 3.21667 9.71047 3.21667H6.38647C6.12126 3.21667 5.8669 3.32203 5.67937 3.50957C5.49183 3.6971 5.38647 3.95146 5.38647 4.21667C5.38647 4.48189 5.49183 4.73624 5.67937 4.92378C5.8669 5.11132 6.12126 5.21667 6.38647 5.21667ZM16.3865 8.32467C14.3535 8.32573 12.404 9.13381 10.9665 10.5714C9.52894 12.0089 8.72087 13.9583 8.71981 15.9913C8.72051 18.0245 9.52848 19.9741 10.9661 21.4117C12.4037 22.8493 14.3534 23.6573 16.3865 23.658C18.4195 23.6569 20.3689 22.8489 21.8065 21.4113C23.244 19.9738 24.0521 18.0243 24.0531 15.9913C24.0521 13.9583 23.244 12.0089 21.8065 10.5714C20.3689 9.13381 18.4195 8.32573 16.3865 8.32467ZM15.0531 12.3247V15.658C15.0531 15.9233 15.1585 16.178 15.3465 16.366L18.0131 19.0327C18.2018 19.2147 18.4545 19.3154 18.7167 19.313C18.9789 19.3106 19.2296 19.2053 19.415 19.0198C19.6003 18.8343 19.7053 18.5835 19.7075 18.3213C19.7096 18.0591 19.6087 17.8065 19.4265 17.618L17.0531 15.2447V12.3247C17.0531 12.0595 16.9478 11.8051 16.7602 11.6176C16.5727 11.43 16.3184 11.3247 16.0531 11.3247C15.7879 11.3247 15.5336 11.43 15.346 11.6176C15.1585 11.8051 15.0531 12.0595 15.0531 12.3247Z" fill="#26234F"/>
</g>
</g>
</svg>
