<svg width="24" height="24" viewBox="0 0 24 24" fill="none" xmlns="http://www.w3.org/2000/svg">
<g id="Group">
<g id="Clip path group">
<mask id="mask0_126_1174" style="mask-type:luminance" maskUnits="userSpaceOnUse" x="0" y="0" width="24" height="24">
<g id="a">
<path id="Vector" d="M23.4999 23.5V0.500071H0.5V23.5H23.4999Z" fill="white" stroke="white"/>
</g>
</mask>
<g mask="url(#mask0_126_1174)">
<g id="Group_2">
<path id="Vector_2" d="M12.0001 7.3303C10.9457 7.3303 10.0909 6.47549 10.0909 5.42113C10.0909 4.36678 10.9457 3.51248 12.0001 3.51248C13.0544 3.51248 13.9092 4.36678 13.9092 5.42113C13.9092 6.47549 13.0544 7.3303 12.0001 7.3303ZM15.9896 4.84092L16.8109 3.84834L15.7679 2.04155L14.4975 2.2567C14.0493 2.33264 13.6115 2.07506 13.4601 1.64672L13.0431 0.468756H10.957L10.54 1.64672C10.3886 2.07506 9.95079 2.33264 9.50267 2.2567L8.23222 2.04155L7.18921 3.84834L8.01097 4.84092C8.30061 5.19093 8.29639 5.69849 8.00103 6.04429L7.18921 6.99439L8.23222 8.80072L9.46114 8.57286C9.90786 8.48984 10.3499 8.74034 10.5079 9.16634L10.957 10.374H13.0431L13.4922 9.16634C13.6507 8.74034 14.0922 8.48984 14.539 8.57286L15.7679 8.80072L16.8109 6.99439L15.9991 6.04429C15.7037 5.69849 15.6995 5.19093 15.9896 4.84092Z" stroke="#26234F" stroke-miterlimit="10" stroke-linecap="round" stroke-linejoin="round"/>
<path id="Vector_3" d="M8.98271 22.0163L12.0002 23.5312L22.181 18.4199L18.393 16.3612L12.0002 19.571L5.60734 16.3612L1.81934 18.4199L5.28062 20.1577" stroke="#26234F" stroke-miterlimit="10" stroke-linecap="round" stroke-linejoin="round"/>
<path id="Vector_4" d="M22.1808 14.4596L12 19.571L1.81909 14.4596L5.8186 12.3688L12 15.472L18.1813 12.3688L22.1808 14.4596Z" stroke="#26234F" stroke-miterlimit="10" stroke-linecap="round" stroke-linejoin="round"/>
<path id="Vector_5" d="M22.1808 10.3608L12.0001 15.4721L1.81934 10.3608L7.43733 7.42367L8.23224 8.80071L9.46111 8.57281C9.90787 8.48984 10.3499 8.74034 10.508 9.16634L10.957 10.374H13.0431L13.4922 9.16634C13.6506 8.74034 14.0922 8.48984 14.539 8.57281L15.7678 8.80071L16.5627 7.42367L22.1808 10.3608Z" stroke="#26234F" stroke-miterlimit="10" stroke-linecap="round" stroke-linejoin="round"/>
</g>
</g>
</g>
</g>
</svg>
