<svg width="16" height="16" viewBox="0 0 16 16" fill="none" xmlns="http://www.w3.org/2000/svg">
<g id="Frame" clip-path="url(#clip0_126_877)">
<g id="Group">
<path id="Vector" d="M2.93334 13.3333H15.7333C15.8933 13.3333 16 13.2267 16 13.0667V0.266656C16 0.106656 15.8933 0 15.7333 0H2.9333C2.7733 0 2.66665 0.106656 2.66665 0.266656V13.0667C2.66665 13.2267 2.77334 13.3333 2.93334 13.3333ZM3.19999 9.06666H5.86665C5.7333 10.48 4.6133 11.6 3.19999 11.7333V9.06666ZM3.19999 0.533344H7.46665V2.13334H7.19999C7.03999 2.13334 6.93334 2.24 6.93334 2.4C6.93334 2.56 7.03999 2.66666 7.19999 2.66666H8.26665C8.42665 2.66666 8.53331 2.56 8.53331 2.4C8.53331 2.24 8.42665 2.13334 8.26665 2.13334H7.99999V0.533344H10.4V3.46669C10.4 3.62669 10.5066 3.73334 10.6666 3.73334H11.7333V4C11.7333 4.16 11.84 4.26666 12 4.26666C12.16 4.26666 12.2666 4.16 12.2666 4V2.93334C12.2666 2.77334 12.16 2.66669 12 2.66669C11.84 2.66669 11.7333 2.77334 11.7333 2.93334V3.2H10.9333V0.533344H15.4666V3.2H14.4V2.93334C14.4 2.77334 14.2933 2.66669 14.1333 2.66669C13.9733 2.66669 13.8667 2.77334 13.8667 2.93334V4C13.8667 4.16 13.9733 4.26666 14.1333 4.26666C14.2933 4.26666 14.4 4.16 14.4 4V3.73334H15.4666V8H13.8666V7.73334C13.8666 7.57334 13.76 7.46669 13.6 7.46669C13.44 7.46669 13.3333 7.57334 13.3333 7.73334V8.8C13.3333 8.96 13.44 9.06666 13.6 9.06666C13.76 9.06666 13.8666 8.96 13.8666 8.8V8.53334H15.4666V12.8H9.59999V8.53334H11.2V8.8C11.2 8.96 11.3066 9.06666 11.4666 9.06666C11.6266 9.06666 11.7333 8.96 11.7333 8.8V7.73334C11.7333 7.57334 11.6266 7.46669 11.4666 7.46669C11.3066 7.46669 11.2 7.57334 11.2 7.73334V8H9.33334C9.17334 8 9.06668 8.10666 9.06668 8.26666V12.8H3.19999V12.2566C4.99452 12.1213 6.39999 10.6303 6.39999 8.8C6.39999 8.64 6.29334 8.53334 6.13334 8.53334H3.19999V6.93334H7.73334C7.89334 6.93334 7.99999 6.82669 7.99999 6.66669V4.8H8.26665C8.42665 4.8 8.53331 4.69334 8.53331 4.53334C8.53331 4.37334 8.42665 4.26669 8.26665 4.26669H7.19999C7.03999 4.26669 6.93334 4.37334 6.93334 4.53334C6.93334 4.69334 7.03999 4.8 7.19999 4.8H7.46665V6.4H3.19999V0.533344ZM2.05334 13.2533C2.15999 13.1467 2.15999 12.9867 2.05334 12.88C1.94668 12.7733 1.78668 12.7733 1.67999 12.88L1.33334 13.2267V0.906656L1.67999 1.25334C1.73334 1.30669 1.78665 1.33334 1.86665 1.33334C1.94665 1.33334 1.99999 1.30669 2.0533 1.25334C2.15996 1.14669 2.15996 0.986688 2.0533 0.88L1.29896 0.125625C1.25537 0.0472188 1.17287 0 1.06665 0C0.96043 0 0.877961 0.0472188 0.834336 0.125625L0.0799922 0.88C-0.0266641 0.986656 -0.0266641 1.14666 0.0799922 1.25334C0.186648 1.36003 0.346648 1.36 0.453336 1.25334L0.799992 0.906656V13.2267L0.453336 12.88C0.34668 12.7733 0.18668 12.7733 0.0799922 12.88C-0.0266641 12.9867 -0.0266641 13.1467 0.0799922 13.2533L0.834367 14.0077C0.877961 14.0861 0.96043 14.1333 1.06668 14.1333C1.1729 14.1333 1.25537 14.0861 1.29896 14.0077L2.05334 13.2533ZM16 14.9336V14.9331C15.9999 14.827 15.9527 14.7446 15.8744 14.701L15.12 13.9466C15.0133 13.84 14.8533 13.84 14.7466 13.9466C14.64 14.0533 14.64 14.2133 14.7466 14.32L15.0933 14.6666H2.77334L3.11999 14.32C3.22665 14.2133 3.22665 14.0533 3.11999 13.9467C3.01334 13.84 2.85334 13.84 2.74665 13.9467L1.99227 14.701C1.91387 14.7446 1.86665 14.8271 1.86665 14.9333C1.86665 15.0396 1.91387 15.122 1.99227 15.1657L2.74665 15.92C2.79999 15.9734 2.8533 16 2.9333 16C3.0133 16 3.06665 15.9734 3.11996 15.92C3.22662 15.8134 3.22662 15.6534 3.11996 15.5467L2.77334 15.2H15.0933L14.7467 15.5467C14.64 15.6533 14.64 15.8133 14.7467 15.92C14.8 15.9733 14.8533 16 14.9333 16C15.0133 16 15.0667 15.9733 15.12 15.92L15.8744 15.1656C15.9527 15.1221 15.9999 15.0397 16 14.9336Z" fill="#26234F"/>
</g>
</g>
<defs>
<clipPath id="clip0_126_877">
<rect width="16" height="16" fill="white"/>
</clipPath>
</defs>
</svg>
