<svg xmlns="http://www.w3.org/2000/svg" width="12" height="12" viewBox="0 0 12 12" fill="none">
  <path d="M10.2977 3.80569C10.2834 3.77176 10.2594 3.74281 10.2287 3.72243C10.198 3.70206 10.162 3.69117 10.1252 3.69113H1.87499C1.83808 3.69105 1.80197 3.70188 1.77119 3.72224C1.7404 3.74261 1.71631 3.7716 1.70194 3.8056C1.68756 3.8396 1.68354 3.87708 1.69038 3.91335C1.69721 3.94962 1.7146 3.98307 1.74037 4.0095L5.86537 8.25206C5.88284 8.27004 5.90374 8.28432 5.92683 8.29408C5.94992 8.30383 5.97474 8.30886 5.9998 8.30886C6.02487 8.30886 6.04968 8.30383 6.07278 8.29408C6.09587 8.28432 6.11677 8.27004 6.13424 8.25206L10.2592 4.00931C10.2849 3.98289 10.3022 3.94948 10.309 3.91326C10.3158 3.87705 10.3118 3.83963 10.2975 3.80569H10.2977Z" fill="#696CFF"/>
</svg>