<svg width="24" height="24" viewBox="0 0 24 24" fill="none" xmlns="http://www.w3.org/2000/svg">
<g id="Frame">
<g id="Group">
<path id="Vector" d="M11.9998 0.773438C11.1361 0.773437 10.2808 0.943561 9.48286 1.27409C8.6849 1.60463 7.95985 2.0891 7.34913 2.69984C6.7384 3.31059 6.25395 4.03565 5.92344 4.83362C5.59293 5.63159 5.42283 6.48685 5.42285 7.35056C5.42285 12.0006 11.9998 20.8781 11.9998 20.8781C11.9998 20.8781 18.5767 12.4864 18.5767 7.35056C18.5768 6.48685 18.4067 5.63159 18.0761 4.83362C17.7456 4.03565 17.2612 3.31059 16.6505 2.69984C16.0397 2.0891 15.3147 1.60463 14.5167 1.27409C13.7188 0.943561 12.8635 0.773437 11.9998 0.773438ZM11.9998 10.9922C11.2796 10.9922 10.5756 10.7787 9.97681 10.3786C9.37799 9.97857 8.91125 9.40992 8.63562 8.7446C8.35998 8.07927 8.28782 7.34715 8.42827 6.64082C8.56872 5.93448 8.91546 5.28565 9.42465 4.77638C9.93385 4.26711 10.5826 3.92027 11.2889 3.77971C11.9952 3.63916 12.7274 3.7112 13.3927 3.98673C14.0581 4.26227 14.6268 4.72892 15.027 5.32767C15.4272 5.92643 15.6408 6.6304 15.6409 7.35056C15.6409 8.31623 15.2572 9.24235 14.5744 9.92518C13.8916 10.608 12.9655 10.9916 11.9998 10.9916V10.9922Z" fill="#0062E3"/>
<path id="Vector_2" d="M12.0001 22.9904C8.92043 22.9904 4.33887 22.4293 4.33887 20.8829C4.33887 19.8123 6.44055 19.2838 8.20362 19.0286C8.28866 19.0185 8.37429 19.042 8.44222 19.0942C8.51015 19.1463 8.55502 19.2229 8.56726 19.3077C8.57949 19.3925 8.55811 19.4787 8.50769 19.5479C8.45727 19.6171 8.3818 19.6639 8.29737 19.6783C5.89137 20.0263 4.99493 20.6019 4.99493 20.8829C4.99493 21.3755 7.4673 22.3342 11.9999 22.3342C16.5326 22.3342 19.0049 21.3755 19.0049 20.8829C19.0049 20.6204 18.0909 19.9666 15.2658 19.6199C15.181 19.6075 15.1044 19.5624 15.0524 19.4942C15.0004 19.426 14.9772 19.3402 14.9876 19.2552C14.998 19.1701 15.0413 19.0924 15.1082 19.0389C15.1752 18.9853 15.2604 18.96 15.3457 18.9684C16.9582 19.1664 19.6612 19.6781 19.6612 20.8829C19.6614 22.4293 15.0798 22.9904 12.0001 22.9904Z" fill="#0062E3"/>
</g>
</g>
</svg>
