<svg width="22" height="23" viewBox="0 0 22 23" fill="none" xmlns="http://www.w3.org/2000/svg">
<g id="Frame">
<g id="Group">
<path id="Vector" fill-rule="evenodd" clip-rule="evenodd" d="M16.0421 12.1475C18.6986 12.1475 20.8546 14.3035 20.8546 16.96C20.8546 19.6165 18.6986 21.7725 16.0421 21.7725C13.3856 21.7725 11.2296 19.6165 11.2296 16.96C11.2296 14.3035 13.3856 12.1475 16.0421 12.1475ZM14.8962 15.585V17.4183C14.8962 17.7978 15.2042 18.1058 15.5837 18.1058H16.9587C17.1411 18.1058 17.3159 18.0334 17.4449 17.9045C17.5738 17.7755 17.6462 17.6007 17.6462 17.4183C17.6462 17.236 17.5738 17.0611 17.4449 16.9322C17.3159 16.8032 17.1411 16.7308 16.9587 16.7308H16.2712V15.585C16.2712 15.4026 16.1988 15.2278 16.0699 15.0988C15.9409 14.9699 15.7661 14.8975 15.5837 14.8975C15.4014 14.8975 15.2265 14.9699 15.0976 15.0988C14.9687 15.2278 14.8962 15.4026 14.8962 15.585ZM11.6879 4.58498C11.6879 4.76732 11.6155 4.94219 11.4865 5.07112C11.3576 5.20005 11.1827 5.27248 11.0004 5.27248C10.8181 5.27248 10.6432 5.20005 10.5143 5.07112C10.3853 4.94219 10.3129 4.76732 10.3129 4.58498V2.75165C10.3129 2.56931 10.3853 2.39444 10.5143 2.26551C10.6432 2.13658 10.8181 2.06415 11.0004 2.06415C11.1827 2.06415 11.3576 2.13658 11.4865 2.26551C11.6155 2.39444 11.6879 2.56931 11.6879 2.75165V4.58498ZM16.7296 4.58498C16.7296 4.76732 16.6571 4.94219 16.5282 5.07112C16.3993 5.20005 16.2244 5.27248 16.0421 5.27248C15.8597 5.27248 15.6849 5.20005 15.5559 5.07112C15.427 4.94219 15.3546 4.76732 15.3546 4.58498V2.75165C15.3546 2.56931 15.427 2.39444 15.5559 2.26551C15.6849 2.13658 15.8597 2.06415 16.0421 2.06415C16.2244 2.06415 16.3993 2.13658 16.5282 2.26551C16.6571 2.39444 16.7296 2.56931 16.7296 2.75165V4.58498ZM6.64624 4.58498C6.64624 4.76732 6.57381 4.94219 6.44488 5.07112C6.31595 5.20005 6.14108 5.27248 5.95874 5.27248C5.7764 5.27248 5.60154 5.20005 5.4726 5.07112C5.34367 4.94219 5.27124 4.76732 5.27124 4.58498V2.75165C5.27124 2.56931 5.34367 2.39444 5.4726 2.26551C5.60154 2.13658 5.7764 2.06415 5.95874 2.06415C6.14108 2.06415 6.31595 2.13658 6.44488 2.26551C6.57381 2.39444 6.64624 2.56931 6.64624 2.75165V4.58498Z" fill="#26234F"/>
<path id="Vector_2" fill-rule="evenodd" clip-rule="evenodd" d="M13.7872 21.7725H5.43726C4.52557 21.7725 3.65123 21.4104 3.00658 20.7657C2.36192 20.121 1.99976 19.2467 1.99976 18.335V7.33502C1.99976 6.42334 2.36192 5.549 3.00658 4.90434C3.65123 4.25969 4.52557 3.89752 5.43726 3.89752H18.2706C19.1823 3.89752 20.0566 4.25969 20.7013 4.90434C21.3459 5.549 21.7081 6.42334 21.7081 7.33502V13.8516C21.1889 13.0473 20.4764 12.386 19.6357 11.9282C18.795 11.4704 17.8529 11.2306 16.8956 11.2309C15.3764 11.2318 13.9197 11.8357 12.8455 12.91C11.7713 13.9842 11.1674 15.4409 11.1664 16.96C11.1664 18.9767 12.2105 20.7514 13.7872 21.7725ZM5.89559 16.0434C5.65247 16.0434 5.41932 16.1399 5.24741 16.3118C5.0755 16.4837 4.97892 16.7169 4.97892 16.96C4.97892 17.2031 5.0755 17.4363 5.24741 17.6082C5.41932 17.7801 5.65247 17.8767 5.89559 17.8767C6.1387 17.8767 6.37186 17.7801 6.54377 17.6082C6.71568 17.4363 6.81226 17.2031 6.81226 16.96C6.81226 16.7169 6.71568 16.4837 6.54377 16.3118C6.37186 16.1399 6.1387 16.0434 5.89559 16.0434ZM16.8956 7.79336C16.6525 7.79336 16.4193 7.88993 16.2474 8.06184C16.0755 8.23375 15.9789 8.46691 15.9789 8.71002C15.9789 8.95314 16.0755 9.18629 16.2474 9.3582C16.4193 9.53011 16.6525 9.62669 16.8956 9.62669C17.1387 9.62669 17.3719 9.53011 17.5438 9.3582C17.7157 9.18629 17.8123 8.95314 17.8123 8.71002C17.8123 8.46691 17.7157 8.23375 17.5438 8.06184C17.3719 7.88993 17.1387 7.79336 16.8956 7.79336ZM13.2289 7.79336C12.9858 7.79336 12.7527 7.88993 12.5807 8.06184C12.4088 8.23375 12.3123 8.46691 12.3123 8.71002C12.3123 8.95314 12.4088 9.18629 12.5807 9.3582C12.7527 9.53011 12.9858 9.62669 13.2289 9.62669C13.472 9.62669 13.7052 9.53011 13.8771 9.3582C14.049 9.18629 14.1456 8.95314 14.1456 8.71002C14.1456 8.46691 14.049 8.23375 13.8771 8.06184C13.7052 7.88993 13.472 7.79336 13.2289 7.79336ZM5.89559 11.9184C5.65247 11.9184 5.41932 12.0149 5.24741 12.1868C5.0755 12.3587 4.97892 12.5919 4.97892 12.835C4.97892 13.0781 5.0755 13.3113 5.24741 13.4832C5.41932 13.6551 5.65247 13.7517 5.89559 13.7517C6.1387 13.7517 6.37186 13.6551 6.54377 13.4832C6.71568 13.3113 6.81226 13.0781 6.81226 12.835C6.81226 12.5919 6.71568 12.3587 6.54377 12.1868C6.37186 12.0149 6.1387 11.9184 5.89559 11.9184ZM5.89559 7.79336C5.65247 7.79336 5.41932 7.88993 5.24741 8.06184C5.0755 8.23375 4.97892 8.46691 4.97892 8.71002C4.97892 8.95314 5.0755 9.18629 5.24741 9.3582C5.41932 9.53011 5.65247 9.62669 5.89559 9.62669C6.1387 9.62669 6.37186 9.53011 6.54377 9.3582C6.71568 9.18629 6.81226 8.95314 6.81226 8.71002C6.81226 8.46691 6.71568 8.23375 6.54377 8.06184C6.37186 7.88993 6.1387 7.79336 5.89559 7.79336ZM9.56226 11.9184C9.31914 11.9184 9.08598 12.0149 8.91407 12.1868C8.74217 12.3587 8.64559 12.5919 8.64559 12.835C8.64559 13.0781 8.74217 13.3113 8.91407 13.4832C9.08598 13.6551 9.31914 13.7517 9.56226 13.7517C9.80537 13.7517 10.0385 13.6551 10.2104 13.4832C10.3823 13.3113 10.4789 13.0781 10.4789 12.835C10.4789 12.5919 10.3823 12.3587 10.2104 12.1868C10.0385 12.0149 9.80537 11.9184 9.56226 11.9184ZM9.56226 7.79336C9.31914 7.79336 9.08598 7.88993 8.91407 8.06184C8.74217 8.23375 8.64559 8.46691 8.64559 8.71002C8.64559 8.95314 8.74217 9.18629 8.91407 9.3582C9.08598 9.53011 9.31914 9.62669 9.56226 9.62669C9.80537 9.62669 10.0385 9.53011 10.2104 9.3582C10.3823 9.18629 10.4789 8.95314 10.4789 8.71002C10.4789 8.46691 10.3823 8.23375 10.2104 8.06184C10.0385 7.88993 9.80537 7.79336 9.56226 7.79336ZM9.56226 16.0434C9.31914 16.0434 9.08598 16.1399 8.91407 16.3118C8.74217 16.4837 8.64559 16.7169 8.64559 16.96C8.64559 17.2031 8.74217 17.4363 8.91407 17.6082C9.08598 17.7801 9.31914 17.8767 9.56226 17.8767C9.80537 17.8767 10.0385 17.7801 10.2104 17.6082C10.3823 17.4363 10.4789 17.2031 10.4789 16.96C10.4789 16.7169 10.3823 16.4837 10.2104 16.3118C10.0385 16.1399 9.80537 16.0434 9.56226 16.0434Z" fill="#26234F"/>
</g>
</g>
</svg>
