<svg width="20" height="20" viewBox="0 0 20 20" fill="none" xmlns="http://www.w3.org/2000/svg">
<g id="Frame">
<g id="Group">
<path id="Vector" d="M18.6847 18.4991H1.31531C0.750703 18.4991 0.292969 18.0414 0.292969 17.4767V6.70691H19.707V17.4767C19.707 18.0413 19.2493 18.4991 18.6847 18.4991Z" fill="#F3EAE6"/>
<path id="Vector_2" d="M18.4682 3.1084H1.53184C0.847617 3.1084 0.292969 3.66305 0.292969 4.34727V6.70742H19.707V4.34727C19.707 3.66305 19.1524 3.1084 18.4682 3.1084Z" fill="#62DBFB"/>
<path id="Vector_3" d="M18.5352 6.70691V16.3048C18.5352 16.8694 18.0774 17.3272 17.5128 17.3272H0.292969V17.4767C0.292969 18.0413 0.750703 18.4991 1.31531 18.4991H18.6847C19.2493 18.4991 19.707 18.0413 19.707 17.4767V6.70691H18.5352Z" fill="#EFE2DD"/>
<path id="Vector_4" d="M18.4678 3.1084H17.2959C17.9801 3.1084 18.5348 3.66305 18.5348 4.34727V6.70742H19.7066V4.34727C19.7066 3.66305 19.152 3.1084 18.4678 3.1084Z" fill="#01D0FB"/>
<path id="Vector_5" d="M3.34145 4.64902C2.86918 4.64902 2.48633 4.26617 2.48633 3.79391V2.35805C2.48633 1.88578 2.86918 1.50293 3.34145 1.50293C3.81371 1.50293 4.19656 1.88578 4.19656 2.35805V3.79395C4.19656 4.26621 3.81371 4.64902 3.34145 4.64902ZM6.76789 4.64902C6.29562 4.64902 5.91277 4.26617 5.91277 3.79391V2.35805C5.91277 1.88578 6.29562 1.50293 6.76789 1.50293C7.24016 1.50293 7.62301 1.88578 7.62301 2.35805V3.79395C7.62297 4.26621 7.24016 4.64902 6.76789 4.64902ZM12.9413 4.64902C12.4691 4.64902 12.0862 4.26617 12.0862 3.79391V2.35805C12.0862 1.88578 12.4691 1.50293 12.9413 1.50293C13.4136 1.50293 13.7964 1.88578 13.7964 2.35805V3.79395C13.7964 4.26621 13.4136 4.64902 12.9413 4.64902ZM16.3678 4.64902C15.8955 4.64902 15.5127 4.26617 15.5127 3.79391V2.35805C15.5127 1.88578 15.8955 1.50293 16.3678 1.50293C16.84 1.50293 17.2229 1.88578 17.2229 2.35805V3.79395C17.2228 4.26621 16.84 4.64902 16.3678 4.64902Z" fill="#E1D3CE"/>
<path id="Vector_6" d="M12.8199 12.1563C14.377 10.5991 14.3769 8.07446 12.8197 6.51732C11.2625 4.96017 8.73788 4.96021 7.18076 6.51739C5.62363 8.07457 5.62369 10.5992 7.18088 12.1564C8.73808 13.7135 11.2627 13.7135 12.8199 12.1563Z" fill="#5DE1C4"/>
<path id="Vector_7" d="M12.2904 6.07324C12.6964 6.69777 12.9324 7.44293 12.9324 8.24336C12.9324 10.4455 11.1472 12.2307 8.945 12.2307C8.09242 12.2307 7.3025 11.963 6.6543 11.5072C7.36527 12.601 8.59793 13.3245 9.99969 13.3245C12.2018 13.3245 13.9871 11.5393 13.9871 9.33711C13.9871 7.9875 13.3164 6.79469 12.2904 6.07324Z" fill="#0ED2B3"/>
<path id="Vector_8" d="M3.58863 18.4996H1.31531C0.750703 18.4996 0.292969 18.0419 0.292969 17.4772V6.70742H7.00285M16.8795 6.70742H19.707V17.4772C19.707 18.0418 19.2493 18.4996 18.6847 18.4996H4.95582M13.1502 6.70742H15.5123M5.80102 3.1084H4.36227M11.9316 3.1084H7.62258M15.3861 3.1084H13.9874M3.34105 4.64902C2.86879 4.64902 2.48594 4.26617 2.48594 3.79391V2.35805C2.48594 1.88578 2.86879 1.50293 3.34105 1.50293C3.81332 1.50293 4.19617 1.88578 4.19617 2.35805V3.79395C4.19617 4.26621 3.81332 4.64902 3.34105 4.64902ZM12.9409 4.64902C12.4687 4.64902 12.0858 4.26617 12.0858 3.79391V2.35805C12.0858 1.88578 12.4687 1.50293 12.9409 1.50293C13.4132 1.50293 13.7961 1.88578 13.7961 2.35805V3.79395C13.7961 4.26621 13.4132 4.64902 12.9409 4.64902ZM16.3674 4.64902C15.8951 4.64902 15.5123 4.26617 15.5123 3.79391V2.35805C15.5123 1.88578 15.8951 1.50293 16.3674 1.50293C16.8396 1.50293 17.2225 1.88578 17.2225 2.35805V3.79395C17.2225 4.26621 16.8396 4.64902 16.3674 4.64902Z" stroke="black" stroke-width="0.556641" stroke-miterlimit="10" stroke-linecap="round" stroke-linejoin="round"/>
<path id="Vector_9" d="M19.707 7.09805V4.34727C19.707 3.66305 19.1524 3.1084 18.4682 3.1084H17.4276M2.39859 3.1084H1.5318C0.847617 3.1084 0.292969 3.66305 0.292969 4.34727V7.09805M6.7675 4.64902C6.29523 4.64902 5.91238 4.26617 5.91238 3.79391V2.35805C5.91238 1.88578 6.29523 1.50293 6.7675 1.50293C7.23977 1.50293 7.62262 1.88578 7.62262 2.35805V3.79395C7.62258 4.26621 7.23977 4.64902 6.7675 4.64902Z" stroke="black" stroke-width="0.556641" stroke-miterlimit="10" stroke-linecap="round" stroke-linejoin="round"/>
<path id="Vector_10" d="M12.8199 12.1563C14.377 10.5991 14.3769 8.07446 12.8197 6.51732C11.2625 4.96017 8.73788 4.96021 7.18076 6.51739C5.62363 8.07457 5.62369 10.5992 7.18088 12.1564C8.73808 13.7135 11.2627 13.7135 12.8199 12.1563Z" stroke="black" stroke-width="0.556641" stroke-miterlimit="10" stroke-linecap="round" stroke-linejoin="round"/>
<path id="Vector_11" d="M6.03809 16.5836V14.6618L7.33738 16.5433C7.36148 16.5781 7.38727 16.561 7.38727 16.5187L7.36926 14.6582M13.0922 16.5686L13.4306 14.6936C13.439 14.6497 13.5003 14.6456 13.5145 14.688L14.065 16.5539C14.0784 16.5937 14.1347 16.5934 14.1476 16.5535L14.6793 14.6883C14.6931 14.6458 14.7544 14.6492 14.7633 14.693L15.1218 16.5685M11.772 14.6582V16.5836M17.2259 14.667H16.4221V16.5748H17.2259M17.1667 15.6209H16.4221M9.4948 14.6582H10.5581M10.0243 14.7197V16.5836" stroke="black" stroke-width="0.556641" stroke-miterlimit="10" stroke-linecap="round" stroke-linejoin="round"/>
<path id="Vector_12" d="M3.73613 16.5837C4.26781 16.5837 4.69883 16.1527 4.69883 15.621C4.69883 15.0893 4.26781 14.6583 3.73613 14.6583C3.20445 14.6583 2.77344 15.0893 2.77344 15.621C2.77344 16.1527 3.20445 16.5837 3.73613 16.5837Z" stroke="black" stroke-width="0.556641" stroke-miterlimit="10" stroke-linecap="round" stroke-linejoin="round"/>
<path id="Vector_13" d="M11.9099 8.30664L9.61805 10.5985L8.56137 9.54184M2.4248 8.76074H4.22867M2.4248 10.0014H4.22867M15.7701 8.76074H17.5739M15.7701 10.0014H17.5739" stroke="black" stroke-width="0.556641" stroke-miterlimit="10" stroke-linecap="round" stroke-linejoin="round"/>
</g>
</g>
</svg>
