<svg width="32" height="32" viewBox="0 0 32 32" fill="none" xmlns="http://www.w3.org/2000/svg">
<g clip-path="url(#clip0_187_569)">
<path d="M31.3594 24.5622L26.9973 20.2153C26.1356 19.3688 24.7553 19.3688 23.8936 20.2153L21.1253 23.0522C20.8432 23.2962 20.4314 23.2962 20.1492 23.0522C18.0978 21.4126 16.1303 19.6739 14.2619 17.8284C12.3936 15.9753 10.6396 14.023 8.99236 11.9716C8.73308 11.6971 8.73308 11.27 8.99236 10.9955L11.8902 8.16625C12.7367 7.28926 12.7367 5.90133 11.8902 5.02434L7.52817 0.662262C6.64356 -0.161346 5.27087 -0.161346 4.38626 0.662262L0.802039 4.26173C0.802039 4.26173 0.641893 4.41425 0.588511 4.47526C-1.43238 6.90033 1.79342 14.595 9.61769 22.3735C15.3143 28.1006 21.7507 31.9365 25.5942 31.9365C26.2347 31.9975 26.9058 31.9212 27.4397 31.5628C27.5464 31.4866 27.8438 31.2197 27.8438 31.2197L31.3594 27.6888C32.2135 26.8195 32.2135 25.4315 31.3594 24.5622Z" fill="#26234F"/>
</g>
<defs>
<clipPath id="clip0_187_569">
<rect width="32" height="32" fill="white"/>
</clipPath>
</defs>
</svg>
