<svg width="92" height="92" viewBox="0 0 92 92" fill="none" xmlns="http://www.w3.org/2000/svg">
<path d="M34.4088 59.6297H34.4353C34.6457 59.6315 34.8487 59.5523 35.0023 59.4085C35.1559 59.2648 35.2484 59.0675 35.2605 58.8574L35.3274 57.9123C28.2156 57.1234 20.896 55.1496 20.6813 55.1022L22.9855 45.0491C22.1603 45.24 17.9799 45.4896 15.0498 45.063L16.1148 58.8574C16.1269 59.0675 16.2194 59.2648 16.373 59.4085C16.5266 59.5523 16.7296 59.6315 16.94 59.6297H16.9637L14.1577 86.1926C14.0578 87.2403 14.3755 88.2851 15.0416 89.1C15.7077 89.9149 16.6684 90.434 17.7151 90.5446C18.7618 90.6551 19.8098 90.3482 20.6314 89.6904C21.453 89.0326 21.9819 88.0772 22.1031 87.0317C23.051 77.9739 24.9551 60.342 24.9551 59.6311H26.3951C26.3951 59.9266 26.2696 58.5814 29.2708 87.0331C29.3849 88.0859 29.9111 89.0507 30.7344 89.7167C31.5577 90.3828 32.6111 90.6959 33.6645 90.5877C34.718 90.4753 35.6839 89.9496 36.3503 89.1259C37.0167 88.3022 37.3291 87.2477 37.219 86.194L34.4088 59.6297Z" fill="#26234F"/>
<path d="M25.6851 16.9223C29.9732 16.9223 33.4494 13.4461 33.4494 9.15804C33.4494 4.86997 29.9732 1.3938 25.6851 1.3938C21.3971 1.3938 17.9209 4.86997 17.9209 9.15804C17.9209 13.4461 21.3971 16.9223 25.6851 16.9223Z" fill="#26234F"/>
<path d="M75.4134 59.6297H75.433C75.6442 59.6297 75.8477 59.5503 76.0032 59.4072C76.1586 59.2642 76.2546 59.0679 76.2721 58.8574L77.3245 45.063C75.4483 45.3362 73.8383 45.2902 73.1971 45.3027L75.4344 55.1021C75.295 55.13 65.6573 57.7116 57.0734 58.2845L57.1138 58.8574C57.1283 59.0666 57.2214 59.2626 57.3745 59.4059C57.5276 59.5491 57.7293 59.6291 57.939 59.6297H57.9655L55.1553 86.194C55.0456 87.2477 55.3582 88.3019 56.0245 89.1255C56.6908 89.9491 57.6565 90.4749 58.7099 90.5877C60.9708 90.794 62.8805 89.1881 63.1036 87.0331C66.1145 58.488 65.9793 59.9321 65.9793 59.6311H67.4164C67.4136 60.2653 67.546 61.0138 70.274 87.0317C70.3952 88.0772 70.9241 89.0326 71.7457 89.6904C72.5674 90.3481 73.6154 90.6551 74.662 90.5445C75.7087 90.434 76.6695 89.9149 77.3356 89.1C78.0017 88.2851 78.3193 87.2403 78.2194 86.1926L75.4134 59.6297Z" fill="#26234F"/>
<path d="M66.6881 16.9223C70.9761 16.9223 74.4523 13.4461 74.4523 9.15804C74.4523 4.86997 70.9761 1.3938 66.6881 1.3938C62.4 1.3938 58.9238 4.86997 58.9238 9.15804C58.9238 13.4461 62.4 16.9223 66.6881 16.9223Z" fill="#26234F"/>
<path d="M71.8111 45.2484C71.1802 45.2236 70.55 45.1836 69.9209 45.1285C69.3972 45.0879 68.8865 44.9443 68.4183 44.7061C67.9501 44.4679 67.5334 44.1397 67.1921 43.7402C66.8508 43.3408 66.5916 42.8781 66.4294 42.3784C66.2671 41.8787 66.205 41.3519 66.2465 40.8282C66.3929 38.8182 68.0168 37.2862 69.9614 37.1538L67.6446 27.0073C54.7884 30.253 41.327 30.253 28.4708 27.0073L25.6745 39.2573C25.9268 39.7368 26.0871 40.2553 26.1275 40.8282C26.1778 41.5077 26.0552 42.1888 25.7712 42.8081C25.4873 43.4275 25.0512 43.9649 24.5036 44.3702C23.7718 47.6195 23.026 50.8813 22.2803 54.1306C39.2002 58.403 56.9166 58.403 73.8365 54.1306C73.1563 51.1741 72.4774 48.205 71.8111 45.2484Z" fill="#26234F"/>
<path d="M22.3528 43.7962C22.7014 43.7687 23.0412 43.6727 23.3527 43.5138C23.6643 43.355 23.9415 43.1363 24.1685 42.8703C24.3956 42.6043 24.568 42.2962 24.676 41.9636C24.7839 41.6309 24.8253 41.2803 24.7978 40.9317C24.7702 40.583 24.6743 40.2432 24.5154 39.9317C24.3565 39.6201 24.1378 39.3429 23.8718 39.1159C23.6059 38.8889 23.2977 38.7164 22.9651 38.6085C22.6325 38.5005 22.2818 38.4591 21.9332 38.4867C15.4305 39.0024 12.5004 37.9096 11.9219 36.7164C11.2779 35.3921 12.3666 32.8078 13.9278 30.3684L14.4227 36.7917C15.6075 37.1638 17.8183 37.4705 21.8259 37.1513C22.8195 37.0732 23.8067 37.3674 24.5956 37.9765L27.4713 25.3809C28.4499 25.5955 33.6088 27.1595 41.026 27.7771C39.8816 25.1146 38.9351 23.6357 38.8291 23.4767C29.5734 9.59589 0.052537 24.4441 7.12817 39.0373C9.54805 44.0332 16.8453 44.2339 22.3528 43.7962ZM79.5768 23.1199C72.5318 15.5187 57.4229 17.657 53.5436 23.4781C53.4376 23.6384 52.4256 25.222 51.2394 28.0447C55.339 27.9039 60.4338 27.2836 65.2875 26.1935L65.5538 23.145H68.4169L68.6037 25.3948L71.347 37.2182C74.8625 37.4315 76.86 37.1387 77.964 36.7917L78.4533 30.3642C80.0145 32.798 81.1004 35.3824 80.455 36.7136C79.8751 37.9068 76.9367 38.9983 70.4423 38.4853C70.0937 38.4577 69.743 38.4991 69.4104 38.6071C69.0778 38.7151 68.7697 38.8875 68.5037 39.1145C68.2377 39.3416 68.019 39.6188 67.8601 39.9303C67.7013 40.2418 67.6053 40.5816 67.5778 40.9303C67.5502 41.2789 67.5916 41.6295 67.6996 41.9622C67.8075 42.2948 67.9799 42.6029 68.207 42.8689C68.434 43.1349 68.7112 43.3536 69.0228 43.5124C69.3343 43.6713 69.6741 43.7673 70.0227 43.7948C75.5316 44.2311 82.8275 44.029 85.2473 39.0373C88.2122 32.9207 81.0432 24.7048 79.5768 23.1199ZM68.3096 22.4271H65.6597L64.8205 19.9236C66.2716 19.3772 67.7227 19.3772 69.1752 19.9501L68.3096 22.4271Z" fill="#26234F"/>
</svg>
