<svg width="28" height="28" viewBox="0 0 28 28" fill="none" xmlns="http://www.w3.org/2000/svg">
<g id="Frame" clip-path="url(#clip0_126_927)">
<g id="Group">
<path id="Vector" d="M23.1137 14.7578C23.6741 14.7578 24.2115 14.9804 24.6077 15.3767C25.004 15.7729 25.2266 16.3103 25.2266 16.8707C25.2266 16.9606 25.2192 17.0492 25.2079 17.1361C25.0769 18.1775 24.1905 18.983 23.114 18.983C22.585 18.9828 22.0754 18.7842 21.6858 18.4264C21.2962 18.0686 21.055 17.5776 21.0099 17.0506C21.0051 16.9915 21.0011 16.9312 21.0011 16.8704C21.0011 16.593 21.0557 16.3182 21.1618 16.0619C21.268 15.8056 21.4236 15.5727 21.6198 15.3765C21.816 15.1803 22.0489 15.0247 22.3052 14.9185C22.5615 14.8124 22.8363 14.7578 23.1137 14.7578ZM24.1713 16.0745L23.7407 16.5054C23.7746 16.5635 23.8004 16.6259 23.8173 16.691H24.4245C24.3934 16.4613 24.3054 16.2514 24.1713 16.0745ZM24.4273 17.0568H23.8153C23.7981 17.1219 23.7726 17.1836 23.7387 17.2402L24.1704 17.6716C24.3071 17.492 24.3956 17.2803 24.4273 17.0568ZM23.2965 18.1832C23.5191 18.1521 23.7301 18.0645 23.9093 17.9288L23.4798 17.4991C23.4232 17.5322 23.3613 17.5565 23.2965 17.5735V18.1832ZM23.2965 16.1679C23.362 16.1851 23.4248 16.2113 23.4832 16.2457L23.9135 15.8154C23.7333 15.6785 23.5207 15.5906 23.2965 15.5602V16.1679ZM22.9306 15.5596C22.7064 15.5903 22.4939 15.6783 22.3136 15.8151L22.7436 16.2454C22.802 16.211 22.8648 16.1848 22.9304 16.1676L22.9306 15.5596ZM22.9306 18.1826V17.5737C22.8665 17.5574 22.8049 17.5322 22.7476 17.4991L22.3178 17.9288C22.4971 18.0643 22.7081 18.1517 22.9306 18.1826ZM22.0558 17.6736L22.489 17.2399C22.4551 17.183 22.4276 17.1222 22.4104 17.0571H21.8032C21.8332 17.2809 21.9202 17.4931 22.0558 17.6736ZM22.4095 16.691C22.4265 16.626 22.4523 16.5635 22.4862 16.5054L22.055 16.0745C21.9217 16.2514 21.8338 16.4613 21.8021 16.6913H22.4095V16.691ZM5.56995 14.7578C5.84742 14.7578 6.12216 14.8125 6.37851 14.9186C6.63485 15.0248 6.86777 15.1805 7.06397 15.3767C7.26017 15.5729 7.4158 15.8058 7.52198 16.0621C7.62816 16.3185 7.68281 16.5932 7.68281 16.8707C7.68281 16.9606 7.67546 17.0492 7.66414 17.1361C7.53315 18.1775 6.64675 18.983 5.57051 18.983C4.46485 18.983 3.55837 18.1331 3.46614 17.0506C3.46133 16.9915 3.45737 16.9312 3.45737 16.8704C3.45729 16.5929 3.51188 16.3182 3.61802 16.0619C3.72417 15.8055 3.87978 15.5726 4.07596 15.3764C4.27215 15.1802 4.50507 15.0246 4.76141 14.9185C5.01776 14.8123 5.2925 14.7577 5.56995 14.7578ZM6.62751 16.0745L6.19719 16.5054C6.23118 16.5635 6.25698 16.6259 6.27386 16.691H6.88101C6.85116 16.4671 6.76383 16.2547 6.62751 16.0745ZM6.88328 17.0568H6.27131C6.25406 17.1219 6.22859 17.1836 6.19464 17.2402L6.6261 17.6716C6.76336 17.4923 6.85195 17.2805 6.88328 17.0568ZM5.75272 18.1832C5.97536 18.1521 6.18633 18.0645 6.36553 17.9288L5.93605 17.4991C5.87947 17.5322 5.81751 17.5565 5.75272 17.5735V18.1832ZM5.75272 16.1679C5.81825 16.1851 5.88109 16.2113 5.93945 16.2457L6.36977 15.8154C6.18955 15.6785 5.97697 15.5906 5.75272 15.5602V16.1679ZM5.38662 15.5596C5.16237 15.5903 4.94983 15.6783 4.76956 15.8151L5.19989 16.2454C5.25812 16.2108 5.321 16.1846 5.38662 16.1676V15.5596ZM5.38662 18.1826V17.5737C5.32246 17.5574 5.26086 17.5322 5.20356 17.4991L4.77381 17.9288C4.9531 18.0643 5.16405 18.1516 5.38662 18.1826ZM4.5121 17.6736L4.94526 17.2405C4.91131 17.1833 4.88358 17.1228 4.8666 17.0574H4.25945C4.28942 17.2811 4.37643 17.4933 4.5121 17.6736ZM4.86575 16.691C4.88263 16.6259 4.90843 16.5635 4.94243 16.5054L4.51154 16.0745C4.378 16.2514 4.29029 16.4613 4.25832 16.6913H4.86575V16.691Z" fill="#0062E3"/>
<path id="Vector_2" d="M0.496208 13.6633V12.0999C0.496208 11.8484 0.678978 11.6353 0.927383 11.5966C1.5235 11.5032 2.58022 11.3269 3.05496 11.1807C3.73567 10.9707 6.36572 9.85715 7.27645 9.64807C8.18746 9.43899 12.2949 8.32258 16.229 9.68627C16.8947 9.91685 19.8894 11.3484 21.6503 12.0928C22.1689 12.1041 27.302 13.1741 27.5753 13.9075C27.8486 14.6411 27.9343 14.997 27.9847 15.1832C28.035 15.3693 27.9847 16.2603 27.6033 16.8807C27.2146 17.1005 26.4662 17.2482 25.6011 17.3472C25.611 17.2943 25.6217 17.2423 25.6285 17.1888C25.6428 17.0833 25.6502 16.977 25.6506 16.8705C25.6506 15.4715 24.5127 14.333 23.1133 14.333C21.714 14.333 20.5761 15.4712 20.5761 16.8705C20.5761 16.9424 20.5809 17.0137 20.5863 17.0838C20.5994 17.2382 20.6271 17.391 20.6689 17.5402H20.6621L8.0675 17.2867C8.07316 17.2542 8.08052 17.2219 8.08476 17.1888C8.0991 17.0833 8.10647 16.977 8.10683 16.8705C8.10683 15.4715 6.96891 14.3333 5.56958 14.3333C4.17024 14.3333 3.03205 15.4712 3.03205 16.8705C3.03205 16.8759 3.03261 16.8804 3.03289 16.8855L2.97914 16.881L0.825813 16.4756C0.825813 16.4756 0.00109482 16.0365 0.00109482 14.8284C0.000810623 14.0226 0.496208 13.6633 0.496208 13.6633ZM12.9898 12.1811L17.6934 12.3251C17.6068 11.6203 18.0241 11.4622 18.0241 11.4622C16.1543 9.76492 12.3857 9.70749 12.3857 9.70749L12.9898 12.1811ZM7.71102 11.9658L11.9973 12.1098L11.6088 9.70777C9.39356 9.67891 8.12805 10.1678 8.12805 10.1678L7.49515 11.1892L7.71102 11.9658ZM5.29458 11.9511H6.48879L7.68273 10.3115C6.9879 10.5876 6.3072 10.898 5.64314 11.2415C5.51687 11.307 5.41491 11.4113 5.35219 11.539C5.28946 11.6667 5.26928 11.8111 5.29458 11.9511Z" fill="#0062E3"/>
</g>
</g>
<defs>
<clipPath id="clip0_126_927">
<rect width="28" height="28" fill="white" transform="matrix(-1 0 0 1 28 0)"/>
</clipPath>
</defs>
</svg>
