<svg xmlns="http://www.w3.org/2000/svg" width="16" height="16" viewBox="0 0 16 16" fill="none">
  <g clip-path="url(#clip0_1558_50)">
    <path d="M2.87996 13.472C3.03996 13.472 3.07196 13.456 3.21596 13.424L6.09596 12.848C6.39996 12.768 6.70396 12.624 6.94396 12.384L13.92 5.408C14.992 4.336 14.992 2.496 13.92 1.424L13.328 0.800002C12.256 -0.271998 10.4 -0.271998 9.32796 0.800002L2.35196 7.792C2.12796 8.016 1.96796 8.336 1.88796 8.64L1.27996 11.552C1.19996 12.096 1.35996 12.624 1.74396 13.008C2.04796 13.312 2.49596 13.472 2.87996 13.472ZM3.42396 8.944L10.4 1.952C10.864 1.488 11.712 1.488 12.16 1.952L12.768 2.56C13.312 3.104 13.312 3.872 12.768 4.4L5.80796 11.392L2.84796 11.888L3.42396 8.944ZM13.856 14.464H2.04796C1.58396 14.464 1.27996 14.768 1.27996 15.232C1.27996 15.696 1.66396 16 2.04796 16H13.792C14.256 16 14.64 15.696 14.64 15.232C14.624 14.768 14.24 14.464 13.856 14.464Z" fill="#BDC5D5"/>
  </g>
  <defs>
    <clipPath id="clip0_1558_50">
      <rect width="16" height="16" fill="white"/>
    </clipPath>
  </defs>
</svg>