<svg width="24" height="24" viewBox="0 0 24 24" fill="none" xmlns="http://www.w3.org/2000/svg">
<g id="Frame" clip-path="url(#clip0_187_564)">
<g id="Group">
<path id="Vector" d="M14.8212 4.03103L1.61616 17.2371C1.54966 17.3038 1.50227 17.3871 1.47893 17.4783L0.0152266 23.3531C-0.00630081 23.4403 -0.00498154 23.5316 0.0190569 23.6181C0.0430954 23.7046 0.0890408 23.7835 0.152455 23.8471C0.249859 23.9442 0.381739 23.9987 0.519258 23.9988C0.561681 23.9988 0.603941 23.9936 0.645083 23.9832L6.51993 22.5193C6.61128 22.4964 6.69466 22.449 6.76115 22.3823L19.9674 9.17715L14.8212 4.03103ZM23.2389 2.2304L21.7689 0.760505C20.7865 -0.221925 19.0742 -0.220951 18.0929 0.760505L16.2923 2.56114L21.4383 7.70706L23.2389 5.90647C23.7296 5.41594 23.9999 4.76298 23.9999 4.06856C23.9999 3.37413 23.7296 2.72117 23.2389 2.2304Z" fill="#B9B9B9"/>
</g>
</g>
<defs>
<clipPath id="clip0_187_564">
<rect width="24" height="24" fill="white"/>
</clipPath>
</defs>
</svg>
