<svg width="52" height="52" viewBox="0 0 52 52" fill="none" xmlns="http://www.w3.org/2000/svg">
<g id="Frame" clip-path="url(#clip0_837_1026)">
<g id="Group">
<g id="Group_2">
<path id="Vector" fill-rule="evenodd" clip-rule="evenodd" d="M42.3932 27.218L51.4922 22.5688C51.4922 21.2441 50.8352 20.1317 49.8306 19.4033L42.3932 13.834L37.8257 20.5244L42.3932 27.218ZM8.48088 26.8494L15.0094 21.0251L8.48088 13.834L2.4768 18.7471C2.15587 19.0105 1.82295 19.2715 1.5079 19.5381C0.647563 20.2697 0.101562 21.3579 0.101562 22.5688L8.48088 26.8494Z" fill="#E6A235"/>
<path id="Vector_2" fill-rule="evenodd" clip-rule="evenodd" d="M35.5407 0H10.2892C9.29346 0 8.48096 0.8125 8.48096 1.80477V31.6852L19.172 37.1469L20.7617 37.959C25.6049 40.3422 25.797 40.5341 30.835 37.959L32.2807 37.2186L42.3933 32.0509V8.1833C42.3933 7.75806 42.3933 7.40096 42.3754 7.09231L35.5407 0Z" fill="#ECEFF1"/>
<path id="Vector_3" fill-rule="evenodd" clip-rule="evenodd" d="M0.99227 50.5255L14.9555 44.1914L19.1724 32.315L8.48088 26.85L0.101567 22.5694V48.0223C0.100251 48.9346 0.414995 49.8191 0.99227 50.5255ZM32.2806 32.3868L35.6214 44.1914L50.5028 50.6422C51.1172 49.9408 51.4922 49.0235 51.4922 48.0226V22.5693L42.3932 27.2186L32.2806 32.3868Z" fill="#FFDDA6"/>
<path id="Vector_4" fill-rule="evenodd" clip-rule="evenodd" d="M19.1722 32.3145L10.6398 40.8603L0.992188 50.525C1.72415 51.424 2.83961 51.9997 4.08111 51.9997H47.5125C48.6999 51.9997 49.7707 51.4721 50.5023 50.6417L32.2805 32.3863L30.8353 33.1265C25.7968 35.7017 25.6048 35.5065 20.7615 33.1265L19.1722 32.3145Z" fill="#FCC368"/>
<path id="Vector_5" fill-rule="evenodd" clip-rule="evenodd" d="M8.48106 26.85L19.1725 32.3149L20.7618 33.127C25.605 35.5073 25.7971 35.7021 30.8355 33.127L32.2807 32.3866L42.3934 27.2189V22.941L32.2808 28.112L30.8356 28.8495C25.7971 31.4246 25.6051 31.2327 20.7618 28.8495L19.1724 28.0401L8.48096 22.5752L8.48106 26.85Z" fill="#C4CCCF"/>
<path id="Vector_6" fill-rule="evenodd" clip-rule="evenodd" d="M47.4403 24.6406V43.9605C47.4403 44.9619 47.0656 45.879 46.4478 46.5805L50.5023 50.6422C51.1173 49.9408 51.4922 49.0235 51.4922 48.0222V22.5693L47.4403 24.6406Z" fill="#FCC368"/>
<path id="Vector_7" fill-rule="evenodd" clip-rule="evenodd" d="M50.5027 50.6418L46.4481 46.5801C45.8601 47.2514 45.0504 47.725 44.1355 47.8809C43.9166 47.9202 43.6889 47.9408 43.4612 47.9408H3.57452L0.992188 50.5251C1.72415 51.4241 2.83961 51.9998 4.08111 51.9998H47.5125C48.6999 51.9998 49.7707 51.4721 50.5027 50.6418Z" fill="#E6A235"/>
<path id="Vector_8" fill-rule="evenodd" clip-rule="evenodd" d="M0.101567 48.0224C0.100162 48.9346 0.414921 49.8191 0.99227 50.5254L3.5745 47.9414H0.101567V48.0224Z" fill="#FCC368"/>
<path id="Vector_9" fill-rule="evenodd" clip-rule="evenodd" d="M35.5347 5.28206C35.5347 6.27707 36.3476 7.09231 37.343 7.09231H42.3754C42.3155 5.93227 42.0576 5.41054 40.9568 4.21759L38.6086 1.66664C37.4152 0.368672 37.3068 0 35.5407 0L35.5347 5.28206Z" fill="#90A4AE"/>
</g>
<path id="Vector_10" d="M34.7822 14.9362H23.131C22.6938 14.9362 22.3398 14.5823 22.3398 14.1455C22.3398 13.7087 22.6938 13.3544 23.131 13.3544H34.7822C35.2189 13.3544 35.5732 13.7087 35.5732 14.1456C35.5732 14.5825 35.219 14.9362 34.7821 14.9362H34.7822ZM38.1107 11.6901H23.131C23.0271 11.6902 22.9242 11.6697 22.8282 11.63C22.7322 11.5902 22.645 11.532 22.5715 11.4585C22.4981 11.385 22.4398 11.2978 22.4 11.2018C22.3603 11.1058 22.3398 11.003 22.3398 10.8991C22.3398 10.4623 22.6938 10.1084 23.131 10.1084H38.1107C38.2145 10.1083 38.3174 10.1287 38.4134 10.1684C38.5094 10.2081 38.5966 10.2664 38.6701 10.3398C38.7436 10.4132 38.8018 10.5004 38.8416 10.5964C38.8814 10.6923 38.9018 10.7952 38.9018 10.8991C38.9018 11.3359 38.5479 11.6901 38.1107 11.6901Z" fill="#35505C"/>
<path id="Vector_11" d="M15.0961 15.0597C14.9002 15.0597 14.7112 14.9871 14.5657 14.8559L13.0693 13.5041C12.9922 13.4345 12.9296 13.3503 12.885 13.2565C12.8405 13.1626 12.8148 13.0609 12.8096 12.9572C12.8044 12.8534 12.8196 12.7497 12.8545 12.6518C12.8894 12.554 12.9432 12.4639 13.0129 12.3869C13.1536 12.2313 13.3503 12.1378 13.5598 12.1272C13.7693 12.1166 13.9744 12.1896 14.1301 12.3302L15.0378 13.1503L18.1362 9.7027C18.2766 9.54672 18.4731 9.4528 18.6826 9.44157C18.8922 9.43033 19.0976 9.5027 19.2538 9.64278C19.3311 9.71219 19.3939 9.79614 19.4387 9.88984C19.4835 9.98353 19.5094 10.0851 19.5149 10.1888C19.5205 10.2926 19.5055 10.3963 19.4709 10.4943C19.4363 10.5922 19.3828 10.6823 19.3133 10.7596L15.6849 14.7975C15.6153 14.8749 15.5311 14.9378 15.4372 14.9827C15.3432 15.0276 15.2414 15.0535 15.1374 15.059C15.1235 15.0597 15.11 15.0597 15.0962 15.0597H15.0961Z" fill="#8BC34A"/>
<path id="Vector_12" d="M34.7822 22.3379H23.131C22.6938 22.3379 22.3398 21.9841 22.3398 21.5473C22.3398 21.1105 22.6938 20.7562 23.131 20.7562H34.7822C35.2189 20.7562 35.5732 21.1105 35.5732 21.5474C35.5732 21.9843 35.219 22.3379 34.7821 22.3379H34.7822ZM38.1107 19.0916H23.131C23.0271 19.0917 22.9243 19.0713 22.8283 19.0316C22.7323 18.9918 22.645 18.9336 22.5716 18.8602C22.4981 18.7867 22.4398 18.6995 22.4 18.6036C22.3603 18.5076 22.3398 18.4047 22.3398 18.3008C22.3398 17.8641 22.6938 17.5098 23.131 17.5098H38.1107C38.2146 17.5097 38.3175 17.5302 38.4135 17.5699C38.5095 17.6097 38.5967 17.668 38.6702 17.7414C38.7436 17.8149 38.8019 17.9021 38.8417 17.9981C38.8814 18.0941 38.9019 18.197 38.9018 18.3009C38.9018 18.7377 38.5479 19.0916 38.1107 19.0916Z" fill="#35505C"/>
<path id="Vector_13" d="M15.0965 22.4603C14.9009 22.4603 14.7122 22.3878 14.5669 22.2568L13.0704 20.908C12.9146 20.7675 12.821 20.5709 12.8101 20.3614C12.7993 20.1519 12.8721 19.9467 13.0125 19.7908C13.1532 19.6352 13.3499 19.5417 13.5594 19.5309C13.7689 19.5201 13.9742 19.5928 14.1301 19.7332L15.0379 20.5512L18.1371 17.1029C18.2774 16.947 18.4739 16.8531 18.6833 16.8419C18.8928 16.8308 19.0981 16.9032 19.2542 17.0434C19.3315 17.1127 19.3944 17.1967 19.4392 17.2904C19.4841 17.384 19.51 17.4856 19.5156 17.5893C19.5211 17.693 19.5062 17.7968 19.4716 17.8948C19.4371 17.9927 19.3836 18.0829 19.3142 18.1601L15.6853 22.1981C15.611 22.2806 15.5202 22.3465 15.4188 22.3917C15.3174 22.4369 15.2076 22.4603 15.0966 22.4603H15.0965Z" fill="#8BC34A"/>
</g>
</g>
<defs>
<clipPath id="clip0_837_1026">
<rect width="52" height="52" fill="white"/>
</clipPath>
</defs>
</svg>
