<svg width="24" height="24" viewBox="0 0 24 24" fill="none" xmlns="http://www.w3.org/2000/svg">
<g id="Frame" clip-path="url(#clip0_1_1616)">
<g id="Group">
<path id="Vector" d="M4.40025 20H23.6002C23.8402 20 24.0002 19.84 24.0002 19.6V0.399984C24.0002 0.159984 23.8402 0 23.6002 0H4.4002C4.1602 0 4.00022 0.159984 4.00022 0.399984V19.6C4.00022 19.84 4.16025 20 4.40025 20ZM4.80023 13.6H8.80022C8.6002 15.72 6.9202 17.4 4.80023 17.6V13.6ZM4.80023 0.800016H11.2002V3.20002H10.8002C10.5602 3.20002 10.4002 3.36 10.4002 3.6C10.4002 3.84 10.5602 3.99998 10.8002 3.99998H12.4002C12.6402 3.99998 12.8002 3.84 12.8002 3.6C12.8002 3.36 12.6402 3.20002 12.4002 3.20002H12.0002V0.800016H15.6002V5.20003C15.6002 5.44003 15.7602 5.60002 16.0002 5.60002H17.6002V6C17.6002 6.24 17.7602 6.39998 18.0002 6.39998C18.2402 6.39998 18.4002 6.24 18.4002 6V4.40002C18.4002 4.16002 18.2402 4.00003 18.0002 4.00003C17.7602 4.00003 17.6002 4.16002 17.6002 4.40002V4.8H16.4002V0.800016H23.2002V4.8H21.6002V4.40002C21.6002 4.16002 21.4402 4.00003 21.2002 4.00003C20.9602 4.00003 20.8003 4.16002 20.8003 4.40002V6C20.8003 6.24 20.9602 6.39998 21.2002 6.39998C21.4402 6.39998 21.6002 6.24 21.6002 6V5.60002H23.2002V12H20.8002V11.6C20.8002 11.36 20.6402 11.2 20.4002 11.2C20.1602 11.2 20.0002 11.36 20.0002 11.6V13.2C20.0002 13.44 20.1602 13.6 20.4002 13.6C20.6402 13.6 20.8002 13.44 20.8002 13.2V12.8H23.2002V19.2H14.4002V12.8H16.8002V13.2C16.8002 13.44 16.9602 13.6 17.2002 13.6C17.4402 13.6 17.6002 13.44 17.6002 13.2V11.6C17.6002 11.36 17.4402 11.2 17.2002 11.2C16.9602 11.2 16.8002 11.36 16.8002 11.6V12H14.0002C13.7602 12 13.6003 12.16 13.6003 12.4V19.2H4.80023V18.3849C7.49203 18.1819 9.60023 15.9454 9.60023 13.2C9.60023 12.96 9.44025 12.8 9.20025 12.8H4.80023V10.4H11.6002C11.8402 10.4 12.0002 10.24 12.0002 10V7.2H12.4002C12.6402 7.2 12.8002 7.04002 12.8002 6.80002C12.8002 6.56002 12.6402 6.40003 12.4002 6.40003H10.8002C10.5602 6.40003 10.4002 6.56002 10.4002 6.80002C10.4002 7.04002 10.5602 7.2 10.8002 7.2H11.2002V9.6H4.80023V0.800016ZM3.08025 19.88C3.24023 19.72 3.24023 19.48 3.08025 19.32C2.92026 19.16 2.68026 19.16 2.52023 19.32L2.00025 19.84V1.35998L2.52023 1.88002C2.60025 1.96003 2.68022 2.00002 2.80022 2.00002C2.92022 2.00002 3.00023 1.96003 3.0802 1.88002C3.24019 1.72003 3.24019 1.48003 3.0802 1.32L1.94869 0.188437C1.88329 0.0708281 1.75954 0 1.60022 0C1.44089 0 1.31719 0.0708281 1.25175 0.188437L0.120232 1.32C-0.039752 1.47998 -0.039752 1.71998 0.120232 1.88002C0.280217 2.04005 0.520217 2.04 0.680248 1.88002L1.20023 1.35998V19.84L0.680248 19.32C0.520264 19.16 0.280264 19.16 0.120232 19.32C-0.039752 19.48 -0.039752 19.72 0.120232 19.88L1.25179 21.0116C1.31719 21.1292 1.44089 21.2 1.60026 21.2C1.75959 21.2 1.88329 21.1292 1.94869 21.0116L3.08025 19.88ZM24.0002 22.4003V22.3996C24.0001 22.2405 23.9294 22.1169 23.8118 22.0515L22.6802 20.9199C22.5202 20.76 22.2802 20.76 22.1202 20.9199C21.9602 21.0799 21.9602 21.3199 22.1202 21.48L22.6402 21.9999H4.16025L4.68023 21.48C4.84022 21.32 4.84022 21.08 4.68023 20.92C4.52025 20.76 4.28025 20.76 4.12022 20.92L2.98865 22.0515C2.87104 22.1169 2.80022 22.2406 2.80022 22.4C2.80022 22.5594 2.87104 22.683 2.98865 22.7485L4.12022 23.88C4.20023 23.9601 4.2802 24 4.4002 24C4.5202 24 4.60022 23.9601 4.68019 23.88C4.84017 23.7201 4.84017 23.4801 4.68019 23.32L4.16025 22.8H22.6402L22.1203 23.32C21.9603 23.48 21.9603 23.72 22.1203 23.88C22.2003 23.96 22.2802 24 22.4002 24C22.5202 24 22.6003 23.96 22.6802 23.88L23.8118 22.7484C23.9293 22.6831 24.0001 22.5595 24.0002 22.4003Z" fill="#26234F"/>
</g>
</g>
<defs>
<clipPath id="clip0_1_1616">
<rect width="24" height="24" fill="white"/>
</clipPath>
</defs>
</svg>
