<svg xmlns="http://www.w3.org/2000/svg" width="26" height="26" viewBox="0 0 26 26" fill="none">
  <g clip-path="url(#clip0_126_1030)">
    <path d="M23.6556 21.1116H22.228C22.2277 21.1116 22.2274 21.1115 22.2272 21.1114C22.2269 21.1113 22.2267 21.1111 22.2265 21.1108C22.2264 21.1106 22.2263 21.1103 22.2262 21.11C22.2262 21.1097 22.2262 21.1094 22.2263 21.1092L23.1079 18.7373C23.1207 18.7026 23.1338 18.6684 23.1467 18.6347C23.2516 18.3601 23.3707 18.0487 23.2356 17.7519C23.1555 17.576 23.0048 17.4465 22.7875 17.3668L21.3947 16.8561C21.393 16.8555 21.3914 16.8551 21.3897 16.8545C21.3878 16.8538 21.386 16.8529 21.384 16.8523L19.1125 16.0949C19.0888 16.0873 19.0656 16.0784 19.043 16.0681C19.0425 16.0679 19.0423 16.0676 19.0422 16.0671C19.0309 16.0293 19.0168 15.9558 19.0059 15.899L18.4493 13.0287V13.028L18.8653 10.9328C18.8653 10.9325 18.8654 10.9323 18.8656 10.9321C18.8658 10.9319 18.8659 10.9317 18.8662 10.9316C18.8664 10.9314 18.8667 10.9314 18.8669 10.9313C18.8672 10.9313 18.8674 10.9313 18.8677 10.9314L19.1982 11.0441C19.1986 11.0442 19.1989 11.0445 19.1991 11.0448C19.1993 11.0451 19.1994 11.0455 19.1994 11.0458V12.5996C19.1994 13.3548 19.809 13.9708 20.5571 13.9729H20.5642C20.9257 13.9729 21.2808 13.8257 21.5395 13.5684C21.7991 13.3101 21.9422 12.9691 21.9422 12.6082V10.027C21.9422 10.022 21.9421 10.017 21.9419 10.0119C21.9197 9.45166 21.5474 8.95258 21.0146 8.76982L18.4694 7.90329C18.469 7.90318 18.4687 7.90294 18.4685 7.90263L17.8436 7.00339C17.8434 7.0032 17.8433 7.00298 17.8433 7.00275C17.8432 7.00252 17.8432 7.00229 17.8433 7.00205C17.8433 7.00182 17.8434 7.0016 17.8435 7.0014C17.8437 7.00121 17.8438 7.00104 17.844 7.00091C18.3174 6.67763 18.6879 6.20694 18.9477 5.59528C18.9512 5.58667 18.9545 5.57793 18.9574 5.56908C18.9578 5.56801 18.9583 5.5671 18.9587 5.56603L18.9595 5.56334L18.9603 5.56095C19.3205 4.46956 19.374 3.46684 19.1147 2.66099C18.8363 1.79542 18.2095 1.16843 17.3025 0.847844C16.8719 0.695144 16.4516 0.69875 16.0065 0.702457C15.375 0.707789 14.6585 0.713832 13.7126 0.243394C13.6243 0.199392 13.5223 0.191435 13.4282 0.221204C13.3341 0.250973 13.2552 0.316138 13.2082 0.402949C12.7628 1.22484 12.8618 1.9957 13.469 2.56999C13.4693 2.57027 13.4695 2.57066 13.4695 2.57108C13.4696 2.5715 13.4695 2.57193 13.4692 2.57227C13.1017 3.09837 12.9022 3.72338 12.9022 4.36988C12.9022 5.4209 13.5153 6.44561 14.4639 7.03554C14.4647 7.03605 14.465 7.03716 14.4644 7.03803L13.4911 8.56263C13.4909 8.56288 13.4907 8.56309 13.4904 8.56324C13.4901 8.56339 13.4898 8.56347 13.4895 8.56349L12.6745 8.56761C12.6742 8.56761 12.6739 8.56753 12.6736 8.56739C12.6734 8.56725 12.6731 8.56704 12.673 8.5668L11.7508 7.22698C11.3231 6.60623 10.4688 6.44841 9.84598 6.87527C9.54165 7.08459 9.33807 7.40116 9.27282 7.76679C9.20853 8.12683 9.28805 8.48768 9.49656 8.78282L10.9344 10.8185L10.9377 10.8233C11.3356 11.3688 11.6839 11.3699 12.1691 11.3714H13.3224C13.3234 11.3714 13.3242 11.3723 13.3242 11.3733L13.3274 12.8669C13.3274 12.8674 13.3272 12.8679 13.3268 12.8682L11.6939 14.4631L11.6936 14.4633C11.2957 14.8526 11.094 15.3215 11.094 15.8571V19.1214C11.094 19.1222 11.0935 19.1229 11.0927 19.1231C10.724 19.2199 10.2815 19.446 9.922 19.82C9.57446 20.1816 9.36554 20.6222 9.30562 21.1101C9.30557 21.1106 9.30536 21.111 9.30503 21.1112C9.30471 21.1115 9.30428 21.1117 9.30384 21.1117H7.69956C7.69908 21.1117 7.69861 21.1115 7.69827 21.1112C7.69793 21.1108 7.69773 21.1103 7.69773 21.1099V20.9528C7.69773 19.5547 6.64021 18.3994 5.28263 18.2418C5.28219 18.2418 5.28179 18.2416 5.2815 18.2413C5.28121 18.2409 5.28105 18.2405 5.28105 18.2401V11.3391C5.28105 11.3378 5.28258 11.3369 5.2838 11.3376L5.98752 11.7368C6.20685 11.8612 6.44943 11.9202 6.69049 11.9202C7.17291 11.9202 7.64939 11.6835 7.92132 11.2597C8.12491 10.9449 8.18853 10.574 8.10058 10.2154C8.01258 9.85669 7.78447 9.55718 7.4583 9.37224L2.15303 6.36289C1.49612 5.99046 0.628019 6.20384 0.217503 6.83901C0.0140736 7.15457 -0.0494537 7.52573 0.0387533 7.88414C0.126859 8.2422 0.354867 8.5412 0.680781 8.726L2.40836 9.70612C2.40864 9.70628 2.40887 9.70651 2.40903 9.70679C2.40919 9.70706 2.40928 9.70738 2.40927 9.7077V13.4496C2.40927 13.6591 2.57071 13.8426 2.78013 13.848C2.83097 13.8493 2.88156 13.8405 2.92892 13.8219C2.97627 13.8034 3.01944 13.7756 3.05587 13.7401C3.0923 13.7046 3.12126 13.6622 3.14103 13.6153C3.1608 13.5685 3.17099 13.5181 3.17099 13.4673V10.1419C3.17099 10.1406 3.17252 10.1396 3.17373 10.1404L4.51857 10.9033C4.51885 10.9035 4.51909 10.9037 4.51925 10.904C4.51941 10.9043 4.51949 10.9046 4.51949 10.9049V18.221C4.51949 18.222 4.51868 18.2228 4.51766 18.2228H3.17277C3.17228 18.2228 3.17182 18.2226 3.17148 18.2223C3.17113 18.2219 3.17094 18.2215 3.17094 18.221V15.3566C3.17094 15.1471 3.00951 14.9636 2.80009 14.9582C2.74925 14.9569 2.69866 14.9657 2.6513 14.9843C2.60394 15.0028 2.56077 15.0306 2.52434 15.0661C2.48791 15.1016 2.45896 15.144 2.43918 15.1909C2.41941 15.2377 2.40922 15.2881 2.40922 15.3389V18.2209C2.40922 18.2219 2.40841 18.2227 2.40739 18.2227H1.09709C0.615425 18.2227 0.224968 18.6132 0.224968 19.0949V24.925C0.224968 25.4064 0.615222 25.7966 1.09658 25.7966H23.6556C24.9483 25.7966 26 24.7458 26 23.4541C26 22.1624 24.9483 21.1116 23.6556 21.1116ZM12.1684 10.6097C11.7336 10.6083 11.7238 10.6083 11.5549 10.3766L10.1187 8.34326C10.0286 8.21569 9.99447 8.05853 10.0227 7.90055C10.0518 7.73703 10.1423 7.59576 10.2771 7.50313C10.5539 7.31336 10.9336 7.38339 11.1235 7.65883L12.1251 9.11417C12.2569 9.30368 12.4035 9.32983 12.5443 9.32983L13.3181 9.32598C13.3191 9.32598 13.3199 9.32679 13.3199 9.3278L13.3226 10.6078C13.3226 10.6089 13.3218 10.6097 13.3208 10.6097H12.1684ZM0.778382 7.70214C0.740804 7.54934 0.768937 7.38938 0.857449 7.25212C0.986027 7.05321 1.21769 6.94098 1.44885 6.94098C1.56255 6.94098 1.67614 6.96815 1.7773 7.02548L7.08267 10.0348L7.08272 10.0348C7.22461 10.1153 7.32343 10.2438 7.36095 10.3969C7.39838 10.5498 7.37035 10.7093 7.28112 10.8473C7.09054 11.1444 6.67018 11.2481 6.36346 11.0743L1.05656 8.06345C0.914628 7.98296 0.815859 7.85469 0.778382 7.70214ZM22.5284 18.0893C22.512 18.1619 22.4672 18.2791 22.4353 18.3629C22.4215 18.3989 22.4074 18.4356 22.3938 18.4724L21.4133 21.1104C21.4132 21.1108 21.4129 21.1111 21.4126 21.1113C21.4123 21.1115 21.4119 21.1116 21.4116 21.1116H21.1838C21.1449 21.1116 21.064 21.1116 20.9662 20.9694C20.7028 20.5863 20.6902 19.7656 20.7675 19.5588L20.7836 19.5185L20.7853 19.5139L21.4837 17.7018C21.4839 17.7014 21.4842 17.701 21.4846 17.7008C21.4851 17.7006 21.4856 17.7006 21.486 17.7008L22.5238 18.0813L22.5284 18.0893ZM18.8717 16.8175L20.763 17.4482C20.7633 17.4483 20.7635 17.4484 20.7637 17.4486C20.7639 17.4487 20.764 17.4489 20.7641 17.4491C20.7642 17.4494 20.7643 17.4496 20.7643 17.4498C20.7643 17.4501 20.7642 17.4503 20.7642 17.4506L20.6082 17.8553L20.2072 18.8959C20.2071 18.8963 20.2067 18.8966 20.2063 18.8968C20.2059 18.897 20.2054 18.8971 20.205 18.8969L16.8433 17.7414C16.6149 17.6628 16.5561 17.583 16.4769 17.4208L15.8289 16.0792C15.8287 16.0788 15.8286 16.0783 15.8288 16.0779C15.8289 16.0775 15.8292 16.0771 15.8296 16.0769C16.4308 15.7506 17.3503 15.2337 17.9314 14.3747C17.9316 14.3744 17.9318 14.3742 17.9322 14.374C17.9325 14.3739 17.9329 14.3738 17.9332 14.3739C17.9336 14.374 17.9339 14.3742 17.9342 14.3744C17.9344 14.3747 17.9346 14.375 17.9346 14.3754L18.2581 16.0435C18.3182 16.3565 18.375 16.6521 18.8717 16.8175ZM17.9741 8.57355C18.026 8.57355 18.0787 8.5803 18.1311 8.59427L18.1402 8.5966L18.1413 8.59686L18.1461 8.59793C18.1519 8.5995 18.1579 8.60173 18.1636 8.60376L18.1694 8.6058L20.7682 9.49056C21.003 9.57115 21.168 9.78961 21.1805 10.0355V12.6082C21.1805 12.7649 21.1172 12.9141 21.0023 13.0283C20.8854 13.1446 20.726 13.2111 20.5634 13.2111H20.5602C20.2299 13.2102 19.9612 12.9359 19.9612 12.5995V10.9454C19.9612 10.9332 19.9619 10.9217 19.9624 10.9111C19.9809 10.5587 19.7692 10.4335 19.6419 10.3904L17.7776 9.75503L17.7773 9.75492C17.6241 9.70277 17.5001 9.59334 17.4282 9.44683C17.3565 9.30094 17.3457 9.13702 17.3978 8.98462C17.4831 8.73432 17.7197 8.57355 17.9741 8.57355ZM13.7374 1.09296C13.7374 1.09271 13.7376 1.09248 13.7377 1.09228C13.7379 1.09208 13.7381 1.09192 13.7384 1.0918C13.7386 1.09169 13.7389 1.09163 13.7391 1.09162C13.7394 1.09161 13.7396 1.09165 13.7399 1.09175C14.6723 1.4753 15.408 1.46925 16.0129 1.46402C16.4053 1.46082 16.744 1.45793 17.0484 1.56579C18.3833 2.03765 18.5894 3.18916 18.4912 4.16117C18.4912 4.16151 18.4911 4.16184 18.4909 4.16211C18.4906 4.16238 18.4904 4.16258 18.49 4.16269C18.4897 4.1628 18.4893 4.16281 18.489 4.16272C18.4887 4.16263 18.4884 4.16244 18.4881 4.16218C18.3836 4.04457 18.2625 3.94274 18.1287 3.85988L18.1283 3.85953C17.7027 3.3411 17.1058 2.87016 16.3196 2.81039C15.6776 2.76174 14.7878 2.57395 14.2162 2.19273L14.2153 2.19218C13.7564 1.888 13.6016 1.5406 13.7374 1.09296ZM13.664 4.36978C13.664 3.88153 13.8145 3.40516 14.0951 3.00554L14.0979 3.00483C14.9322 3.43718 15.9438 3.5458 16.262 3.56992C17.3513 3.65264 18.0009 4.99855 18.1838 5.43532C18.1838 5.43555 18.1839 5.43579 18.1839 5.43604C18.1839 5.43628 18.1838 5.43652 18.1837 5.43674C17.9341 5.95537 17.5808 6.32399 17.1309 6.53382C16.8238 6.67829 16.46 6.75152 16.0498 6.75152C15.7623 6.75152 15.4561 6.68154 15.165 6.54936C14.4178 6.20882 13.664 5.40282 13.664 4.36978ZM15.1593 7.36516C15.1595 7.36482 15.1598 7.36456 15.1602 7.36443C15.1606 7.3643 15.161 7.36431 15.1614 7.36445C15.4562 7.4621 15.7583 7.51329 16.0498 7.51329C16.4484 7.51329 16.8175 7.45621 17.1513 7.34434C17.1517 7.34421 17.1521 7.34421 17.1524 7.34433C17.1528 7.34445 17.1531 7.34468 17.1534 7.345L17.5286 7.88506C17.5288 7.88528 17.5289 7.88554 17.5289 7.88581C17.529 7.88608 17.5289 7.88636 17.5289 7.88662C17.5288 7.88688 17.5286 7.88712 17.5284 7.88731C17.5283 7.88751 17.528 7.88766 17.5278 7.88775C17.1404 8.02176 16.8175 8.32614 16.677 8.73869C16.5592 9.08324 16.5831 9.45405 16.7446 9.7827C16.9063 10.112 17.1859 10.3583 17.5319 10.4761L18.1369 10.6823C18.1374 10.6825 18.1377 10.6828 18.1379 10.6832C18.1381 10.6835 18.1382 10.684 18.1382 10.6844L17.7489 12.6453C17.7488 12.6458 17.7486 12.6461 17.7483 12.6464C17.748 12.6467 17.7476 12.6468 17.7471 12.6468H14.0906C14.0901 12.6468 14.0896 12.6466 14.0893 12.6463C14.089 12.6459 14.0888 12.6455 14.0888 12.645L14.0811 9.0546C14.0811 9.05425 14.0812 9.05391 14.0814 9.05364L15.1593 7.36516ZM11.8558 15.857C11.8558 15.5296 11.977 15.2518 12.2262 15.0079L13.8632 13.409C13.8634 13.4088 13.8636 13.4087 13.8638 13.4086C13.864 13.4085 13.8643 13.4085 13.8645 13.4085H17.5727C17.574 13.4085 17.5749 13.4098 17.5744 13.411C17.1932 14.4719 16.0943 15.0672 15.4058 15.4402C15.3091 15.4926 15.2178 15.5421 15.1422 15.5854L13.9034 16.2776C13.3873 16.5661 13.2927 16.7171 13.3078 17.2288C13.3097 17.2917 13.3118 17.3631 13.3118 17.4488L13.3189 19.0654C13.3189 19.0664 13.318 19.0672 13.317 19.0672H11.8577C11.8572 19.0672 11.8567 19.067 11.8564 19.0667C11.856 19.0663 11.8559 19.0658 11.8559 19.0654V15.857H11.8558ZM10.4713 20.3478C10.8114 19.9938 11.2713 19.8289 11.4749 19.8289H13.3194C13.3204 19.8289 13.3212 19.8297 13.3212 19.8307L13.324 21.1098C13.324 21.1108 13.3232 21.1116 13.3222 21.1116H10.077C10.0767 21.1116 10.0765 21.1116 10.0762 21.1115C10.076 21.1113 10.0757 21.1112 10.0756 21.111C10.0754 21.1108 10.0753 21.1105 10.0752 21.1103C10.0751 21.11 10.0751 21.1097 10.0752 21.1095C10.128 20.8221 10.2606 20.567 10.4713 20.3478ZM0.986636 24.9246V19.0949C0.986717 19.0657 0.998374 19.0376 1.01906 19.0169C1.03975 18.9963 1.06778 18.9846 1.09703 18.9845H4.9656C6.05212 18.9845 6.93607 19.8675 6.93607 20.9527V25.0332C6.93607 25.0342 6.93525 25.0351 6.93424 25.0351H1.09709C1.06782 25.0349 1.03978 25.0233 1.01909 25.0026C0.998395 24.9819 0.98673 24.9538 0.986636 24.9246ZM23.6556 25.035H7.69966C7.69918 25.035 7.69871 25.0348 7.69837 25.0345C7.69803 25.0341 7.69784 25.0337 7.69784 25.0332V23.8368C7.69784 23.8358 7.69865 23.835 7.69966 23.835H23.683C23.8925 23.835 24.076 23.6736 24.0813 23.4641C24.0827 23.4133 24.0738 23.3627 24.0553 23.3153C24.0368 23.268 24.0089 23.2248 23.9734 23.1884C23.938 23.152 23.8955 23.123 23.8487 23.1032C23.8018 23.0835 23.7515 23.0733 23.7006 23.0733H7.69966C7.69918 23.0733 7.69871 23.0731 7.69837 23.0727C7.69803 23.0724 7.69784 23.0719 7.69784 23.0714V21.8751C7.69784 21.8741 7.69865 21.8733 7.69966 21.8733H16.3865C16.596 21.8733 16.7795 21.7118 16.7848 21.5024C16.7862 21.4516 16.7773 21.401 16.7588 21.3536C16.7402 21.3063 16.7124 21.2631 16.6769 21.2267C16.6415 21.1902 16.599 21.1613 16.5522 21.1415C16.5053 21.1217 16.455 21.1115 16.4041 21.1115H14.0876C14.0871 21.1115 14.0866 21.1113 14.0863 21.111C14.086 21.1107 14.0858 21.1102 14.0858 21.1097L14.0822 19.4828V19.4479L14.0822 19.4472L14.0822 19.4463L14.0735 17.4471C14.0735 17.3517 14.0711 17.2711 14.0692 17.2062C14.0685 17.1845 14.0678 17.162 14.0674 17.1404C14.0669 17.1175 14.0724 17.0947 14.0835 17.0746C14.0946 17.0544 14.1108 17.0376 14.1305 17.0257C14.1781 16.9971 14.2263 16.9693 14.2749 16.9425L15.1592 16.4484C15.1594 16.4483 15.1596 16.4482 15.1599 16.4482C15.1601 16.4482 15.1604 16.4482 15.1606 16.4483C15.1609 16.4483 15.1611 16.4485 15.1613 16.4486C15.1615 16.4488 15.1616 16.449 15.1617 16.4492L15.7917 17.7534C15.9232 18.0228 16.1115 18.2951 16.5956 18.4617L19.9821 19.6257C19.9829 19.6259 19.9834 19.6267 19.9833 19.6276C19.9375 20.0382 19.9773 20.6348 20.1804 21.1091C20.1805 21.1093 20.1806 21.1096 20.1806 21.1099C20.1805 21.1102 20.1804 21.1105 20.1803 21.1107C20.1801 21.111 20.1799 21.1112 20.1796 21.1113C20.1794 21.1115 20.1791 21.1115 20.1788 21.1115H18.2284C18.0189 21.1115 17.8354 21.273 17.83 21.4824C17.8287 21.5332 17.8375 21.5838 17.8561 21.6312C17.8746 21.6785 17.9024 21.7217 17.9379 21.7581C17.9734 21.7946 18.0158 21.8235 18.0627 21.8433C18.1095 21.8631 18.1599 21.8733 18.2107 21.8733H23.6556C24.5283 21.8733 25.2383 22.5824 25.2383 23.4541C25.2382 24.3258 24.5283 25.035 23.6556 25.035Z" fill="#26234F"/>
    <path d="M3.90172 22.5901H3.14239C2.93286 22.5901 2.74939 22.7516 2.74401 22.961C2.74267 23.0118 2.75153 23.0624 2.77006 23.1098C2.78859 23.1571 2.81642 23.2003 2.8519 23.2367C2.88739 23.2732 2.92981 23.3021 2.97666 23.3219C3.02352 23.3417 3.07386 23.3519 3.12471 23.3519H3.8841C4.09362 23.3519 4.27709 23.1904 4.28247 22.981C4.28381 22.9302 4.27495 22.8796 4.25642 22.8322C4.23788 22.7848 4.21005 22.7417 4.17456 22.7052C4.13907 22.6688 4.09664 22.6399 4.04978 22.6201C4.00292 22.6003 3.95258 22.5901 3.90172 22.5901ZM3.90243 20.791H3.14167C2.93215 20.791 2.74868 20.9524 2.7433 21.1618C2.74196 21.2127 2.75082 21.2632 2.76935 21.3106C2.78788 21.358 2.81571 21.4011 2.85119 21.4376C2.88668 21.474 2.9291 21.5029 2.97595 21.5227C3.02281 21.5425 3.07315 21.5527 3.124 21.5527H3.88476C4.09428 21.5527 4.27775 21.3912 4.28314 21.1818C4.28448 21.131 4.27562 21.0804 4.25709 21.033C4.23857 20.9857 4.21074 20.9425 4.17525 20.9061C4.13977 20.8696 4.09734 20.8407 4.05049 20.8209C4.00363 20.8011 3.95329 20.791 3.90243 20.791Z" fill="#26234F"/>
  </g>
  <defs>
    <clipPath id="clip0_126_1030">
      <rect width="26" height="26" fill="white"/>
    </clipPath>
  </defs>
</svg>