<svg width="38" height="38" viewBox="0 0 38 38" fill="none" xmlns="http://www.w3.org/2000/svg">
<g id="Frame" clip-path="url(#clip0_291_294)">
<g id="Group">
<path id="Vector" d="M29.288 16.9248C29.0914 16.9241 28.903 16.846 28.7636 16.7074C28.6248 16.568 28.5466 16.3794 28.5461 16.1826C28.5461 15.9874 28.6253 15.7961 28.7636 15.6581C28.903 15.5195 29.0914 15.4414 29.288 15.4407C29.4835 15.4407 29.6748 15.5201 29.8128 15.6581C29.9507 15.7962 30.0302 15.9874 30.0302 16.1826C30.0302 16.378 29.9508 16.5693 29.8128 16.7073C29.6747 16.8453 29.4835 16.9248 29.288 16.9248Z" fill="#26234F"/>
<path id="Vector_2" d="M34.7997 33.8304H3.20037C2.04508 33.8304 1.01062 33.2332 0.433122 32.233C-0.144374 31.2325 -0.144374 30.038 0.433122 29.0379L16.2331 1.67155C16.8106 0.671457 17.845 0.0742188 19.0001 0.0742188C20.1551 0.0742188 21.1895 0.671457 21.767 1.67163L28.3186 13.019C28.5235 13.3738 28.4017 13.8279 28.0469 14.0328C27.6917 14.2375 27.238 14.116 27.0331 13.7612L20.4818 2.41389C20.1725 1.8784 19.6184 1.5583 19.0001 1.5583C18.3817 1.5583 17.8276 1.8784 17.5183 2.41382L1.71866 29.7798C1.40932 30.3155 1.40932 30.955 1.71866 31.4908C2.02771 32.0266 2.58183 32.3463 3.20044 32.3463H34.7997C35.4184 32.3463 35.9722 32.0266 36.2815 31.4908C36.5909 30.955 36.5909 30.3155 36.2815 29.7797L29.9483 18.8101C29.7433 18.4552 29.8651 18.0015 30.2199 17.7965C30.5748 17.5916 31.0288 17.713 31.2338 18.0682L37.567 29.0378C38.1445 30.038 38.1445 31.2324 37.567 32.2329C36.9892 33.2332 35.955 33.8304 34.7997 33.8304H34.7997Z" fill="#26234F"/>
<path id="Vector_3" d="M18.9999 22.5275C17.6904 22.5275 16.6252 21.462 16.6252 20.1528V13.4552C16.6252 12.1457 17.6904 11.0805 18.9999 11.0805C20.3095 11.0805 21.3747 12.1457 21.3747 13.4552V20.1528C21.3747 21.462 20.3095 22.5275 18.9999 22.5275V22.5275ZM18.9999 12.5648C18.5088 12.5648 18.1093 12.9643 18.1093 13.4551V20.1528C18.1093 20.6439 18.5088 21.0434 18.9999 21.0434C19.4911 21.0434 19.8906 20.6439 19.8906 20.1528V13.4552C19.8906 12.9644 19.4911 12.5648 18.9999 12.5648V12.5648ZM18.9999 29.0582C17.6904 29.0582 16.6252 27.993 16.6252 26.6834C16.6252 25.3739 17.6904 24.3087 18.9999 24.3087C20.3095 24.3087 21.3747 25.3739 21.3747 26.6834C21.3747 27.3178 21.1277 27.9141 20.6791 28.3626C20.2306 28.8111 19.6343 29.0582 18.9999 29.0582ZM18.9999 25.7928C18.5088 25.7928 18.1093 26.1923 18.1093 26.6834C18.1093 27.1746 18.5088 27.574 18.9999 27.574C19.2377 27.574 19.4615 27.4813 19.6296 27.3132C19.7126 27.2306 19.7784 27.1325 19.8232 27.0244C19.8679 26.9163 19.8909 26.8004 19.8906 26.6834C19.8906 26.1923 19.4911 25.7928 18.9999 25.7928Z" fill="#26234F"/>
</g>
</g>
<defs>
<clipPath id="clip0_291_294">
<rect width="38" height="38" fill="white"/>
</clipPath>
</defs>
</svg>
