<svg width="28" height="28" viewBox="0 0 28 28" fill="none" xmlns="http://www.w3.org/2000/svg">
<g id="Frame" clip-path="url(#clip0_425_1444)">
<g id="Group">
<path id="Vector" d="M24.9422 19.7318C24.0718 18.9976 23.3725 18.082 22.8931 17.0492C22.4136 16.0164 22.1657 14.8913 22.1667 13.7527V10.5C22.1667 6.3945 19.117 2.996 15.1667 2.42667V1.16667C15.1667 0.857247 15.0437 0.560501 14.8249 0.341709C14.6062 0.122916 14.3094 0 14 0C13.6906 0 13.3938 0.122916 13.175 0.341709C12.9562 0.560501 12.8333 0.857247 12.8333 1.16667V2.42667C8.88182 2.996 5.83332 6.3945 5.83332 10.5V13.7527C5.83377 14.8936 5.58462 16.0209 5.10335 17.0554C4.62208 18.0899 3.92033 19.0066 3.04732 19.7412C2.73181 20.0131 2.50692 20.375 2.40279 20.7784C2.29865 21.1817 2.32024 21.6072 2.46465 21.998C2.60907 22.3887 2.86941 22.726 3.21083 22.9646C3.55224 23.2033 3.95843 23.3319 4.37499 23.3333H23.625C24.7508 23.3333 25.6667 22.4175 25.6667 21.2917C25.6667 20.6943 25.4065 20.1297 24.9422 19.7318ZM14 28C15.008 27.9986 15.9847 27.6498 16.7655 27.0122C17.5463 26.3746 18.0834 25.4874 18.2863 24.5H9.71365C9.91655 25.4874 10.4537 26.3746 11.2344 27.0122C12.0152 27.6498 12.992 27.9986 14 28Z" fill="#B9B9B9"/>
</g>
</g>
<defs>
<clipPath id="clip0_425_1444">
<rect width="28" height="28" fill="white"/>
</clipPath>
</defs>
</svg>
