<svg width="66" height="78" viewBox="0 0 66 78" fill="none" xmlns="http://www.w3.org/2000/svg">
<path d="M55 16.918V76.043C55 76.7992 54.3812 77.418 53.625 77.418H1.375C0.61875 77.418 0 76.7992 0 76.043V1.79297C0 1.03672 0.61875 0.417969 1.375 0.417969H38.5L55 16.918Z" fill="#F0F0F0"/>
<path d="M55 45.793V70.543H22C20.4875 70.543 19.25 69.3055 19.25 67.793V48.543C19.25 47.0305 20.4875 45.793 22 45.793H55Z" fill="#D2D2D2"/>
<path d="M63.25 69.168H22C21.2707 69.168 20.5712 68.8782 20.0555 68.3625C19.5397 67.8468 19.25 67.1473 19.25 66.418V47.168C19.25 46.4386 19.5397 45.7391 20.0555 45.2234C20.5712 44.7077 21.2707 44.418 22 44.418H63.25C63.9793 44.418 64.6788 44.7077 65.1945 45.2234C65.7103 45.7391 66 46.4386 66 47.168V66.418C66 67.1473 65.7103 67.8468 65.1945 68.3625C64.6788 68.8782 63.9793 69.168 63.25 69.168Z" fill="#C80A50"/>
<path d="M42.625 59.543H38.5C38.1353 59.543 37.7856 59.3981 37.5277 59.1402C37.2699 58.8824 37.125 58.5326 37.125 58.168V49.918C37.125 49.5533 37.2699 49.2036 37.5277 48.9457C37.7856 48.6878 38.1353 48.543 38.5 48.543H42.625C45.6582 48.543 48.125 51.0097 48.125 54.043C48.125 57.0762 45.6582 59.543 42.625 59.543ZM39.875 56.793H42.625C44.1416 56.793 45.375 55.5596 45.375 54.043C45.375 52.5263 44.1416 51.293 42.625 51.293H39.875V56.793Z" fill="#F0F0F0"/>
<path d="M38.5 65.043C38.1353 65.043 37.7856 64.8981 37.5277 64.6402C37.2699 64.3824 37.125 64.0326 37.125 63.668V58.168C37.125 57.8033 37.2699 57.4536 37.5277 57.1957C37.7856 56.9378 38.1353 56.793 38.5 56.793C38.8647 56.793 39.2144 56.9378 39.4723 57.1957C39.7301 57.4536 39.875 57.8033 39.875 58.168V63.668C39.875 64.0326 39.7301 64.3824 39.4723 64.6402C39.2144 64.8981 38.8647 65.043 38.5 65.043Z" fill="#F0F0F0"/>
<path d="M55 16.918H39.875C39.5103 16.918 39.1606 16.7731 38.9027 16.5152C38.6449 16.2574 38.5 15.9076 38.5 15.543V0.417969L55 16.918Z" fill="#D2D2D2"/>
<path d="M57.2222 64.7265H54.4722C52.1979 64.7265 50.3472 62.8758 50.3472 60.6015V52.3515C50.3472 50.0773 52.1979 48.2265 54.4722 48.2265H57.2222C59.4964 48.2265 61.3472 50.0773 61.3472 52.3515C61.3472 52.7162 61.2023 53.0659 60.9444 53.3238C60.6866 53.5816 60.3368 53.7265 59.9722 53.7265C59.6075 53.7265 59.2578 53.5816 58.9999 53.3238C58.742 53.0659 58.5972 52.7162 58.5972 52.3515C58.5972 51.5939 57.9812 50.9765 57.2222 50.9765H54.4722C53.7132 50.9765 53.0972 51.5939 53.0972 52.3515V60.6015C53.0972 61.3591 53.7132 61.9765 54.4722 61.9765H57.2222C57.9812 61.9765 58.5972 61.3591 58.5972 60.6015V57.8515H56.5347C56.17 57.8515 55.8203 57.7066 55.5624 57.4488C55.3045 57.1909 55.1597 56.8412 55.1597 56.4765C55.1597 56.1118 55.3045 55.7621 55.5624 55.5042C55.8203 55.2464 56.17 55.1015 56.5347 55.1015H59.9722C60.3368 55.1015 60.6866 55.2464 60.9444 55.5042C61.2023 55.7621 61.3472 56.1118 61.3472 56.4765V60.6015C61.3472 62.8758 59.4964 64.7265 57.2222 64.7265ZM28.3472 64.7265C25.3139 64.7265 22.8472 62.2598 22.8472 59.2265V57.8515C22.8472 57.4868 22.992 57.1371 23.2499 56.8792C23.5078 56.6214 23.8575 56.4765 24.2222 56.4765C24.5868 56.4765 24.9366 56.6214 25.1944 56.8792C25.4523 57.1371 25.5972 57.4868 25.5972 57.8515V59.2265C25.5972 60.7431 26.8305 61.9765 28.3472 61.9765C29.8638 61.9765 31.0972 60.7431 31.0972 59.2265V50.9765H24.2222C23.8575 50.9765 23.5078 50.8316 23.2499 50.5738C22.992 50.3159 22.8472 49.9662 22.8472 49.6015C22.8472 49.2368 22.992 48.8871 23.2499 48.6292C23.5078 48.3714 23.8575 48.2265 24.2222 48.2265H32.4722C32.8368 48.2265 33.1866 48.3714 33.4444 48.6292C33.7023 48.8871 33.8472 49.2368 33.8472 49.6015V59.2265C33.8472 62.2598 31.3804 64.7265 28.3472 64.7265Z" fill="#F0F0F0"/>
<path d="M12.6744 21.0096L4.53577 31.1832C4.37384 31.3855 4.27235 31.6294 4.24299 31.8868C4.21363 32.1442 4.2576 32.4047 4.36983 32.6382C4.48207 32.8718 4.658 33.0688 4.87735 33.2067C5.0967 33.3446 5.35055 33.4177 5.60965 33.4176H21.8883C22.1474 33.4177 22.4012 33.3446 22.6206 33.2067C22.8399 33.0688 23.0159 32.8718 23.1281 32.6382C23.2403 32.4047 23.2843 32.1442 23.2549 31.8868C23.2256 31.6294 23.1241 31.3855 22.9621 31.1832L14.8235 21.0096C14.2721 20.3221 13.2244 20.3221 12.6744 21.0096Z" fill="#00A0C8"/>
<path d="M26.4244 21.0096L18.2858 31.1832C18.1238 31.3855 18.0223 31.6294 17.993 31.8868C17.9636 32.1442 18.0076 32.4047 18.1198 32.6382C18.2321 32.8718 18.408 33.0688 18.6274 33.2067C18.8467 33.3446 19.1006 33.4177 19.3596 33.4176H35.6383C35.8974 33.4177 36.1512 33.3446 36.3706 33.2067C36.5899 33.0688 36.7659 32.8718 36.8781 32.6382C36.9903 32.4047 37.0343 32.1442 37.0049 31.8868C36.9756 31.6294 36.8741 31.3855 36.7122 31.1832L28.5735 21.0096C28.0221 20.3221 26.9744 20.3221 26.4244 21.0096Z" fill="#00A0C8"/>
<path d="M20.625 19.668C23.6626 19.668 26.125 17.2055 26.125 14.168C26.125 11.1304 23.6626 8.66797 20.625 8.66797C17.5874 8.66797 15.125 11.1304 15.125 14.168C15.125 17.2055 17.5874 19.668 20.625 19.668Z" fill="#FAB400"/>
<path d="M21.8888 33.4184H19.3588C18.2038 33.4184 17.5713 32.0846 18.2863 31.1909L20.6238 28.2759L22.9613 31.1909C23.6763 32.0846 23.0438 33.4184 21.8888 33.4184Z" fill="#0082AA"/>
<path d="M21.8888 33.4184H19.3588C18.2038 33.4184 17.5713 32.0846 18.2863 31.1909L20.6238 28.2759L22.9613 31.1909C23.6763 32.0846 23.0438 33.4184 21.8888 33.4184Z" fill="#0082AA"/>
</svg>
