<svg width="104" height="104" viewBox="0 0 104 104" fill="none" xmlns="http://www.w3.org/2000/svg">
<g id="Frame">
<g id="Group">
<path id="Vector" d="M78 26V95.875C78 96.7688 77.2688 97.5 76.375 97.5H14.625C13.7312 97.5 13 96.7688 13 95.875V8.125C13 7.23125 13.7312 6.5 14.625 6.5H58.5L78 26Z" fill="#F0F0F0"/>
<path id="Vector_2" d="M78 60.125V89.375H39C37.2125 89.375 35.75 87.9125 35.75 86.125V63.375C35.75 61.5875 37.2125 60.125 39 60.125H78Z" fill="#D2D2D2"/>
<path id="Vector_3" d="M87.75 87.75H39C38.138 87.75 37.3114 87.4076 36.7019 86.7981C36.0924 86.1886 35.75 85.362 35.75 84.5V61.75C35.75 60.888 36.0924 60.0614 36.7019 59.4519C37.3114 58.8424 38.138 58.5 39 58.5H87.75C88.612 58.5 89.4386 58.8424 90.0481 59.4519C90.6576 60.0614 91 60.888 91 61.75V84.5C91 85.362 90.6576 86.1886 90.0481 86.7981C89.4386 87.4076 88.612 87.75 87.75 87.75Z" fill="#C80A50"/>
<path id="Vector_4" d="M63.375 76.375H58.5C58.069 76.375 57.6557 76.2038 57.351 75.899C57.0462 75.5943 56.875 75.181 56.875 74.75V65C56.875 64.569 57.0462 64.1557 57.351 63.851C57.6557 63.5462 58.069 63.375 58.5 63.375H63.375C66.9598 63.375 69.875 66.2902 69.875 69.875C69.875 73.4598 66.9598 76.375 63.375 76.375ZM60.125 73.125H63.375C65.1674 73.125 66.625 71.6674 66.625 69.875C66.625 68.0826 65.1674 66.625 63.375 66.625H60.125V73.125Z" fill="#F0F0F0"/>
<path id="Vector_5" d="M58.5 82.875C58.069 82.875 57.6557 82.7038 57.351 82.399C57.0462 82.0943 56.875 81.681 56.875 81.25V74.75C56.875 74.319 57.0462 73.9057 57.351 73.601C57.6557 73.2962 58.069 73.125 58.5 73.125C58.931 73.125 59.3443 73.2962 59.649 73.601C59.9538 73.9057 60.125 74.319 60.125 74.75V81.25C60.125 81.681 59.9538 82.0943 59.649 82.399C59.3443 82.7038 58.931 82.875 58.5 82.875Z" fill="#F0F0F0"/>
<path id="Vector_6" d="M78 26H60.125C59.694 26 59.2807 25.8288 58.976 25.524C58.6712 25.2193 58.5 24.806 58.5 24.375V6.5L78 26Z" fill="#D2D2D2"/>
<path id="Vector_7" d="M80.625 82.5H77.375C74.6872 82.5 72.5 80.3127 72.5 77.625V67.875C72.5 65.1872 74.6872 63 77.375 63H80.625C83.3128 63 85.5 65.1872 85.5 67.875C85.5 68.306 85.3288 68.7193 85.024 69.024C84.7193 69.3288 84.306 69.5 83.875 69.5C83.444 69.5 83.0307 69.3288 82.726 69.024C82.4212 68.7193 82.25 68.306 82.25 67.875C82.25 66.9796 81.522 66.25 80.625 66.25H77.375C76.478 66.25 75.75 66.9796 75.75 67.875V77.625C75.75 78.5204 76.478 79.25 77.375 79.25H80.625C81.522 79.25 82.25 78.5204 82.25 77.625V74.375H79.8125C79.3815 74.375 78.9682 74.2038 78.6635 73.899C78.3587 73.5943 78.1875 73.181 78.1875 72.75C78.1875 72.319 78.3587 71.9057 78.6635 71.601C78.9682 71.2962 79.3815 71.125 79.8125 71.125H83.875C84.306 71.125 84.7193 71.2962 85.024 71.601C85.3288 71.9057 85.5 72.319 85.5 72.75V77.625C85.5 80.3127 83.3128 82.5 80.625 82.5ZM46.5 82.5C42.9152 82.5 40 79.5847 40 76V74.375C40 73.944 40.1712 73.5307 40.476 73.226C40.7807 72.9212 41.194 72.75 41.625 72.75C42.056 72.75 42.4693 72.9212 42.774 73.226C43.0788 73.5307 43.25 73.944 43.25 74.375V76C43.25 77.7924 44.7076 79.25 46.5 79.25C48.2924 79.25 49.75 77.7924 49.75 76V66.25H41.625C41.194 66.25 40.7807 66.0788 40.476 65.774C40.1712 65.4693 40 65.056 40 64.625C40 64.194 40.1712 63.7807 40.476 63.476C40.7807 63.1712 41.194 63 41.625 63H51.375C51.806 63 52.2193 63.1712 52.524 63.476C52.8288 63.7807 53 64.194 53 64.625V76C53 79.5847 50.0848 82.5 46.5 82.5Z" fill="#F0F0F0"/>
<path id="Vector_8" d="M27.9807 30.8359L18.3623 42.8593C18.171 43.0983 18.051 43.3866 18.0163 43.6908C17.9816 43.995 18.0336 44.3029 18.1662 44.5789C18.2989 44.8548 18.5068 45.0877 18.766 45.2507C19.0253 45.4137 19.3253 45.5001 19.6315 45.4999H38.8698C39.176 45.5001 39.476 45.4137 39.7353 45.2507C39.9945 45.0877 40.2024 44.8548 40.3351 44.5789C40.4677 44.3029 40.5197 43.995 40.485 43.6908C40.4503 43.3866 40.3303 43.0983 40.139 42.8593L30.5206 30.8359C29.869 30.0234 28.6307 30.0234 27.9807 30.8359Z" fill="#00A0C8"/>
<path id="Vector_9" d="M44.2307 30.8359L34.6123 42.8593C34.421 43.0983 34.301 43.3866 34.2663 43.6908C34.2316 43.995 34.2836 44.3029 34.4162 44.5789C34.5489 44.8548 34.7568 45.0877 35.016 45.2507C35.2753 45.4137 35.5753 45.5001 35.8815 45.4999H55.1198C55.426 45.5001 55.7261 45.4137 55.9853 45.2507C56.2445 45.0877 56.4524 44.8548 56.5851 44.5789C56.7177 44.3029 56.7697 43.995 56.735 43.6908C56.7003 43.3866 56.5803 43.0983 56.389 42.8593L46.7706 30.8359C46.119 30.0234 44.8807 30.0234 44.2307 30.8359Z" fill="#00A0C8"/>
<path id="Vector_10" d="M37.375 29.25C40.9649 29.25 43.875 26.3399 43.875 22.75C43.875 19.1601 40.9649 16.25 37.375 16.25C33.7851 16.25 30.875 19.1601 30.875 22.75C30.875 26.3399 33.7851 29.25 37.375 29.25Z" fill="#FAB400"/>
<path id="Vector_11" d="M38.8705 45.5001H35.8805C34.5155 45.5001 33.768 43.9239 34.613 42.8676L37.3755 39.4226L40.138 42.8676C40.983 43.9239 40.2355 45.5001 38.8705 45.5001Z" fill="#0082AA"/>
<path id="Vector_12" d="M38.8705 45.5001H35.8805C34.5155 45.5001 33.768 43.9239 34.613 42.8676L37.3755 39.4226L40.138 42.8676C40.983 43.9239 40.2355 45.5001 38.8705 45.5001Z" fill="#0082AA"/>
</g>
</g>
</svg>
