<svg width="20" height="20" viewBox="0 0 20 20" fill="none" xmlns="http://www.w3.org/2000/svg">
<g id="Frame" clip-path="url(#clip0_427_1487)">
<g id="Group">
<g id="Group_2">
<path id="Vector" d="M5.0615 19.9826L5.42978 19.8798C5.51401 19.8563 5.59278 19.8164 5.6616 19.7624C5.73041 19.7084 5.78791 19.6414 5.83082 19.5652C5.87373 19.489 5.9012 19.4051 5.91167 19.3182C5.92215 19.2314 5.91541 19.1434 5.89184 19.0591L1.68219 3.99466C1.65276 3.88937 1.60288 3.79091 1.5354 3.7049C1.46792 3.61889 1.38415 3.54702 1.28889 3.49338C1.19363 3.43975 1.08874 3.4054 0.980199 3.39231C0.871663 3.37922 0.761611 3.38763 0.656327 3.41707L0.608741 3.43018C0.39618 3.48961 0.215926 3.63103 0.107614 3.82334C-0.000698047 4.01566 -0.0282003 4.24311 0.0311546 4.45569L4.24115 19.5205C4.28869 19.6906 4.40181 19.8348 4.55565 19.9214C4.70949 20.0081 4.89144 20.0301 5.0615 19.9826ZM19.8863 9.455C18.5513 8.78933 17.3163 7.93968 16.2174 6.93086C16.1721 6.88944 16.1393 6.83611 16.1229 6.77697C16.1064 6.71783 16.1069 6.65526 16.1243 6.59638C16.6688 4.53645 17.0731 2.442 17.3346 0.327417C17.376 -0.0243074 17.1863 -0.127756 16.9863 0.113624C13.0622 4.80673 6.27253 -0.744997 2.23115 3.52052C2.27943 3.61121 2.31771 3.70742 2.34495 3.80673L5.07598 13.586C9.12426 9.37224 15.8898 14.8895 19.807 10.2067C20.007 9.96535 20.0449 9.52397 19.8863 9.455Z" fill="#D34434"/>
</g>
</g>
</g>
<defs>
<clipPath id="clip0_427_1487">
<rect width="20" height="20" fill="white"/>
</clipPath>
</defs>
</svg>
