<svg width="17" height="17" viewBox="0 0 17 17" fill="none" xmlns="http://www.w3.org/2000/svg">
<g id="Frame">
<g id="Group">
<path id="Vector" d="M8.70898 1C4.29808 1 0.708984 4.58909 0.708984 9C0.708984 13.4109 4.29808 17 8.70898 17C13.1199 17 16.709 13.4109 16.709 9C16.709 4.58909 13.1199 1 8.70898 1ZM8.70898 15.5455C5.09953 15.5455 2.16353 12.6095 2.16353 9C2.16353 5.39055 5.09953 2.45455 8.70898 2.45455C12.3184 2.45455 15.2544 5.39055 15.2544 9C15.2544 12.6095 12.3184 15.5455 8.70898 15.5455Z" fill="#26234F"/>
<path id="Vector_2" d="M8.50033 13.4587C8.89153 13.4587 9.20866 13.1415 9.20866 12.7503C9.20866 12.3591 8.89153 12.042 8.50033 12.042C8.10912 12.042 7.79199 12.3591 7.79199 12.7503C7.79199 13.1415 8.10912 13.4587 8.50033 13.4587Z" fill="#26234F"/>
<path id="Vector_3" d="M7.501 3.98826C7.375 4.12903 7.28005 4.29475 7.22232 4.47464C7.1646 4.65452 7.14539 4.84455 7.16596 5.03235L7.79637 10.7033C7.81545 10.8767 7.89785 11.0369 8.02777 11.1533C8.1577 11.2697 8.32601 11.3341 8.50046 11.3341C8.6749 11.3341 8.84321 11.2697 8.97314 11.1533C9.10306 11.0369 9.18546 10.8767 9.20454 10.7033L9.83496 5.03235C9.85542 4.84466 9.83616 4.65477 9.77844 4.47501C9.72072 4.29526 9.62582 4.12966 9.49991 3.98897C8.99204 3.42018 8.00887 3.41947 7.501 3.98826Z" fill="#26234F"/>
</g>
</g>
</svg>
