<svg width="33" height="32" viewBox="0 0 33 32" fill="none" xmlns="http://www.w3.org/2000/svg">
<g clip-path="url(#clip0_805_374)">
<path d="M32.3029 9.40809C32.2279 7.70776 31.953 6.5389 31.559 5.52595C31.1527 4.45081 30.5276 3.48824 29.7087 2.68802C28.9084 1.87537 27.9395 1.24387 26.8767 0.843915C25.858 0.450088 24.6952 0.175034 22.9949 0.100145C21.2819 0.0187537 20.7381 0 16.3935 0C12.0489 0 11.5051 0.0187537 9.79847 0.0937683C8.0982 0.168783 6.92928 0.443962 5.91665 0.837539C4.84119 1.24387 3.87862 1.86899 3.07841 2.68802C2.26575 3.48818 1.63456 4.45712 1.2343 5.51983C0.840469 6.5389 0.565478 7.7015 0.490525 9.40171C0.409197 11.1147 0.390381 11.6585 0.390381 16.0031C0.390381 20.3477 0.409197 20.8916 0.484149 22.5982C0.559164 24.2985 0.834343 25.4674 1.22823 26.4803C1.63456 27.5554 2.26575 28.518 3.07841 29.3182C3.87862 30.1309 4.84756 30.7624 5.91027 31.1623C6.92922 31.5562 8.09182 31.8312 9.79241 31.9061C11.4987 31.9814 12.0428 31.9999 16.3874 31.9999C20.732 31.9999 21.2758 31.9814 22.9825 31.9061C24.6828 31.8312 25.8517 31.5562 26.8643 31.1623C27.9279 30.7511 28.8938 30.1222 29.7001 29.316C30.5064 28.5097 31.1354 27.5438 31.5467 26.4803C31.9402 25.4613 32.2155 24.2984 32.2904 22.5982C32.3654 20.8916 32.3842 20.3477 32.3842 16.0031C32.3842 11.6585 32.3778 11.1147 32.3029 9.40809ZM29.4212 22.4731C29.3524 24.0359 29.0899 24.8799 28.8711 25.4425C28.3333 26.8365 27.2269 27.943 25.8329 28.4807C25.2702 28.6995 24.4203 28.962 22.8635 29.0305C21.1757 29.1058 20.6695 29.1243 16.3999 29.1243C12.1302 29.1243 11.6177 29.1058 9.93593 29.0305C8.37313 28.962 7.52921 28.6995 6.9666 28.4807C6.27291 28.2243 5.64147 27.8179 5.12887 27.2866C4.59752 26.7677 4.19119 26.1426 3.93476 25.4488C3.71597 24.8862 3.45348 24.0359 3.3849 22.4795C3.30964 20.7917 3.29114 20.2852 3.29114 16.0156C3.29114 11.7459 3.30964 11.2334 3.3849 9.55193C3.45348 7.98912 3.71597 7.14521 3.93476 6.5826C4.19119 5.88859 4.59752 5.25728 5.13525 4.74455C5.65385 4.2132 6.27897 3.80687 6.97298 3.55076C7.53559 3.33196 8.38588 3.06941 9.94231 3.00059C11.6301 2.92557 12.1366 2.90682 16.4059 2.90682C20.682 2.90682 21.1881 2.92557 22.8699 3.00059C24.4327 3.06947 25.2766 3.3319 25.8392 3.55069C26.5329 3.80687 27.1644 4.2132 27.677 4.74455C28.2083 5.26347 28.6146 5.88859 28.8711 6.5826C29.0899 7.14521 29.3524 7.99519 29.4212 9.55193C29.4962 11.2398 29.5149 11.7459 29.5149 16.0156C29.5149 20.2852 29.4963 20.7853 29.4212 22.4731Z" fill="#696CFF"/>
<path d="M16.392 7.78606C11.8537 7.78606 8.17163 11.4679 8.17163 16.0064C8.17163 20.5449 11.8537 24.2268 16.392 24.2268C20.9304 24.2268 24.6123 20.5449 24.6123 16.0064C24.6123 11.4679 20.9304 7.78606 16.392 7.78606ZM16.392 21.3387C13.4478 21.3387 11.0596 18.9509 11.0596 16.0064C11.0596 13.062 13.4478 10.6741 16.3919 10.6741C19.3364 10.6741 21.7243 13.062 21.7243 16.0064C21.7243 18.9509 19.3363 21.3387 16.392 21.3387ZM26.8567 7.46099C26.8567 8.52082 25.9973 9.38012 24.9373 9.38012C23.8775 9.38012 23.0182 8.52082 23.0182 7.46099C23.0182 6.40104 23.8775 5.54199 24.9373 5.54199C25.9973 5.54199 26.8567 6.40097 26.8567 7.46099Z" fill="#696CFF"/>
</g>
<defs>
<clipPath id="clip0_805_374">
<rect width="32" height="32" fill="white" transform="translate(0.333252)"/>
</clipPath>
</defs>
</svg>
