<svg width="92" height="92" viewBox="0 0 92 92" fill="none" xmlns="http://www.w3.org/2000/svg">
<path d="M61.3331 26.0667C61.7397 26.0667 62.1297 25.9051 62.4173 25.6175C62.7049 25.33 62.8664 24.94 62.8664 24.5333C62.8664 24.1267 62.7049 23.7366 62.4173 23.4491C62.1297 23.1615 61.7397 23 61.3331 23H42.9331C42.5264 23 42.1364 23.1615 41.8488 23.4491C41.5613 23.7366 41.3997 24.1267 41.3997 24.5333C41.3997 24.94 41.5613 25.33 41.8488 25.6175C42.1364 25.9051 42.5264 26.0667 42.9331 26.0667H61.3331ZM60.3855 19.9333L64.8965 10.9096C64.9864 10.73 65.0391 10.5341 65.0515 10.3336C65.0639 10.1331 65.0357 9.93213 64.9686 9.74278C64.907 9.56294 64.8098 9.39734 64.6829 9.25587C64.5559 9.1144 64.4017 8.99996 64.2295 8.91938C63.2417 8.47915 62.2027 8.16391 61.1368 7.98098L58.7448 14.3412C58.6348 14.6329 58.4385 14.8841 58.1821 15.0613C57.9256 15.2385 57.6213 15.3334 57.3096 15.3333C57.1248 15.3328 56.9416 15.2996 56.7683 15.2352C56.5798 15.1642 56.4071 15.0567 56.2602 14.9189C56.1132 14.7811 55.9948 14.6157 55.9118 14.4322C55.8288 14.2486 55.7828 14.0505 55.7763 13.8492C55.7699 13.6478 55.8032 13.4472 55.8744 13.2587L58.6942 5.76532C58.786 5.55247 58.829 5.32175 58.82 5.0901C58.811 4.85846 58.7502 4.63178 58.6421 4.42672C58.541 4.23956 58.4002 4.07673 58.2297 3.9496C58.0591 3.82248 57.8628 3.73413 57.6546 3.69072C55.8391 3.30157 53.9896 3.09254 52.1331 3.06665C50.2718 3.09284 48.4177 3.3029 46.5977 3.69378C46.3916 3.7409 46.198 3.83155 46.0298 3.95965C45.8616 4.08775 45.7227 4.25034 45.6225 4.4365C45.5223 4.62267 45.4631 4.82812 45.4488 5.03905C45.4346 5.24999 45.4655 5.46154 45.5397 5.65952V5.70092L48.3917 13.2587C48.4629 13.4472 48.4962 13.6478 48.4898 13.8492C48.4834 14.0505 48.4373 14.2486 48.3543 14.4322C48.2713 14.6157 48.1529 14.7811 48.006 14.9189C47.859 15.0567 47.6863 15.1642 47.4978 15.2352C47.3246 15.2996 47.1413 15.3328 46.9565 15.3333C46.6448 15.3334 46.3405 15.2385 46.0841 15.0613C45.8277 14.8841 45.6314 14.6329 45.5213 14.3412L43.1293 7.98098C42.0652 8.16388 41.0279 8.47805 40.0412 8.91632C39.8681 8.99711 39.7131 9.11192 39.5853 9.25391C39.4575 9.3959 39.3597 9.56216 39.2975 9.74278C39.2303 9.93217 39.2022 10.1332 39.2149 10.3338C39.2275 10.5343 39.2807 10.7302 39.3711 10.9096L43.8807 19.9333H60.3855ZM50.5997 59.0839L46.6131 59.7862C47.8169 60.558 49.1799 61.0471 50.5997 61.2168V59.0839Z" fill="#26234F"/>
<path d="M42.8798 60.4455L38.6402 61.1922C38.4754 61.232 38.326 61.3191 38.2102 61.4428C38.0944 61.5665 38.0173 61.7214 37.9885 61.8884L37.1728 66.0422C37.1294 66.251 37.161 66.4684 37.262 66.6562C37.3629 66.8441 37.5267 66.9904 37.7248 67.0695L51.9142 72.3227C52.0824 72.3836 52.2657 72.389 52.4371 72.338L79.4238 63.4156C79.6271 62.2211 79.7302 61.0117 79.732 59.8C79.732 43.7705 63.5323 31.1266 60.8367 29.1333H43.4288C41.3756 30.6498 31.504 38.3486 26.9209 48.9762C27.0742 48.9624 27.2276 48.9302 27.3702 48.921L42.6268 47.9534C41.8186 46.9726 41.3835 45.7375 41.3986 44.4666C41.3986 40.5413 45.3347 37.401 50.5986 36.8828V35.2666C50.5986 34.86 50.7602 34.47 51.0477 34.1824C51.3353 33.8948 51.7253 33.7333 52.132 33.7333C52.5386 33.7333 52.9286 33.8948 53.2162 34.1824C53.5038 34.47 53.6653 34.86 53.6653 35.2666V36.8812C56.5494 37.0585 59.2617 38.3128 61.2645 40.3956C61.5309 40.7031 61.6642 41.1037 61.6351 41.5095C61.6061 41.9152 61.4171 42.2928 61.1096 42.5592C60.8022 42.8255 60.4015 42.9589 59.9958 42.9298C59.59 42.9008 59.2125 42.7117 58.9461 42.4043C57.5305 40.9923 55.6585 40.1302 53.6653 39.9724V49.4055C57.6964 50.4298 62.8653 51.9202 62.8653 56.7333C62.8653 60.6586 58.9292 63.7989 53.6653 64.3172V65.9333C53.6653 66.34 53.5038 66.73 53.2162 67.0175C52.9286 67.3051 52.5386 67.4666 52.132 67.4666C51.7253 67.4666 51.3353 67.3051 51.0477 67.0175C50.7602 66.73 50.5986 66.34 50.5986 65.9333V64.3064C47.6172 64.0877 44.8429 62.7 42.8798 60.4455Z" fill="#26234F"/>
<path d="M88.714 66.5695C88.4505 65.8627 87.9267 65.2834 87.25 64.9502C86.5733 64.6169 85.7948 64.555 85.0739 64.777L53.3768 75.2558C52.5522 75.5152 51.6651 75.4953 50.853 75.1991L36.6619 69.9443C35.7778 69.617 35.0399 68.9842 34.5818 68.1602C34.1237 67.3362 33.9755 66.3754 34.1641 65.4517L34.9799 61.2979C35.1271 60.5278 35.501 59.8194 36.0537 59.2634C36.6064 58.7074 37.3127 58.3293 38.0818 58.1775L50.0878 56.0631C50.7705 55.8778 51.3567 55.4392 51.7271 54.8366C52.0975 54.234 52.2241 53.5128 52.0812 52.8201C51.9606 52.1752 51.6113 51.5955 51.0975 51.1875C50.5836 50.7796 49.9398 50.5709 49.2843 50.5998L27.5601 51.9798C25.8814 52.0829 24.2533 52.5945 22.8175 53.4702L12.837 59.5683C10.7457 60.8468 8.34221 61.5238 5.89101 61.5248H4.59994C4.18634 61.5325 3.79265 61.7038 3.50521 62.0013C3.21777 62.2988 3.06004 62.6982 3.06661 63.1118V76.2632C3.06094 76.6156 3.174 76.9597 3.38761 77.2401C3.60121 77.5204 3.90293 77.7207 4.24421 77.8088L48.1083 88.6265C50.5752 89.2323 53.1788 88.9104 55.4238 87.7218L87.2972 70.4611C87.9718 70.1014 88.4897 69.5051 88.7512 68.7867C89.0127 68.0684 88.9995 67.2787 88.714 66.5695Z" fill="#26234F"/>
<path d="M55.1664 53.0196C55.2217 53.8048 55.1173 54.593 54.8595 55.3367C54.6018 56.0804 54.1961 56.7641 53.6668 57.3467V61.2414C57.1168 60.8013 59.8001 58.9184 59.8001 56.7395C59.8001 54.9854 58.2269 53.9734 55.1664 53.0196ZM47.5488 47.6422L49.0929 47.5441C49.5995 47.5213 50.1068 47.5693 50.6001 47.6867V39.9648C47.1501 40.4049 44.4668 42.2878 44.4668 44.4667C44.4668 45.4281 44.8609 46.5536 47.5488 47.6422Z" fill="#26234F"/>
</svg>
