<svg width="262" height="140" viewBox="0 0 262 140" fill="none" xmlns="http://www.w3.org/2000/svg">
<g clip-path="url(#clip0_736_723)">
<path d="M123.03 21.4053L122.729 21.047C122.811 20.9766 131.146 14.0296 143.19 10.5052C154.316 7.2493 170.979 6.32699 187.158 20.4256L186.852 20.7793C170.836 6.82518 154.349 7.73175 143.336 10.9506C131.382 14.4445 123.112 21.3359 123.03 21.4053Z" fill="#8F489A"/>
<path d="M251.555 111.443C249.817 92.8944 242.638 78.8161 224.039 68.491C218.555 65.4463 211.687 63.9582 208.398 58.6095C205.133 53.2997 206.345 46.5185 205.699 40.316C204.039 24.4024 188.854 12.0975 172.968 10.413C157.08 8.72862 141.276 15.9349 129.208 26.4202C120.153 34.2876 112.222 44.3303 100.813 48.014C81.9993 54.0896 61.5285 40.5373 42.2217 44.7868C31.8319 47.0732 23.1166 54.3572 16.7525 62.8932C6.10192 77.1771 3.44644 95.2363 6.70384 112.762C8.48556 122.349 12.8451 132.066 19.0927 139.529L242.95 139.06C249.495 132.506 252.3 119.395 251.555 111.443Z" fill="#6249FE" fill-opacity="0.17"/>
<path d="M91.1661 39.9551C100.719 39.9551 108.463 32.1993 108.463 22.6321C108.463 13.0649 100.719 5.30908 91.1661 5.30908C81.6134 5.30908 73.8695 13.0649 73.8695 22.6321C73.8695 32.1993 81.6134 39.9551 91.1661 39.9551Z" fill="#0062E3"/>
<path d="M125.064 12.257C127.864 9.45327 127.864 4.90757 125.064 2.10386C122.265 -0.69985 117.726 -0.699856 114.927 2.10385C112.127 4.90756 112.127 9.45327 114.927 12.257C117.726 15.0607 122.265 15.0607 125.064 12.257Z" fill="#0062E3"/>
<path d="M234.771 62.3563C237.57 59.5526 237.57 55.0069 234.771 52.2032C231.972 49.3995 227.433 49.3995 224.633 52.2032C221.834 55.0069 221.834 59.5526 224.633 62.3563C227.433 65.1601 231.972 65.1601 234.771 62.3563Z" fill="#FFF0F0"/>
<path d="M250.481 139.327L250.068 139.108C258.477 123.234 259.367 106.169 252.511 92.292C245.303 77.7016 230.59 67.8849 211.083 64.6503L211.16 64.1882C230.819 67.4478 245.653 77.3544 252.93 92.0836C259.854 106.099 258.961 123.318 250.481 139.327Z" fill="#8F489A"/>
<path d="M20.4019 140C10.2728 129.076 3.58971 115.919 1.07477 101.953C-1.26726 88.9476 0.2454 76.0427 5.33629 65.6166C13.2001 49.5095 28.4191 41.2105 47.086 42.8421L47.0454 43.3089C28.5782 41.693 13.5302 49.8993 5.75606 65.8222C0.709553 76.1603 -0.790161 88.9615 1.5343 101.869C4.03352 115.748 10.6768 128.823 20.744 139.682L20.4019 140Z" fill="#D5EBFF"/>
<path d="M86.6472 105.585H26.495V139.497H86.6472V105.585Z" fill="#FF9064"/>
<path opacity="0.5" d="M48.0476 105.585H26.495V139.497H48.0476V105.585Z" fill="#B25834"/>
<path opacity="0.3" d="M59.4546 105.585L59.4546 113.846L65.0642 113.846L65.0642 105.585L59.4546 105.585Z" fill="white"/>
<path d="M174.129 68.6396H74.7664V139.497H174.129V68.6396Z" fill="#51155B"/>
<path d="M183.805 43.5878H165.423V26.7833C165.423 23.3932 168.167 20.6448 171.552 20.6448C173.244 20.6448 174.778 21.3328 175.885 22.4431C176.979 23.5386 177.666 25.0554 177.681 26.7269V26.7833L177.676 37.4492C177.676 37.5011 177.676 37.5566 177.681 37.6085V37.9317L177.699 37.9224C177.938 41.0922 180.58 43.5878 183.805 43.5878Z" fill="#86A7FF"/>
<path d="M189.929 33.7417V37.455C189.929 39.1496 189.247 40.6859 188.134 41.7906C187.031 42.9046 185.497 43.589 183.805 43.589C180.579 43.589 177.937 41.0934 177.7 37.9236L189.929 33.7417Z" fill="#E4EBFF"/>
<path d="M171.552 20.6462C171.42 20.6462 171.295 20.6509 171.168 20.6601C171.084 20.6648 171.004 20.6694 170.925 20.6787C170.836 20.6879 170.752 20.6972 170.663 20.7111C170.611 20.7157 170.561 20.725 170.509 20.7342C170.443 20.7435 170.378 20.7574 170.317 20.7713C170.224 20.7898 170.135 20.8083 170.042 20.8324C169.911 20.8648 169.78 20.9027 169.649 20.949C169.583 20.9676 169.518 20.9916 169.458 21.0148C169.397 21.0333 169.331 21.062 169.271 21.0852C169.182 21.1176 169.098 21.1555 169.014 21.1972C168.939 21.2296 168.864 21.263 168.789 21.3046C168.771 21.3139 168.747 21.3232 168.723 21.3371C168.658 21.3695 168.592 21.4074 168.527 21.4445C168.27 21.5899 168.023 21.7538 167.793 21.9362C167.728 21.988 167.657 22.0436 167.597 22.0955C167.522 22.1566 167.457 22.2168 167.386 22.2825C167.316 22.3483 167.251 22.414 167.186 22.4788C167.004 22.6659 166.831 22.8631 166.672 23.0733C166.601 23.1669 166.536 23.2558 166.471 23.3493C166.266 23.6632 166.087 23.991 165.934 24.3373C165.897 24.4216 165.864 24.5105 165.827 24.5994C165.729 24.8661 165.644 25.143 165.579 25.4236C165.56 25.5217 165.542 25.6153 165.522 25.7088C165.49 25.9005 165.461 26.0977 165.448 26.294V112.4H83.5069V30.2166C83.5069 24.93 87.7841 20.6462 93.0627 20.6462H171.552Z" fill="#E4EBFF"/>
<path d="M155.371 29.4199H93.1927V32.6971H155.371V29.4199Z" fill="#ADC3FF"/>
<path d="M150.553 39.0178H93.1927V42.295H150.553V39.0178Z" fill="#ADC3FF"/>
<path d="M147.529 48.6169H93.1927V51.8941H147.529V48.6169Z" fill="#ADC3FF"/>
<path d="M155.371 58.2151H93.1927V61.4923H155.371V58.2151Z" fill="#ADC3FF"/>
<path d="M150.93 67.9309H117.221V71.2081H150.93V67.9309Z" fill="#ADC3FF"/>
<path d="M124.006 86.3349C123.634 86.3349 123.291 86.2081 123.056 85.884C122.768 85.4839 122.788 84.9367 122.802 84.5746L123.119 76.1052L123.586 76.1228L123.269 84.5922C123.254 84.9867 123.256 85.3617 123.435 85.6099C123.833 86.159 124.788 85.684 124.976 85.583C125.917 85.0774 126.593 84.1255 127.246 83.205C127.973 82.1818 128.725 81.1242 129.861 80.627C130.535 80.3316 131.032 80.765 131.43 81.1104C131.657 81.3067 131.87 81.4919 132.096 81.5595C132.69 81.7354 133.282 81.5817 133.908 81.4169C134.461 81.2715 135.035 81.1205 135.624 81.2122C136.163 81.2946 136.598 81.5095 137.019 81.7178C137.64 82.0253 138.177 82.291 138.954 82.1021C140.024 81.8438 141.019 81.2335 141.981 80.6427C142.26 80.4714 142.538 80.301 142.819 80.1371C143.899 79.5083 145.525 78.7147 147.141 79.0861L147.037 79.5426C145.579 79.2092 144.065 79.9528 143.053 80.5427C142.775 80.7038 142.501 80.8733 142.224 81.0418C141.231 81.6511 140.205 82.2818 139.062 82.5568C138.12 82.7837 137.453 82.4559 136.811 82.1373C136.422 81.9456 136.02 81.7465 135.553 81.6752C135.059 81.6002 134.557 81.7317 134.026 81.8697C133.365 82.0429 132.684 82.2216 131.962 82.0086C131.639 81.9123 131.376 81.6845 131.122 81.4641C130.705 81.102 130.431 80.889 130.046 81.0557C129.028 81.5011 128.347 82.4605 127.625 83.4763C126.94 84.4403 126.233 85.4376 125.195 85.9951C124.828 86.1923 124.399 86.3349 124.006 86.3349Z" fill="#102048"/>
<path opacity="0.3" d="M165.446 71.6065V112.402H83.5068V68.0525L109.103 89.3796C110.515 90.5594 112.366 91.0094 114.189 90.751C114.717 90.676 115.26 90.6482 115.802 90.6621L133.249 91.1539C133.852 91.1724 134.45 91.2474 135.035 91.3742C136.845 91.7678 138.738 91.4067 140.229 90.3019L165.446 71.6065Z" fill="#86A7FF"/>
<path d="M112.127 98.014L111.445 98.7724L80.6081 133.018L74.7683 139.499V68.6379L112.127 98.014Z" fill="#B962C7"/>
<path d="M174.129 68.6396L136.77 98.0139L174.129 139.497V68.6396Z" fill="#B962C7"/>
<path d="M111.444 98.7721L80.6077 133.017L74.7688 134.304V121.714C90.182 110.65 107.476 97.8211 111.426 97.5452L111.444 98.7721Z" fill="#93509E"/>
<path d="M137.454 98.7721L168.29 133.017L174.129 134.304V121.714C158.716 110.65 141.422 97.8211 137.472 97.5452L137.454 98.7721Z" fill="#93509E"/>
<path d="M174.129 139.497H74.7662L74.7847 130.176L109.023 99.0678C110.819 97.4353 113.159 96.5315 115.584 96.5315H133.039C135.428 96.5315 137.735 97.4094 139.522 98.9975L174.226 129.854L174.129 139.497Z" fill="#B962C7"/>
<path opacity="0.4" d="M179.589 134.49C186.253 127.816 186.253 116.996 179.589 110.322C172.926 103.648 162.122 103.648 155.458 110.322C148.794 116.996 148.794 127.816 155.458 134.49C162.122 141.164 172.926 141.164 179.589 134.49Z" fill="#BE6CCB"/>
<path d="M184.732 134.49C191.395 127.816 191.395 116.996 184.732 110.322C178.068 103.648 167.264 103.648 160.6 110.322C153.936 116.996 153.936 127.816 160.6 134.49C167.264 141.164 178.068 141.164 184.732 134.49Z" fill="#FF745D"/>
<path d="M172.303 131.667C171.493 131.667 170.717 131.327 170.162 130.713L164.125 124.036C163.605 123.461 163.649 122.573 164.223 122.053C164.798 121.533 165.685 121.576 166.203 122.151L172.24 128.827C172.252 128.84 172.275 128.862 172.322 128.855C172.37 128.848 172.382 128.819 172.389 128.803L178.887 113.986C179.199 113.276 180.024 112.954 180.735 113.265C181.445 113.577 181.767 114.406 181.456 115.116L174.958 129.932C174.561 130.836 173.744 131.471 172.772 131.628C172.616 131.654 172.458 131.667 172.303 131.667Z" fill="white"/>
<path d="M54.2339 96.1413L54.7794 105.584H69.2717L62.7264 100.199L62.3372 96.1413L59.7658 93.6438L54.2339 96.1413Z" fill="#102048"/>
<path d="M36.8572 91.9272L34.5198 100.355L46.4417 105.584L42.9347 97.624L43.7918 94.0339L40.8312 90.1326L36.8572 91.9272Z" fill="#102048"/>
<path d="M41.4548 50.0999C41.4548 50.0999 40.0522 55.9523 40.52 68.8286C40.52 68.8286 36.3907 83.2652 36.8577 91.9272L43.7922 94.0338C47.425 85.9488 50.4134 78.1702 52.0018 71.0575C52.7942 68.5424 52.7794 65.8412 51.9593 63.3354L48.6233 53.1427L41.4548 50.0999Z" fill="#1E3B6B"/>
<path d="M63.4352 69.097L62.3368 96.1414H54.2344C52.1217 87.334 51.3358 79.8148 51.0602 74.7763C50.8309 70.5296 50.9622 68.0479 50.9622 68.0479C45.7539 61.8908 42.6593 57.4431 40.859 54.1511C38.1851 49.2673 38.3487 46.917 38.6474 45.2595C39.0496 43.0546 40.48 40.1979 41.448 38.4421C41.9908 37.468 42.3874 36.8318 42.3874 36.8318L55.945 41.2054L54.3278 47.0624L54.3001 47.1606C54.0569 48.0412 54.1789 48.9867 54.632 49.7775L61.7432 62.1806C62.9442 64.279 63.5332 66.6764 63.4352 69.097Z" fill="#102A54"/>
<path d="M59.2202 96.3163C59.2165 96.3163 59.2128 96.3163 59.2091 96.3154C59.112 96.3099 59.0389 96.2256 59.0454 96.1293C59.0621 95.858 60.7337 68.9673 58.7495 64.6873C58.401 63.9354 57.8101 62.976 57.1259 61.8648C54.2624 57.2162 49.4683 49.4348 50.4752 38.2208C50.4835 38.1245 50.5668 38.0513 50.6657 38.0615C50.7619 38.0698 50.833 38.155 50.8247 38.2523C49.8289 49.3496 54.5833 57.068 57.4246 61.6796C58.1153 62.8001 58.7107 63.7677 59.0685 64.5382C61.0897 68.8988 59.4661 95.0394 59.3958 96.1497C59.3894 96.245 59.3126 96.3163 59.2202 96.3163Z" fill="#1E3B6B"/>
<path opacity="0.6" d="M55.9459 41.2054L54.3288 47.0624C48.0923 44.4918 43.5996 40.5822 41.449 38.4421C41.9918 37.468 42.3884 36.8318 42.3884 36.8318L55.9459 41.2054Z" fill="#1E3B6B"/>
<path d="M58.237 100.577L58.0992 98.231L62.567 98.1504C62.6825 98.1522 62.7436 98.2254 62.7454 98.3226C62.7472 98.4199 62.6705 98.4995 62.5734 98.5013L58.4709 98.5754L58.5671 100.21L62.7186 100.023C62.812 100.019 62.898 100.094 62.9017 100.19C62.9063 100.288 62.8314 100.369 62.7343 100.374L58.237 100.577Z" fill="white"/>
<path d="M42.9347 97.7998C42.9171 97.7998 42.8986 97.797 42.8811 97.7915L39.0347 96.5617L39.9944 94.3198L43.3841 95.5468C43.4756 95.5801 43.5218 95.6801 43.4895 95.7718C43.4562 95.8626 43.3563 95.9116 43.2648 95.8774L40.1868 94.7634L39.5099 96.346L42.9883 97.4572C43.0808 97.4868 43.1316 97.5859 43.102 97.6776C43.078 97.7517 43.0096 97.7998 42.9347 97.7998Z" fill="white"/>
<path d="M60.7382 15.2934L60.4849 16.2398L59.4752 20.0652L58.7928 22.6312L52.7154 20.4439L55.6464 14.4368L57.0777 12.3672L60.7382 15.2934Z" fill="#F9B384"/>
<path d="M60.4848 16.2401L59.4751 20.0655C57.6841 18.1181 58.0494 15.6873 58.0494 15.6873L60.4848 16.2401Z" fill="#102048"/>
<path d="M65.2977 9.9104C65.2977 9.9104 64.9085 18.5724 60.5443 17.8306C56.1811 17.0889 56.2588 9.63723 56.2588 9.63723L61.947 7.80371L65.2977 9.9104Z" fill="#F9B384"/>
<path d="M59.2395 11.2182C59.2395 11.2182 61.7424 8.63363 65.2976 9.91061C65.2976 9.91061 66.8657 10.5736 67.4796 9.28648C67.4796 9.28648 62.4544 2.61452 58.5091 5.83336C58.5091 5.83336 51.4377 7.38444 55.6456 14.437L59.2395 11.2182Z" fill="#102048"/>
<path d="M59.5575 12.9328C60.2897 12.8159 60.7747 12.0398 60.6409 11.1994C60.5071 10.359 59.805 9.77259 59.0728 9.88955C58.3407 10.0065 57.8556 10.7826 57.9894 11.623C58.1233 12.4633 58.8253 13.0498 59.5575 12.9328Z" fill="#F9B384"/>
<path d="M65.4475 14.4032C65.5162 13.9776 65.2275 13.5767 64.8025 13.5078C64.3776 13.4389 63.9773 13.7281 63.9085 14.1537C63.8397 14.5793 64.1285 14.9802 64.5534 15.0491C64.9784 15.118 65.3787 14.8288 65.4475 14.4032Z" fill="#F9B384"/>
<path opacity="0.4" d="M61.655 14.8279C62.3975 14.8279 62.9994 14.2251 62.9994 13.4814C62.9994 12.7378 62.3975 12.135 61.655 12.135C60.9125 12.135 60.3106 12.7378 60.3106 13.4814C60.3106 14.2251 60.9125 14.8279 61.655 14.8279Z" fill="#EB5D60"/>
<path d="M86.8811 27.4909C86.8811 27.4909 87.6855 28.5957 86.0443 29.7013C86.0443 29.7013 87.3489 30.5959 82.8516 32.0701C82.3514 32.234 81.7809 32.4025 81.1263 32.5803L79.3215 26.0158C79.3215 26.0158 87.3489 23.2998 87.5496 24.1711C87.7502 25.0416 86.1146 26.2176 86.1146 26.2176C86.1146 26.2176 88.9892 25.5102 86.8811 27.4909Z" fill="#F9B384"/>
<path d="M79.3225 26.0148L69.8175 27.2343C69.8175 27.2343 56.1425 17.4797 53.3382 18.4159C50.5329 19.3521 41.0659 34.5693 41.0659 34.5693C41.0659 34.5693 38.4945 35.3888 38.611 36.4426C38.7275 37.4965 55.3242 46.1195 57.5452 43.9341C58.9413 42.5599 60.5446 31.6042 60.5446 31.6042L66.5924 34.1239C68.3853 34.8712 70.3667 35.0397 72.2603 34.6073L81.1282 32.5812L79.3225 26.0148Z" fill="#FF745D"/>
<g opacity="0.8">
<path d="M78.7203 31.8794C78.394 30.6015 78.075 29.3541 77.7856 28.154C77.7051 27.8197 77.6311 27.479 77.5572 27.1363C77.4943 26.8465 77.4296 26.5557 77.3612 26.2659L77.0117 26.3103C77.0819 26.6094 77.1494 26.9104 77.2141 27.2104C77.289 27.5558 77.363 27.8994 77.4453 28.2364C77.7356 29.4375 78.0546 30.6858 78.381 31.9655C78.4809 32.3554 78.5807 32.748 78.6806 33.1406L79.0227 33.0628C78.9219 32.6674 78.8211 32.2729 78.7203 31.8794Z" fill="white"/>
<path d="M62.4491 22.3648C62.3049 22.3953 62.1607 22.4277 62.0155 22.4583C59.3813 23.0084 56.564 23.4528 53.8077 22.9861C52.4107 22.7491 51.1255 22.2648 50.0298 21.5916C49.9558 21.6823 49.8828 21.7721 49.8079 21.8666C50.9507 22.5759 52.2923 23.0852 53.7495 23.3325C56.5622 23.8094 59.4192 23.3593 62.0867 22.8028C62.3511 22.7472 62.6156 22.6889 62.88 22.6315C62.7376 22.5426 62.5934 22.4537 62.4491 22.3648Z" fill="white"/>
<path d="M58.8083 39.2314C58.0168 39.2972 57.1986 39.3648 56.4034 39.2907C54.0688 39.0731 51.9976 37.6183 50.6421 36.5423C50.1623 36.1608 49.6917 35.7653 49.221 35.369C48.0246 34.3615 46.7875 33.3207 45.395 32.5437C44.5915 32.0965 43.776 31.7788 42.9744 31.5825C42.905 31.689 42.8403 31.7881 42.7747 31.8909C43.5828 32.0761 44.4094 32.3974 45.2249 32.8512C46.5877 33.6114 47.8119 34.6412 48.9963 35.6385C49.4688 36.0367 49.9422 36.4349 50.4249 36.8182C51.8146 37.9211 53.943 39.4139 56.371 39.6407C57.1967 39.7167 58.0307 39.6481 58.837 39.5815C58.9165 39.575 58.9969 39.5713 59.0764 39.5648C59.1042 39.4463 59.131 39.3268 59.1578 39.2074C59.0413 39.2166 58.9248 39.2212 58.8083 39.2314Z" fill="white"/>
</g>
<path d="M60.5454 31.6055L58.0832 30.5239C58.0832 30.5239 58.7119 34.441 59.8991 35.0012L60.5454 31.6055Z" fill="#E49B31"/>
<path d="M82.8516 32.0702C82.3514 32.2341 81.7809 32.4026 81.1263 32.5804L79.3215 26.0159L82.8516 32.0702Z" fill="#E28B6D"/>
<path d="M191.018 71.6773L196.745 74.2525L201.013 60.1826L195.423 58.7112C193.945 62.018 192.439 66.2517 191.018 71.6773Z" fill="#EBA493"/>
<path d="M195.423 58.711L201.013 60.1825L205.784 47.0571C205.784 47.0562 200.017 46.2764 195.423 58.711Z" fill="#D6543E"/>
<path d="M188.642 66.7996L184.513 78.1924L199.94 84.1235L203.057 72.2621L188.642 66.7996Z" fill="#102048"/>
<path d="M193.717 81.9814C193.604 82.3036 192.681 82.6888 192.089 82.1619C190.934 81.9573 190.154 81.811 189.434 81.0137C188.787 80.7646 188.496 80.0599 188.792 79.4654C189.359 78.3273 190.237 76.7234 190.655 76.7873C191.179 76.867 190.8 78.4866 190.8 78.4866C190.8 78.4866 191.673 76.4308 192.502 76.7031C192.872 76.8244 191.982 78.782 191.893 78.9875C192.032 78.8005 193.141 77.3068 193.565 77.6207C193.99 77.9393 192.956 79.7043 192.847 79.8913C192.967 79.7413 193.94 78.5662 194.414 78.9551C194.619 79.1274 194.297 80.321 193.717 81.9814Z" fill="#E28B6D"/>
<path d="M222.691 121.191C222.691 121.191 230.171 120.371 233.327 113.465L225.029 113.933L222.691 121.191Z" fill="#102048"/>
<path d="M230.951 113.542L223.783 117.991L227.008 122.735L233.92 118.018L230.951 113.542Z" fill="#E28B6D"/>
<path d="M238.353 124.702L233.92 118.018L227.007 122.735L228.184 124.468L227.484 133.715L238.353 124.702Z" fill="#102048"/>
<path d="M231.681 124.055L228.171 124.234L228.195 124.701L231.705 124.522L231.681 124.055Z" fill="white"/>
<path d="M210.536 126.184L202.667 125.716V132.098L211.133 131.56L210.536 126.184Z" fill="#E28B6D"/>
<path d="M202.667 132.098V133.598L196.745 139.528H212.016L211.132 131.56L202.667 132.098Z" fill="#102048"/>
<path d="M202.598 133.502L202.363 133.907L205.716 135.857L205.951 135.452L202.598 133.502Z" fill="white"/>
<path d="M210.139 85.4415C210.018 88.3445 209.994 91.4069 210.045 94.4924C210.092 97.1704 210.19 99.8679 210.33 102.503C211.003 115.599 212.56 127.197 212.56 127.197L200.405 128.762C194.641 88.4946 198.381 71.4799 198.381 71.4799L203.678 70.3983L208.382 69.438L213.655 68.3611C213.589 68.4592 213.524 68.562 213.464 68.6704C212.659 69.9862 212.024 71.7373 211.533 73.8163C210.761 77.0508 210.331 81.0688 210.139 85.4415Z" fill="#102A54"/>
<path d="M210.331 102.504C205.236 91.6552 207.148 83.0303 207.148 83.0303L210.14 85.4416C210.019 88.3447 209.995 91.407 210.046 94.4925C210.093 97.1706 210.191 99.8671 210.331 102.504Z" fill="#1F3C88"/>
<path d="M233.327 113.465C227.484 115.689 222.691 121.191 222.691 121.191C217.647 112.262 213.341 103.295 210.045 94.4927C207.301 87.1697 205.258 79.9588 204.075 72.9831C203.93 72.1173 203.795 71.2552 203.678 70.3986C203.664 70.319 203.65 70.2347 203.641 70.1551L208.381 69.4383L213.463 68.6707L216.029 68.2817C216.305 69.9208 216.675 71.6339 217.119 73.3989C221.541 91.0229 233.327 113.465 233.327 113.465Z" fill="#102A54"/>
<g opacity="0.8">
<path d="M223.044 91.0152C222.97 90.83 222.895 90.6457 222.822 90.4596C221.864 89.8456 220.948 89.1715 220.159 88.3603C217.955 86.0962 216.84 82.7431 217.251 79.6085C217.378 78.6427 217.649 77.6953 218.043 76.798C217.993 76.6276 217.945 76.4573 217.896 76.2869C217.395 77.3222 217.05 78.4306 216.902 79.5622C216.479 82.8014 217.631 86.2666 219.907 88.6048C220.834 89.5576 221.92 90.3225 223.044 91.0152Z" fill="white"/>
<path d="M229.16 104.999C229.111 104.895 229.062 104.791 229.013 104.686C227.723 105.214 226.178 105.304 224.574 105.395C222.955 105.487 221.281 105.582 219.813 106.155C218.322 106.738 217.165 107.777 216.326 109.051C216.386 109.175 216.447 109.299 216.507 109.423C217.318 108.126 218.454 107.065 219.941 106.483C221.357 105.93 223.002 105.837 224.593 105.746C226.176 105.656 227.792 105.561 229.16 104.999Z" fill="white"/>
<path d="M201.156 103.665C205.044 105.642 208.194 108.956 210.978 112.064C210.962 111.873 210.946 111.68 210.931 111.487C208.201 108.456 205.114 105.283 201.315 103.352C200.102 102.735 198.853 102.282 197.607 101.992C197.614 102.114 197.622 102.237 197.629 102.36C198.814 102.645 200.002 103.078 201.156 103.665Z" fill="white"/>
<path d="M211.909 121.728C210.937 121.96 209.872 121.902 208.994 121.695C208.08 121.48 207.184 121.126 206.316 120.783C205.394 120.417 204.438 120.04 203.447 119.824C202.066 119.522 200.619 119.559 199.24 119.891C199.254 120.007 199.269 120.125 199.283 120.242C200.622 119.913 202.03 119.873 203.372 120.166C204.336 120.377 205.277 120.75 206.188 121.11C207.067 121.457 207.975 121.816 208.914 122.037C209.825 122.251 210.927 122.312 211.948 122.078C211.935 121.964 211.921 121.844 211.909 121.728Z" fill="white"/>
<path d="M200.102 88.764C200.23 91.2161 199.119 93.6284 197.292 95.223C197.297 95.3711 197.303 95.5239 197.308 95.674C199.342 94.0145 200.59 91.4004 200.452 88.7455C200.329 86.3851 199.115 84.1737 197.304 82.7004C197.298 82.8458 197.292 82.994 197.287 83.1421C198.91 84.5506 199.989 86.5906 200.102 88.764Z" fill="white"/>
</g>
<path opacity="0.4" d="M217.119 73.3998C215.258 73.7369 213.365 73.8443 211.532 73.8165C208.807 73.7693 206.221 73.4091 204.075 72.9831C200.681 72.3136 198.381 71.4802 198.381 71.4802L203.678 70.3986C203.664 70.319 203.65 70.2347 203.641 70.1551L208.381 69.4383L213.654 68.3614C213.589 68.4595 213.523 68.5623 213.463 68.6707L216.03 68.2817C216.305 69.9208 216.675 71.6339 217.119 73.3998Z" fill="#1F3C88"/>
<path d="M210.045 94.7268C209.949 94.7268 209.859 94.6666 209.825 94.5712L206.448 85.0601L202.389 82.6061C202.279 82.5394 202.244 82.395 202.311 82.2848C202.378 82.1737 202.523 82.1394 202.632 82.2061L206.833 84.7461L210.266 94.4138C210.31 94.536 210.246 94.6703 210.125 94.7129C210.098 94.7231 210.071 94.7268 210.045 94.7268Z" fill="#1F3C88"/>
<path d="M218.017 70.0988C210.186 73.0815 196.745 71.4054 196.745 71.4054C197.293 65.7076 197.33 48.8513 206.096 46.7446L210.013 47.1567C212.066 47.9623 213.669 51.0339 214.876 54.6806C215.601 56.853 216.18 59.232 216.638 61.46C217.601 66.1188 218.017 70.0988 218.017 70.0988Z" fill="#FF5D5D"/>
<path d="M216.637 61.4597C212.949 59.3105 212.172 54.4692 212.172 54.4692L214.875 54.6804C215.6 56.8528 216.179 59.2308 216.637 61.4597Z" fill="#D6543E"/>
<path d="M210.01 47.1538L209.484 54.7036L217.53 59.0068L219.159 51.1848C212.085 46.9992 210.01 47.1538 210.01 47.1538Z" fill="#FF745D"/>
<path d="M225.338 57.532C225.146 57.8218 224.931 58.0941 224.688 58.3423C224.249 58.8016 223.729 59.1757 223.149 59.4563C222.294 59.873 221.358 60.0508 220.433 59.9943C219.657 59.947 218.894 59.7322 218.189 59.3572L217.529 59.0062L219.161 51.1823C219.596 51.4444 220.05 51.7157 220.531 52.0111C220.531 52.0111 226.899 42.9981 227.365 43.1759C227.786 43.3306 227.071 44.7261 226.926 45.002C227.202 44.5946 229.268 41.561 229.82 41.7712C230.26 41.9351 229.704 43.2834 229.634 43.4473C229.76 43.2648 230.868 41.6304 231.536 42.024C231.845 42.2064 230.652 43.976 230.536 44.1547C230.681 44.014 232.004 42.7314 232.332 43.1157C232.668 43.5047 231.383 45.0354 231.238 45.2085C231.369 45.0919 232.5 44.1038 232.86 44.5807C233.332 45.1947 227.545 54.1604 225.338 57.532Z" fill="#EBA493"/>
<path opacity="0.4" d="M224.688 58.3421C224.249 58.8014 223.729 59.1755 223.15 59.4561C222.294 59.8728 221.359 60.0506 220.433 59.9941C220.392 59.8255 220.372 59.6524 220.372 59.4746C220.372 58.2013 221.405 57.166 222.677 57.166C223.538 57.166 224.292 57.6392 224.688 58.3421Z" fill="#EB5D60"/>
<path d="M205.17 69.8191C201.715 69.8191 198.618 69.5978 197.1 69.4673C196.997 69.458 196.934 69.4524 196.917 69.4524C196.822 69.4478 196.745 69.3682 196.748 69.2728C196.75 69.1774 196.825 69.1015 196.922 69.1015C196.934 69.1015 197.005 69.107 197.131 69.1181C200.591 69.4154 212.294 70.1905 217.593 67.7134C217.679 67.6726 217.785 67.7106 217.826 67.7986C217.867 67.8865 217.829 67.9912 217.741 68.0319C214.707 69.4487 209.639 69.8191 205.17 69.8191Z" fill="#FFA798"/>
<path d="M207.006 52.0673C205.147 52.0673 204.325 50.8376 204.313 50.8191C204.261 50.7376 204.284 50.6292 204.364 50.5774C204.446 50.5246 204.553 50.5477 204.607 50.6292C204.668 50.7218 206.135 52.8813 209.831 50.882C209.916 50.8376 210.021 50.8681 210.068 50.9533C210.114 51.0385 210.082 51.145 209.997 51.1913C208.797 51.8395 207.805 52.0673 207.006 52.0673Z" fill="#FFA798"/>
<path d="M213.16 32.4767C214.142 31.9238 215.467 31.8738 216.337 32.5897C216.791 32.9628 217.082 33.4981 217.503 33.9083C218.407 34.7871 219.811 35.0075 220.677 35.9242C221.345 36.6317 221.584 37.6642 221.517 38.6356C221.45 39.607 221.109 40.5377 220.747 41.4415C220.23 42.7323 219.634 44.0436 218.601 44.9733C218.206 45.3289 217.744 45.6252 217.227 45.7437C216.71 45.8632 216.132 45.7863 215.712 45.4632C215.268 45.1215 215.049 44.5492 215.011 43.9889C214.972 43.4296 215.091 42.8722 215.209 42.3239C215.491 42.498 215.872 42.4943 216.152 42.3156C216.431 42.1369 216.594 41.7915 216.554 41.4628C216.487 40.9044 215.937 40.5534 215.444 40.283C214.628 39.8348 213.811 39.3866 212.994 38.9384C212.516 38.6764 212.028 38.406 211.668 37.9957C211.067 37.3105 210.586 35.8029 210.983 34.938C211.425 33.9787 212.237 32.9962 213.16 32.4767Z" fill="#FBB81D"/>
<path d="M203.465 37.0288C203.465 37.0288 203.415 31.481 210.294 32.9432C211.458 33.1905 212.476 33.8192 213.224 34.7462C214.344 36.1334 215.061 41.9654 211.861 43.5841C207.849 45.6121 203.465 37.0288 203.465 37.0288Z" fill="#FBC343"/>
<path d="M210.593 41.7109L210.434 47.2828C210.391 48.6968 209.274 49.8442 207.862 49.9192C207.815 49.9238 207.769 49.9238 207.722 49.9238C206.142 49.9238 204.884 48.5662 205.02 46.9698L205.029 46.8809L205.394 42.6481L205.857 42.5638L210.593 41.7109Z" fill="#EBA493"/>
<path d="M208.236 43.7008C208.236 43.7008 207.376 45.8455 205.028 46.8798L205.393 42.647L205.856 42.5627L208.236 43.7008Z" fill="#102048"/>
<path d="M203.465 37.0286C203.465 37.0286 201.712 44.3442 205.394 44.6961C209.075 45.047 210.595 41.7115 210.595 41.7115L211.062 37.5565L208.783 34.2793L205.16 35.3914L203.465 37.0286Z" fill="#EBA493"/>
<path d="M203.465 37.0287C203.465 37.0287 206.852 35.1257 208.082 37.6722C208.939 39.4474 210.244 40.4234 211.53 39.8382C212.815 39.2529 211.764 35.0386 211.764 35.0386L206.971 33.8098L204.108 35.4489L203.465 37.0287Z" fill="#FBC343"/>
<path d="M211.694 40.6667C212.136 39.9001 211.981 38.9819 211.349 38.616C210.716 38.2501 209.844 38.5749 209.403 39.3416C208.961 40.1082 209.115 41.0264 209.748 41.3923C210.381 41.7582 211.252 41.4334 211.694 40.6667Z" fill="#EBA493"/>
<path d="M210.186 40.6373C210.183 40.6373 210.181 40.6373 210.178 40.6373C210.114 40.6327 210.066 40.5771 210.07 40.5123C210.099 40.0965 210.362 39.3113 211.14 39.3113C211.205 39.3113 211.257 39.3641 211.257 39.428C211.257 39.4919 211.204 39.5446 211.14 39.5446C210.384 39.5446 210.305 40.4883 210.302 40.529C210.298 40.5901 210.246 40.6373 210.186 40.6373Z" fill="#102048"/>
<path d="M204.023 39.656C204.023 39.8209 203.89 39.9551 203.724 39.9551C203.56 39.9551 203.426 39.8218 203.426 39.656C203.426 39.4912 203.559 39.3569 203.724 39.3569C203.889 39.3569 204.023 39.4912 204.023 39.656Z" fill="#102048"/>
<path d="M206.008 39.9643C206.19 39.9643 206.339 39.8159 206.339 39.6328C206.339 39.4497 206.19 39.3013 206.008 39.3013C205.825 39.3013 205.677 39.4497 205.677 39.6328C205.677 39.8159 205.825 39.9643 206.008 39.9643Z" fill="#102048"/>
<path d="M204.647 41.4784C204.388 41.4784 204.213 41.3969 204.125 41.2357C203.894 40.8135 204.429 40.0217 204.539 39.8671C204.576 39.8143 204.648 39.8023 204.703 39.8393C204.755 39.8763 204.767 39.9495 204.73 40.0023C204.446 40.4023 204.217 40.9153 204.33 41.1218C204.379 41.2117 204.507 41.2506 204.706 41.2413C204.708 41.2413 204.711 41.2413 204.713 41.2413C204.775 41.2413 204.826 41.2895 204.829 41.3524C204.832 41.4172 204.783 41.4719 204.718 41.4756C204.693 41.4774 204.67 41.4784 204.647 41.4784Z" fill="#102048"/>
<path opacity="0.4" d="M208.07 41.9362C208.603 41.715 208.856 41.1029 208.635 40.5689C208.415 40.035 207.803 39.7815 207.27 40.0026C206.737 40.2238 206.484 40.8359 206.705 41.3698C206.926 41.9038 207.537 42.1573 208.07 41.9362Z" fill="#EB5D60"/>
<path d="M204.792 42.4906C204.477 42.4906 204.259 42.3813 204.241 42.3721C204.184 42.3425 204.162 42.2721 204.192 42.2147C204.221 42.1572 204.291 42.1341 204.349 42.1637C204.376 42.1776 205.006 42.4878 205.659 41.8859C205.707 41.8424 205.78 41.8461 205.824 41.8933C205.868 41.9406 205.864 42.0146 205.817 42.0591C205.447 42.3999 205.079 42.4906 204.792 42.4906Z" fill="#102048"/>
<path d="M204.379 38.9958C204.159 38.9485 203.959 38.8856 203.775 38.8884C203.682 38.8819 203.596 38.8939 203.508 38.918C203.416 38.9328 203.333 38.9828 203.223 39.0254L203.212 39.03C203.175 39.0439 203.134 39.0263 203.12 38.9893C203.113 38.9708 203.113 38.9513 203.121 38.9347C203.173 38.8171 203.26 38.7059 203.384 38.6374C203.505 38.5707 203.65 38.5355 203.787 38.5411C204.059 38.5661 204.301 38.6791 204.46 38.8856C204.484 38.9171 204.478 38.9615 204.447 38.9856C204.43 38.9986 204.409 39.0032 204.388 38.9986L204.379 38.9958Z" fill="#102048"/>
<path d="M205.246 38.894C205.407 38.6134 205.703 38.4171 206.055 38.3801C206.229 38.368 206.41 38.4069 206.557 38.4921C206.707 38.5745 206.82 38.6968 206.903 38.8329C206.923 38.8662 206.912 38.9098 206.879 38.9301C206.858 38.9422 206.834 38.9431 206.814 38.9348L206.806 38.9311C206.67 38.8718 206.555 38.8033 206.432 38.7727C206.315 38.7292 206.196 38.7181 206.078 38.7273C205.839 38.732 205.595 38.8542 205.346 38.9866L205.338 38.9912C205.304 39.0098 205.262 38.9968 205.244 38.9625C205.233 38.9403 205.234 38.9144 205.246 38.894Z" fill="#102048"/>
<path d="M261.026 138.84H1.56094V139.764H261.026V138.84Z" fill="#102048"/>
</g>
<defs>
<clipPath id="clip0_736_723">
<rect width="261.028" height="140" fill="white"/>
</clipPath>
</defs>
</svg>
