<svg xmlns="http://www.w3.org/2000/svg" width="24" height="24" viewBox="0 0 24 24" fill="none">
  <g clip-path="url(#clip0_737_2275)">
    <path d="M12 0C5.37361 0 0 5.37361 0 12C0 18.6264 5.37361 24 12 24C18.6264 24 24 18.6264 24 12C24 5.37361 18.6264 0 12 0ZM8.51297 18.1406H5.59041V9.34809H8.51292L8.51297 18.1406ZM7.05173 8.14744H7.0327C6.05198 8.14744 5.41772 7.47234 5.41772 6.62859C5.41772 5.76581 6.07139 5.10938 7.07119 5.10938C8.07094 5.10938 8.68617 5.76581 8.7052 6.62859C8.7052 7.47234 8.07094 8.14748 7.05173 8.14748V8.14744ZM19.0511 18.1406H16.1289V13.4368C16.1289 12.2547 15.7058 11.4485 14.6483 11.4485C13.841 11.4485 13.3602 11.9923 13.1489 12.5173C13.0716 12.7051 13.0527 12.9677 13.0527 13.2305V18.1406H10.1303C10.1303 18.1406 10.1686 10.173 10.1303 9.34809H13.0527V10.593C13.4411 9.99394 14.136 9.14175 15.6865 9.14175C17.6093 9.14175 19.0511 10.3984 19.0511 13.099V18.1406Z" fill="white"/>
  </g>
  <defs>
    <clipPath id="clip0_737_2275">
      <rect width="24" height="24" fill="white"/>
    </clipPath>
  </defs>
</svg>