<svg width="233" height="34" viewBox="0 0 233 34" fill="none" xmlns="http://www.w3.org/2000/svg">
<path d="M49.1 26.24C46.44 26.24 45.26 24.98 45.26 21.98V17.98H43.16V16.02L45.26 15.64V13.3L48.52 12.6V15.64H51.44V17.98H48.52V22.28C48.52 23.44 49.02 23.86 50.62 23.86H51.44V25.82C50.78 26.1 49.94 26.24 49.1 26.24ZM61.7239 17.78C60.4839 17.78 59.3039 18.32 58.7039 18.92V26H55.4639V11.4H58.7039V16.8C59.6039 16.04 61.3639 15.4 62.9839 15.4C65.4639 15.4 67.1239 16.76 67.1239 19.36V26H63.8839V19.68C63.8839 18.46 63.1839 17.78 61.7239 17.78ZM81.1203 22.68L82.6203 23.74C81.4803 25.32 79.7403 26.24 77.5603 26.24C73.9803 26.24 71.2203 24.1 71.2203 20.82C71.2203 17.66 73.6403 15.4 77.2603 15.4C80.8403 15.4 83.2603 17.64 83.2603 20.86C83.2603 21.12 83.2603 21.56 83.2203 21.8H74.4603C74.7003 22.96 76.0003 23.86 77.8003 23.86C78.9803 23.86 80.2803 23.46 81.1203 22.68ZM77.2603 17.78C75.6803 17.78 74.6403 18.48 74.4203 19.74H80.0603C79.9203 18.52 78.8003 17.78 77.2603 17.78ZM87.6578 26V12H91.0778V17.32H97.9178V12H101.338V26H97.9178V19.94H91.0778V26H87.6578ZM113.773 20.4V19.7C113.773 18.46 112.953 17.78 111.513 17.78C110.393 17.78 109.873 18.1 109.653 18.66H106.513C106.993 16.8 108.273 15.4 111.533 15.4C115.513 15.4 116.933 17.18 116.933 19.86V23.68C116.933 24.08 117.253 24.24 117.733 24.24H118.113V26.1C117.813 26.18 117.353 26.22 116.973 26.22C116.133 26.22 114.973 26.02 114.293 24.96C113.173 25.84 111.533 26.24 110.093 26.24C107.713 26.24 105.693 25.02 105.693 22.88C105.693 20.74 107.713 19.72 110.093 19.72C111.533 19.72 112.793 19.94 113.773 20.4ZM113.773 23.28V22.18C113.013 21.8 112.113 21.7 111.093 21.7C109.773 21.7 108.993 22.14 108.993 22.88C108.993 23.62 109.773 24.06 111.093 24.06C112.133 24.06 113.133 23.8 113.773 23.28ZM127.857 17.78C126.757 17.78 125.657 18.28 124.897 18.92V26H121.657V15.64H124.197L124.677 17C125.637 16.12 127.217 15.4 129.097 15.4C131.617 15.4 133.317 16.76 133.317 19.36V26H130.077V19.68C130.077 18.46 129.277 17.78 127.857 17.78ZM137.513 20.82C137.513 17.4 139.493 15.4 142.653 15.4C144.153 15.4 145.533 15.86 146.493 16.6V11.4H149.733V26H147.193L146.713 24.92C145.753 25.66 144.153 26.24 142.653 26.24C139.493 26.24 137.513 24.24 137.513 20.82ZM143.773 17.78C141.793 17.78 140.813 18.88 140.813 20.82C140.813 22.76 141.793 23.86 143.773 23.86C144.713 23.86 145.873 23.52 146.493 22.96V18.68C145.873 18.12 144.713 17.78 143.773 17.78ZM166.228 20.82C166.228 24 163.788 26.24 160.068 26.24C156.348 26.24 153.908 24 153.908 20.82C153.908 17.64 156.348 15.4 160.068 15.4C163.788 15.4 166.228 17.64 166.228 20.82ZM162.948 20.82C162.948 18.88 161.868 17.78 160.068 17.78C158.268 17.78 157.208 18.88 157.208 20.82C157.208 22.76 158.268 23.86 160.068 23.86C161.868 23.86 162.948 22.76 162.948 20.82ZM177.321 26H173.601L169.061 15.64H172.481L175.461 23.22L178.421 15.64H181.841L177.321 26ZM194.57 22.68L196.07 23.74C194.93 25.32 193.19 26.24 191.01 26.24C187.43 26.24 184.67 24.1 184.67 20.82C184.67 17.66 187.09 15.4 190.71 15.4C194.29 15.4 196.71 17.64 196.71 20.86C196.71 21.12 196.71 21.56 196.67 21.8H187.91C188.15 22.96 189.45 23.86 191.25 23.86C192.43 23.86 193.73 23.46 194.57 22.68ZM190.71 17.78C189.13 17.78 188.09 18.48 187.87 19.74H193.51C193.37 18.52 192.25 17.78 190.71 17.78ZM208.528 15.42V17.82C208.248 17.8 208.128 17.8 207.788 17.8C206.228 17.8 204.828 18.38 204.108 19.28V26H200.868V15.64H203.408L203.888 17.12C204.668 16.06 206.388 15.4 207.968 15.4C208.208 15.4 208.428 15.42 208.528 15.42Z" fill="#124680"/>
<rect y="12.8711" width="3.10605" height="20.1893" fill="#124680"/>
<rect x="13.9766" y="3.55273" width="3.10605" height="12.4242" fill="#124680"/>
<rect x="17.084" y="31.5078" width="3.10605" height="12.4242" transform="rotate(-180 17.084 31.5078)" fill="#124680"/>
<rect x="17.084" y="2" width="3.10605" height="9.31814" transform="rotate(90 17.084 2)" fill="#124680"/>
<rect x="13.9766" y="33.0605" width="3.10605" height="9.31814" transform="rotate(-90 13.9766 33.0605)" fill="#124680"/>
<rect x="27.9551" y="2" width="3.10605" height="21.7423" fill="#124680"/>
<path d="M7.76562 2H10.8717V33.0605H7.76562V2Z" fill="#124680"/>
<rect x="20.1895" y="2" width="3.10605" height="31.0605" fill="#124680"/>
<path d="M212.924 12V5.532L210.776 6.768L209.972 5.544L213.128 3.6H214.916V12H212.924ZM219.906 12V10.308H221.862V12H219.906ZM232.24 7.8C232.24 10.344 230.992 12.144 228.472 12.144C225.952 12.144 224.704 10.344 224.704 7.8C224.704 5.256 225.952 3.456 228.472 3.456C230.992 3.456 232.24 5.256 232.24 7.8ZM230.164 7.8C230.164 5.916 229.564 5.052 228.472 5.052C227.38 5.052 226.78 5.916 226.78 7.8C226.78 9.684 227.38 10.548 228.472 10.548C229.564 10.548 230.164 9.684 230.164 7.8Z" fill="#124680"/>
</svg>
