<svg width="209" height="32" viewBox="0 0 209 32" fill="none" xmlns="http://www.w3.org/2000/svg">
<path d="M49.1 24.24C46.44 24.24 45.26 22.98 45.26 19.98V15.98H43.16V14.02L45.26 13.64V11.3L48.52 10.6V13.64H51.44V15.98H48.52V20.28C48.52 21.44 49.02 21.86 50.62 21.86H51.44V23.82C50.78 24.1 49.94 24.24 49.1 24.24ZM61.7239 15.78C60.4839 15.78 59.3039 16.32 58.7039 16.92V24H55.4639V9.4H58.7039V14.8C59.6039 14.04 61.3639 13.4 62.9839 13.4C65.4639 13.4 67.1239 14.76 67.1239 17.36V24H63.8839V17.68C63.8839 16.46 63.1839 15.78 61.7239 15.78ZM81.1203 20.68L82.6203 21.74C81.4803 23.32 79.7403 24.24 77.5603 24.24C73.9803 24.24 71.2203 22.1 71.2203 18.82C71.2203 15.66 73.6403 13.4 77.2603 13.4C80.8403 13.4 83.2603 15.64 83.2603 18.86C83.2603 19.12 83.2603 19.56 83.2203 19.8H74.4603C74.7003 20.96 76.0003 21.86 77.8003 21.86C78.9803 21.86 80.2803 21.46 81.1203 20.68ZM77.2603 15.78C75.6803 15.78 74.6403 16.48 74.4203 17.74H80.0603C79.9203 16.52 78.8003 15.78 77.2603 15.78ZM87.6578 24V10H91.0778V15.32H97.9178V10H101.338V24H97.9178V17.94H91.0778V24H87.6578ZM113.773 18.4V17.7C113.773 16.46 112.953 15.78 111.513 15.78C110.393 15.78 109.873 16.1 109.653 16.66H106.513C106.993 14.8 108.273 13.4 111.533 13.4C115.513 13.4 116.933 15.18 116.933 17.86V21.68C116.933 22.08 117.253 22.24 117.733 22.24H118.113V24.1C117.813 24.18 117.353 24.22 116.973 24.22C116.133 24.22 114.973 24.02 114.293 22.96C113.173 23.84 111.533 24.24 110.093 24.24C107.713 24.24 105.693 23.02 105.693 20.88C105.693 18.74 107.713 17.72 110.093 17.72C111.533 17.72 112.793 17.94 113.773 18.4ZM113.773 21.28V20.18C113.013 19.8 112.113 19.7 111.093 19.7C109.773 19.7 108.993 20.14 108.993 20.88C108.993 21.62 109.773 22.06 111.093 22.06C112.133 22.06 113.133 21.8 113.773 21.28ZM127.857 15.78C126.757 15.78 125.657 16.28 124.897 16.92V24H121.657V13.64H124.197L124.677 15C125.637 14.12 127.217 13.4 129.097 13.4C131.617 13.4 133.317 14.76 133.317 17.36V24H130.077V17.68C130.077 16.46 129.277 15.78 127.857 15.78ZM137.513 18.82C137.513 15.4 139.493 13.4 142.653 13.4C144.153 13.4 145.533 13.86 146.493 14.6V9.4H149.733V24H147.193L146.713 22.92C145.753 23.66 144.153 24.24 142.653 24.24C139.493 24.24 137.513 22.24 137.513 18.82ZM143.773 15.78C141.793 15.78 140.813 16.88 140.813 18.82C140.813 20.76 141.793 21.86 143.773 21.86C144.713 21.86 145.873 21.52 146.493 20.96V16.68C145.873 16.12 144.713 15.78 143.773 15.78ZM166.228 18.82C166.228 22 163.788 24.24 160.068 24.24C156.348 24.24 153.908 22 153.908 18.82C153.908 15.64 156.348 13.4 160.068 13.4C163.788 13.4 166.228 15.64 166.228 18.82ZM162.948 18.82C162.948 16.88 161.868 15.78 160.068 15.78C158.268 15.78 157.208 16.88 157.208 18.82C157.208 20.76 158.268 21.86 160.068 21.86C161.868 21.86 162.948 20.76 162.948 18.82ZM177.321 24H173.601L169.061 13.64H172.481L175.461 21.22L178.421 13.64H181.841L177.321 24ZM194.57 20.68L196.07 21.74C194.93 23.32 193.19 24.24 191.01 24.24C187.43 24.24 184.67 22.1 184.67 18.82C184.67 15.66 187.09 13.4 190.71 13.4C194.29 13.4 196.71 15.64 196.71 18.86C196.71 19.12 196.71 19.56 196.67 19.8H187.91C188.15 20.96 189.45 21.86 191.25 21.86C192.43 21.86 193.73 21.46 194.57 20.68ZM190.71 15.78C189.13 15.78 188.09 16.48 187.87 17.74H193.51C193.37 16.52 192.25 15.78 190.71 15.78ZM208.528 13.42V15.82C208.248 15.8 208.128 15.8 207.788 15.8C206.228 15.8 204.828 16.38 204.108 17.28V24H200.868V13.64H203.408L203.888 15.12C204.668 14.06 206.388 13.4 207.968 13.4C208.208 13.4 208.428 13.42 208.528 13.42Z" fill="#26234F"/>
<rect y="10.8711" width="3.10605" height="20.1893" fill="#26234F"/>
<rect x="13.9766" y="1.55273" width="3.10605" height="12.4242" fill="#26234F"/>
<rect x="17.084" y="29.5078" width="3.10605" height="12.4242" transform="rotate(-180 17.084 29.5078)" fill="#26234F"/>
<rect x="17.084" width="3.10605" height="9.31814" transform="rotate(90 17.084 0)" fill="#26234F"/>
<rect x="13.9766" y="31.0605" width="3.10605" height="9.31814" transform="rotate(-90 13.9766 31.0605)" fill="#26234F"/>
<rect x="27.9551" width="3.10605" height="21.7423" fill="#26234F"/>
<path d="M7.76562 0H10.8717V31.0605H7.76562V0Z" fill="#26234F"/>
<rect x="20.1894" width="3.10605" height="31.0605" fill="#26234F"/>
</svg>
