<svg width="32" height="32" viewBox="0 0 32 32" fill="none" xmlns="http://www.w3.org/2000/svg">
<path d="M20.7348 17.3282L18.0547 20.0174C16.9679 21.108 15.0557 21.1315 13.9453 20.0174L11.2652 17.3282L1.63916 26.9855C1.99747 27.1512 2.39254 27.2501 2.81254 27.2501H29.1875C29.6075 27.2501 30.0025 27.1513 30.3607 26.9856L20.7348 17.3282Z" fill="#26234F"/>
<path d="M29.1875 4.75H2.8125C2.3925 4.75 1.99744 4.84888 1.63925 5.01456L11.9253 15.3347C11.926 15.3354 11.9268 15.3356 11.9275 15.3362C11.9279 15.3367 11.9282 15.3373 11.9283 15.3379L15.2729 18.6935C15.6281 19.0487 16.372 19.0487 16.7272 18.6935L20.0711 15.3384C20.0711 15.3384 20.0719 15.3369 20.0726 15.3362C20.0726 15.3362 20.0741 15.3354 20.0748 15.3347L30.3606 5.0145C30.0024 4.84875 29.6075 4.75 29.1875 4.75ZM0.299125 6.32575C0.11375 6.70062 0 7.11675 0 7.5625V24.4375C0 24.8832 0.113625 25.2994 0.299062 25.6742L9.94175 16.0003L0.299125 6.32575ZM31.7009 6.32562L22.0583 16.0003L31.7009 25.6744C31.8862 25.2995 32 24.8834 32 24.4375V7.5625C32 7.11662 31.8862 6.7005 31.7009 6.32562Z" fill="#26234F"/>
</svg>
