<svg width="24" height="24" viewBox="0 0 24 24" fill="none" xmlns="http://www.w3.org/2000/svg">
<g id="Frame" clip-path="url(#clip0_126_1167)">
<g id="Group">
<path id="Vector" d="M17.2628 10.2556H17.967V10.9359H17.2628V10.2556ZM14.4458 17.9505H15.1501V18.6542H14.4458V17.9505ZM20.4319 23.2962H21.1361V24H20.4319V23.2962Z" fill="#26234F"/>
<path id="Vector_2" d="M23.2487 15.8508H23.9999V15.2346L21.6507 13.0356H21.136V8.10895H21.8872V7.49273L19.538 5.29377H13.0632V3.88612H10.9245V5.29373H10.1772L7.4062 2.31342L0.0546543 10.2203H2.4735V19.3769C1.19775 19.3769 0.00463867 20.8388 0.00463867 21.8371V24H19.7275V23.2962H0.708889V22.5409H23.2887V23.2962H21.8402V24H23.9929L23.9999 21.8371C23.9264 21.2361 23.641 20.6932 23.2487 20.2707V15.8508ZM22.5445 19.7194C22.3256 19.5985 22.0914 19.5075 21.8482 19.4488V16.5546H13.0372V21.1368H18.5777C18.4875 21.3614 18.427 21.5968 18.3976 21.8371H12.3389V15.8508H22.5445V19.7194ZM18.9878 20.4329H17.7948V17.2584H21.144V19.3709C20.2717 19.3844 19.4949 19.7965 18.9878 20.4329ZM13.7414 20.4329V17.2584H17.0905V20.4329H13.7414ZM20.4317 11.6279H16.5584V9.51656H20.4317V11.6279ZM20.4317 8.81273H15.8542V12.3317H20.4317V13.0355H19.0462V13.7393H21.3724L22.8762 15.1469H12.3389V13.7393H18.345V13.0355H12.3389V10.2203H14.7577L12.7946 8.1089H20.4317V8.81273ZM11.6287 4.58995H12.3589V5.29373H11.6287V4.58995ZM19.2597 5.99751L20.7634 7.40512H12.1402L10.8315 5.99751H19.2597ZM7.4062 3.34743L13.142 9.51656H12.1402L10.132 7.35656L9.61612 7.83567L11.6347 10.0067V21.8371H9.51595V15.8508H5.29645V21.8371H3.1777V10.0067L7.40616 5.45882L9.11133 7.29281L9.62723 6.8137L7.4062 4.42485L2.67211 9.51656H1.67034L7.4062 3.34743ZM8.8117 21.8371H6.0007V16.5546H8.8117V21.8371ZM2.47345 20.0886V21.8371H0.73842C0.886733 20.9483 1.58662 20.2441 2.47345 20.0886ZM19.1085 21.8371C19.2729 20.8382 20.1426 20.0736 21.1879 20.0736C22.2333 20.0736 23.1029 20.8382 23.2673 21.8371H19.1085Z" fill="#26234F"/>
<path id="Vector_3" d="M7.4033 13.0121C8.37412 13.0121 9.16392 12.2228 9.16392 11.2526C9.16392 10.2824 8.37412 9.49313 7.4033 9.49313C6.43247 9.49313 5.64267 10.2824 5.64267 11.2526C5.64267 12.2228 6.43247 13.0121 7.4033 13.0121ZM7.4033 10.1969C7.98577 10.1969 8.45967 10.6705 8.45967 11.2526C8.45967 11.8347 7.98581 12.3083 7.4033 12.3083C6.82078 12.3083 6.34692 11.8347 6.34692 11.2526C6.34692 10.6705 6.82078 10.1969 7.4033 10.1969ZM5.64567 14.0913H6.34992V14.7951H5.64567V14.0913ZM7.05417 14.0913H7.75842V14.7951H7.05417V14.0913ZM8.46267 14.0913H9.16692V14.7951H8.46267V14.0913ZM7.4033 18.666H8.10755V19.3698H7.4033V18.666ZM19.7026 2.81822H22.5695C23.347 2.81822 23.9795 2.18606 23.9795 1.40911C23.9795 0.632156 23.347 0 22.5695 0H19.7026C18.9252 0 18.2926 0.632156 18.2926 1.40911C18.2926 2.18606 18.9252 2.81822 19.7026 2.81822ZM19.7026 0.703781H22.5695C22.9587 0.703781 23.2753 1.02019 23.2753 1.40911C23.2753 1.79803 22.9587 2.11444 22.5695 2.11444H19.7026C19.3135 2.11444 18.9969 1.79803 18.9969 1.40911C18.9969 1.02019 19.3135 0.703781 19.7026 0.703781ZM1.41 2.81822H4.27688C5.05434 2.81822 5.68687 2.18606 5.68687 1.40911C5.68687 0.632156 5.05434 0 4.27688 0H1.41C0.632531 0 0 0.632156 0 1.40911C0 2.18606 0.632531 2.81822 1.41 2.81822ZM1.41 0.703781H4.27688C4.66603 0.703781 4.98263 1.02019 4.98263 1.40911C4.98263 1.79803 4.66603 2.11444 4.27688 2.11444H1.41C1.02084 2.11444 0.70425 1.79803 0.70425 1.40911C0.70425 1.02019 1.02084 0.703781 1.41 0.703781Z" fill="#26234F"/>
</g>
</g>
<defs>
<clipPath id="clip0_126_1167">
<rect width="24" height="24" fill="white"/>
</clipPath>
</defs>
</svg>
