<svg width="20" height="20" viewBox="0 0 20 20" fill="none" xmlns="http://www.w3.org/2000/svg">
<g id="Frame" clip-path="url(#clip0_427_1469)">
<g id="Group">
<g id="Group_2">
<path id="Vector" d="M5.34015 12.6731L2.82714 3.67446C2.82703 3.67407 2.82692 3.67368 2.82682 3.6733C2.82393 3.6628 2.82095 3.65233 2.81789 3.64188C4.59782 1.97636 6.91632 2.20731 9.52936 2.46761L9.60318 2.47496C12.0032 2.71388 14.6508 2.95738 16.7275 1.1007C16.4709 2.90767 16.1086 4.69827 15.6423 6.46328C15.6008 6.60955 15.6004 6.76448 15.6412 6.91106L16.1229 6.77697L15.6412 6.91106C15.6827 7.06014 15.7651 7.19462 15.8792 7.2992C16.958 8.28952 18.164 9.13114 19.465 9.80195C19.4631 9.80751 19.4612 9.81308 19.459 9.81862C19.4453 9.85456 19.4306 9.87729 19.422 9.88772L19.807 10.2067M5.34015 12.6731L5.48694 13.1987C7.40851 11.5643 9.85473 11.8088 12.3009 12.0533C15.0516 12.3283 17.8023 12.6032 19.807 10.2067M5.34015 12.6731C7.39862 11.0577 9.96059 11.3154 12.2793 11.5486C12.3666 11.5573 12.4535 11.5661 12.5401 11.5747C15.2637 11.8456 17.6555 11.9994 19.4235 9.88591L19.807 10.2067M5.34015 12.6731L19.8863 9.455C20.0449 9.52397 20.007 9.96535 19.807 10.2067M4.92712 19.501L4.92704 19.501C4.88468 19.5128 4.83935 19.5074 4.80103 19.4858C4.76273 19.4642 4.73455 19.4283 4.7227 19.3859C4.7227 19.3859 4.7227 19.3859 4.72269 19.3859L0.512736 4.32123C0.512727 4.3212 0.512719 4.32117 0.51271 4.32114C0.489041 4.23627 0.500031 4.14548 0.543269 4.06871C0.586401 3.99213 0.658101 3.93576 0.742675 3.9119L0.789068 3.89913L0.789069 3.89913L0.79098 3.8986C0.833023 3.88684 0.876971 3.88348 0.920315 3.88871C0.963657 3.89394 1.00555 3.90765 1.04359 3.92907C1.08163 3.95049 1.11508 3.97919 1.14203 4.01354C1.16897 4.04788 1.18888 4.08719 1.20064 4.12922C1.20064 4.12923 1.20064 4.12924 1.20065 4.12925L5.41029 19.1937L5.41033 19.1938C5.4162 19.2148 5.41788 19.2368 5.41527 19.2584C5.41266 19.28 5.40582 19.3009 5.39513 19.3199C5.38444 19.3389 5.37012 19.3556 5.35298 19.369C5.33583 19.3825 5.31621 19.3924 5.29523 19.3983L4.92712 19.501Z" stroke="#AFAFAF"/>
</g>
</g>
</g>
<defs>
<clipPath id="clip0_427_1469">
<rect width="20" height="20" fill="white"/>
</clipPath>
</defs>
</svg>
