<svg width="24" height="24" viewBox="0 0 24 24" fill="none" xmlns="http://www.w3.org/2000/svg">
<g id="Frame" clip-path="url(#clip0_126_1161)">
<g id="Group">
<path id="Vector" d="M23.625 21.3749H20.5856L19.8818 15.0404L20.6227 12.8174L21.75 13.6844V15.3749C21.75 15.4743 21.7895 15.5697 21.8598 15.64C21.9302 15.7103 22.0255 15.7499 22.125 15.7499C22.2245 15.7499 22.3198 15.7103 22.3902 15.64C22.4605 15.5697 22.5 15.4743 22.5 15.3749V13.6315L23.9179 11.8589C23.9496 11.8194 23.9729 11.774 23.9866 11.7252C24.0002 11.6765 24.0038 11.6255 23.9972 11.5754C23.9906 11.5252 23.9739 11.4769 23.948 11.4334C23.9222 11.3899 23.8878 11.3521 23.847 11.3222L18.081 7.09373L18.7444 3.4416C18.7587 3.36176 18.7469 3.27942 18.7106 3.20685L17.2106 0.207229C17.1855 0.157285 17.1495 0.113577 17.1054 0.0792911C17.0612 0.045005 17.01 0.021005 16.9554 0.00904073C16.9008 -0.00292354 16.8442 -0.00255058 16.7897 0.0101324C16.7353 0.0228155 16.6843 0.0474889 16.6406 0.082354L14.7656 1.58235C14.6948 1.63904 14.6469 1.71951 14.6309 1.80882C14.6149 1.89814 14.6319 1.99022 14.6786 2.06798L15.7147 3.79485L15.2951 5.0511L12.597 3.0726C12.5341 3.02642 12.4583 3.00102 12.3803 2.99994C12.3022 2.99887 12.2258 3.02217 12.1616 3.0666L7.28662 6.4416C7.23678 6.4761 7.19603 6.52216 7.16788 6.57584C7.13974 6.62953 7.12502 6.68924 7.125 6.74985V7.35473L6.4935 7.14398C6.43844 7.12564 6.37988 7.12033 6.32242 7.12846C6.26496 7.13659 6.21018 7.15795 6.16238 7.19085L0.16275 11.3159C0.0840531 11.3699 0.0289467 11.452 0.00866903 11.5453C-0.0116087 11.6386 0.00446962 11.7361 0.053625 11.818L1.125 13.6037V16.4999C1.125 16.5993 1.16451 16.6947 1.23483 16.765C1.30516 16.8353 1.40054 16.8749 1.5 16.8749C1.59946 16.8749 1.69484 16.8353 1.76516 16.765C1.83549 16.6947 1.875 16.5993 1.875 16.4999V13.6967L2.63625 13.1717L3.7365 19.0799L2.75288 21.3749H0.375C0.275544 21.3749 0.180161 21.4144 0.109835 21.4847C0.0395088 21.555 0 21.6504 0 21.7499L0 23.6249C0 23.7243 0.0395088 23.8197 0.109835 23.89C0.180161 23.9603 0.275544 23.9999 0.375 23.9999H23.625C23.7245 23.9999 23.8198 23.9603 23.8902 23.89C23.9605 23.8197 24 23.7243 24 23.6249V21.7499C24 21.6504 23.9605 21.555 23.8902 21.4847C23.8198 21.4144 23.7245 21.3749 23.625 21.3749ZM16.4464 3.55673L15.4901 1.96298L16.7471 0.957604L17.9839 3.4311L17.4079 6.60098L15.93 5.51723L16.4805 3.8691C16.4977 3.81773 16.5036 3.76322 16.4977 3.70935C16.4918 3.65548 16.4743 3.60354 16.4464 3.5571V3.55673ZM6.4335 7.9146L7.38113 8.23073C7.4375 8.24925 7.49745 8.25416 7.55608 8.24508C7.61472 8.236 7.67037 8.21317 7.7185 8.17846C7.76663 8.14376 7.80586 8.09816 7.83299 8.04539C7.86013 7.99263 7.87439 7.93419 7.87463 7.87485V6.94635L12.3682 3.83535L15.2651 5.96085L23.0869 11.6954L22.0613 12.9775L17.6243 9.56423V8.6241C17.6243 8.52465 17.5847 8.42927 17.5144 8.35894C17.4441 8.28861 17.3487 8.2491 17.2493 8.2491H15.8779L12.6045 5.70285C12.5415 5.65393 12.4647 5.62633 12.385 5.62403C12.3053 5.62174 12.2269 5.64488 12.1613 5.6901L1.61662 12.9647L0.877875 11.734L6.4335 7.91423V7.9146ZM4.40325 19.4275L6.31988 18.7889L7.29225 19.4372C7.33322 19.4646 7.37918 19.4836 7.42749 19.4931C7.4758 19.5027 7.52553 19.5027 7.57383 19.493C7.62212 19.4834 7.66805 19.4643 7.70898 19.4369C7.74991 19.4095 7.78504 19.3743 7.81238 19.3334C7.83971 19.2924 7.8587 19.2464 7.86827 19.1981C7.87784 19.1498 7.8778 19.1001 7.86816 19.0518C7.85851 19.0035 7.83945 18.9576 7.81205 18.9166C7.78466 18.8757 7.74947 18.8406 7.7085 18.8132L6.8955 18.2714L7.43738 17.4584C7.46471 17.4174 7.4837 17.3714 7.49327 17.3231C7.50284 17.2748 7.5028 17.2251 7.49316 17.1768C7.48351 17.1285 7.46445 17.0826 7.43705 17.0416C7.40966 17.0007 7.37447 16.9656 7.3335 16.9382C7.29253 16.9109 7.24657 16.8919 7.19826 16.8823C7.14995 16.8728 7.10022 16.8728 7.05192 16.8824C7.00363 16.8921 6.9577 16.9112 6.91677 16.9385C6.87584 16.9659 6.84071 17.0011 6.81338 17.0421L6.13462 18.0599L4.419 18.6317L3.25238 12.7472L5.04975 11.5075L6.68888 12.874L6.39487 13.7564C6.37893 13.803 6.37243 13.8524 6.37574 13.9017C6.37905 13.9509 6.39211 13.999 6.41416 14.0431C6.43621 14.0872 6.46681 14.1266 6.50419 14.1588C6.54156 14.191 6.58496 14.2154 6.63188 14.2307C6.72622 14.2618 6.82901 14.2543 6.91786 14.2099C7.00672 14.1655 7.07443 14.0878 7.10625 13.9937L7.48125 12.8687C7.50519 12.7972 7.50697 12.7202 7.48636 12.6476C7.46575 12.5751 7.42371 12.5105 7.36575 12.4622L5.691 11.0657L12.3622 6.46485L15.5201 8.9211C15.5861 8.97211 15.6671 8.99985 15.7504 8.99985H16.8754V9.74985C16.8754 9.86648 16.9297 9.97635 17.022 10.0469L19.9943 12.3332L19.2926 14.4377L18.0004 13.6622V12.7495C18.0004 12.65 17.9609 12.5546 17.8905 12.4843C17.8202 12.414 17.7248 12.3745 17.6254 12.3745C17.5259 12.3745 17.4305 12.414 17.3602 12.4843C17.2899 12.5546 17.2504 12.65 17.2504 12.7495V13.8745C17.2504 13.9392 17.2671 14.0028 17.299 14.0591C17.3309 14.1154 17.3768 14.1625 17.4323 14.1959L19.1479 15.2252L19.8311 21.3741H19.0429L18.7388 20.158C18.7133 20.063 18.6515 19.9818 18.5667 19.9319C18.482 19.8821 18.381 19.8675 18.2856 19.8913C18.1902 19.9152 18.108 19.9756 18.0567 20.0595C18.0053 20.1434 17.989 20.2441 18.0112 20.3399L18.2696 21.3737H15.6821L15.0015 17.971L15.3743 10.5175C15.377 10.4628 15.3677 10.4082 15.3471 10.3575C15.3264 10.3068 15.2949 10.2612 15.2548 10.224C15.2146 10.1868 15.1668 10.1589 15.1147 10.1421C15.0626 10.1254 15.0074 10.1202 14.9531 10.1271L8.95312 10.8771C8.9034 10.8833 8.85542 10.8995 8.81204 10.9246C8.76865 10.9497 8.73074 10.9832 8.70054 11.0232C8.67033 11.0632 8.64845 11.1088 8.63618 11.1574C8.62392 11.206 8.62152 11.2566 8.62912 11.3061L9.37275 16.1406L9.02362 21.3745H3.5685L4.40325 19.4275ZM10.1269 16.1091L9.70837 13.3892L14.5054 12.8841L14.2481 18.0272L14.9175 21.3749H9.77588L10.1269 16.1091ZM9.429 11.5742L14.6033 10.9274L14.5433 12.1255L9.594 12.6467L9.429 11.5742ZM23.2496 23.2499H0.75V22.1249H23.25L23.2496 23.2499Z" fill="#26234F"/>
<path id="Vector_2" d="M22.1235 17.2485C22.3298 17.2485 22.497 17.0813 22.497 16.875C22.497 16.6687 22.3298 16.5015 22.1235 16.5015C21.9172 16.5015 21.75 16.6687 21.75 16.875C21.75 17.0813 21.9172 17.2485 22.1235 17.2485Z" fill="#26234F"/>
<path id="Vector_3" d="M12.9393 17.25C13.2487 17.25 13.4999 16.998 13.4999 16.6875C13.4999 16.377 13.249 16.125 12.9393 16.125C12.6295 16.125 12.3787 16.377 12.3787 16.6875C12.3787 16.998 12.6295 17.25 12.9393 17.25Z" fill="#26234F"/>
</g>
</g>
<defs>
<clipPath id="clip0_126_1161">
<rect width="24" height="24" fill="white"/>
</clipPath>
</defs>
</svg>
