<svg width="20" height="20" viewBox="0 0 20 20" fill="none" xmlns="http://www.w3.org/2000/svg">
<g id="Frame" clip-path="url(#clip0_126_1255)">
<g id="Group">
<path id="Vector" d="M18.3291 10.5091V14.4294H11.8926V10.4083L15.0603 7.23828L18.3291 10.5091Z" fill="#E4E3FF"/>
<path id="Vector_2" d="M18.3311 10.1555V14.0759H11.8945V10.0544L15.0622 6.88477L18.3311 10.1555Z" fill="#E4E3FF"/>
<path id="Vector_3" d="M18.3312 10.1563V10.8409L15.0623 7.57053L11.8947 10.7401V10.0555L15.0623 6.88553L18.3312 10.1563Z" fill="#D0D0F7"/>
<path id="Vector_4" d="M18.68 13.8719V14.2608C18.68 14.2899 18.6743 14.3187 18.6632 14.3456C18.652 14.3724 18.6357 14.3969 18.6152 14.4174C18.5946 14.438 18.5702 14.4543 18.5433 14.4654C18.5164 14.4766 18.4876 14.4823 18.4585 14.4823H11.7616C11.7028 14.4823 11.6465 14.459 11.6049 14.4174C11.5634 14.3759 11.54 14.3195 11.54 14.2608V13.8719C11.54 13.7496 11.6393 13.6504 11.7616 13.6504H18.4585C18.5808 13.6504 18.68 13.7496 18.68 13.8719Z" fill="#FC6559"/>
<path id="Vector_5" d="M18.6808 13.8715V14.2612C18.6808 14.3198 18.6575 14.3761 18.616 14.4175C18.5746 14.459 18.5183 14.4823 18.4597 14.4823H11.7612C11.7025 14.4823 11.6463 14.459 11.6048 14.4175C11.5633 14.3761 11.54 14.3198 11.54 14.2612V14.1819H18.157C18.2158 14.1814 18.272 14.1577 18.3135 14.1159C18.3549 14.0741 18.3781 14.0177 18.3781 13.9589V13.6504H18.4597C18.582 13.6504 18.6808 13.7492 18.6808 13.8715Z" fill="#F05543"/>
<path id="Vector_6" d="M19.1033 10.4621C19.0601 10.5069 19.0082 10.5425 18.9508 10.5666C18.8934 10.5906 18.8317 10.6027 18.7695 10.6021C18.6475 10.6021 18.526 10.5571 18.4356 10.4621L17.9664 9.99786L15.0672 7.09363L13.1056 9.05978L11.7929 10.3721C11.7026 10.4589 11.5822 10.5074 11.457 10.5074C11.3317 10.5074 11.2113 10.4589 11.121 10.3721C11.0322 10.2828 10.9824 10.162 10.9824 10.0361C10.9824 9.91023 11.0322 9.78945 11.121 9.70017L11.9737 8.84324L13.1056 7.71593L14.1337 6.68786L14.7287 6.08786C14.8191 5.99786 14.9406 5.94824 15.0672 5.94824C15.1933 5.94824 15.3152 5.99786 15.4006 6.08786L15.996 6.68324L19.1033 9.79017C19.2925 9.97517 19.2925 10.2775 19.1033 10.4621Z" fill="#FC6559"/>
<g id="Group_2" opacity="0.3">
<path id="Vector_7" d="M12.9377 8.31252C12.9287 8.30351 12.9215 8.29281 12.9166 8.28103C12.9117 8.26925 12.9092 8.25662 12.9092 8.24386C12.9092 8.23111 12.9117 8.21848 12.9166 8.2067C12.9215 8.19491 12.9287 8.18421 12.9377 8.17521L13.0661 8.04675C13.0843 8.02854 13.109 8.01829 13.1347 8.01825C13.1604 8.01822 13.1851 8.0284 13.2033 8.04656C13.2215 8.06471 13.2317 8.08936 13.2318 8.11507C13.2318 8.14079 13.2216 8.16546 13.2035 8.18367L13.0746 8.31252C13.0564 8.33065 13.0318 8.34083 13.0061 8.34083C12.9805 8.34083 12.9559 8.33065 12.9377 8.31252ZM13.2542 7.99559C13.2452 7.98659 13.238 7.97589 13.2331 7.96411C13.2282 7.95233 13.2257 7.9397 13.2257 7.92694C13.2257 7.91418 13.2282 7.90155 13.2331 7.88977C13.238 7.87799 13.2452 7.86729 13.2542 7.85829L14.0938 7.01867C14.112 7.00046 14.1367 6.99023 14.1625 6.99023C14.1882 6.99023 14.2129 7.00046 14.2311 7.01867C14.2494 7.03688 14.2596 7.06158 14.2596 7.08733C14.2596 7.11308 14.2494 7.13777 14.2311 7.15598L13.3915 7.99559C13.3825 8.00463 13.3718 8.0118 13.36 8.01669C13.3483 8.02158 13.3356 8.0241 13.3229 8.0241C13.3101 8.0241 13.2975 8.02158 13.2857 8.01669C13.2739 8.0118 13.2632 8.00463 13.2542 7.99559Z" fill="white"/>
</g>
<path id="Vector_8" d="M14.9894 9.95398V11.1667C14.9895 11.1841 14.9861 11.2013 14.9795 11.2174C14.9728 11.2335 14.9631 11.2482 14.9508 11.2605C14.9385 11.2728 14.9239 11.2826 14.9078 11.2893C14.8917 11.2959 14.8745 11.2994 14.8571 11.2994H13.6444C13.627 11.2994 13.6097 11.296 13.5936 11.2894C13.5775 11.2827 13.5628 11.2729 13.5505 11.2606C13.5381 11.2483 13.5284 11.2336 13.5217 11.2175C13.5151 11.2014 13.5117 11.1841 13.5117 11.1667V9.95398C13.5117 9.88052 13.571 9.82129 13.6444 9.82129H14.8571C14.9306 9.82129 14.9894 9.88052 14.9894 9.95398Z" fill="#7D8DB3"/>
<path id="Vector_9" d="M14.9884 9.93706C14.9827 9.9359 14.9761 9.9359 14.9704 9.9359H13.7588C13.7233 9.9359 13.6893 9.95001 13.6642 9.97511C13.6391 10.0002 13.625 10.0343 13.625 10.0698V11.2813C13.625 11.2871 13.625 11.2928 13.6261 11.2982C13.5944 11.294 13.5652 11.2784 13.544 11.2544C13.5228 11.2303 13.511 11.1995 13.5107 11.1674V9.95398C13.5107 9.88013 13.5707 9.82129 13.6442 9.82129H14.8557C14.9238 9.82129 14.9804 9.87129 14.9884 9.93667V9.93706Z" fill="#7979F7"/>
<path id="Vector_10" d="M16.7154 9.95398V11.1667C16.7154 11.1841 16.712 11.2014 16.7054 11.2175C16.6987 11.2336 16.689 11.2483 16.6766 11.2606C16.6643 11.2729 16.6497 11.2827 16.6335 11.2894C16.6174 11.296 16.6001 11.2994 16.5827 11.2994H15.37C15.3526 11.2994 15.3353 11.296 15.3192 11.2894C15.303 11.2827 15.2884 11.2729 15.2761 11.2606C15.2637 11.2483 15.254 11.2336 15.2473 11.2175C15.2407 11.2014 15.2373 11.1841 15.2373 11.1667V9.95398C15.2373 9.88052 15.2965 9.82129 15.37 9.82129H16.5827C16.6565 9.82129 16.7154 9.88052 16.7154 9.95398Z" fill="#7D8DB3"/>
<path id="Vector_11" d="M16.714 9.93706C16.7086 9.9359 16.7017 9.9359 16.6959 9.9359H15.4844C15.4489 9.9359 15.4149 9.95001 15.3898 9.97511C15.3647 10.0002 15.3506 10.0343 15.3506 10.0698V11.2813C15.3506 11.2871 15.3506 11.2928 15.3517 11.2982C15.32 11.294 15.2908 11.2784 15.2696 11.2544C15.2484 11.2303 15.2366 11.1995 15.2363 11.1674V9.95398C15.2363 9.88013 15.2963 9.82129 15.3698 9.82129H16.5817C16.6498 9.82129 16.7063 9.87129 16.714 9.93667V9.93706Z" fill="#7979F7"/>
<path id="Vector_12" d="M14.9894 11.662V12.8747C14.9895 12.8921 14.9861 12.9093 14.9795 12.9254C14.9728 12.9415 14.9631 12.9562 14.9508 12.9685C14.9385 12.9808 14.9239 12.9906 14.9078 12.9973C14.8917 13.0039 14.8745 13.0074 14.8571 13.0074H13.6444C13.627 13.0074 13.6097 13.004 13.5936 12.9974C13.5775 12.9907 13.5628 12.981 13.5505 12.9686C13.5381 12.9563 13.5284 12.9416 13.5217 12.9255C13.5151 12.9094 13.5117 12.8921 13.5117 12.8747V11.662C13.5117 11.5885 13.571 11.5293 13.6444 11.5293H14.8571C14.9306 11.5293 14.9894 11.5885 14.9894 11.662Z" fill="#7D8DB3"/>
<path id="Vector_13" d="M14.9884 11.6447C14.9827 11.6435 14.9761 11.6435 14.9704 11.6435H13.7588C13.7234 11.6435 13.6894 11.6576 13.6643 11.6826C13.6392 11.7076 13.6251 11.7416 13.625 11.777V12.9885C13.625 12.9943 13.625 13.0001 13.6261 13.0058C13.5942 13.0016 13.565 12.9859 13.5438 12.9617C13.5226 12.9375 13.5108 12.9065 13.5107 12.8743V11.6616C13.5107 11.5881 13.5707 11.5293 13.6442 11.5293H14.8557C14.9238 11.5293 14.9804 11.5789 14.9884 11.6447Z" fill="#7979F7"/>
<path id="Vector_14" d="M16.7154 11.662V12.8747C16.7154 12.8921 16.712 12.9094 16.7054 12.9255C16.6987 12.9416 16.689 12.9563 16.6766 12.9686C16.6643 12.981 16.6497 12.9907 16.6335 12.9974C16.6174 13.004 16.6001 13.0074 16.5827 13.0074H15.37C15.3526 13.0074 15.3353 13.004 15.3192 12.9974C15.303 12.9907 15.2884 12.981 15.2761 12.9686C15.2637 12.9563 15.254 12.9416 15.2473 12.9255C15.2407 12.9094 15.2373 12.8921 15.2373 12.8747V11.662C15.2373 11.5885 15.2965 11.5293 15.37 11.5293H16.5827C16.6565 11.5293 16.7154 11.5885 16.7154 11.662Z" fill="#7D8DB3"/>
<path id="Vector_15" d="M16.714 11.6447C16.7086 11.6435 16.7017 11.6435 16.6959 11.6435H15.4844C15.449 11.6435 15.415 11.6576 15.3899 11.6826C15.3648 11.7076 15.3507 11.7416 15.3506 11.777V12.9885C15.3506 12.9943 15.3506 13.0001 15.3517 13.0058C15.3198 13.0016 15.2906 12.9859 15.2694 12.9617C15.2482 12.9375 15.2364 12.9065 15.2363 12.8743V11.6616C15.2363 11.5881 15.2963 11.5293 15.3698 11.5293H16.5817C16.6498 11.5293 16.7063 11.5789 16.714 11.6447Z" fill="#7979F7"/>
<path id="Vector_16" d="M11.7574 0.994746C11.2844 1.21416 10.9013 1.5897 10.6725 2.05826C10.4436 2.52682 10.383 3.05986 10.5009 3.56782C10.5413 3.74167 10.4705 3.92244 10.3263 4.02821L5.23896 7.75513C5.11196 7.85672 5.0291 8.00344 5.00769 8.16465C4.98628 8.32587 5.02796 8.48913 5.12404 8.62035C5.22012 8.75156 5.36317 8.8406 5.52333 8.86887C5.68349 8.89714 5.84838 8.86245 5.98357 8.77205L6.55665 8.35282L7.34396 9.42782C7.38606 9.48545 7.43912 9.53419 7.50009 9.57127C7.56107 9.60835 7.62877 9.63303 7.6993 9.64389C7.76983 9.65475 7.84182 9.65158 7.91112 9.63457C7.98043 9.61756 8.0457 9.58703 8.10319 9.54475C8.16084 9.50268 8.20962 9.44964 8.24674 9.38867C8.28385 9.32771 8.30856 9.26002 8.31946 9.18948C8.33036 9.11895 8.32723 9.04696 8.31024 8.97764C8.29326 8.90831 8.26276 8.84303 8.22049 8.78552L7.4328 7.71052L7.89434 7.37205L8.48934 8.18436C8.53141 8.24207 8.58447 8.2909 8.64547 8.32805C8.70647 8.36519 8.7742 8.38993 8.84478 8.40083C8.91536 8.41173 8.9874 8.40858 9.05676 8.39156C9.12612 8.37455 9.19143 8.344 9.24896 8.30167C9.30658 8.25957 9.35533 8.20651 9.3924 8.14553C9.42948 8.08455 9.45416 8.01686 9.46502 7.94632C9.47588 7.87579 9.47272 7.80381 9.4557 7.7345C9.43869 7.66519 9.40817 7.59993 9.36588 7.54244L8.77088 6.73013L11.0709 5.04513C11.2132 4.9409 11.4055 4.92359 11.557 5.01359C11.9395 5.24149 12.3807 5.35178 12.8254 5.33072C13.2702 5.30965 13.6989 5.15816 14.0582 4.89513C14.3321 4.69427 14.5575 4.43468 14.7181 4.13538C14.8786 3.83609 14.9702 3.50467 14.986 3.1654C15.0019 2.82614 14.9416 2.48762 14.8097 2.17466C14.6778 1.86169 14.4775 1.5822 14.2236 1.35667C13.5605 0.755131 12.5666 0.611285 11.7574 0.995131V0.994746ZM13.5966 3.85128C13.4652 3.99727 13.2995 4.10828 13.1145 4.17432C12.9295 4.24036 12.731 4.25935 12.5368 4.2296C12.3427 4.19984 12.159 4.12227 12.0022 4.00386C11.8455 3.88546 11.7206 3.72993 11.639 3.55129C11.5411 3.33919 11.5083 3.10283 11.5448 2.87211C11.5813 2.64139 11.6854 2.42667 11.844 2.25513C12.0582 2.03294 12.3506 1.90304 12.6591 1.89302C12.9676 1.883 13.2678 1.99365 13.496 2.20146C13.7242 2.40928 13.8623 2.69787 13.8811 3.00594C13.8999 3.31401 13.7979 3.61727 13.5966 3.85128Z" fill="#F2D891"/>
<path id="Vector_17" d="M11.7579 0.994334C11.2847 1.21355 10.9016 1.58912 10.673 2.0578C10.4444 2.52647 10.3843 3.05961 10.5029 3.56741C10.5406 3.74357 10.4729 3.92203 10.3259 4.02972L5.23979 7.75587C5.10518 7.85454 5.01507 8.00245 4.98913 8.16732C4.96319 8.3322 5.00352 8.50064 5.10133 8.63587C5.2621 8.85587 5.54364 8.93972 5.79056 8.86626C5.72941 8.82721 5.67617 8.77697 5.63364 8.71818C5.58438 8.65165 5.54874 8.57606 5.52875 8.49573C5.50876 8.4154 5.50481 8.33192 5.51714 8.25007C5.52946 8.16821 5.55782 8.0896 5.60058 8.01872C5.64334 7.94784 5.69967 7.8861 5.76633 7.83703L10.8559 4.10818C10.9994 4.00356 11.0706 3.82241 11.029 3.64856C10.912 3.14076 10.9728 2.60818 11.2013 2.13984C11.4298 1.6715 11.8121 1.29578 12.2844 1.07549C12.6091 0.923636 12.9655 0.852262 13.3236 0.867411C12.8036 0.719942 12.2474 0.765007 11.7579 0.994334Z" fill="#DBC998"/>
<path id="Vector_18" d="M14.2858 1.41545C14.6194 1.29007 14.9784 1.24737 15.3322 1.29103C15.6859 1.33468 16.0238 1.46338 16.3169 1.66612C16.61 1.86886 16.8497 2.1396 17.0153 2.45517C17.181 2.77074 17.2677 3.12174 17.2681 3.47815C17.2681 4.69738 16.2796 5.69045 15.0643 5.69045C14.4776 5.68974 13.9152 5.45639 13.5004 5.04158C13.0856 4.62678 12.8523 4.06439 12.8516 3.47776C12.8516 2.92968 13.0273 2.45392 13.3612 2.06815C13.4904 2.16238 13.5766 2.22699 13.6858 2.38468C13.5231 2.65007 13.3035 3.14507 13.3035 3.47776C13.304 3.94469 13.4897 4.39235 13.8199 4.72252C14.15 5.05269 14.5977 5.23841 15.0646 5.23892C16.0308 5.23892 16.8166 4.44892 16.8166 3.47776C16.8163 3.20803 16.7538 2.94199 16.634 2.70034C16.5141 2.45868 16.3402 2.24793 16.1256 2.08446C15.911 1.92099 15.6617 1.80922 15.3969 1.75782C15.1321 1.70643 14.859 1.71681 14.5989 1.78815" fill="#474646"/>
<path id="Vector_19" d="M15.9955 6.68324C15.9009 6.82286 15.7386 6.91786 15.5536 6.91786H14.5751C14.3901 6.91786 14.2278 6.82747 14.1328 6.68786L14.7282 6.08786C14.8186 5.99786 14.9401 5.94824 15.0667 5.94824C15.1928 5.94824 15.3147 5.99786 15.4001 6.08786L15.9955 6.68324Z" fill="#F05543"/>
<path id="Vector_20" d="M15.8151 5.35242V6.38395C15.8151 6.45342 15.7875 6.52004 15.7384 6.56916C15.6893 6.61828 15.6226 6.64588 15.5532 6.64588H14.5778C14.5427 6.6468 14.5078 6.64072 14.4751 6.628C14.4424 6.61528 14.4125 6.59617 14.3873 6.57178C14.362 6.5474 14.3419 6.51823 14.3281 6.48598C14.3142 6.45373 14.3069 6.41905 14.3066 6.38395V5.35319C14.3066 5.19934 14.4239 5.08203 14.5778 5.08203H15.5532C15.6974 5.08203 15.8147 5.19934 15.8147 5.3528L15.8151 5.35242Z" fill="#B75F25"/>
<path id="Vector_21" d="M15.8158 5.35706V6.38783C15.8159 6.42226 15.8091 6.45636 15.796 6.48818C15.7828 6.52 15.7636 6.54892 15.7392 6.57329C15.7149 6.59765 15.686 6.61698 15.6542 6.63016C15.6224 6.64335 15.5883 6.65014 15.5539 6.65014H14.5785C14.5435 6.65101 14.5086 6.64489 14.4759 6.63215C14.4433 6.6194 14.4134 6.60028 14.3882 6.5759C14.363 6.55153 14.343 6.52238 14.3291 6.49015C14.3153 6.45793 14.308 6.42328 14.3077 6.38821V6.23437H15.1385C15.2827 6.23437 15.4 6.11706 15.4 5.97283V5.08591H15.5539C15.6985 5.08591 15.8158 5.2036 15.8158 5.35706Z" fill="#AA5821"/>
<path id="Vector_22" d="M15.372 6.0086C15.372 6.18014 15.2366 6.32475 15.0651 6.32475C15.0235 6.32501 14.9822 6.317 14.9438 6.30121C14.9053 6.28541 14.8703 6.26213 14.8409 6.23272C14.8115 6.20331 14.7883 6.16836 14.7725 6.12989C14.7567 6.09141 14.7487 6.05019 14.7489 6.0086C14.7489 5.83706 14.8843 5.69244 15.0651 5.69244C15.2366 5.69244 15.372 5.83706 15.372 6.0086Z" fill="#E4E3FF"/>
<path id="Vector_23" d="M14.1263 14.9616L17.8313 13.2531C18.4724 12.9427 19.2171 13.4097 19.2171 14.122C19.217 14.2932 19.1714 14.4614 19.085 14.6092C18.9986 14.757 18.8744 14.8792 18.7251 14.9631C18.7251 14.9631 13.0251 19.0716 10.4874 19.2143C8.83974 19.3066 4.4082 16.642 4.4082 16.642V11.8908C4.4082 11.8908 5.83282 11.8508 7.50974 11.8908C8.7209 11.9197 10.0309 12.5331 11.0386 13.442L13.2967 13.4416C13.5583 13.4416 13.8092 13.5455 13.9943 13.7305C14.1793 13.9156 14.2832 14.1665 14.2832 14.4281C14.2832 14.6898 14.1793 14.9407 13.9943 15.1257C13.8092 15.3107 13.5583 15.4147 13.2967 15.4147H8.93397L14.1263 14.9616Z" fill="#F7C9A9"/>
<path id="Vector_24" d="M19.2178 14.123C19.2178 14.4692 19.0293 14.7923 18.7255 14.9615C18.7255 14.9615 13.0255 19.073 10.487 19.2154C9.44856 19.273 7.3024 18.2346 5.8601 17.4615C5.74856 17.4 5.64087 17.3423 5.54087 17.2884C5.44856 17.2384 5.3601 17.1884 5.27548 17.1423C4.74856 16.8461 4.40625 16.6423 4.40625 16.6423V11.8923C4.40625 11.8923 4.99856 11.873 5.86394 11.873V16.1461C5.86394 16.5769 6.1024 16.973 6.48702 17.1692C7.86779 17.8769 9.59087 18.6423 10.487 18.5923C13.0255 18.4461 18.7255 14.3384 18.7255 14.3384C18.937 14.2192 19.0909 14.0307 19.1639 13.8077C19.1986 13.9038 19.2178 14.0115 19.2178 14.123Z" fill="#F0B68E"/>
<path id="Vector_25" d="M5.27124 11.6032V17.384C5.27124 17.588 5.1902 17.7837 5.04594 17.9279C4.90168 18.0722 4.70603 18.1532 4.50201 18.1532H1.52509C1.09817 18.1532 0.755859 17.8109 0.755859 17.384V11.6032C0.755859 11.1801 1.10201 10.834 1.52509 10.834H4.50201C4.92509 10.834 5.27124 11.1801 5.27124 11.6032Z" fill="#7D8DB3"/>
<path id="Vector_26" d="M14.2836 14.4281C14.3159 14.6754 14.2328 14.9397 14.0697 15.1473C13.8943 15.3557 13.646 15.4893 13.3755 15.5208C12.8674 15.555 12.3859 15.5531 11.8897 15.5585C11.3974 15.555 10.9044 15.5516 10.4117 15.5254C9.91936 15.5023 9.42629 15.4743 8.93359 15.4143C9.42629 15.3543 9.91898 15.3266 10.4117 15.3035C10.9044 15.2774 11.3971 15.2735 11.8897 15.27C12.379 15.2723 12.8832 15.2808 13.3601 15.3008C13.8017 15.3016 14.2297 14.9262 14.2832 14.4277L14.2836 14.4281Z" fill="#F0B68E"/>
<path id="Vector_27" d="M4.40777 16.8147C4.40777 17.1532 4.13854 17.4224 3.80008 17.4224C3.46546 17.4224 3.19238 17.1532 3.19238 16.8147C3.19238 16.4801 3.46546 16.207 3.80008 16.207C4.13854 16.207 4.40777 16.4801 4.40777 16.8147Z" fill="#E4E3FF"/>
<path id="Vector_28" d="M4.4066 16.8155C4.4066 17.154 4.13737 17.4232 3.7989 17.4232C3.55275 17.4232 3.33736 17.277 3.24121 17.0617C3.31813 17.0963 3.40275 17.1155 3.49121 17.1155C3.82967 17.1155 4.0989 16.8463 4.0989 16.5078C4.0989 16.4194 4.07967 16.3347 4.04506 16.2578C4.26044 16.354 4.4066 16.5694 4.4066 16.8155Z" fill="#D0D0F7"/>
<path id="Vector_29" d="M5.43077 11.6808V17.4615C5.43077 17.6656 5.34973 17.8612 5.20547 18.0055C5.06121 18.1497 4.86555 18.2308 4.66154 18.2308H1.68462C1.38462 18.2308 1.12692 18.0615 1 17.8154C1.10385 17.8692 1.22692 17.9 1.35385 17.9H4.33077C4.53478 17.9 4.73044 17.819 4.8747 17.6747C5.01896 17.5304 5.1 17.3348 5.1 17.1308V11.35C5.1 11.2231 5.06923 11.1038 5.01538 11C5.26154 11.1269 5.43077 11.3846 5.43077 11.6808Z" fill="#40537E"/>
<path id="Vector_30" opacity="0.3" d="M8.63043 12.8674C8.61004 12.8675 8.58977 12.8643 8.57043 12.8578C8.1962 12.7347 7.83312 12.6686 7.49043 12.6609C7.04966 12.6494 6.62735 12.6444 6.24427 12.6424C6.19327 12.6422 6.14444 12.6218 6.10852 12.5856C6.0726 12.5494 6.05253 12.5004 6.05274 12.4494C6.05294 12.3983 6.0734 12.3495 6.10961 12.3136C6.14581 12.2777 6.19481 12.2576 6.24581 12.2578H6.24697C6.63158 12.2597 7.0562 12.2651 7.49966 12.2763C7.87966 12.2847 8.28043 12.3578 8.69043 12.4924C8.73387 12.5067 8.7708 12.536 8.7946 12.575C8.81839 12.6141 8.8275 12.6604 8.82027 12.7055C8.81305 12.7507 8.78997 12.7918 8.75518 12.8214C8.72038 12.8511 8.67616 12.8674 8.63043 12.8674Z" fill="white"/>
</g>
</g>
<defs>
<clipPath id="clip0_126_1255">
<rect width="20" height="20" fill="white"/>
</clipPath>
</defs>
</svg>
