<svg width="104" height="104" viewBox="0 0 104 104" fill="none" xmlns="http://www.w3.org/2000/svg">
<g id="Frame">
<g id="Group">
<path id="Vector" d="M94.1687 28.7219V91.4672C94.1687 98.3937 88.5625 104 81.6359 104H31.9109C24.9844 104 19.3781 98.3937 19.3781 91.4672V12.5328C19.3578 5.60625 24.9844 0 31.9109 0H65.4469L94.1687 28.7219Z" fill="#EDEDED"/>
<path id="Vector_2" d="M94.1688 28.7219H70.6266C67.7625 28.7219 65.4469 26.4062 65.4469 23.5422V0L94.1688 28.7219ZM17.5094 42.7984H79.7266C83.9719 42.7984 87.4047 46.2312 87.4047 50.4765V69.164C87.4047 73.4093 83.9719 76.8422 79.7266 76.8422H17.5094C13.2641 76.8422 9.8313 73.4093 9.8313 69.164V50.4765C9.8313 46.2312 13.2641 42.7984 17.5094 42.7984Z" fill="#F15642"/>
<g id="Group_2">
<path id="Vector_3" d="M41.011 56.0625C41.011 60.3891 38.7157 62.786 34.6735 62.786H32.1954V70.0375H29.2095V49.4H34.6532C38.7157 49.4 41.011 51.8578 41.011 56.0625ZM37.9845 56.0625C37.9845 53.5235 36.8876 52.2235 34.6532 52.2235H32.2157V59.9422H34.6532C36.8876 59.9625 37.9845 58.7235 37.9845 56.0625ZM43.5501 49.4H48.6688C52.6704 49.4 55.0267 51.7563 55.0267 55.8188V63.5375C55.0267 67.6203 52.6704 70.0172 48.6892 70.0172H43.5298V49.4H43.5501ZM48.7095 67.1938C50.822 67.1938 52.0407 65.9344 52.0407 63.4766V55.8797C52.0407 53.4625 50.8626 52.2235 48.7095 52.2235H46.5157V67.1938H48.7095ZM61.547 52.2032V58.3578H67.7626V61.0594H61.547V70.0172H58.5813V49.4H68.311V52.2032H61.547Z" fill="white"/>
</g>
</g>
</g>
</svg>
