<svg width="16" height="16" viewBox="0 0 16 16" fill="none" xmlns="http://www.w3.org/2000/svg">
<g id="Frame" clip-path="url(#clip0_126_897)">
<g id="Group">
<path id="Vector" d="M15.4521 4.3293L11.3759 0.0937021C11.3472 0.0638837 11.3127 0.0401628 11.2746 0.023958C11.2366 0.00775316 11.1956 -0.000602843 11.1542 -0.000610352L5.07887 -0.000610352C4.39896 -0.000610352 3.84581 0.552327 3.84581 1.23195V5.53786H1.38371C0.875025 5.53786 0.461182 5.95158 0.461182 6.46014V11.0771C0.461182 11.5857 0.875025 11.9994 1.38371 11.9994H3.84581V14.769C3.84581 15.4474 4.39896 15.9994 5.07887 15.9994H14.3051C14.985 15.9994 15.5381 15.4477 15.5381 14.7697V4.54267C15.5381 4.4631 15.5073 4.38663 15.4521 4.3293ZM11.2304 0.830046L14.5767 4.30708H11.2304V0.830046ZM1.38371 11.384C1.21434 11.384 1.07659 11.2464 1.07659 11.0771V6.46014C1.07659 6.29092 1.21437 6.15323 1.38371 6.15323H9.69253C9.8619 6.15323 9.99965 6.29092 9.99965 6.46014V11.0771C9.99965 11.2464 9.86187 11.384 9.69253 11.384H1.38371ZM14.9227 14.7697C14.9227 15.1084 14.6456 15.384 14.305 15.384H5.07887C4.73828 15.384 4.46118 15.1081 4.46118 14.769V11.9994H9.69253C10.2012 11.9994 10.6151 11.5857 10.6151 11.0771V6.46014C10.6151 5.95158 10.2012 5.53786 9.69253 5.53786H4.46118V1.23195C4.46118 0.891608 4.73828 0.614765 5.07887 0.614765H10.615V4.61476C10.615 4.7847 10.7528 4.92245 10.9227 4.92245H14.9227V14.7697Z" fill="#414141"/>
<path id="Vector_2" d="M4.14045 7.80759C4.03829 7.67478 3.91148 7.58853 3.76004 7.54887C3.66148 7.52244 3.44995 7.50922 3.12542 7.50922H2.26904V10.1522H2.8027V9.15525H3.15067C3.39226 9.15525 3.57676 9.14262 3.70417 9.11737C3.79792 9.09694 3.89017 9.05519 3.98092 8.99206C4.07167 8.92897 4.14648 8.84212 4.20539 8.73156C4.26429 8.621 4.29373 8.48456 4.29373 8.32231C4.2937 8.11197 4.24261 7.9404 4.14045 7.80759ZM3.68342 8.53506C3.64317 8.59397 3.58757 8.63722 3.51664 8.66487C3.4457 8.69253 3.30511 8.70634 3.09476 8.70634H2.8027V7.95634H3.06051C3.25282 7.95634 3.38082 7.96234 3.44451 7.97437C3.53104 7.99 3.60257 8.02906 3.65904 8.09156C3.71554 8.15406 3.74379 8.2334 3.74379 8.32953C3.74382 8.40765 3.72367 8.47615 3.68342 8.53506ZM6.8592 8.23128C6.80151 8.0624 6.71736 7.91969 6.60679 7.80309C6.49623 7.6865 6.36339 7.60537 6.20836 7.55969C6.09298 7.52603 5.92529 7.50922 5.70536 7.50922H4.72998V10.1522H5.7342C5.93132 10.1522 6.08876 10.1336 6.20654 10.0963C6.36401 10.0459 6.48901 9.97556 6.58154 9.8854C6.70414 9.7664 6.79848 9.61078 6.86461 9.41847C6.9187 9.261 6.94573 9.0735 6.94573 8.85597C6.94573 8.60837 6.91689 8.40015 6.8592 8.23128ZM6.33995 9.31662C6.30389 9.43503 6.25732 9.52006 6.20023 9.57172C6.14314 9.6234 6.07132 9.66006 5.98479 9.68168C5.9187 9.69853 5.81111 9.70694 5.66207 9.70694H5.26364V7.95634H5.50342C5.72095 7.95634 5.86701 7.96475 5.94151 7.98159C6.04126 8.00322 6.12361 8.04469 6.18851 8.106C6.25342 8.16731 6.30389 8.25262 6.33995 8.362C6.37601 8.47137 6.39404 8.62822 6.39404 8.83256C6.39404 9.03687 6.37601 9.19822 6.33995 9.31662ZM9.21376 7.95634V7.50922H7.40185V10.1522H7.93551V9.02906H9.03889V8.58194H7.93551V7.95634H9.21376Z" fill="#414141"/>
</g>
</g>
<defs>
<clipPath id="clip0_126_897">
<rect width="16" height="16" fill="white"/>
</clipPath>
</defs>
</svg>
