<svg width="257" height="61" viewBox="0 0 257 61" fill="none" xmlns="http://www.w3.org/2000/svg">
<path d="M99.163 27.0198C99.163 28.2575 98.8646 29.4179 98.2679 30.5009C97.6932 31.584 96.7759 32.457 95.5161 33.1201C94.2783 33.7832 92.709 34.1147 90.8082 34.1147H86.9292V43H82.2876V19.8585H90.8082C92.5985 19.8585 94.1236 20.1679 95.3835 20.7868C96.6433 21.4057 97.5827 22.2566 98.2015 23.3397C98.8425 24.4227 99.163 25.6494 99.163 27.0198ZM90.6093 30.3683C91.8912 30.3683 92.8417 30.081 93.4605 29.5063C94.0794 28.9095 94.3888 28.0807 94.3888 27.0198C94.3888 24.7653 93.129 23.6381 90.6093 23.6381H86.9292V30.3683H90.6093ZM107.1 18.466V43H102.458V18.466H107.1ZM110.492 33.75C110.492 31.8934 110.857 30.2468 111.586 28.8101C112.338 27.3734 113.344 26.2683 114.603 25.4947C115.885 24.7211 117.311 24.3343 118.88 24.3343C120.251 24.3343 121.444 24.6106 122.461 25.1631C123.5 25.7157 124.329 26.4119 124.948 27.2518V24.6327H129.622V43H124.948V40.3145C124.351 41.1765 123.522 41.8949 122.461 42.4695C121.422 43.0221 120.218 43.2984 118.847 43.2984C117.3 43.2984 115.885 42.9005 114.603 42.1048C113.344 41.3091 112.338 40.193 111.586 38.7563C110.857 37.2975 110.492 35.6288 110.492 33.75ZM124.948 33.8163C124.948 32.6891 124.726 31.7276 124.284 30.9319C123.842 30.1141 123.246 29.4953 122.494 29.0753C121.743 28.6333 120.936 28.4122 120.074 28.4122C119.212 28.4122 118.416 28.6222 117.687 29.0422C116.957 29.4621 116.361 30.081 115.896 30.8988C115.454 31.6945 115.233 32.6449 115.233 33.75C115.233 34.8552 115.454 35.8277 115.896 36.6676C116.361 37.4854 116.957 38.1153 117.687 38.5574C118.438 38.9994 119.234 39.2204 120.074 39.2204C120.936 39.2204 121.743 39.0105 122.494 38.5905C123.246 38.1485 123.842 37.5296 124.284 36.7339C124.726 35.9161 124.948 34.9436 124.948 33.8163ZM151.727 24.6327L140.355 51.6863H135.415L139.394 42.5358L132.034 24.6327H137.239L141.98 37.4633L146.787 24.6327H151.727ZM182.917 19.8585L174.429 43H168.793L160.306 19.8585H165.279L171.644 38.259L177.977 19.8585H182.917ZM188.054 22.4445C187.236 22.4445 186.551 22.1903 185.998 21.682C185.468 21.1515 185.202 20.4995 185.202 19.7259C185.202 18.9523 185.468 18.3113 185.998 17.803C186.551 17.2725 187.236 17.0073 188.054 17.0073C188.871 17.0073 189.545 17.2725 190.076 17.803C190.629 18.3113 190.905 18.9523 190.905 19.7259C190.905 20.4995 190.629 21.1515 190.076 21.682C189.545 22.1903 188.871 22.4445 188.054 22.4445ZM190.341 24.6327V43H185.7V24.6327H190.341ZM193.734 33.75C193.734 31.8934 194.098 30.2468 194.828 28.8101C195.579 27.3734 196.596 26.2683 197.878 25.4947C199.16 24.7211 200.585 24.3343 202.155 24.3343C203.348 24.3343 204.486 24.5995 205.569 25.13C206.653 25.6384 207.515 26.3235 208.156 27.1855V18.466H212.863V43H208.156V40.2814C207.581 41.1876 206.774 41.917 205.735 42.4695C204.696 43.0221 203.492 43.2984 202.121 43.2984C200.574 43.2984 199.16 42.9005 197.878 42.1048C196.596 41.3091 195.579 40.193 194.828 38.7563C194.098 37.2975 193.734 35.6288 193.734 33.75ZM208.189 33.8163C208.189 32.6891 207.968 31.7276 207.526 30.9319C207.084 30.1141 206.487 29.4953 205.735 29.0753C204.984 28.6333 204.177 28.4122 203.315 28.4122C202.453 28.4122 201.657 28.6222 200.928 29.0422C200.199 29.4621 199.602 30.081 199.138 30.8988C198.696 31.6945 198.475 32.6449 198.475 33.75C198.475 34.8552 198.696 35.8277 199.138 36.6676C199.602 37.4854 200.199 38.1153 200.928 38.5574C201.679 38.9994 202.475 39.2204 203.315 39.2204C204.177 39.2204 204.984 39.0105 205.735 38.5905C206.487 38.1485 207.084 37.5296 207.526 36.7339C207.968 35.9161 208.189 34.9436 208.189 33.8163ZM234.471 33.4185C234.471 34.0816 234.427 34.6783 234.338 35.2088H220.911C221.022 36.535 221.486 37.5738 222.303 38.3253C223.121 39.0768 224.127 39.4525 225.32 39.4525C227.044 39.4525 228.271 38.7121 229.001 37.2312H234.007C233.476 38.9994 232.46 40.4582 230.957 41.6075C229.454 42.7348 227.608 43.2984 225.42 43.2984C223.652 43.2984 222.06 42.9116 220.646 42.138C219.253 41.3423 218.159 40.2261 217.364 38.7894C216.59 37.3528 216.203 35.6951 216.203 33.8163C216.203 31.9155 216.59 30.2468 217.364 28.8101C218.137 27.3734 219.22 26.2683 220.613 25.4947C222.005 24.7211 223.608 24.3343 225.42 24.3343C227.166 24.3343 228.724 24.71 230.095 25.4615C231.487 26.213 232.559 27.285 233.311 28.6775C234.084 30.0478 234.471 31.6282 234.471 33.4185ZM229.664 32.0923C229.642 30.8988 229.211 29.9484 228.371 29.2411C227.531 28.5117 226.503 28.147 225.287 28.147C224.138 28.147 223.165 28.5006 222.37 29.2079C221.596 29.8931 221.121 30.8546 220.944 32.0923H229.664ZM246.015 43.2984C244.247 43.2984 242.655 42.9116 241.241 42.138C239.826 41.3423 238.71 40.2261 237.892 38.7894C237.096 37.3528 236.699 35.6951 236.699 33.8163C236.699 31.9376 237.107 30.2799 237.925 28.8432C238.765 27.4066 239.903 26.3014 241.34 25.5278C242.777 24.7321 244.379 24.3343 246.147 24.3343C247.916 24.3343 249.518 24.7321 250.955 25.5278C252.391 26.3014 253.519 27.4066 254.336 28.8432C255.176 30.2799 255.596 31.9376 255.596 33.8163C255.596 35.6951 255.165 37.3528 254.303 38.7894C253.463 40.2261 252.314 41.3423 250.855 42.138C249.419 42.9116 247.805 43.2984 246.015 43.2984ZM246.015 39.2536C246.855 39.2536 247.639 39.0547 248.369 38.6568C249.12 38.2369 249.717 37.618 250.159 36.8002C250.601 35.9824 250.822 34.9878 250.822 33.8163C250.822 32.0702 250.358 30.733 249.43 29.8047C248.523 28.8543 247.407 28.3791 246.081 28.3791C244.755 28.3791 243.639 28.8543 242.733 29.8047C241.848 30.733 241.406 32.0702 241.406 33.8163C241.406 35.5625 241.837 36.9107 242.699 37.8611C243.583 38.7894 244.689 39.2536 246.015 39.2536Z" fill="#26234F"/>
<g clip-path="url(#clip0_190_1100)">
<path d="M30.5 0C13.6813 0 0 13.6826 0 30.5C0 47.3174 13.6813 61 30.5 61C47.3187 61 61 47.3174 61 30.5C61 13.6826 47.3187 0 30.5 0ZM42.6251 31.5686L24.8334 43.0061C24.6285 43.1384 24.3898 43.2086 24.1459 43.2084C23.9374 43.2084 23.7264 43.1562 23.5378 43.0532C23.3371 42.9441 23.1697 42.7829 23.053 42.5865C22.9364 42.3901 22.8749 42.1659 22.875 41.9375V19.0625C22.875 18.5971 23.1282 18.1701 23.5378 17.9467C23.9399 17.7259 24.4437 17.7394 24.8334 17.9939L42.6251 29.4314C42.9875 29.6647 43.2084 30.0681 43.2084 30.5C43.2084 30.9319 42.9875 31.3352 42.6251 31.5686Z" fill="#26234F"/>
</g>
<defs>
<clipPath id="clip0_190_1100">
<rect width="61" height="61" fill="white"/>
</clipPath>
</defs>
</svg>
