<svg width="137" height="33" viewBox="0 0 137 33" fill="none" xmlns="http://www.w3.org/2000/svg">
<path d="M52.4129 14.2683C52.4129 14.9198 52.2558 15.5306 51.9417 16.1006C51.6392 16.6707 51.1564 17.1302 50.4933 17.4793C49.8418 17.8283 49.0158 18.0028 48.0152 18.0028H45.9734V22.6797H43.5303V10.4988H48.0152C48.9576 10.4988 49.7603 10.6617 50.4235 10.9875C51.0866 11.3132 51.5811 11.7611 51.9068 12.3312C52.2442 12.9013 52.4129 13.547 52.4129 14.2683ZM47.9105 16.0308C48.5853 16.0308 49.0856 15.8796 49.4113 15.5771C49.7371 15.263 49.8999 14.8267 49.8999 14.2683C49.8999 13.0816 49.2368 12.4883 47.9105 12.4883H45.9734V16.0308H47.9105ZM56.5907 9.76589V22.6797H54.1475V9.76589H56.5907ZM58.3763 17.8108C58.3763 16.8336 58.5682 15.9668 58.9521 15.2106C59.3477 14.4544 59.8771 13.8727 60.5402 13.4655C61.215 13.0583 61.9654 12.8547 62.7914 12.8547C63.5127 12.8547 64.1409 13.0002 64.6761 13.291C65.2229 13.5819 65.6592 13.9483 65.9849 14.3904V13.0118H68.4455V22.6797H65.9849V21.2661C65.6708 21.7199 65.2345 22.098 64.6761 22.4005C64.1293 22.6913 63.4952 22.8367 62.7739 22.8367C61.9596 22.8367 61.215 22.6273 60.5402 22.2085C59.8771 21.7897 59.3477 21.2022 58.9521 20.4459C58.5682 19.6781 58.3763 18.7997 58.3763 17.8108ZM65.9849 17.8457C65.9849 17.2524 65.8686 16.7463 65.6359 16.3275C65.4032 15.897 65.0891 15.5713 64.6936 15.3502C64.298 15.1176 63.8734 15.0012 63.4196 15.0012C62.9659 15.0012 62.5471 15.1117 62.1631 15.3328C61.7792 15.5538 61.4651 15.8796 61.2208 16.31C60.9881 16.7289 60.8718 17.2291 60.8718 17.8108C60.8718 18.3925 60.9881 18.9044 61.2208 19.3465C61.4651 19.777 61.7792 20.1086 62.1631 20.3412C62.5587 20.5739 62.9775 20.6903 63.4196 20.6903C63.8734 20.6903 64.298 20.5797 64.6936 20.3587C65.0891 20.126 65.4032 19.8003 65.6359 19.3814C65.8686 18.951 65.9849 18.4391 65.9849 17.8457ZM80.0808 13.0118L74.0951 27.2519H71.4948L73.589 22.4354L69.7148 13.0118H72.4547L74.9502 19.7654L77.4806 13.0118H80.0808ZM96.4979 10.4988L92.0304 22.6797H89.0637L84.5962 10.4988H87.2139L90.5645 20.1842L93.8977 10.4988H96.4979ZM99.2017 11.86C98.7712 11.86 98.4106 11.7262 98.1197 11.4586C97.8405 11.1794 97.7009 10.8362 97.7009 10.429C97.7009 10.0218 97.8405 9.68445 98.1197 9.41686C98.4106 9.13765 98.7712 8.99804 99.2017 8.99804C99.6322 8.99804 99.987 9.13765 100.266 9.41686C100.557 9.68445 100.703 10.0218 100.703 10.429C100.703 10.8362 100.557 11.1794 100.266 11.4586C99.987 11.7262 99.6322 11.86 99.2017 11.86ZM100.406 13.0118V22.6797H97.9627V13.0118H100.406ZM102.191 17.8108C102.191 16.8336 102.383 15.9668 102.767 15.2106C103.163 14.4544 103.698 13.8727 104.373 13.4655C105.048 13.0583 105.798 12.8547 106.624 12.8547C107.252 12.8547 107.851 12.9943 108.421 13.2736C108.992 13.5411 109.445 13.9018 109.783 14.3555V9.76589H112.261V22.6797H109.783V21.2487C109.48 21.7257 109.056 22.1096 108.509 22.4005C107.962 22.6913 107.328 22.8367 106.607 22.8367C105.792 22.8367 105.048 22.6273 104.373 22.2085C103.698 21.7897 103.163 21.2022 102.767 20.4459C102.383 19.6781 102.191 18.7997 102.191 17.8108ZM109.8 17.8457C109.8 17.2524 109.684 16.7463 109.451 16.3275C109.218 15.897 108.904 15.5713 108.509 15.3502C108.113 15.1176 107.689 15.0012 107.235 15.0012C106.781 15.0012 106.362 15.1117 105.978 15.3328C105.594 15.5538 105.28 15.8796 105.036 16.31C104.803 16.7289 104.687 17.2291 104.687 17.8108C104.687 18.3925 104.803 18.9044 105.036 19.3465C105.28 19.777 105.594 20.1086 105.978 20.3412C106.374 20.5739 106.793 20.6903 107.235 20.6903C107.689 20.6903 108.113 20.5797 108.509 20.3587C108.904 20.126 109.218 19.8003 109.451 19.3814C109.684 18.951 109.8 18.4391 109.8 17.8457ZM123.634 17.6363C123.634 17.9853 123.611 18.2995 123.564 18.5787H116.497C116.555 19.2767 116.799 19.8235 117.23 20.2191C117.66 20.6146 118.189 20.8124 118.818 20.8124C119.725 20.8124 120.371 20.4227 120.755 19.6432H123.39C123.111 20.5739 122.575 21.3418 121.784 21.9467C120.993 22.5401 120.022 22.8367 118.87 22.8367C117.939 22.8367 117.102 22.6332 116.357 22.226C115.624 21.8071 115.048 21.2196 114.629 20.4634C114.222 19.7072 114.019 18.8346 114.019 17.8457C114.019 16.8452 114.222 15.9668 114.629 15.2106C115.037 14.4544 115.607 13.8727 116.34 13.4655C117.073 13.0583 117.916 12.8547 118.87 12.8547C119.789 12.8547 120.609 13.0525 121.331 13.4481C122.064 13.8436 122.628 14.4079 123.023 15.1408C123.431 15.8621 123.634 16.694 123.634 17.6363ZM121.104 16.9383C121.092 16.31 120.865 15.8098 120.423 15.4375C119.981 15.0536 119.44 14.8616 118.8 14.8616C118.195 14.8616 117.683 15.0477 117.265 15.42C116.857 15.7807 116.607 16.2868 116.514 16.9383H121.104ZM129.71 22.8367C128.78 22.8367 127.942 22.6332 127.197 22.226C126.453 21.8071 125.865 21.2196 125.435 20.4634C125.016 19.7072 124.807 18.8346 124.807 17.8457C124.807 16.8568 125.022 15.9843 125.452 15.2281C125.894 14.4719 126.494 13.8902 127.25 13.483C128.006 13.0641 128.85 12.8547 129.78 12.8547C130.711 12.8547 131.554 13.0641 132.311 13.483C133.067 13.8902 133.66 14.4719 134.091 15.2281C134.533 15.9843 134.754 16.8568 134.754 17.8457C134.754 18.8346 134.527 19.7072 134.073 20.4634C133.631 21.2196 133.026 21.8071 132.258 22.226C131.502 22.6332 130.653 22.8367 129.71 22.8367ZM129.71 20.7077C130.153 20.7077 130.566 20.603 130.949 20.3936C131.345 20.1725 131.659 19.8468 131.892 19.4163C132.124 18.9859 132.241 18.4623 132.241 17.8457C132.241 16.9266 131.997 16.2228 131.508 15.7342C131.031 15.2339 130.443 14.9838 129.745 14.9838C129.047 14.9838 128.46 15.2339 127.983 15.7342C127.517 16.2228 127.285 16.9266 127.285 17.8457C127.285 18.7648 127.512 19.4745 127.965 19.9748C128.431 20.4634 129.012 20.7077 129.71 20.7077Z" fill="#696CFF"/>
<g clip-path="url(#clip0_1_62)">
<path d="M16.2719 0.521484C7.41911 0.521484 0.217773 7.72351 0.217773 16.5756C0.217773 25.4277 7.41911 32.6297 16.2719 32.6297C25.1247 32.6297 32.326 25.4277 32.326 16.5756C32.326 7.72351 25.1247 0.521484 16.2719 0.521484ZM22.6541 17.1381L13.2892 23.1583C13.1814 23.228 13.0557 23.265 12.9273 23.2648C12.8176 23.2648 12.7065 23.2374 12.6072 23.1832C12.5016 23.1257 12.4135 23.0409 12.3521 22.9375C12.2907 22.8341 12.2583 22.7161 12.2584 22.5959V10.5553C12.2584 10.3104 12.3916 10.0856 12.6072 9.96801C12.8189 9.85174 13.0841 9.85889 13.2892 9.99285L22.6541 16.0131C22.8449 16.1359 22.9611 16.3483 22.9611 16.5756C22.9611 16.8029 22.8449 17.0152 22.6541 17.1381Z" fill="#696CFF"/>
</g>
<defs>
<clipPath id="clip0_1_62">
<rect width="32.1082" height="32.1082" fill="white" transform="translate(0.216797 0.521484)"/>
</clipPath>
</defs>
</svg>
