<svg width="70" height="66" viewBox="0 0 70 66" fill="none" xmlns="http://www.w3.org/2000/svg">
<rect x="0.5" y="0.5" width="69" height="65" rx="9.5" fill="white" stroke="#583A7E"/>
<path d="M40.032 26.408H32.256V30.512C32.592 30.096 33.072 29.76 33.696 29.504C34.32 29.232 34.984 29.096 35.688 29.096C36.968 29.096 38.016 29.376 38.832 29.936C39.648 30.496 40.24 31.216 40.608 32.096C40.976 32.96 41.16 33.888 41.16 34.88C41.16 36.72 40.632 38.2 39.576 39.32C38.536 40.44 37.048 41 35.112 41C33.288 41 31.832 40.544 30.744 39.632C29.656 38.72 29.04 37.528 28.896 36.056H32.16C32.304 36.696 32.624 37.208 33.12 37.592C33.632 37.976 34.28 38.168 35.064 38.168C36.008 38.168 36.72 37.872 37.2 37.28C37.68 36.688 37.92 35.904 37.92 34.928C37.92 33.936 37.672 33.184 37.176 32.672C36.696 32.144 35.984 31.88 35.04 31.88C34.368 31.88 33.808 32.048 33.36 32.384C32.912 32.72 32.592 33.168 32.4 33.728H29.184V23.456H40.032V26.408Z" fill="#583A7E"/>
</svg>
