<svg width="70" height="66" viewBox="0 0 70 66" fill="none" xmlns="http://www.w3.org/2000/svg">
<rect x="0.5" y="0.5" width="69" height="65" rx="9.5" fill="white" stroke="#583A7E"/>
<path d="M37.344 27.872C37.184 27.2 36.904 26.696 36.504 26.36C36.12 26.024 35.56 25.856 34.824 25.856C33.72 25.856 32.904 26.304 32.376 27.2C31.864 28.08 31.6 29.52 31.584 31.52C31.968 30.88 32.528 30.384 33.264 30.032C34 29.664 34.8 29.48 35.664 29.48C36.704 29.48 37.624 29.704 38.424 30.152C39.224 30.6 39.848 31.256 40.296 32.12C40.744 32.968 40.968 33.992 40.968 35.192C40.968 36.328 40.736 37.344 40.272 38.24C39.824 39.12 39.16 39.808 38.28 40.304C37.4 40.8 36.352 41.048 35.136 41.048C33.472 41.048 32.16 40.68 31.2 39.944C30.256 39.208 29.592 38.184 29.208 36.872C28.84 35.544 28.656 33.912 28.656 31.976C28.656 29.048 29.16 26.84 30.168 25.352C31.176 23.848 32.768 23.096 34.944 23.096C36.624 23.096 37.928 23.552 38.856 24.464C39.784 25.376 40.32 26.512 40.464 27.872H37.344ZM34.896 32.24C34.048 32.24 33.336 32.488 32.76 32.984C32.184 33.48 31.896 34.2 31.896 35.144C31.896 36.088 32.16 36.832 32.688 37.376C33.232 37.92 33.992 38.192 34.968 38.192C35.832 38.192 36.512 37.928 37.008 37.4C37.52 36.872 37.776 36.16 37.776 35.264C37.776 34.336 37.528 33.6 37.032 33.056C36.552 32.512 35.84 32.24 34.896 32.24Z" fill="#583A7E"/>
</svg>
