<svg width="70" height="66" viewBox="0 0 70 66" fill="none" xmlns="http://www.w3.org/2000/svg">
<rect x="0.5" y="0.5" width="69" height="65" rx="9.5" fill="white" stroke="#583A7E"/>
<path d="M29.32 28.112C29.4 26.512 29.96 25.28 31 24.416C32.056 23.536 33.44 23.096 35.152 23.096C36.32 23.096 37.32 23.304 38.152 23.72C38.984 24.12 39.608 24.672 40.024 25.376C40.456 26.064 40.672 26.848 40.672 27.728C40.672 28.736 40.408 29.592 39.88 30.296C39.368 30.984 38.752 31.448 38.032 31.688V31.784C38.96 32.072 39.68 32.584 40.192 33.32C40.72 34.056 40.984 35 40.984 36.152C40.984 37.112 40.76 37.968 40.312 38.72C39.88 39.472 39.232 40.064 38.368 40.496C37.52 40.912 36.496 41.12 35.296 41.12C33.488 41.12 32.016 40.664 30.88 39.752C29.744 38.84 29.144 37.496 29.08 35.72H32.344C32.376 36.504 32.64 37.136 33.136 37.616C33.648 38.08 34.344 38.312 35.224 38.312C36.04 38.312 36.664 38.088 37.096 37.64C37.544 37.176 37.768 36.584 37.768 35.864C37.768 34.904 37.464 34.216 36.856 33.8C36.248 33.384 35.304 33.176 34.024 33.176H33.328V30.416H34.024C36.296 30.416 37.432 29.656 37.432 28.136C37.432 27.448 37.224 26.912 36.808 26.528C36.408 26.144 35.824 25.952 35.056 25.952C34.304 25.952 33.72 26.16 33.304 26.576C32.904 26.976 32.672 27.488 32.608 28.112H29.32Z" fill="#583A7E"/>
</svg>
