<svg xmlns="http://www.w3.org/2000/svg" width="26" height="26" viewBox="0 0 26 26" fill="none">
  <g clip-path="url(#clip0_126_997)">
    <path d="M23.2197 0C23.1152 0 23.015 0.0415065 22.9412 0.115388C22.8673 0.18927 22.8258 0.289476 22.8258 0.393961V11.4235L16.226 11.4242C16.2646 11.3743 16.3032 11.3245 16.3402 11.2737C17.3935 9.83013 17.8503 8.03674 17.6266 6.2238C17.4028 4.4101 16.523 2.782 15.1492 1.63927C13.8976 0.598254 12.2937 0.0229531 10.6329 0.0192461L10.6167 0.0191953C9.37352 0.0191953 8.1603 0.339625 7.10167 0.936203C7.0911 0.941078 6.3988 1.37693 6.10813 1.61561C6.02911 1.68244 5.97957 1.77768 5.97019 1.88075C5.96082 1.98382 5.99238 2.08644 6.05804 2.16643C6.12371 2.24642 6.21821 2.29737 6.32113 2.30826C6.42405 2.31915 6.52712 2.28911 6.60807 2.22462C6.77535 2.08726 6.94942 1.96117 7.12807 1.84392L7.32383 2.18532C6.42892 2.78368 5.726 3.60217 5.27313 4.56498C5.21433 4.37704 5.17437 4.17752 5.14887 3.95373C5.27851 3.72602 5.42239 3.50671 5.57965 3.29713C5.61077 3.25579 5.63344 3.20874 5.64637 3.15864C5.6593 3.10855 5.66223 3.0564 5.65501 3.00517C5.64779 2.95394 5.63054 2.90464 5.60426 2.86007C5.57799 2.81551 5.54319 2.77655 5.50185 2.74544C5.46052 2.71432 5.41346 2.69165 5.36337 2.67872C5.31328 2.66579 5.26113 2.66285 5.2099 2.67008C5.15867 2.6773 5.10936 2.69455 5.0648 2.72082C5.02023 2.7471 4.98128 2.7819 4.95017 2.82323C4.76817 3.06495 4.377 3.68489 4.36039 3.75334C3.40225 5.55882 3.28759 7.68493 3.9771 9.56048C3.98436 9.59105 3.99492 9.62102 4.0099 9.65006C4.25346 10.2865 4.58819 10.8841 5.00359 11.4243H3.40703C2.84432 11.4243 2.38647 11.8822 2.38647 12.4449C2.38647 12.8714 2.64972 13.2371 3.02205 13.3894C3.09675 14.8232 3.65001 16.7507 4.24421 18.6878C4.1105 18.8428 4.11583 19.0762 4.2631 19.223C4.31388 19.2735 4.37532 19.3057 4.43992 19.3229C4.45363 19.3673 5.05112 21.3007 5.29329 22.1827C5.13897 22.3257 5.12272 22.5656 5.26064 22.7268C5.31526 22.7907 5.389 22.8353 5.47093 22.8539C5.7355 23.9015 5.91212 24.8558 5.91349 25.6061C5.9142 26.0001 6.33746 26 6.3437 26C7.1751 26 7.97561 25.6014 8.71478 24.9907C9.26708 25.4859 9.85447 25.833 10.4777 25.9883C10.5097 25.9963 10.6074 26 10.6215 26C10.6608 26 10.7339 25.9942 10.7734 25.9818C11.3568 25.7974 11.9237 25.4529 12.4753 24.9462C13.2259 25.5722 14.0451 26 14.8835 26C14.8898 26 15.3041 26.0154 15.3141 25.6061C15.3324 24.8562 15.492 23.9018 15.7565 22.8545C15.8499 22.833 15.9322 22.7781 15.9879 22.7001C16.1046 22.537 16.0775 22.3162 15.9341 22.1834C16.1763 21.3012 16.7739 19.3674 16.7876 19.3231C16.8626 19.3031 16.9329 19.2624 16.9868 19.1988C17.1141 19.0487 17.1084 18.8319 16.9835 18.6875C17.5675 16.7836 18.1106 14.8903 18.1999 13.4648H19.0377L19.9343 15.644C19.964 15.7162 20.0145 15.778 20.0793 15.8215C20.1442 15.8649 20.2205 15.8881 20.2986 15.8881H22.8259V19.3133C22.8259 19.4178 22.8674 19.518 22.9413 19.5919C23.0152 19.6657 23.1154 19.7072 23.2199 19.7072C23.3244 19.7072 23.4246 19.6657 23.4985 19.5919C23.5723 19.518 23.6138 19.4178 23.6138 19.3133V0.393961C23.6138 0.289466 23.5723 0.189269 23.4983 0.115394C23.4244 0.0415194 23.3242 1.34485e-05 23.2197 0ZM22.8258 12.6767H18.8134C18.8309 12.6021 18.8411 12.5247 18.8411 12.4448C18.8411 12.3644 18.8308 12.2865 18.8131 12.2114H22.8259V12.6767H22.8258ZM16.3472 18.0729L16.3451 18.0707L16.362 18.0242L16.3472 18.0729ZM14.5431 25.1781C14.0693 25.0885 13.5566 24.8178 13.0226 24.3821C13.5495 23.7833 14.0626 23.0308 14.563 22.1206C14.7183 22.2481 14.8761 22.3725 15.0363 22.4939C14.7823 23.4775 14.596 24.3965 14.5431 25.1781ZM12.4313 23.8409C11.9841 23.3884 11.527 22.8298 11.0694 22.1739C11.2216 21.9356 11.3692 21.6943 11.5119 21.4502C11.8162 20.9297 12.111 20.3748 12.3931 19.8002C12.8327 20.4338 13.3465 21.0207 13.9435 21.5771C13.4162 22.5553 12.909 23.2916 12.4313 23.8409ZM10.6089 25.206C10.1683 25.0846 9.72944 24.8335 9.29486 24.4575C9.76468 23.9827 10.2034 23.4359 10.602 22.8711C10.9846 23.3977 11.4173 23.9296 11.886 24.4024C11.422 24.8239 10.993 25.0721 10.6089 25.206ZM6.18019 22.4514C6.31145 22.3343 6.44114 22.2155 6.56922 22.095C7.05865 22.9943 7.5882 23.7904 8.15863 24.43C7.6467 24.842 7.15148 25.0955 6.68455 25.1798C6.63102 24.3866 6.43994 23.4517 6.18019 22.4514ZM7.1495 21.5207C7.30448 21.3601 7.45585 21.196 7.60349 21.0286C7.6725 20.9501 7.70753 20.8475 7.70086 20.7432C7.6942 20.6389 7.64638 20.5416 7.56794 20.4726C7.52912 20.4384 7.48393 20.4122 7.43497 20.3954C7.38601 20.3787 7.33424 20.3718 7.28261 20.3751C7.23097 20.3784 7.1805 20.3918 7.13406 20.4146C7.08763 20.4375 7.04614 20.4692 7.01199 20.5081C6.93364 20.5968 6.85416 20.6845 6.77357 20.7713C6.41302 20.015 6.06045 19.1675 5.71747 18.2346C6.41129 17.3703 6.76255 16.5816 7.01117 15.4263C7.33206 16.5133 7.76345 17.6644 8.27339 18.7893C8.18422 18.9381 8.09317 19.0849 7.99801 19.2278C7.94011 19.3148 7.91913 19.4212 7.93968 19.5237C7.96023 19.6261 8.02063 19.7162 8.10759 19.7741C8.17212 19.8172 8.24797 19.8401 8.32554 19.8401C8.39051 19.8402 8.45449 19.8242 8.51177 19.7936C8.56906 19.7629 8.61787 19.7186 8.65384 19.6645C8.6608 19.6541 8.6673 19.6433 8.67421 19.6328C8.95868 20.208 9.26048 20.7703 9.57685 21.305C9.75187 21.6009 9.93404 21.8925 10.1232 22.1795C9.65693 22.8668 9.19238 23.444 8.73713 23.9042C8.19732 23.2992 7.66635 22.501 7.1495 21.5207ZM10.5912 21.4532C10.4764 21.2717 10.3643 21.0885 10.2549 20.9037C9.86498 20.2448 9.49722 19.5441 9.15968 18.8287C9.7367 17.7835 10.1884 16.5995 10.5478 15.1767C10.8339 16.6506 11.2711 17.9039 11.8982 19.0122C11.562 19.7272 11.204 20.4157 10.8318 21.0524C10.753 21.1869 10.6728 21.3205 10.5912 21.4532ZM8.74728 17.9129C8.08545 16.3647 7.58632 14.7981 7.34491 13.4654H10.1144C9.77692 15.2612 9.33883 16.6942 8.74728 17.9129ZM6.53012 13.4654C6.2815 15.3918 6.06502 16.371 5.40105 17.3433C5.00039 16.17 4.6146 14.8743 4.24649 13.4654H6.53012ZM12.7835 18.9752C13.327 17.7765 13.8063 16.5151 14.1817 15.2911C14.4491 16.5219 14.8458 17.4412 15.4429 18.2187C15.0613 19.2276 14.6849 20.0986 14.317 20.8497C13.7125 20.2669 13.2057 19.6505 12.7835 18.9752ZM14.6897 13.4654H16.9747C16.5718 14.9134 16.1703 16.189 15.7736 17.3133C15.2016 16.3879 14.885 15.2133 14.6897 13.4654ZM13.5293 11.4242L12.8769 10.2864C13.383 9.96902 13.8455 9.61523 14.2597 9.23533C14.8432 9.56307 15.5055 9.73929 16.2041 9.73929C16.2451 9.73929 16.2864 9.73791 16.3277 9.7367C16.157 10.1146 15.9479 10.474 15.7038 10.8092C15.5459 11.025 15.3743 11.2304 15.1903 11.4242H13.5293ZM10.6312 11.3259C11.1537 11.1625 11.6776 10.9458 12.1928 10.6771L12.6211 11.4242H10.624C10.6268 11.3914 10.6292 11.3586 10.6312 11.3259ZM11.6604 2.07944C12.1264 3.06495 12.1023 3.81743 12.0752 4.6084C12.0446 5.50855 12.0127 6.43942 12.6962 7.65339C12.942 8.08981 13.2489 8.46346 13.6009 8.77028C13.2509 9.07607 12.8776 9.35409 12.4844 9.60182L8.39877 2.47604C9.41617 1.98585 10.5521 1.84656 11.6604 2.07944ZM16.6296 8.92282C15.9939 8.99976 15.3821 8.90114 14.8427 8.64683C15.8144 7.57209 16.4268 6.34959 16.5887 5.17395C16.9663 6.38315 16.9879 7.69829 16.6296 8.92282ZM15.4725 3.08339C16.3054 4.55711 15.7217 6.57622 14.1729 8.21961C13.8635 7.96291 13.5949 7.6437 13.3827 7.26685C12.8076 6.24538 12.8331 5.49925 12.8627 4.63531C12.8852 3.97531 12.9083 3.25056 12.6272 2.38327C12.9377 2.51474 13.2343 2.6768 13.5126 2.86706C13.5553 2.89632 13.6033 2.91689 13.654 2.92758C13.7046 2.93827 13.7568 2.93889 13.8077 2.92938C13.8585 2.91988 13.907 2.90045 13.9504 2.8722C13.9937 2.84395 14.031 2.80743 14.0603 2.76473C14.0895 2.72206 14.1101 2.67404 14.1207 2.62342C14.1314 2.57281 14.132 2.52058 14.1225 2.46973C14.113 2.41888 14.0936 2.37039 14.0654 2.32705C14.0371 2.2837 14.0006 2.24635 13.9579 2.21711C13.4224 1.85016 12.8301 1.576 12.1974 1.40014C12.1863 1.38003 12.1768 1.36058 12.1654 1.34032C12.0885 1.20353 12.0032 1.07165 11.9099 0.945445C12.8989 1.14613 13.8443 1.57874 14.6454 2.24499C14.9478 2.49683 15.2248 2.77763 15.4725 3.08339ZM10.6776 0.815852C10.8428 0.943363 10.9834 1.06935 11.1054 1.20352C10.0406 1.11231 8.97554 1.31224 8.00598 1.791L7.81301 1.45443C8.70803 1.01948 9.69379 0.806609 10.6776 0.815852ZM7.71673 2.87056L11.8006 9.99314C11.4092 10.1964 11.0033 10.3703 10.5862 10.5135C10.5052 10.0526 10.3291 9.60609 10.0545 9.16728C9.32918 8.0082 8.492 7.54061 7.68245 7.08845C6.98593 6.69942 6.324 6.32831 5.74916 5.49509C6.10021 4.42051 6.78642 3.50711 7.71673 2.87056ZM4.63522 5.11134C4.69918 5.26393 4.77277 5.41231 4.85556 5.55557C4.8681 5.57725 4.88095 5.59696 4.89354 5.61818C4.68661 6.42063 4.64771 7.23689 4.7804 8.04563C4.79735 8.14872 4.85455 8.24086 4.93941 8.3018C5.02428 8.36273 5.12987 8.38747 5.23297 8.37058C5.33606 8.35364 5.42821 8.29645 5.48915 8.21158C5.55009 8.12671 5.57482 8.02112 5.55792 7.91802C5.47971 7.44164 5.47149 6.96191 5.52978 6.48466C6.09371 7.10196 6.70303 7.44382 7.29824 7.77634C8.05432 8.19863 8.76856 8.59752 9.38667 9.58532C9.62468 9.96567 9.76946 10.3429 9.82491 10.7346C7.6303 11.2575 5.59062 10.7596 4.72358 9.31074C4.22389 7.96864 4.18809 6.48035 4.63522 5.11134ZM5.90617 11.2808C6.02896 11.3328 6.15409 11.3816 6.28343 11.4242H6.03836C5.99353 11.3771 5.94946 11.3293 5.90617 11.2808ZM3.40703 12.2121H17.8205C17.8822 12.2122 17.9413 12.2367 17.9849 12.2803C18.0286 12.3239 18.0531 12.3831 18.0531 12.4448C18.0531 12.5704 17.9528 12.6726 17.8281 12.6767L13.1422 12.6774C13.0378 12.6774 12.9376 12.7189 12.8637 12.7928C12.7898 12.8667 12.7483 12.9669 12.7483 13.0714C12.7483 13.1759 12.7898 13.2761 12.8637 13.35C12.9376 13.4239 13.0378 13.4654 13.1422 13.4654H13.86C13.515 14.9471 12.9687 16.5672 12.3048 18.11C11.6774 16.8242 11.2954 15.3223 11.0848 13.4654H11.8275C11.932 13.4654 12.0322 13.4239 12.1061 13.35C12.18 13.2761 12.2215 13.1759 12.2215 13.0714C12.2215 12.9669 12.18 12.8667 12.1061 12.7928C12.0322 12.7189 11.932 12.6774 11.8275 12.6774H3.40703C3.2787 12.6774 3.17435 12.573 3.17435 12.4448C3.17435 12.3165 3.2787 12.2121 3.40703 12.2121ZM5.1603 18.9856C5.47961 19.8168 5.82325 20.6188 6.19162 21.3658C6.11102 21.4437 6.02968 21.5209 5.94761 21.5973C5.72681 20.8189 5.18478 19.0649 5.1603 18.9856ZM15.2592 21.67C15.1506 21.5839 15.0432 21.4961 14.9372 21.4068C15.3115 20.6577 15.6787 19.8184 16.0394 18.8877C16.0541 18.9021 16.0692 18.9164 16.0841 18.9307C16.054 19.0283 15.4851 20.869 15.2592 21.67ZM20.5624 15.1001L19.8896 13.4646H22.8258V15.1001H20.5624ZM23.2197 20.5668C23.1152 20.5668 23.015 20.6083 22.9412 20.6822C22.8673 20.7561 22.8258 20.8563 22.8258 20.9608V25.606C22.8258 25.7105 22.8673 25.8107 22.9412 25.8846C23.015 25.9584 23.1152 25.9999 23.2197 25.9999C23.3242 25.9999 23.4244 25.9584 23.4983 25.8846C23.5722 25.8107 23.6137 25.7105 23.6137 25.606V20.9608C23.6137 20.8563 23.5722 20.7561 23.4983 20.6822C23.4244 20.6083 23.3242 20.5668 23.2197 20.5668Z" fill="#26234F"/>
  </g>
  <defs>
    <clipPath id="clip0_126_997">
      <rect width="26" height="26" fill="white"/>
    </clipPath>
  </defs>
</svg>