<svg width="110" height="110" viewBox="0 0 110 110" fill="none" xmlns="http://www.w3.org/2000/svg">
<path opacity="0.04" d="M104.934 93.1648H7.54067C7.54067 93.1648 3.66848 94.442 1.53257 84.3727C-0.603344 74.3034 10.3895 71.622 13.0033 62.938C15.6172 54.2539 4.21394 56.082 5.17253 44.1981C6.13113 32.3142 21.7927 32.0847 29.3939 33.6859C36.9952 35.2872 36.0447 29.8003 44.8341 20.6571C53.6235 11.514 66.9277 12.4294 73.5758 19.5149C80.2238 26.6004 78.0906 33.9128 86.4047 33.9128C94.7189 33.9128 102.32 35.514 107.308 50.8246C112.295 66.1351 103.179 73.1342 103.344 80.0361C103.483 84.4508 104.015 88.8444 104.934 93.1648Z" fill="#6378FF"/>
<path opacity="0.07" d="M30.4126 33.5763V84.9749H28.4766V31.2949L30.4126 33.5763ZM57.5892 54.9735L56.8918 54.2255V84.9749H58.8278V54.5379L57.5892 54.9735ZM45.5244 42.0331V84.9749H47.4626V44.1099L45.5244 42.0331ZM39.8418 41.7493V84.9749H41.7778V41.1377L39.8418 41.7493ZM34.1592 37.9763V84.9749H36.0952V40.2577L34.1592 37.9763ZM51.2092 48.1293V84.9749H53.1452V50.2149L51.2092 48.1293ZM85.3092 61.0609V84.9749H87.2452V62.8363L85.3092 61.0609ZM79.6266 55.8491V84.9749H81.5626V57.6245L79.6266 55.8491ZM62.5788 53.2223V84.9749H64.5148V52.5403L62.5788 53.2223ZM73.944 50.6351V84.9749H75.88V52.4149L73.944 50.6351ZM68.2614 51.2247V84.9749H70.1974V50.5449L68.2614 51.2247Z" fill="black"/>
<path d="M91.6554 66.7982L72.8278 49.6206L56.6996 55.9412L44.0078 40.4092L37.9006 42.376L27.9434 30.375" stroke="#253EE8" stroke-width="0.66" stroke-linecap="round" stroke-linejoin="round"/>
<path d="M30.1467 29.4217L25.8281 27.8223L26.6025 32.3631L30.1467 29.4217Z" fill="#2945FF"/>
<path d="M35.3228 78.1789L36.1192 77.8159L35.9498 76.8611L35.0698 76.7929C34.9577 76.4981 34.8099 76.2181 34.6298 75.9591L35.083 75.1957L34.3966 74.5093L33.6266 74.9669C33.1833 74.6664 32.6819 74.4618 32.1548 74.3663L31.9348 73.4863H30.9646L30.7446 74.3663C30.4413 74.4235 30.1459 74.5165 29.8646 74.6435L29.1694 74.0429L28.3774 74.6039L28.7052 75.4641C28.4943 75.6826 28.3104 75.9256 28.1574 76.1879L27.2422 76.0933L26.9012 77.0019L27.658 77.5167C27.6219 77.729 27.6035 77.9438 27.603 78.1591C27.603 78.2515 27.603 78.3417 27.603 78.4319L26.8066 78.8719L27.0596 79.8113L27.9594 79.7981C28.0918 80.0798 28.2581 80.3443 28.4544 80.5857L28.076 81.4019L28.8196 82.0267L29.5412 81.5097C29.8142 81.667 30.1052 81.7904 30.408 81.8771L30.5532 82.7571L31.519 82.8429L31.8116 82.0179C32.129 81.9901 32.4416 81.9229 32.7422 81.8177L33.3516 82.4381L34.192 81.9519L33.972 81.1159C34.2148 80.9084 34.4313 80.672 34.6166 80.4119L35.4702 80.5703L35.8816 79.6903L35.2216 79.1359C35.2945 78.8223 35.3285 78.5009 35.3228 78.1789ZM33.8862 78.1613C33.8862 78.64 33.7443 79.1078 33.4784 79.5058C33.2125 79.9038 32.8345 80.214 32.3923 80.3971C31.9501 80.5803 31.4636 80.6282 30.9941 80.5348C30.5247 80.4415 30.0935 80.211 29.755 79.8725C29.4166 79.5341 29.1861 79.1029 29.0927 78.6334C28.9994 78.164 29.0473 77.6774 29.2305 77.2352C29.4136 76.793 29.7238 76.4151 30.1218 76.1492C30.5197 75.8833 30.9876 75.7413 31.4662 75.7413C32.1065 75.7437 32.7198 75.9996 33.1718 76.4532C33.6237 76.9068 33.8774 77.521 33.8774 78.1613H33.8862Z" fill="white"/>
<path d="M29.4161 69.2207L30.2125 68.8577L30.0431 67.9007L29.1631 67.8325C29.0514 67.5381 28.9036 67.2588 28.7231 67.0009L29.1763 66.2353L28.4899 65.5489L27.7177 66.0021C27.2742 65.7017 26.7729 65.4971 26.2459 65.4015L26.0259 64.5215H25.0557L24.8357 65.4015C24.5322 65.4578 24.2366 65.5508 23.9557 65.6787L23.2605 65.0781L22.4663 65.6347L22.7941 66.4927C22.58 66.7112 22.3925 66.9541 22.2353 67.2165L21.3377 67.1329L21.0055 68.0459L21.7623 68.5585C21.726 68.7714 21.7076 68.9871 21.7073 69.2031C21.7073 69.2955 21.7073 69.3857 21.7183 69.4759L20.9219 69.9159L21.1727 70.8531L22.0747 70.8421C22.2076 71.1228 22.3738 71.3865 22.5697 71.6275L22.1803 72.4371L22.9239 73.0597L23.6455 72.5449C23.918 72.7023 24.2092 72.825 24.5123 72.9101L24.6575 73.7901L25.6233 73.8737L25.9159 73.0509C26.2333 73.0224 26.5459 72.9544 26.8465 72.8485L27.4559 73.4689L28.2963 72.9827L28.0653 72.1467C28.3092 71.9406 28.5265 71.7048 28.7121 71.4449L29.5657 71.6011L29.9771 70.7211L29.3061 70.1689C29.3811 69.8585 29.418 69.54 29.4161 69.2207ZM27.9795 69.2031C27.9795 69.6817 27.8375 70.1496 27.5716 70.5476C27.3057 70.9455 26.9278 71.2557 26.4856 71.4389C26.0434 71.622 25.5568 71.67 25.0874 71.5766C24.6179 71.4832 24.1867 71.2527 23.8483 70.9143C23.5098 70.5758 23.2794 70.1446 23.186 69.6752C23.0926 69.2058 23.1405 68.7192 23.3237 68.277C23.5069 67.8348 23.817 67.4568 24.215 67.1909C24.613 66.925 25.0808 66.7831 25.5595 66.7831C26.2013 66.7831 26.8168 67.038 27.2707 67.4919C27.7245 67.9457 27.9795 68.5613 27.9795 69.2031Z" fill="white"/>
<path d="M41.8708 53.8154L43.8002 52.9354L43.391 50.6166L41.2614 50.4516C40.9912 49.7378 40.6335 49.0601 40.1966 48.4342L41.2966 46.5796L39.6312 44.9142L37.7612 46.0142C36.6862 45.2855 35.4708 44.7895 34.1928 44.5578L33.6516 42.4238H31.2976L30.7564 44.5732C30.0264 44.7103 29.3157 44.9356 28.64 45.2442L26.957 43.7878L25.0276 45.1386L25.824 47.2198C25.305 47.7509 24.8508 48.3417 24.471 48.9798L22.2556 48.7598L21.4504 50.9598L23.2852 52.205C23.1969 52.7218 23.152 53.245 23.151 53.7692C23.151 53.9892 23.151 54.2092 23.1774 54.4292L21.248 55.5072L21.8574 57.782L24.042 57.7534C24.3628 58.4355 24.7654 59.076 25.241 59.6608L24.2994 61.621L26.1012 63.1346L27.8612 61.8828C28.5242 62.2616 29.2313 62.5572 29.9666 62.7628L30.3164 64.8704L32.6616 65.0772L33.3678 63.0796C34.1377 63.0118 34.896 62.8477 35.625 62.5912L37.1056 64.096L39.1428 62.919L38.584 60.8906C39.1742 60.3879 39.7002 59.8145 40.1504 59.1834L42.2206 59.5662L43.215 57.4322L41.5782 56.1012C41.7686 55.3541 41.8668 54.5864 41.8708 53.8154ZM38.3882 53.7758C38.3882 54.9385 38.0435 56.075 37.3976 57.0417C36.7516 58.0084 35.8335 58.7618 34.7594 59.2068C33.6853 59.6517 32.5033 59.7681 31.363 59.5413C30.2227 59.3145 29.1753 58.7546 28.3532 57.9325C27.5311 57.1104 26.9712 56.0629 26.7444 54.9226C26.5176 53.7823 26.634 52.6004 27.0789 51.5263C27.5238 50.4521 28.2773 49.534 29.244 48.8881C30.2107 48.2422 31.3472 47.8974 32.5098 47.8974C33.2819 47.8971 34.0464 48.049 34.7598 48.3443C35.4731 48.6396 36.1212 49.0726 36.6671 49.6185C37.2131 50.1644 37.6461 50.8126 37.9414 51.5259C38.2367 52.2392 38.3885 53.0038 38.3882 53.7758Z" fill="white"/>
<path d="M90.4574 46.8176L91.2538 46.4546L91.0778 45.4976L90.1978 45.4294C90.0852 45.1354 89.9375 44.8562 89.7578 44.5978L90.2088 43.8344L89.5378 43.148L88.7678 43.6056C88.3249 43.3041 87.8233 43.0994 87.296 43.005L87.076 42.125H86.1058L85.8858 43.005C85.5822 43.0611 85.2867 43.1542 85.0058 43.2822L84.3084 42.6816L83.512 43.2382L83.8398 44.0984C83.6265 44.3162 83.4396 44.5584 83.2832 44.82L82.3702 44.7254L82.038 45.6384L82.7948 46.151C82.7586 46.364 82.7402 46.5796 82.7398 46.7956C82.7398 46.888 82.7398 46.9782 82.7398 47.0684L81.9434 47.5084L82.1942 48.4456L83.0962 48.4346C83.2278 48.7162 83.3933 48.9807 83.589 49.2222L83.2018 50.0296L83.9454 50.6544L84.6648 50.1374C84.9417 50.2959 85.2373 50.4193 85.5448 50.5048L85.6878 51.3848L86.6558 51.4684L86.9462 50.6456C87.2635 50.6178 87.5761 50.5506 87.8768 50.4454L88.4884 51.0636L89.3288 50.5796L89.0978 49.7436C89.3412 49.5361 89.5584 49.2997 89.7446 49.0396L90.5982 49.1958L91.0074 48.3158L90.3474 47.7614C90.4232 47.4526 90.4602 47.1356 90.4574 46.8176ZM89.023 46.8C89.023 47.2786 88.881 47.7465 88.6151 48.1445C88.3492 48.5424 87.9712 48.8526 87.529 49.0358C87.0869 49.219 86.6003 49.2669 86.1308 49.1735C85.6614 49.0801 85.2302 48.8496 84.8918 48.5112C84.5533 48.1728 84.3228 47.7416 84.2295 47.2721C84.1361 46.8027 84.184 46.3161 84.3672 45.8739C84.5503 45.4317 84.8605 45.0538 85.2585 44.7878C85.6564 44.5219 86.1243 44.38 86.603 44.38C87.2448 44.38 87.8603 44.635 88.3142 45.0888C88.768 45.5426 89.023 46.1582 89.023 46.8Z" fill="white"/>
<path d="M74.1608 67.7143C73.7208 68.8143 73.2544 67.9343 73.327 63.3033C73.36 61.1341 73.514 56.7033 75.912 57.6779C78.2176 58.6151 75.1794 65.1579 75.1794 65.1579L74.1608 67.7143ZM77.4608 68.3743C77.4608 68.3743 82.4636 63.1625 80.587 61.5279C78.6356 59.8251 77.0516 63.9677 76.3146 66.0071C74.7416 70.3631 74.8868 71.3509 75.67 70.4511L77.4608 68.3743ZM78.5168 73.0515C78.5168 73.0515 83.095 69.7911 81.8982 68.2687C80.6508 66.6847 78.8402 69.6217 77.9822 71.0759C76.1496 74.1779 76.1166 74.9545 76.8448 74.3759L78.5168 73.0515ZM79.7554 77.7133C79.7554 77.7133 84.3336 74.4551 83.1368 72.9327C81.8916 71.3487 80.081 74.2857 79.2208 75.7399C77.3882 78.8397 77.3574 79.6185 78.0834 79.0399L79.7554 77.7133ZM71.7584 68.3391C71.7584 68.3391 65.352 65.0039 64.3092 67.2633C63.2246 69.6151 67.6466 69.9715 69.8092 70.1035C74.4292 70.3895 75.3378 69.9715 74.2554 69.4743L71.7584 68.3391ZM72.6604 72.0087C72.6604 72.0087 65.7194 70.0155 65.1474 72.4355C64.5512 74.9567 68.9556 74.4265 71.1028 74.1273C75.6876 73.4871 76.495 72.8975 75.3356 72.6269L72.6604 72.0087ZM74.251 76.0127C74.251 76.0127 68.333 74.4859 67.9062 76.5473C67.4662 78.6923 71.171 78.1423 72.9816 77.8387C76.8448 77.1919 77.5136 76.6749 76.5258 76.4725L74.251 76.0127ZM75.1772 79.3127C75.1772 79.3127 69.4572 77.1655 68.8104 79.1697C68.1504 81.2553 71.8904 81.1035 73.7208 80.9935C77.6302 80.7603 78.3408 80.3181 77.3904 80.0101L75.1772 79.3127ZM71.3448 62.5729C71.3448 62.5729 68.7334 54.4549 65.77 55.9289C62.69 57.4689 66.2474 61.1253 68.0316 62.8765C71.8376 66.6165 73.0146 66.8783 72.513 65.5737L71.3448 62.5729Z" fill="white"/>
<path d="M67.0039 58.8223C67.0039 58.8223 73.5643 66.8259 75.1439 70.8321C76.9457 75.4367 78.1755 80.6221 78.4175 84.9121" stroke="#CCCCCC" stroke-width="0.275433" stroke-linecap="round" stroke-linejoin="round"/>
<path d="M73.8281 68.2216L74.7411 60.5898" stroke="#CCCCCC" stroke-width="0.275433" stroke-linecap="round" stroke-linejoin="round"/>
<path d="M75.1328 70.8332L78.4328 64.418" stroke="#CCCCCC" stroke-width="0.275433" stroke-linecap="round" stroke-linejoin="round"/>
<path d="M74.6507 69.8846L67.7383 68.4766" stroke="#CCCCCC" stroke-width="0.275433" stroke-linecap="round" stroke-linejoin="round"/>
<path d="M76.4316 74.4747L80.495 69.8438" stroke="#CCCCCC" stroke-width="0.275433" stroke-linecap="round" stroke-linejoin="round"/>
<path d="M75.8649 72.9505L70.6465 72.9043" stroke="#CCCCCC" stroke-width="0.275433" stroke-linecap="round" stroke-linejoin="round"/>
<path d="M76.867 76.7344L72.8652 76.8928" stroke="#CCCCCC" stroke-width="0.275433" stroke-linecap="round" stroke-linejoin="round"/>
<path d="M77.6895 79.1544L79.8323 76.2988" stroke="#CCCCCC" stroke-width="0.275433" stroke-linecap="round" stroke-linejoin="round"/>
<path d="M77.8454 80.2156L73.166 79.9824" stroke="#CCCCCC" stroke-width="0.275433" stroke-linecap="round" stroke-linejoin="round"/>
<path d="M90.8814 74.0367C90.074 74.3403 90.3226 73.6605 92.8196 71.4231C93.99 70.3759 96.4232 68.2793 97.0832 70.0349C97.7168 71.7201 92.7382 73.3349 92.7382 73.3349L90.8814 74.0367ZM92.153 76.1113C92.153 76.1113 97.3824 76.2103 97.3296 74.4085C97.2768 72.5341 94.2936 73.7265 92.846 74.3381C89.766 75.6427 89.304 76.2059 90.1664 76.1795L92.153 76.1113ZM90.173 78.9713C90.173 78.9713 94.1594 79.8051 94.3794 78.4191C94.5994 76.9781 92.1574 77.4599 90.9628 77.7173C88.4108 78.2651 87.9818 78.6303 88.6462 78.7359L90.173 78.9713ZM88.303 81.9237C88.303 81.9237 92.2872 82.7553 92.5094 81.3715C92.7294 79.9305 90.2852 80.4101 89.0906 80.6675C86.5408 81.2175 86.1118 81.5827 86.774 81.6883L88.303 81.9237ZM89.359 73.0599C89.359 73.0599 87.984 68.0131 86.279 68.5697C84.4948 69.1483 86.4792 71.6761 87.4714 72.8927C89.59 75.4909 90.2588 75.7681 89.9926 74.9475L89.359 73.0599ZM87.8498 75.3457C87.8498 75.3457 85.498 70.6729 83.9294 71.5573C82.297 72.4813 84.7434 74.5625 85.9578 75.5569C88.5516 77.6821 89.2578 77.8207 88.8376 77.0705L87.8498 75.3457ZM86.5012 78.1573C86.5012 78.1573 84.4046 74.2611 83.1 75.0465C81.7382 75.8627 83.8568 77.5677 84.9062 78.3817C87.1502 80.1175 87.753 80.2187 87.3768 79.5939L86.5012 78.1573ZM85.1988 80.2737C85.1988 80.2737 83.529 76.1773 82.1452 76.8197C80.7064 77.4797 82.6314 79.4069 83.5906 80.3265C85.6344 82.2933 86.2306 82.4561 85.916 81.7961L85.1988 80.2737ZM92.2212 70.0085C92.2212 70.0085 95.255 64.6295 93.0132 63.7781C90.679 62.8981 90.4854 66.5853 90.4304 68.3981C90.3116 72.2613 90.7494 73.0181 91.1982 72.1073L92.2212 70.0085Z" fill="white"/>
<path d="M92.0938 65.8613C92.0938 65.8613 91.0598 73.2841 89.7002 76.0891C88.1382 79.3099 85.782 82.7397 83.6172 84.9793" stroke="#CCCCCC" stroke-width="0.275433" stroke-linecap="round" stroke-linejoin="round"/>
<path d="M90.4492 74.1068L94.9592 70.8398" stroke="#CCCCCC" stroke-width="0.275433" stroke-linecap="round" stroke-linejoin="round"/>
<path d="M89.7012 76.0887L94.737 74.6895" stroke="#CCCCCC" stroke-width="0.275433" stroke-linecap="round" stroke-linejoin="round"/>
<path d="M89.9708 75.3653L87.3242 70.9961" stroke="#CCCCCC" stroke-width="0.275433" stroke-linecap="round" stroke-linejoin="round"/>
<path d="M88.4023 78.5656L92.8639 78.4512" stroke="#CCCCCC" stroke-width="0.275433" stroke-linecap="round" stroke-linejoin="round"/>
<path d="M88.9355 77.5152L86.3945 74.7168" stroke="#CCCCCC" stroke-width="0.275433" stroke-linecap="round" stroke-linejoin="round"/>
<path d="M87.4159 79.9098L85.3633 77.8594" stroke="#CCCCCC" stroke-width="0.275433" stroke-linecap="round" stroke-linejoin="round"/>
<path d="M86.5312 81.5355L89.1031 81.2715" stroke="#CCCCCC" stroke-width="0.275433" stroke-linecap="round" stroke-linejoin="round"/>
<path d="M86.0452 82.1417L83.8694 79.5391" stroke="#CCCCCC" stroke-width="0.275433" stroke-linecap="round" stroke-linejoin="round"/>
<path d="M58.3638 90.6388C66.2967 90.6388 72.7276 89.5671 72.7276 88.2452C72.7276 86.9232 66.2967 85.8516 58.3638 85.8516C50.4309 85.8516 44 86.9232 44 88.2452C44 89.5671 50.4309 90.6388 58.3638 90.6388Z" fill="#2945FF"/>
<path opacity="0.5" d="M58.3638 90.6388C66.2967 90.6388 72.7276 89.5671 72.7276 88.2452C72.7276 86.9232 66.2967 85.8516 58.3638 85.8516C50.4309 85.8516 44 86.9232 44 88.2452C44 89.5671 50.4309 90.6388 58.3638 90.6388Z" fill="white"/>
<path d="M57.1232 35.8602C55.5 38.831 55.0644 42.307 55.9044 45.5864C57.3146 51.0996 61.2284 57.4796 61.2284 57.4796L66.1036 55.9396C66.1036 55.9396 65.7186 46.7722 63.666 42.436C61.6134 38.0998 57.8294 35.7348 57.1232 35.8602Z" fill="#263238" stroke="#263238" stroke-width="0.22" stroke-linecap="round" stroke-linejoin="round"/>
<path d="M60.4583 35.5372C58.8321 38.6326 58.3984 42.2171 59.2395 45.611C60.6519 51.331 64.5658 57.931 64.5658 57.931L69.441 56.3206C69.441 56.3206 69.0559 46.8276 67.0033 42.3352C64.9507 37.8428 61.1601 35.4206 60.4583 35.5372Z" fill="#2945FF"/>
<mask id="mask0_736_1014" style="mask-type:luminance" maskUnits="userSpaceOnUse" x="58" y="35" width="12" height="23">
<path d="M60.4583 35.5353C58.8321 38.6306 58.3984 42.2152 59.2395 45.6091C60.6519 51.3291 64.5658 57.9291 64.5658 57.9291L69.441 56.3187C69.441 56.3187 69.0559 46.8257 67.0033 42.3333C64.9507 37.8409 61.1601 35.4187 60.4583 35.5353Z" fill="white"/>
</mask>
<g mask="url(#mask0_736_1014)">
<path opacity="0.29" d="M60.2826 38.0585C58.8402 40.8037 58.4558 43.9829 59.2024 46.9927C60.4542 52.0527 63.9258 57.9179 63.9258 57.9179L68.251 56.4967C68.251 56.4967 67.91 48.0729 66.0884 44.0909C64.2668 40.1089 60.903 37.9507 60.2826 38.0585Z" fill="black"/>
</g>
<path d="M60.4583 35.5372C58.8321 38.6326 58.3984 42.2171 59.2395 45.611C60.6519 51.331 64.5658 57.931 64.5658 57.931L69.441 56.3206C69.441 56.3206 69.0559 46.8276 67.0033 42.3352C64.9507 37.8428 61.1601 35.4206 60.4583 35.5372Z" stroke="#263238" stroke-width="0.22" stroke-linecap="round" stroke-linejoin="round"/>
<path d="M60.4559 35.538C59.4426 37.441 58.886 39.5537 58.8301 41.709C59.7601 41.7487 60.6915 41.6823 61.6065 41.511C63.041 41.2582 64.4146 40.7356 65.6545 39.971C63.6019 37.0054 61.0257 35.4346 60.4559 35.538Z" fill="#263238" stroke="#263238" stroke-width="0.22" stroke-linecap="round" stroke-linejoin="round"/>
<path d="M69.3828 55.2617L64.0918 57.0943C64.3866 57.6223 64.567 57.9259 64.567 57.9259L69.4422 56.3199C69.4422 56.3199 69.4246 55.9261 69.3828 55.2617Z" fill="#263238" stroke="#263238" stroke-width="0.22" stroke-linecap="round" stroke-linejoin="round"/>
<path d="M48.2822 85.4297C48.2822 85.4297 46.4342 86.7739 44.9228 87.1897C43.4114 87.6055 44.419 88.4481 45.5938 88.4481C46.7686 88.4481 48.7024 88.0279 49.6264 88.0279C50.5504 88.0279 51.3864 88.3645 51.7274 87.5241C52.0684 86.6837 51.811 86.1799 51.811 86.1799C51.811 86.1799 49.4592 85.5133 48.2822 85.4297Z" fill="white" stroke="#263238" stroke-width="0.22" stroke-linecap="round" stroke-linejoin="round"/>
<path d="M49.7889 87.4973C48.3303 87.4973 47.7143 87.9593 46.2161 88.0737C45.5125 88.1516 44.8043 87.9761 44.2185 87.5787C43.9369 87.9901 44.7201 88.4587 45.5935 88.4587C46.7705 88.4587 48.7021 88.0385 49.6261 88.0385C50.5501 88.0385 51.3861 88.3751 51.7271 87.5347C51.8039 87.3463 51.8564 87.1489 51.8833 86.9473C51.2307 87.2733 50.5175 87.4606 49.7889 87.4973Z" fill="white" stroke="#263238" stroke-width="0.22" stroke-linecap="round" stroke-linejoin="round"/>
<path d="M62.4374 85.8442C62.4374 85.8442 61.3242 87.69 60.6774 88.2268C60.0306 88.7636 59.6016 89.3796 60.3298 89.4192C61.058 89.4588 62.5606 89.0342 63.9444 88.4578C65.3282 87.8814 66.6724 86.3832 66.6724 86.1522C66.6724 85.9212 65.9816 84.8828 65.9816 84.8828C65.9816 84.8828 63.3988 85.3074 62.4374 85.8442Z" fill="white" stroke="#263238" stroke-width="0.22" stroke-linecap="round" stroke-linejoin="round"/>
<path d="M66.5213 85.7988C65.6173 86.782 64.513 87.56 63.2829 88.0802C61.5845 88.8084 60.4757 89.0064 59.9631 89.0614C59.8949 89.2638 59.9807 89.409 60.3217 89.4266C61.0521 89.464 62.5525 89.0416 63.9363 88.4652C65.3201 87.8888 66.6643 86.3906 66.6643 86.1596C66.6387 86.0317 66.5903 85.9095 66.5213 85.7988Z" fill="white" stroke="#263238" stroke-width="0.22" stroke-linecap="round" stroke-linejoin="round"/>
<path d="M52.2309 56.9558L51.2233 60.2316C51.2233 60.2316 47.5185 68.211 46.7705 70.312C46.0225 72.413 47.7781 76.109 47.9475 78.452C48.1169 80.795 48.0311 83.996 48.0311 83.996C47.938 84.0659 47.8602 84.154 47.8023 84.255C47.7444 84.356 47.7077 84.4678 47.6945 84.5834V85.6834L52.0615 86.691C52.0615 86.691 52.2309 84.5922 52.0615 83.501C51.8921 82.4098 51.7271 75.603 51.7271 74.5954C51.7271 73.5878 51.3905 71.5726 51.3905 71.5726L54.5827 67.3728C54.5827 67.3728 53.6587 72.3272 53.9953 73.2512C54.3319 74.1752 57.2711 77.704 58.0257 78.375C58.7803 79.046 62.6457 84.2556 62.6457 84.2556C62.6457 84.2556 62.0583 84.7594 62.0583 85.1796C62.0826 85.5758 62.1385 85.9694 62.2255 86.3566L66.1745 85.2566C66.1745 85.2566 65.6707 83.6616 64.8303 81.5606C63.9899 79.4596 59.2863 72.0698 59.2863 72.0698C59.2863 72.0698 63.0659 62.6604 63.0659 60.5616C63.0659 58.4628 63.1495 56.9492 63.1495 56.9492C63.1495 56.9492 56.5979 58.7202 52.2309 56.9558Z" fill="#263238" stroke="#263238" stroke-width="0.22" stroke-linecap="round" stroke-linejoin="round"/>
<path d="M54.5846 67.3733L55.5922 62.4167L54.248 60.6523" stroke="white" stroke-width="0.22" stroke-linecap="round" stroke-linejoin="round"/>
<path d="M48.2342 55.8023C48.1489 55.8198 48.0603 55.8042 47.9862 55.7587C47.912 55.7133 47.8579 55.6414 47.8347 55.5576C47.8115 55.4738 47.821 55.3843 47.8612 55.3072C47.9015 55.2301 47.9695 55.1712 48.0516 55.1423L56.7833 51.8423C56.8255 51.8265 56.8704 51.819 56.9155 51.8205C56.9605 51.822 57.0049 51.8323 57.0459 51.8509C57.087 51.8695 57.124 51.8959 57.1548 51.9288C57.1856 51.9617 57.2097 52.0004 57.2256 52.0425C57.2414 52.0847 57.2489 52.1296 57.2474 52.1747C57.2459 52.2197 57.2356 52.264 57.217 52.3051C57.1984 52.3462 57.1719 52.3832 57.1391 52.414C57.1062 52.4448 57.0675 52.4689 57.0253 52.4847L48.2958 55.7847C48.2758 55.7924 48.2552 55.7983 48.2342 55.8023Z" fill="#263238" stroke="#263238" stroke-width="0.22" stroke-linecap="round" stroke-linejoin="round"/>
<path d="M48.6017 51.4811C48.6017 51.4811 49.5389 51.7627 52.0535 50.3438L52.7443 53.0607C52.7443 53.0607 50.9601 53.8307 48.3223 53.4677L48.6017 51.4811Z" fill="white"/>
<mask id="mask1_736_1014" style="mask-type:luminance" maskUnits="userSpaceOnUse" x="48" y="50" width="5" height="4">
<path d="M48.6056 51.4792C48.6056 51.4792 49.5428 51.7608 52.0574 50.3418L52.7482 53.0588C52.7482 53.0588 50.964 53.8288 48.3262 53.4658L48.6056 51.4792Z" fill="white"/>
</mask>
<g mask="url(#mask1_736_1014)">
<path opacity="0.15" d="M48.6056 51.4792C48.6056 51.4792 49.5428 51.7608 52.0574 50.3418L52.7482 53.0588C52.7482 53.0588 50.964 53.8288 48.3262 53.4658L48.6056 51.4792Z" fill="black"/>
</g>
<path d="M48.6017 51.4811C48.6017 51.4811 49.5389 51.7627 52.0535 50.3438L52.7443 53.0607C52.7443 53.0607 50.9601 53.8307 48.3223 53.4677L48.6017 51.4811Z" stroke="#263238" stroke-width="0.22" stroke-linecap="round" stroke-linejoin="round"/>
<path d="M48.4887 55.2021C48.3643 55.2015 48.2435 55.1601 48.1449 55.0842C48.0463 55.0082 47.9754 54.902 47.9431 54.7819L46.5989 49.7219C46.5799 49.6496 46.5752 49.5744 46.5852 49.5003C46.5952 49.4263 46.6198 49.355 46.6573 49.2904C46.6949 49.2259 46.7449 49.1693 46.8043 49.1241C46.8637 49.0788 46.9315 49.0457 47.0037 49.0267C47.0759 49.0076 47.1512 49.0029 47.2253 49.013C47.2993 49.023 47.3706 49.0475 47.4352 49.0851C47.4997 49.1227 47.5562 49.1726 47.6015 49.232C47.6467 49.2915 47.6799 49.3592 47.6989 49.4315L49.0431 54.4915C49.0624 54.5631 49.0673 54.6379 49.0576 54.7114C49.0479 54.785 49.0237 54.8559 48.9865 54.9201C48.9493 54.9843 48.8998 55.0405 48.8408 55.0855C48.7818 55.1305 48.7145 55.1634 48.6427 55.1823C48.5926 55.1961 48.5407 55.2028 48.4887 55.2021Z" fill="#2945FF" stroke="#263238" stroke-width="0.22" stroke-miterlimit="10"/>
<path d="M49.009 50.4368C48.3666 50.1596 47.887 52.1242 48.7098 52.7028C49.1498 53.0108 49.427 52.4256 49.4688 52.0428C49.5106 51.66 49.4974 50.9956 49.2796 50.681C49.2131 50.5766 49.1196 50.4922 49.009 50.4368Z" fill="white" stroke="#263238" stroke-width="0.22" stroke-linecap="round" stroke-linejoin="round"/>
<path d="M48.7992 53.3683C48.7992 53.3683 47.8466 53.3331 47.4792 53.6521C47.1118 53.9711 47.3846 54.3517 47.6024 54.3121C47.8202 54.2725 48.8322 54.1779 49.0324 53.9689C49.2326 53.7599 49.2348 53.6433 48.7992 53.3683Z" fill="white" stroke="#263238" stroke-width="0.22" stroke-linecap="round" stroke-linejoin="round"/>
<path d="M48.5419 52.4937C48.5419 52.4937 47.4419 52.4321 47.0173 52.8127C46.5927 53.1933 46.9205 53.6685 47.1735 53.6333C47.4265 53.5981 48.6013 53.4925 48.8301 53.2395C49.0589 52.9865 49.0611 52.8369 48.5419 52.4937Z" fill="white" stroke="#263238" stroke-width="0.22" stroke-linecap="round" stroke-linejoin="round"/>
<path d="M48.4417 51.5965C48.4417 51.5965 47.0997 51.3501 46.5321 51.7505C45.9645 52.1509 46.2813 52.7779 46.5959 52.7757C46.9105 52.7735 48.3559 52.8241 48.6749 52.5557C48.9939 52.2873 49.0115 52.0959 48.4417 51.5965Z" fill="white" stroke="#263238" stroke-width="0.22" stroke-linecap="round" stroke-linejoin="round"/>
<path d="M48.3677 50.532C48.3677 50.532 47.0279 50.2856 46.4581 50.686C45.8883 51.0864 46.2095 51.7112 46.5241 51.709C46.8387 51.7068 48.2841 51.7574 48.6031 51.489C48.9221 51.2206 48.9375 51.0402 48.3677 50.532Z" fill="white" stroke="#263238" stroke-width="0.22" stroke-linecap="round" stroke-linejoin="round"/>
<path d="M51.8744 40.9417C51.8744 40.9417 50.2288 43.9645 50.5412 46.4989C50.8536 49.0333 51.8744 51.5589 52.1406 52.6765C52.4068 53.7941 51.562 56.4165 51.7402 57.2085C51.9184 58.0005 55.6518 58.4097 58.8528 58.5439C62.0538 58.6781 63.4728 57.8311 63.6532 56.9423C63.8336 56.0535 63.9194 56.1877 63.7852 54.5421C63.651 52.8965 62.1858 44.1867 61.297 42.4971C60.4082 40.8075 56.1864 39.3423 55.4736 39.1597C54.7608 38.9771 52.8006 39.2543 51.8744 40.9417Z" fill="white"/>
<mask id="mask2_736_1014" style="mask-type:luminance" maskUnits="userSpaceOnUse" x="50" y="39" width="14" height="20">
<path d="M51.8726 40.94C51.8726 40.94 50.227 43.9628 50.5394 46.4972C50.8518 49.0316 51.8727 51.5572 52.1389 52.6748C52.4051 53.7924 51.5602 56.4148 51.7384 57.2068C51.9166 57.9988 55.6501 58.408 58.8511 58.5422C62.0521 58.6764 63.471 57.8294 63.6514 56.9406C63.8318 56.0518 63.9176 56.186 63.7834 54.5404C63.6492 52.8948 62.184 44.185 61.2952 42.4954C60.4064 40.8058 56.1846 39.3406 55.4718 39.158C54.759 38.9754 52.7988 39.2526 51.8726 40.94Z" fill="white"/>
</mask>
<g mask="url(#mask2_736_1014)">
<path opacity="0.15" d="M59.8692 43.0384L58.1818 45.6784C58.1818 45.6784 58.0366 46.9258 58.6966 47.8784C59.0825 48.4413 59.4989 48.9826 59.944 49.4998L56.7144 47.8124C56.7144 47.8124 58.844 51.1124 59.4292 51.7724C60.0144 52.4324 60.8966 53.5324 60.0166 54.782C59.1652 55.9876 55.2954 57.5386 54.9082 58.236C56.1204 58.39 57.5284 58.4912 58.8462 58.5462C62.045 58.6782 63.4662 57.8334 63.6466 56.9446C63.827 56.0558 63.9128 56.19 63.7786 54.5444C63.6532 53.0044 62.3596 45.2692 61.4664 42.9042C60.7998 42.7436 60.2278 42.7502 59.8692 43.0384Z" fill="black"/>
</g>
<path d="M51.8744 40.9417C51.8744 40.9417 50.2288 43.9645 50.5412 46.4989C50.8536 49.0333 51.8744 51.5589 52.1406 52.6765C52.4068 53.7941 51.562 56.4165 51.7402 57.2085C51.9184 58.0005 55.6518 58.4097 58.8528 58.5439C62.0538 58.6781 63.4728 57.8311 63.6532 56.9423C63.8336 56.0535 63.9194 56.1877 63.7852 54.5421C63.651 52.8965 62.1858 44.1867 61.297 42.4971C60.4082 40.8075 56.1864 39.3423 55.4736 39.1597C54.7608 38.9771 52.8006 39.2543 51.8744 40.9417Z" stroke="#263238" stroke-width="0.22" stroke-linecap="round" stroke-linejoin="round"/>
<path d="M55.3416 38.2324L52.1406 42.276L53.8412 44.6762L56.6638 39.383L55.3416 38.2324Z" fill="white" stroke="#263238" stroke-width="0.22" stroke-linecap="round" stroke-linejoin="round"/>
<path d="M50.8653 42.0059L50.8301 43.8297L52.2887 42.9541L50.8653 42.0059Z" fill="white" stroke="#263238" stroke-width="0.22" stroke-linecap="round" stroke-linejoin="round"/>
<path d="M51.3817 40.5117L50.8691 42.0077L52.8755 43.7941L51.3817 40.5117Z" fill="white" stroke="#263238" stroke-width="0.22" stroke-linecap="round" stroke-linejoin="round"/>
<path d="M50.5646 38.4329C50.5646 38.4329 52.1926 42.9011 52.659 42.7603C53.1254 42.6195 54.9866 39.4603 55.079 38.8509C55.1714 38.2415 54.5202 36.8027 54.5202 36.8027C53.6349 37.0174 52.7761 37.3295 51.9594 37.7333C50.5162 38.4329 50.5646 38.4329 50.5646 38.4329Z" fill="white"/>
<mask id="mask3_736_1014" style="mask-type:luminance" maskUnits="userSpaceOnUse" x="50" y="36" width="6" height="7">
<path d="M50.5588 38.4368C50.5588 38.4368 52.1868 42.905 52.6532 42.7642C53.1196 42.6234 54.9808 39.4642 55.0732 38.8548C55.1656 38.2454 54.5144 36.8066 54.5144 36.8066C53.629 37.0213 52.7702 37.3334 51.9536 37.7372C50.5104 38.4368 50.5588 38.4368 50.5588 38.4368Z" fill="white"/>
</mask>
<g mask="url(#mask3_736_1014)">
<path d="M51.9543 37.7326L51.8927 37.7634C51.8546 37.8904 51.7983 38.0112 51.7255 38.122C51.3031 38.7534 50.9445 38.9514 50.7773 39.013C50.7905 39.0482 50.8037 39.0834 50.8191 39.1208L54.0443 40.9182C54.5635 40.0536 55.0277 39.1582 55.0739 38.8568C55.1663 38.2518 54.5151 36.8086 54.5151 36.8086C53.6301 37.0212 52.7712 37.3311 51.9543 37.7326Z" fill="#2945FF"/>
<path opacity="0.5" d="M51.9543 37.7326L51.8927 37.7634C51.8546 37.8904 51.7983 38.0112 51.7255 38.122C51.3031 38.7534 50.9445 38.9514 50.7773 39.013C50.7905 39.0482 50.8037 39.0834 50.8191 39.1208L54.0443 40.9182C54.5635 40.0536 55.0277 39.1582 55.0739 38.8568C55.1663 38.2518 54.5151 36.8086 54.5151 36.8086C53.6301 37.0212 52.7712 37.3311 51.9543 37.7326Z" fill="white"/>
</g>
<path d="M50.5646 38.4329C50.5646 38.4329 52.1926 42.9011 52.659 42.7603C53.1254 42.6195 54.9866 39.4603 55.079 38.8509C55.1714 38.2415 54.5202 36.8027 54.5202 36.8027C53.6349 37.0174 52.7761 37.3295 51.9594 37.7333C50.5162 38.4329 50.5646 38.4329 50.5646 38.4329Z" stroke="#263238" stroke-width="0.22" stroke-linecap="round" stroke-linejoin="round"/>
<path d="M50.5408 46.4983C50.5408 46.4983 51.4736 47.7875 56.1398 47.7413L56.9846 48.9865C56.9846 48.9865 53.2952 49.7873 50.763 47.6533L50.5408 46.4983Z" fill="#263238" stroke="#263238" stroke-width="0.22" stroke-linecap="round" stroke-linejoin="round"/>
<path d="M57.6941 40.0098C57.6941 40.0098 56.2289 40.276 55.5183 43.1206C54.8077 45.9652 56.4951 49.6986 59.1615 50.7216C61.8279 51.7446 63.2073 49.9208 63.2073 49.9208L62.8069 48.944C62.8069 48.944 61.8741 50.7656 59.5619 49.7888C57.2497 48.812 56.3609 46.4206 56.5391 44.0534C56.7173 41.6862 58.8513 40.5884 58.8513 40.5884L57.6941 40.0098Z" fill="#263238" stroke="#263238" stroke-width="0.22" stroke-linecap="round" stroke-linejoin="round"/>
<path d="M53.2399 57.6665C53.144 57.6696 53.0505 57.6359 52.9786 57.5724C52.9067 57.5088 52.8618 57.4202 52.8531 57.3246C52.8444 57.2291 52.8725 57.1338 52.9318 57.0583C52.991 56.9828 53.0768 56.9328 53.1717 56.9185L69.3967 51.2117C69.4953 51.193 69.5973 51.2143 69.6802 51.2708C69.7631 51.3273 69.8202 51.4145 69.8389 51.5131C69.8575 51.6117 69.8363 51.7137 69.7798 51.7966C69.7232 51.8795 69.6361 51.9366 69.5375 51.9553L53.3103 57.6621C53.287 57.6657 53.2634 57.6672 53.2399 57.6665Z" fill="#263238" stroke="#263238" stroke-width="0.22" stroke-linecap="round" stroke-linejoin="round"/>
<path d="M53.7994 57.0188C53.6607 57.0188 53.5259 56.9731 53.4157 56.8888C53.3056 56.8045 53.2263 56.6863 53.19 56.5524L51.7006 50.9138C51.6742 50.8322 51.6647 50.746 51.6727 50.6606C51.6806 50.5752 51.7059 50.4924 51.747 50.417C51.788 50.3417 51.844 50.2756 51.9115 50.2226C51.9789 50.1697 52.0565 50.131 52.1394 50.109C52.2223 50.087 52.3088 50.0821 52.3937 50.0947C52.4785 50.1072 52.5599 50.1369 52.6329 50.182C52.7059 50.227 52.769 50.2865 52.8182 50.3567C52.8675 50.4269 52.9019 50.5064 52.9194 50.5904L54.4198 56.2268C54.4631 56.3875 54.4411 56.5588 54.3587 56.7034C54.2763 56.848 54.1401 56.9542 53.9798 56.999C53.9208 57.0134 53.8602 57.02 53.7994 57.0188Z" fill="#2945FF" stroke="#263238" stroke-width="0.22" stroke-miterlimit="10"/>
<path d="M56.981 53.9201C56.981 53.9201 55.0252 52.4109 54.4488 52.0105C53.8724 51.6101 52.537 52.1425 52.0926 52.1425C51.6482 52.1425 51.0696 52.5825 51.1598 52.8993C51.2472 53.1184 51.4011 53.3046 51.5998 53.4317C51.5998 53.4317 51.2874 53.9663 51.5536 54.3667C51.7012 54.5583 51.7939 54.7865 51.822 55.0267C51.9306 55.2966 52.0974 55.5392 52.3104 55.7373C52.5766 55.9155 53.1552 56.0035 53.8658 56.0035C54.5764 56.0035 55.8216 55.5151 55.8216 55.5151L57.0668 55.4711L56.981 53.9201Z" fill="white"/>
<mask id="mask4_736_1014" style="mask-type:luminance" maskUnits="userSpaceOnUse" x="51" y="51" width="7" height="6">
<path d="M56.979 53.9182C56.979 53.9182 55.0232 52.409 54.4468 52.0086C53.8704 51.6082 52.535 52.1406 52.0906 52.1406C51.6462 52.1406 51.0676 52.5806 51.1578 52.8974C51.2452 53.1164 51.3991 53.3026 51.5978 53.4298C51.5978 53.4298 51.2854 53.9644 51.5516 54.3648C51.6992 54.5564 51.792 54.7845 51.82 55.0248C51.9286 55.2946 52.0954 55.5372 52.3084 55.7354C52.5746 55.9136 53.1532 56.0016 53.8638 56.0016C54.5744 56.0016 55.8196 55.5132 55.8196 55.5132L57.0648 55.4692L56.979 53.9182Z" fill="white"/>
</mask>
<g mask="url(#mask4_736_1014)">
<path d="M55.8302 55.5182L57.0754 55.4742L57.0578 55.1684L56.8686 54.262C56.8686 54.262 54.7412 52.942 53.859 53.0146C52.9768 53.0872 52.4664 53.0806 52.3916 54.4094C52.3719 54.6918 52.4125 54.9752 52.5107 55.2407C52.609 55.5063 52.7626 55.7478 52.9614 55.9494C53.2638 55.9924 53.5689 56.013 53.8744 56.011C54.585 56.0066 55.8302 55.5182 55.8302 55.5182Z" fill="#2945FF"/>
<path opacity="0.5" d="M55.8302 55.5182L57.0754 55.4742L57.0578 55.1684L56.8686 54.262C56.8686 54.262 54.7412 52.942 53.859 53.0146C52.9768 53.0872 52.4664 53.0806 52.3916 54.4094C52.3719 54.6918 52.4125 54.9752 52.5107 55.2407C52.609 55.5063 52.7626 55.7478 52.9614 55.9494C53.2638 55.9924 53.5689 56.013 53.8744 56.011C54.585 56.0066 55.8302 55.5182 55.8302 55.5182Z" fill="white"/>
</g>
<path d="M56.981 53.9201C56.981 53.9201 55.0252 52.4109 54.4488 52.0105C53.8724 51.6101 52.537 52.1425 52.0926 52.1425C51.6482 52.1425 51.0696 52.5825 51.1598 52.8993C51.2472 53.1184 51.4011 53.3046 51.5998 53.4317C51.5998 53.4317 51.2874 53.9663 51.5536 54.3667C51.7012 54.5583 51.7939 54.7865 51.822 55.0267C51.9306 55.2966 52.0974 55.5392 52.3104 55.7373C52.5766 55.9155 53.1552 56.0035 53.8658 56.0035C54.5764 56.0035 55.8216 55.5151 55.8216 55.5151L57.0668 55.4711L56.981 53.9201Z" stroke="#263238" stroke-width="0.22" stroke-linecap="round" stroke-linejoin="round"/>
<path d="M58.275 41.4322C58.275 41.4322 56.6756 42.8974 57.2982 44.8532C57.9208 46.809 60.5014 48.6306 61.1614 49.5194C61.6468 50.1403 62.1825 50.7201 62.763 51.253C62.763 51.253 60.761 52.232 59.3398 52.8546C58.5332 53.209 57.7016 53.5032 56.8516 53.7346L56.8956 55.422C56.8956 55.422 61.784 55.642 64.05 54.762C66.316 53.882 67.9616 52.7622 67.9616 51.429C67.9616 50.0958 65.1214 47.6098 63.6078 45.2096C62.0942 42.8094 60.9854 41.5642 59.4762 41.342" fill="white"/>
<mask id="mask5_736_1014" style="mask-type:luminance" maskUnits="userSpaceOnUse" x="56" y="41" width="12" height="15">
<path d="M58.275 41.432C58.275 41.432 56.6756 42.8972 57.2982 44.853C57.9208 46.8088 60.5014 48.6304 61.1614 49.5192C61.6468 50.14 62.1825 50.7198 62.763 51.2528C62.763 51.2528 60.761 52.2318 59.3398 52.8544C58.5332 53.2088 57.7016 53.5029 56.8516 53.7344L56.8956 55.4218C56.8956 55.4218 61.784 55.6418 64.05 54.7618C66.316 53.8818 67.9616 52.762 67.9616 51.4288C67.9616 50.0956 65.1214 47.6096 63.6078 45.2094C62.0942 42.8092 60.9854 41.564 59.4762 41.3418" fill="white"/>
</mask>
<g mask="url(#mask5_736_1014)">
<path opacity="0.15" d="M64.0502 54.7656C66.3184 53.8856 67.9618 52.7658 67.9618 51.4326C67.9618 50.0994 65.1194 47.6112 63.6058 45.211C62.5212 43.4862 61.6412 42.362 60.671 41.7812C61.0934 42.2036 62.3826 43.5522 62.4442 44.287C62.5168 45.167 58.8494 44.8018 59.5094 45.2418C60.1694 45.6818 63.1768 46.7092 64.499 47.8818C65.8212 49.0544 67.5064 50.0818 66.7738 50.9618C66.0412 51.8418 62.5938 52.9418 60.0968 54.5566C59.7318 54.7683 59.4284 55.0716 59.2168 55.4366C60.7876 55.4058 62.8116 55.2518 64.0502 54.7656Z" fill="black"/>
</g>
<path d="M58.275 41.4322C58.275 41.4322 56.6756 42.8974 57.2982 44.8532C57.9208 46.809 60.5014 48.6306 61.1614 49.5194C61.6468 50.1403 62.1825 50.7201 62.763 51.253C62.763 51.253 60.761 52.232 59.3398 52.8546C58.5332 53.209 57.7016 53.5032 56.8516 53.7346L56.8956 55.422C56.8956 55.422 61.784 55.642 64.05 54.762C66.316 53.882 67.9616 52.7622 67.9616 51.429C67.9616 50.0958 65.1214 47.6098 63.6078 45.2096C62.0942 42.8094 60.9854 41.5642 59.4762 41.342" stroke="#263238" stroke-width="0.22" stroke-linecap="round" stroke-linejoin="round"/>
<path d="M57.7852 53.4746L57.9634 55.4304" stroke="#263238" stroke-width="0.22" stroke-linecap="round" stroke-linejoin="round"/>
<path d="M62.7637 51.2609C62.7637 51.2609 64.3631 50.1939 65.3861 49.9277" stroke="#263238" stroke-width="0.22" stroke-linecap="round" stroke-linejoin="round"/>
<path d="M50.0692 31.3224C49.8941 31.754 49.7421 32.1947 49.6138 32.6424C49.506 33.0956 48.9318 33.9162 48.5952 34.1252C48.2586 34.3342 47.4732 34.6268 47.8186 35.0052C48.1256 35.2838 48.4755 35.5111 48.8548 35.6784C48.8548 35.6784 48.5842 37.2404 48.7558 38.1402C48.9274 39.04 49.561 39.1918 50.1352 39.183C50.7094 39.1742 52.8764 38.9168 53.609 38.0368C54.3416 37.1568 55.5208 34.3738 54.9422 32.5654C54.3636 30.757 51.0944 29.6042 50.0692 31.3224Z" fill="white"/>
<mask id="mask6_736_1014" style="mask-type:luminance" maskUnits="userSpaceOnUse" x="47" y="30" width="9" height="10">
<path d="M50.0748 31.3227C49.8997 31.7543 49.7477 32.1949 49.6194 32.6427C49.5116 33.0959 48.9374 33.9165 48.6008 34.1255C48.2642 34.3345 47.4788 34.6271 47.8242 35.0055C48.1312 35.284 48.4811 35.5113 48.8604 35.6787C48.8604 35.6787 48.5898 37.2407 48.7614 38.1405C48.933 39.0403 49.5666 39.1921 50.1408 39.1833C50.715 39.1745 52.882 38.9171 53.6146 38.0371C54.3472 37.1571 55.5264 34.3741 54.9478 32.5657C54.3692 30.7573 51.1 29.6045 50.0748 31.3227Z" fill="white"/>
</mask>
<g mask="url(#mask6_736_1014)">
<path d="M51.4409 34.4547C51.7335 35.6295 52.3209 37.2421 51.7335 38.1243C51.1461 39.0065 50.6797 39.0439 50.6797 39.0439L50.8249 39.1231C51.7049 39.0065 53.0623 38.6963 53.6123 38.0363C54.3449 37.1563 55.5241 34.3733 54.9455 32.5649C54.8563 32.2974 54.7191 32.0484 54.5407 31.8301L52.1009 32.3273C52.1009 32.3273 51.1461 33.2799 51.4409 34.4547Z" fill="#2945FF"/>
<path opacity="0.5" d="M51.4409 34.4547C51.7335 35.6295 52.3209 37.2421 51.7335 38.1243C51.1461 39.0065 50.6797 39.0439 50.6797 39.0439L50.8249 39.1231C51.7049 39.0065 53.0623 38.6963 53.6123 38.0363C54.3449 37.1563 55.5241 34.3733 54.9455 32.5649C54.8563 32.2974 54.7191 32.0484 54.5407 31.8301L52.1009 32.3273C52.1009 32.3273 51.1461 33.2799 51.4409 34.4547Z" fill="white"/>
</g>
<path d="M50.0692 31.3224C49.8941 31.754 49.7421 32.1947 49.6138 32.6424C49.506 33.0956 48.9318 33.9162 48.5952 34.1252C48.2586 34.3342 47.4732 34.6268 47.8186 35.0052C48.1256 35.2838 48.4755 35.5111 48.8548 35.6784C48.8548 35.6784 48.5842 37.2404 48.7558 38.1402C48.9274 39.04 49.561 39.1918 50.1352 39.183C50.7094 39.1742 52.8764 38.9168 53.609 38.0368C54.3416 37.1568 55.5208 34.3738 54.9422 32.5654C54.3636 30.757 51.0944 29.6042 50.0692 31.3224Z" stroke="#263238" stroke-width="0.22" stroke-linecap="round" stroke-linejoin="round"/>
<path d="M53.0195 37.7207C53.0195 37.7207 51.6995 38.8559 50.6875 39.0407C50.6875 39.0407 52.4475 39.2915 54.2801 37.7801L53.0195 37.7207Z" fill="#263238" stroke="#263238" stroke-width="0.22" stroke-linecap="round" stroke-linejoin="round"/>
<path d="M50.2832 32.8577C50.2832 32.8577 50.765 31.9975 51.293 33.0953" stroke="#263238" stroke-width="0.22" stroke-linecap="round" stroke-linejoin="round"/>
<path d="M49.2952 36.2589C49.2952 36.2589 50.1598 36.6527 50.8506 36.1467" stroke="#263238" stroke-width="0.22" stroke-linecap="round" stroke-linejoin="round"/>
<path d="M50.4584 33.7347C50.4078 33.9547 50.2978 34.1043 50.2098 34.0823C50.1218 34.0603 50.091 33.8733 50.1416 33.6599C50.1922 33.4465 50.3022 33.2925 50.3902 33.3123C50.4782 33.3321 50.509 33.5213 50.4584 33.7347Z" fill="#263238"/>
<path d="M49.1641 31.948C49.1641 31.948 52.7567 32.9336 52.8337 33.6222C52.9107 34.3108 52.2771 35.7628 52.6137 37.2258C52.9503 38.6888 54.9435 39.1134 56.6067 38.5458C58.2699 37.9782 59.4667 34.9158 59.2467 32.3858C59.0267 29.8558 56.4505 28.3796 54.4353 27.999C52.4201 27.6184 49.3599 29.077 49.1641 31.948Z" fill="#2945FF"/>
<mask id="mask7_736_1014" style="mask-type:luminance" maskUnits="userSpaceOnUse" x="49" y="27" width="11" height="12">
<path d="M49.1641 31.9461C49.1641 31.9461 52.7567 32.9317 52.8337 33.6203C52.9107 34.3089 52.2771 35.7609 52.6137 37.2239C52.9503 38.6869 54.9435 39.1115 56.6067 38.5439C58.2699 37.9763 59.4667 34.9139 59.2467 32.3839C59.0267 29.8539 56.4505 28.3777 54.4353 27.9971C52.4201 27.6165 49.3599 29.0751 49.1641 31.9461Z" fill="white"/>
</mask>
<g mask="url(#mask7_736_1014)">
<path opacity="0.29" d="M55.9871 30.0507C55.6501 29.9918 55.3084 29.9646 54.9663 29.9693C55.1041 30.1082 55.1829 30.295 55.1863 30.4907C55.1863 30.7241 55.0936 30.9479 54.9285 31.1129C54.7635 31.2779 54.5397 31.3707 54.3063 31.3707C54.0729 31.3707 53.8491 31.2779 53.684 31.1129C53.519 30.9479 53.4263 30.7241 53.4263 30.4907C53.4261 30.4351 53.4327 30.3796 53.4461 30.3257C52.5441 30.7789 51.9061 31.6149 51.2461 32.6247C52.0601 32.9393 52.8103 33.3111 52.8455 33.6213C52.9247 34.3099 52.2889 35.7619 52.6255 37.2249C52.9621 38.6879 54.9553 39.1125 56.6185 38.5449C58.1893 38.0103 59.3443 35.2449 59.2849 32.8007C58.9813 32.1385 58.0551 30.4049 55.9871 30.0507Z" fill="black"/>
</g>
<path d="M49.1641 31.948C49.1641 31.948 52.7567 32.9336 52.8337 33.6222C52.9107 34.3108 52.2771 35.7628 52.6137 37.2258C52.9503 38.6888 54.9435 39.1134 56.6067 38.5458C58.2699 37.9782 59.4667 34.9158 59.2467 32.3858C59.0267 29.8558 56.4505 28.3796 54.4353 27.999C52.4201 27.6184 49.3599 29.077 49.1641 31.948Z" stroke="#263238" stroke-width="0.22" stroke-linecap="round" stroke-linejoin="round"/>
<path d="M53.6169 37.3299C52.7369 35.9241 53.8787 33.8099 53.3529 33.2027C52.9129 32.7033 50.2289 31.7397 49.2389 31.3965C49.2023 31.5788 49.1773 31.7632 49.1641 31.9487C49.1641 31.9487 52.7567 32.9343 52.8337 33.6229C52.9107 34.3115 52.2771 35.7635 52.6137 37.2265C52.9503 38.6895 54.9435 39.1141 56.6067 38.5465H56.6287C55.4495 38.6037 54.1933 38.2517 53.6169 37.3299Z" fill="#263238" stroke="#263238" stroke-width="0.22" stroke-linecap="round" stroke-linejoin="round"/>
</svg>
