<svg width="101" height="101" viewBox="0 0 101 101" fill="none" xmlns="http://www.w3.org/2000/svg">
<path d="M101 77.2461H0V77.2966H101V77.2461Z" fill="#EBEBEB"/>
<path d="M90.8797 80.4961H84.1895V80.5466H90.8797V80.4961Z" fill="#EBEBEB"/>
<path d="M66.9058 81.0449H65.1504V81.0954H66.9058V81.0449Z" fill="#EBEBEB"/>
<path d="M83.9877 78.6211H80.1113V78.6716H83.9877V78.6211Z" fill="#EBEBEB"/>
<path d="M19.322 78.9609H10.5977V79.0114H19.322V78.9609Z" fill="#EBEBEB"/>
<path d="M22.3999 78.9611H21.1212V79.0116H22.3999V78.9611Z" fill="#EBEBEB"/>
<path d="M45.48 79.8145H26.5566V79.865H45.48V79.8145Z" fill="#EBEBEB"/>
<path d="M47.8743 68.2369H8.87015C8.56459 68.2364 8.27174 68.1146 8.05586 67.8984C7.83999 67.6821 7.71875 67.3891 7.71875 67.0835V12.2546C7.72141 11.9508 7.84383 11.6604 8.05941 11.4463C8.275 11.2322 8.56634 11.1118 8.87015 11.1113H47.8743C48.1802 11.1113 48.4736 11.2328 48.6899 11.4492C48.9062 11.6655 49.0278 11.9588 49.0278 12.2647V67.0835C49.0278 67.3894 48.9062 67.6828 48.6899 67.8991C48.4736 68.1154 48.1802 68.2369 47.8743 68.2369ZM8.87015 11.1517C8.57799 11.1523 8.29797 11.2687 8.09157 11.4755C7.88517 11.6823 7.76925 11.9625 7.76925 12.2546V67.0835C7.76925 67.3757 7.88517 67.6559 8.09157 67.8627C8.29797 68.0695 8.57799 68.1859 8.87015 68.1864H47.8743C48.1667 68.1859 48.4469 68.0695 48.6536 67.8628C48.8603 67.6561 48.9767 67.3759 48.9773 67.0835V12.2546C48.9767 11.9623 48.8603 11.6821 48.6536 11.4754C48.4469 11.2686 48.1667 11.1523 47.8743 11.1517H8.87015Z" fill="#EBEBEB"/>
<path d="M91.5678 68.2369H52.5616C52.2559 68.2364 51.9628 68.1147 51.7466 67.8985C51.5304 67.6823 51.4087 67.3893 51.4082 67.0835V12.2546C51.4114 11.9507 51.5343 11.6602 51.7502 11.4462C51.9661 11.2321 52.2576 11.1118 52.5616 11.1113H91.5678C91.8713 11.1124 92.1621 11.233 92.3773 11.447C92.5924 11.661 92.7145 11.9512 92.7172 12.2546V67.0835C92.7172 67.3887 92.5962 67.6815 92.3808 67.8977C92.1654 68.1139 91.873 68.2359 91.5678 68.2369ZM52.5616 11.1517C52.2693 11.1523 51.9891 11.2686 51.7823 11.4754C51.5756 11.6821 51.4592 11.9623 51.4587 12.2546V67.0835C51.4592 67.3759 51.5756 67.6561 51.7823 67.8628C51.9891 68.0695 52.2693 68.1859 52.5616 68.1864H91.5678C91.8602 68.1859 92.1404 68.0695 92.3471 67.8628C92.5538 67.6561 92.6702 67.3759 92.6707 67.0835V12.2546C92.6702 11.9623 92.5538 11.6821 92.3471 11.4754C92.1404 11.2686 91.8602 11.1523 91.5678 11.1517H52.5616Z" fill="#EBEBEB"/>
<path d="M77.9986 55.4696C80.9892 52.479 80.9892 47.6304 77.9986 44.6398C75.008 41.6492 70.1594 41.6492 67.1688 44.6398C64.1782 47.6304 64.1782 52.479 67.1688 55.4696C70.1594 58.4601 75.008 58.4602 77.9986 55.4696Z" fill="#F0F0F0"/>
<path d="M14.2823 36.5648H35.2519C35.2519 36.5648 34.9489 34.9043 31.0685 34.9993C31.8381 32.5753 29.6666 29.9291 24.7681 29.8281C19.8696 29.7271 21.5906 33.6661 21.5906 33.6661C21.5906 33.6661 13.3571 32.2521 15.8478 35.1851C11.7674 35.3407 10.9614 35.8618 14.2823 36.5648Z" fill="#F0F0F0"/>
<path d="M68.7144 46.9481C69.1911 44.5625 65.1147 41.9486 57.6044 41.8476C50.094 41.7466 53.8613 45.6392 53.8613 45.6392C53.8613 45.6392 40.8909 44.2252 45.5389 47.136C39.3537 47.2754 38.2669 47.7905 43.5452 48.4934H75.548C75.548 48.4934 74.6067 46.8653 68.7144 46.9481Z" fill="#FAFAFA"/>
<path d="M64.5534 29.0746H86.2805C86.2805 29.0746 91.1285 26.291 85.3816 25.9315C86.3694 23.5519 83.9434 19.5159 75.4614 19.423C66.9794 19.3301 71.377 24.8992 71.377 24.8992C71.377 24.8992 58.449 21.1723 62.9839 27.099C61.0043 27.099 53.9605 29.0746 64.5534 29.0746Z" fill="#F5F5F5"/>
<path d="M19.0499 57.9H28.8125C28.8125 57.9 30.9921 56.6497 28.4085 56.486C28.8529 55.4175 27.7621 53.6035 23.9504 53.5611C20.1387 53.5187 22.1162 56.0214 22.1162 56.0214C22.1162 56.0214 16.3067 54.3489 18.3429 57.0112C17.4561 57.0133 14.2887 57.9 19.0499 57.9Z" fill="#F5F5F5"/>
<path d="M18.6098 19.7807C18.6098 19.7807 15.8545 18.0152 13.9375 20.5261C15.5111 18.9667 18.5027 20.5382 18.5027 20.5382C18.5027 20.5382 21.9367 18.9828 23.0679 20.5382C21.8498 18.0314 18.6098 19.7807 18.6098 19.7807Z" fill="#F0F0F0"/>
<path d="M33.3804 43.0271C33.3804 43.0271 31.724 41.9646 30.5686 43.4756C31.518 42.5363 33.3178 43.4756 33.3178 43.4756C33.3178 43.4756 35.3782 42.5383 36.067 43.4756C35.3318 41.9808 33.3804 43.0271 33.3804 43.0271Z" fill="#F0F0F0"/>
<path d="M63.5839 18.4119C63.5839 18.4119 62.7557 17.8807 62.1699 18.6362C62.6446 18.1655 63.5455 18.6362 63.5455 18.6362C63.5455 18.6362 64.5757 18.1695 64.9191 18.6362C64.5596 17.8847 63.5839 18.4119 63.5839 18.4119Z" fill="#F5F5F5"/>
<path d="M83.8437 36.5467C83.8437 36.5467 83.0135 36.0154 82.4297 36.7709C82.9024 36.3023 83.8033 36.7709 83.8033 36.7709C83.8033 36.7709 84.8335 36.3023 85.1769 36.7709C84.8173 36.0195 83.8437 36.5467 83.8437 36.5467Z" fill="#F5F5F5"/>
<path d="M50.4998 86.3682C72.1304 86.3682 89.6656 85.3444 89.6656 84.0816C89.6656 82.8187 72.1304 81.7949 50.4998 81.7949C28.8691 81.7949 11.334 82.8187 11.334 84.0816C11.334 85.3444 28.8691 86.3682 50.4998 86.3682Z" fill="#F5F5F5"/>
<path d="M37.2412 72.0657C37.93 76.0531 34.7142 78.0166 31.5852 77.0268C29.4541 76.3501 27.3432 76.8692 25.913 77.552C25.8566 77.5772 25.7933 77.5827 25.7334 77.5675C25.6735 77.5523 25.6205 77.5174 25.5829 77.4683C25.5453 77.4193 25.5253 77.359 25.5262 77.2972C25.5271 77.2354 25.5488 77.1757 25.5878 77.1278C25.8285 76.8393 26.0855 76.5648 26.3574 76.3056C26.4021 76.2635 26.4311 76.2074 26.4396 76.1466C26.4482 76.0858 26.4359 76.024 26.4046 75.9711C26.3734 75.9183 26.3251 75.8776 26.2677 75.8558C26.2103 75.834 26.1472 75.8324 26.0888 75.8511C24.8445 76.2309 23.0103 76.5864 21.2408 76.1703C21.1876 76.158 21.1393 76.1301 21.1021 76.0901C21.065 76.0501 21.0407 75.9998 21.0324 75.9459C21.0242 75.8919 21.0323 75.8367 21.0558 75.7874C21.0792 75.7381 21.1169 75.697 21.164 75.6693C22.9315 74.623 25.6282 71.8738 28.1552 70.9809C28.2171 70.959 28.269 70.9154 28.3014 70.8583C28.3337 70.8011 28.3444 70.7342 28.3313 70.6699C28.3183 70.6055 28.2825 70.548 28.2305 70.5079C28.1785 70.4678 28.1137 70.4479 28.0482 70.4517C27.6495 70.4744 27.2528 70.523 26.8604 70.5971C26.7966 70.613 26.7292 70.6054 26.6705 70.5755C26.6119 70.5456 26.5661 70.4955 26.5415 70.4345C26.5169 70.3735 26.5152 70.3056 26.5367 70.2435C26.5582 70.1813 26.6014 70.129 26.6584 70.0962C30.2015 67.8964 36.3605 66.9732 37.2412 72.0657Z" fill="#407BFF"/>
<path opacity="0.7" d="M37.2412 72.0657C37.93 76.0531 34.7142 78.0166 31.5852 77.0268C29.4541 76.3501 27.3432 76.8692 25.913 77.552C25.8566 77.5772 25.7933 77.5827 25.7334 77.5675C25.6735 77.5523 25.6205 77.5174 25.5829 77.4683C25.5453 77.4193 25.5253 77.359 25.5262 77.2972C25.5271 77.2354 25.5488 77.1757 25.5878 77.1278C25.8285 76.8393 26.0855 76.5648 26.3574 76.3056C26.4021 76.2635 26.4311 76.2074 26.4396 76.1466C26.4482 76.0858 26.4359 76.024 26.4046 75.9711C26.3734 75.9183 26.3251 75.8776 26.2677 75.8558C26.2103 75.834 26.1472 75.8324 26.0888 75.8511C24.8445 76.2309 23.0103 76.5864 21.2408 76.1703C21.1876 76.158 21.1393 76.1301 21.1021 76.0901C21.065 76.0501 21.0407 75.9998 21.0324 75.9459C21.0242 75.8919 21.0323 75.8367 21.0558 75.7874C21.0792 75.7381 21.1169 75.697 21.164 75.6693C22.9315 74.623 25.6282 71.8738 28.1552 70.9809C28.2171 70.959 28.269 70.9154 28.3014 70.8583C28.3337 70.8011 28.3444 70.7342 28.3313 70.6699C28.3183 70.6055 28.2825 70.548 28.2305 70.5079C28.1785 70.4678 28.1137 70.4479 28.0482 70.4517C27.6495 70.4744 27.2528 70.523 26.8604 70.5971C26.7966 70.613 26.7292 70.6054 26.6705 70.5755C26.6119 70.5456 26.5661 70.4955 26.5415 70.4345C26.5169 70.3735 26.5152 70.3056 26.5367 70.2435C26.5582 70.1813 26.6014 70.129 26.6584 70.0962C30.2015 67.8964 36.3605 66.9732 37.2412 72.0657Z" fill="white"/>
<path d="M32.8953 77.8872L31.5419 67.468C31.5351 67.412 31.5405 67.3552 31.558 67.3016C31.5755 67.2479 31.6045 67.1988 31.643 67.1575C31.6815 67.1163 31.7286 67.0841 31.781 67.063C31.8333 67.042 31.8896 67.0327 31.9459 67.0357L38.5109 67.5044C38.5993 67.5106 38.6827 67.5472 38.7471 67.608C38.8116 67.6687 38.853 67.7499 38.8644 67.8377L39.8744 75.6733C39.8836 75.7599 39.863 75.8472 39.816 75.9206C39.769 75.994 39.6985 76.0493 39.6159 76.0773L33.3882 78.2043C33.3349 78.2206 33.2786 78.2251 33.2233 78.2175C33.1681 78.2099 33.1151 78.1903 33.0682 78.1601C33.0213 78.1299 32.9815 78.0898 32.9517 78.0427C32.9218 77.9956 32.9026 77.9425 32.8953 77.8872Z" fill="black"/>
<path d="M31.5865 75.931L30.7785 69.6812C30.7717 69.6277 30.7762 69.5734 30.7917 69.5218C30.8073 69.4702 30.8336 69.4224 30.8688 69.3816C30.9041 69.3408 30.9476 69.3079 30.9964 69.2851C31.0452 69.2622 31.0983 69.2499 31.1522 69.2489L38.6908 69.1075C38.7854 69.1057 38.8774 69.139 38.9489 69.2009C39.0205 69.2628 39.0667 69.3489 39.0787 69.4428L39.6847 74.0464C39.6963 74.1402 39.6731 74.235 39.6195 74.3128C39.5659 74.3906 39.4855 74.446 39.3938 74.4686L32.0693 76.2542C32.0161 76.2685 31.9605 76.2713 31.9062 76.2623C31.852 76.2533 31.8002 76.2329 31.7545 76.2023C31.7088 76.1716 31.6701 76.1316 31.6411 76.0848C31.6122 76.0381 31.5935 75.9856 31.5865 75.931Z" fill="#263238"/>
<path d="M64.4561 74.8125L60.5176 75.4609L60.5511 75.6642L64.4895 75.0158L64.4561 74.8125Z" fill="#407BFF"/>
<path d="M59.494 75.6296L58.3359 75.8203L58.3694 76.0236L59.5274 75.8329L59.494 75.6296Z" fill="#407BFF"/>
<path d="M62.9438 63.298L62.9438 63.2982L62.9575 63.2964C66.7484 62.8053 69.9715 63.7985 72.2539 64.9209C73.3946 65.4819 74.2968 66.0735 74.9125 66.5237C75.2042 66.737 75.4311 66.9182 75.5882 67.049C75.4696 67.2155 75.2964 67.4486 75.0687 67.7293C74.5882 68.3217 73.8666 69.124 72.9067 69.9573C70.9861 71.6248 68.1232 73.4068 64.3333 73.8979L64.3333 73.8976L64.3196 73.8999L40.0291 77.9096L40.0289 77.9096C39.6366 77.9746 39.2352 77.9598 38.8487 77.8663C38.4621 77.7727 38.0984 77.6023 37.7792 77.3651C37.46 77.128 37.1918 76.8289 36.9907 76.4859C36.7895 76.1428 36.6596 75.7627 36.6085 75.3683L36.6085 75.3683L35.7762 68.9447L35.7762 68.9446C35.725 68.5502 35.7537 68.1496 35.8607 67.7666C35.9677 67.3836 36.1507 67.0261 36.3988 66.7153C36.6469 66.4046 36.9551 66.147 37.3049 65.958C37.6548 65.7689 38.0391 65.6522 38.435 65.6149L38.4351 65.6149L62.9438 63.298Z" stroke="black" stroke-width="0.8"/>
<path opacity="0.3" d="M76.1196 66.9813C74.9308 68.7016 73.4435 70.1951 71.7281 71.391C71.5225 71.5348 71.2831 71.6232 71.0333 71.6475C70.7835 71.6718 70.5316 71.6312 70.302 71.5296C70.0725 71.428 69.8731 71.2689 69.723 71.0677C69.573 70.8665 69.4774 70.6299 69.4455 70.381L68.7991 65.3815C68.767 65.1326 68.7996 64.8796 68.894 64.6471C68.9884 64.4145 69.1412 64.2103 69.3377 64.0542C69.5343 63.8981 69.7678 63.7955 70.0157 63.7562C70.2635 63.717 70.5173 63.7424 70.7525 63.8301C72.716 64.5502 74.534 65.6176 76.1196 66.9813Z" fill="white"/>
<path d="M63.1321 69.3931C63.2351 67.0905 61.4519 65.1405 59.1494 65.0376C56.8468 64.9346 54.8968 66.7177 54.7938 69.0203C54.6909 71.3229 56.474 73.2729 58.7766 73.3759C61.0791 73.4788 63.0292 71.6957 63.1321 69.3931Z" fill="white"/>
<path opacity="0.3" d="M61.7725 69.4299C61.7194 70.0736 61.4476 70.6798 61.0022 71.1477C60.5568 71.6155 59.9646 71.9168 59.3242 72.0013C59.2838 72.0013 59.2414 72.0114 59.199 72.0134C59.0203 72.0306 58.8404 72.0306 58.6617 72.0134C58.599 72.0134 58.5344 71.9993 58.4738 71.9892L58.3385 71.9629C57.7759 71.8338 57.2663 71.5357 56.8781 71.1085C56.49 70.6813 56.2418 70.1456 56.167 69.5733C56.1506 69.4393 56.1431 69.3043 56.1447 69.1693C56.1805 68.4732 56.4721 67.8148 56.9635 67.3205C57.4549 66.8262 58.1116 66.5308 58.8075 66.4909C59.5034 66.4511 60.1894 66.6697 60.734 67.1047C61.2787 67.5398 61.6434 68.1606 61.7583 68.8481C61.7837 69.041 61.7885 69.236 61.7725 69.4299Z" fill="#407BFF"/>
<path opacity="0.3" d="M59.1847 71.7138L59.1847 71.7136L59.1719 71.7147C59.0112 71.7293 58.8495 71.7293 58.6887 71.7147L58.6752 71.7135H58.6617C58.6395 71.7135 58.6195 71.71 58.5774 71.7027C58.5634 71.7002 58.5469 71.6973 58.5271 71.694L58.4008 71.6695C57.8998 71.5535 57.4461 71.2874 57.1002 70.9068C56.7534 70.5252 56.5317 70.0468 56.4646 69.5357C56.4505 69.4199 56.4438 69.3034 56.4446 69.1868C56.5048 68.64 56.7512 68.1304 57.1428 67.7437C57.5377 67.3537 58.0556 67.1129 58.6082 67.0623L58.6082 67.0624L58.6163 67.0614C60.0162 66.8949 61.2698 67.8233 61.4511 69.0914C61.4656 69.1992 61.4728 69.3078 61.4725 69.4166C61.4229 69.9879 61.1805 70.5254 60.7849 70.9409C60.3903 71.3554 59.8668 71.6236 59.3001 71.7019C59.2682 71.7033 59.2404 71.707 59.224 71.7092L59.2229 71.7093C59.1967 71.7128 59.1903 71.7136 59.1847 71.7138Z" stroke="black" stroke-width="0.6"/>
<path d="M54.2675 62.6821L53.2066 62.7874L53.3719 60.105L54.4328 59.9998L54.2675 62.6821Z" stroke="black" stroke-width="0.2"/>
<path d="M47.0017 63.4336L45.962 63.5367L46.2084 60.8044L47.248 60.7013L47.0017 63.4336Z" stroke="black" stroke-width="0.2"/>
<path d="M47.1649 63.2451L45.767 63.3845C45.7428 63.3871 45.7201 63.398 45.7028 63.4152C45.6856 63.4325 45.6747 63.4552 45.6721 63.4794L45.565 64.6066C45.5629 64.6337 45.5667 64.6609 45.5761 64.6864C45.5855 64.7118 45.6003 64.735 45.6195 64.7542C45.6387 64.7734 45.6618 64.7882 45.6873 64.7976C45.7128 64.807 45.74 64.8107 45.767 64.8086C46.2539 64.752 46.4861 64.6995 47.1002 64.6389C47.478 64.6005 47.985 64.5662 48.5142 64.5137C49.0435 64.4612 49.0414 63.94 48.8213 63.9077C47.8375 63.7946 47.7163 63.536 47.3749 63.2916C47.3127 63.2514 47.2382 63.2349 47.1649 63.2451Z" fill="#263238"/>
<path d="M54.4001 62.5144L53.0426 62.6517C53.0181 62.6536 52.995 62.6642 52.9776 62.6816C52.9601 62.699 52.9495 62.7221 52.9477 62.7467L52.8406 63.8738C52.8381 63.901 52.8417 63.9284 52.8509 63.954C52.8602 63.9796 52.875 64.0029 52.8943 64.0222C52.9136 64.0415 52.9368 64.0563 52.9625 64.0655C52.9881 64.0748 53.0155 64.0783 53.0426 64.0758C53.5315 64.0193 54.2344 63.9183 54.8505 63.8577C55.5717 63.785 55.5757 63.8233 56.4201 63.7385C56.9291 63.686 57.0059 63.1567 56.7877 63.1325C55.7878 63.0174 55.6141 63.0133 54.7071 62.581C54.6124 62.5322 54.5065 62.5092 54.4001 62.5144Z" fill="#263238"/>
<path d="M52.8277 24.1673C53.2931 24.0836 53.7377 23.9101 54.1367 23.6562L54.4679 23.436L54.5124 23.0805C54.5428 22.8288 54.5109 22.5736 54.4195 22.3371L52.8277 24.1673ZM52.8277 24.1673C52.4283 24.2491 52.023 24.2991 51.6157 24.3167L52.8277 24.1673ZM54.4131 23.0685C54.4131 23.0684 54.4131 23.0684 54.4131 23.0683C54.4415 22.833 54.4116 22.5943 54.3262 22.3732L54.3258 22.3722L54.3258 22.3722C54.2654 22.2108 54.1863 22.0571 54.0901 21.9143L54.173 21.8584L54.0902 21.9144C53.93 21.6774 53.7481 21.4558 53.5469 21.2525C53.1798 20.8901 52.7861 20.5559 52.3689 20.2526L52.3681 20.252L52.3681 20.252C51.962 19.9504 51.5525 19.6694 51.1274 19.4108C50.7255 19.1662 50.3289 18.9316 49.9115 18.7146L49.5237 19.3189C49.8659 19.6022 50.2181 19.8947 50.558 20.189C50.9197 20.5022 51.2787 20.8185 51.6198 21.1454M54.4131 23.0685L52.4863 22.2058M54.4131 23.0685L54.3744 23.3781L54.0821 23.5724C53.6944 23.8189 53.2623 23.9876 52.81 24.0688L52.81 24.0688L52.8076 24.0693C52.4134 24.1501 52.0134 24.1994 51.6114 24.2168L51.6114 24.2168L51.61 24.2169C51.2225 24.2389 50.8403 24.2349 50.461 24.2169C50.1125 24.2003 49.7756 24.1753 49.4139 24.125L49.6429 22.518L54.4131 23.0685ZM51.6198 21.1454C51.9546 21.4574 52.2696 21.7901 52.5629 22.1415M51.6198 21.1454C51.6199 21.1455 51.6201 21.1457 51.6203 21.1459L51.5511 21.2181L51.6192 21.1449C51.6194 21.1451 51.6196 21.1452 51.6198 21.1454ZM52.5629 22.1415C52.563 22.1416 52.563 22.1417 52.5631 22.1418L52.4863 22.2058M52.5629 22.1415C52.5628 22.1414 52.5627 22.1413 52.5627 22.1412L52.4863 22.2058M52.5629 22.1415C52.6154 22.2036 52.6653 22.2677 52.7126 22.3336M52.4863 22.2058C52.5263 22.2532 52.5649 22.3017 52.6018 22.3514C52.6389 22.3463 52.6758 22.3404 52.7126 22.3336M52.7126 22.3336C52.7339 22.3632 52.7546 22.3932 52.7747 22.4235C52.7944 22.4532 52.8136 22.4832 52.8323 22.5136C52.7974 22.5212 52.7624 22.528 52.7273 22.5342C52.6914 22.5405 52.6553 22.546 52.6191 22.5508C52.5986 22.5194 52.5774 22.4884 52.5556 22.4579C52.5929 22.4537 52.6301 22.4487 52.6671 22.4428L52.8701 22.7999C52.8783 22.7976 52.8873 22.7961 52.8973 22.796C52.9058 22.796 52.9136 22.7969 52.9208 22.7986C52.9494 22.8052 52.9665 22.8228 52.9708 22.8274C52.9743 22.8311 52.9772 22.8347 52.9794 22.8379L52.9674 22.8421H52.8923L52.9185 22.8592L52.8932 22.8681L52.8923 22.8684L52.8932 22.8682L52.9206 22.8606L52.9761 22.8968L52.9956 22.8669M52.7126 22.3336C52.8883 22.3014 53.0602 22.25 53.2251 22.1804L53.5266 22.0531L53.3478 22.3271L52.9956 22.8669M52.9956 22.8669C52.9948 22.8627 52.9937 22.8584 52.9926 22.8541C52.9924 22.8507 52.9923 22.8467 52.9923 22.8421H52.989C52.9886 22.841 52.9883 22.8399 52.9879 22.8388C52.979 22.8068 52.9683 22.7754 52.9559 22.7447C52.9419 22.7097 52.9256 22.6755 52.9073 22.6425C52.9067 22.6414 52.906 22.6402 52.9054 22.6391L52.9015 22.6451M52.9956 22.8669C52.9963 22.8702 52.9969 22.8734 52.9973 22.8766L52.9974 22.8769C52.9979 22.8804 53 22.8953 52.9971 22.9124C52.9963 22.9171 52.9938 22.9304 52.9854 22.9452C52.9773 22.9596 52.9507 22.9955 52.8992 22.996C52.8561 22.9964 52.8307 22.9704 52.8251 22.9644C52.8165 22.9553 52.8116 22.9466 52.8096 22.9428C52.8024 22.9295 52.7995 22.9166 52.7986 22.9128L52.7986 22.9126C52.7971 22.9061 52.796 22.8993 52.7951 22.8926C52.7951 22.8923 52.795 22.8919 52.795 22.8916C52.7933 22.8781 52.7923 22.8617 52.7923 22.8421V22.8124L52.8086 22.7875L52.8427 22.7353L52.9009 22.646M52.9015 22.6451L52.8196 22.6906L52.9009 22.646M52.9015 22.6451L52.9009 22.646M52.9015 22.6451L52.9009 22.646M52.8935 22.8717C52.8949 22.889 52.8974 22.8965 52.8983 22.896C52.8992 22.8955 52.8985 22.8868 52.8935 22.8717ZM53.0182 22.4662C53.0693 22.4512 53.1199 22.4346 53.17 22.4166C53.2147 22.4005 53.2591 22.3832 53.3029 22.3646L53.264 22.2725L53.1803 22.2179L53.1048 22.3336L53.0182 22.4662ZM52.5437 22.5598C52.5439 22.5597 52.5441 22.5597 52.5443 22.5597L52.5328 22.4604L52.5431 22.5598C52.5433 22.5598 52.5435 22.5598 52.5437 22.5598Z" stroke="black" stroke-width="0.2"/>
<path d="M49.1151 19.3711L49.5828 18.251L50.2027 19.0276L50.2808 19.7374C49.9874 19.8684 49.7028 19.7858 49.475 19.6536C49.354 19.5834 49.2531 19.5012 49.1823 19.4361C49.1551 19.4112 49.1325 19.3889 49.1151 19.3711Z" stroke="black" stroke-width="0.2"/>
<path d="M48.9491 19.2418L48.5504 19.0264L48.6581 17.723L49.4258 18.1013L48.9491 19.2418Z" stroke="black" stroke-width="0.2"/>
<path d="M48.1143 16.4849L49.2455 16.0162C49.2638 16.0067 49.284 16.0012 49.3046 16.0002C49.3252 15.9991 49.3458 16.0026 49.365 16.0103C49.3842 16.0179 49.4015 16.0297 49.4157 16.0446C49.43 16.0596 49.4408 16.0775 49.4475 16.097L50.1767 18.4221C50.1855 18.4629 50.1795 18.5056 50.1599 18.5426C50.1404 18.5795 50.1084 18.6084 50.0696 18.6241L48.9384 19.0927C48.9201 19.1022 48.8999 19.1077 48.8793 19.1088C48.8587 19.1098 48.8381 19.1064 48.8189 19.0987C48.7997 19.091 48.7824 19.0793 48.7682 19.0643C48.7539 19.0493 48.7431 19.0314 48.7364 19.0119L48.0072 16.701C47.9946 16.6581 47.9986 16.6121 48.0185 16.572C48.0383 16.532 48.0725 16.5008 48.1143 16.4849Z" fill="#263238"/>
<path d="M48.3247 24.6281C49.1468 25.6219 52.5162 24.6907 52.5162 24.6907L52.2314 22.4222C52.2314 22.4222 51.381 22.1677 49.6943 22.1152C47.9651 22.0526 47.4238 23.5393 48.3247 24.6281Z" fill="#407BFF"/>
<path opacity="0.2" d="M54.5409 59.8906L54.448 61.3773L53.1875 61.5026L53.2784 60.0159L54.5409 59.8906Z" fill="black"/>
<path opacity="0.2" d="M46.1139 60.7151L47.3582 60.5898L47.2208 62.1028L45.9785 62.2281L46.1139 60.7151Z" fill="black"/>
<path d="M50.9152 22.7394C51.404 24.008 52.6039 27.7894 52.1858 33.4979L45.5359 34.1666C45.3622 33.1566 45.3339 27.6036 43.7422 22.903C44.4612 22.6886 45.1933 22.5205 45.9339 22.4001C46.8703 22.2506 47.8145 22.1555 48.7619 22.1152C49.2459 22.1146 49.7295 22.1422 50.2102 22.1981C50.366 22.2152 50.5141 22.2747 50.6384 22.3701C50.7627 22.4656 50.8585 22.5933 50.9152 22.7394Z" fill="#407BFF"/>
<path opacity="0.2" d="M48.3595 23.7756L48.0989 23.8099C48.1252 26.0319 48.1575 26.6379 46.1516 28.7145C45.7894 29.083 45.4609 29.4832 45.1699 29.9103C45.1962 30.1729 45.2224 30.4274 45.2467 30.6739C45.7658 30.1992 46.4587 29.577 46.9758 29.1447C49.3089 27.1974 48.4262 23.7473 48.3595 23.7756Z" fill="black"/>
<path opacity="0.2" d="M45.3348 23.9423C45.5368 24.72 45.5368 26.635 45.052 28.8933C44.8283 27.0222 44.441 25.1742 43.8945 23.3707C44.3248 23.2717 45.1368 23.2131 45.3348 23.9423Z" fill="black"/>
<path d="M46.1718 20.675C46.1678 20.6644 46.1638 20.6537 46.1598 20.643L47.8881 21.0751C47.883 21.1081 47.8778 21.1409 47.8727 21.1733C47.8591 21.2589 47.8461 21.3411 47.8385 21.4131C47.825 21.5407 47.8241 21.6672 47.8692 21.7809C47.9163 21.8997 48.0079 21.9908 48.1507 22.0586C48.2843 22.1221 48.4664 22.1671 48.7089 22.1981C48.7114 22.2005 48.714 22.2031 48.7168 22.2059C48.7355 22.2244 48.7607 22.2511 48.7866 22.2834C48.8405 22.3506 48.8877 22.4302 48.898 22.5043C48.9028 22.5392 48.8992 22.5713 48.8855 22.6016C48.8716 22.632 48.8444 22.6673 48.7915 22.7033C48.6823 22.7776 48.4752 22.8476 48.105 22.8813C47.2991 22.9544 46.7908 22.8003 46.4875 22.6353C46.3354 22.5526 46.2333 22.4663 46.17 22.4022C46.154 22.386 46.1405 22.3713 46.1293 22.3583C46.3758 22.0664 46.445 21.7883 46.4113 21.4876C46.3833 21.2377 46.283 20.9708 46.1718 20.675Z" stroke="black" stroke-width="0.2"/>
<path d="M48.1775 23.0271L48.5815 23.3947C48.5955 23.4075 48.6061 23.4237 48.6121 23.4417C48.6181 23.4598 48.6194 23.479 48.6158 23.4977L48.533 23.8674C48.5289 23.8877 48.5185 23.9063 48.5033 23.9205C48.4881 23.9346 48.4688 23.9436 48.4482 23.9462L48.0543 24.0047C48.036 24.0075 48.0174 24.0057 48.0001 23.9993C47.9828 23.9929 47.9674 23.9823 47.9553 23.9684L47.6846 23.6452C47.67 23.6264 47.6621 23.6033 47.6621 23.5795C47.6621 23.5558 47.67 23.5327 47.6846 23.5139L48.0219 23.0412C48.0309 23.0297 48.0422 23.0201 48.0551 23.0131C48.0679 23.0061 48.0821 23.0018 48.0966 23.0004C48.1112 22.9991 48.1259 23.0008 48.1398 23.0054C48.1537 23.0099 48.1665 23.0173 48.1775 23.0271Z" fill="#263238"/>
<path d="M48.0528 23.0164C47.8833 23.4575 47.66 23.8761 47.3882 24.2627C47.3882 24.2627 45.746 23.5153 45.647 22.4447C45.6452 22.4252 45.6483 22.4055 45.6561 22.3875C45.6638 22.3695 45.676 22.3538 45.6914 22.3417C45.754 22.2932 45.8672 22.2043 45.9742 22.1155C45.9867 22.1041 46.0015 22.0957 46.0176 22.0908C46.0337 22.0859 46.0507 22.0847 46.0673 22.0872C46.084 22.0897 46.0999 22.0959 46.1138 22.1054C46.1277 22.1148 46.1394 22.1272 46.1479 22.1417C46.2792 22.374 46.7034 22.8265 48.0528 23.0164Z" fill="white"/>
<path d="M48.1113 23.0037C48.4546 23.2628 48.7412 23.5893 48.9537 23.9632C49.1105 23.6896 49.2049 23.3848 49.2301 23.0705C49.2552 22.7561 49.2105 22.4402 49.0991 22.1452C49.092 22.1278 49.081 22.1122 49.067 22.0996C49.053 22.087 49.0364 22.0777 49.0183 22.0724C48.9476 22.0543 48.8163 22.0219 48.681 21.9957C48.6631 21.9927 48.6447 21.994 48.6274 21.9994C48.61 22.0047 48.5942 22.014 48.5811 22.0266C48.5679 22.0391 48.5579 22.0545 48.5518 22.0716C48.5456 22.0887 48.5435 22.1069 48.5456 22.125C48.5795 22.2988 48.5554 22.4789 48.4769 22.6377C48.3985 22.7965 48.27 22.925 48.1113 23.0037Z" fill="white"/>
<path d="M48.3472 23.76C48.4118 23.7317 49.0663 26.8223 46.808 28.6989C45.8868 29.4644 44.4062 30.832 44.4082 30.83C44.5456 30.2866 44.9778 29.4483 46.0626 28.3494C48.024 26.3637 48.022 25.8244 48.1028 23.8044L48.3472 23.76Z" fill="#263238"/>
<path d="M45.1903 18.6537L45.1903 18.6536L45.1891 18.651C45.0786 18.4047 45.0343 18.1338 45.0604 17.8651C45.0866 17.5964 45.1824 17.3391 45.3384 17.1188C45.4944 16.8984 45.7052 16.7225 45.9499 16.6085C46.1946 16.4945 46.4648 16.4463 46.7339 16.4686L46.7347 16.4687C47.3424 16.5138 47.8356 16.933 48.1957 17.4995C48.5551 18.0648 48.7701 18.7597 48.8263 19.3161L48.8263 19.3162C48.9487 20.5177 47.7656 21.4537 46.6448 20.8717L46.6445 20.8715C45.9528 20.5152 45.7172 19.9395 45.3145 18.956C45.2749 18.8592 45.2337 18.7585 45.1903 18.6537Z" stroke="black" stroke-width="0.2"/>
<path d="M45.637 19.8099C45.7896 19.7831 45.9312 19.7131 46.0451 19.6082C46.159 19.5033 46.2403 19.3678 46.2794 19.218C45.9348 19.0796 45.6359 18.8472 45.4168 18.5474C45.4168 18.5474 45.9299 17.8101 45.8754 17.3838C46.5339 17.3838 48.0772 16.7475 47.7277 16.0446C47.3783 15.3416 45.9925 14.9922 45.1845 15.4891C44.6752 15.8362 44.0717 16.0188 43.4554 16.0123C43.6391 16.1212 43.8389 16.2002 44.0473 16.2466C43.8197 16.469 43.6415 16.7368 43.5242 17.0327C43.407 17.3285 43.3532 17.6456 43.3665 17.9636C43.4049 18.8665 42.9141 19.2301 42.9141 19.2301C42.9141 19.2301 43.5201 19.321 43.7059 19.0544C43.6231 19.3493 44.122 20.3835 45.2189 20.527C46.447 20.6865 45.637 19.8099 45.637 19.8099Z" fill="#263238"/>
<path d="M46.126 20.4104C46.0353 20.4636 45.9137 20.4817 45.7523 20.4583C45.5909 20.435 45.3986 20.3714 45.1754 20.2722C44.9667 20.1767 44.8673 20.031 44.8452 19.8926C44.8229 19.753 44.8761 19.6049 45.0048 19.4965C45.1229 19.3971 45.2927 19.3828 45.482 19.4322C45.6696 19.4811 45.8552 19.5881 45.9789 19.6968C46.1104 19.8152 46.1906 19.978 46.212 20.1232C46.2342 20.2736 46.1916 20.372 46.126 20.4104Z" stroke="black" stroke-width="0.2"/>
<path d="M52.1852 33.4961C52.1852 33.4961 55.0455 42.9012 55.2475 46.4584C55.4697 50.351 54.9082 60.6954 54.9082 60.6954L52.6599 60.9237C52.6599 60.9237 52.2398 51.0741 51.6701 47.2644C51.052 43.1295 47.9473 33.9324 47.9473 33.9324L52.1852 33.4961Z" fill="#263238"/>
<path opacity="0.2" d="M50.2148 37.9316L49.8613 39.9961C50.3562 41.6666 50.8511 43.4462 51.2127 44.9915C51.3208 42.5967 50.9824 40.2027 50.2148 37.9316Z" fill="black"/>
<path d="M52.4746 60.3635L52.5473 61.1938L55.0622 60.9413L55.135 60.002L52.4746 60.3635Z" fill="#407BFF"/>
<path d="M49.8251 33.7344C49.8251 33.7344 50.7563 42.1436 50.4311 45.7736C50.0695 49.7469 47.7687 61.6326 47.7687 61.6326L45.4922 61.8609C45.4922 61.8609 46.7446 50.3994 46.7446 46.5089C46.7446 42.277 45.5326 34.1747 45.5326 34.1747L49.8251 33.7344Z" fill="#263238"/>
<path d="M45.4151 61.1329L45.3828 61.9146L47.8856 61.6621L48.1401 60.7773L45.4151 61.1329Z" fill="#407BFF"/>
<path d="M46.9805 18.4457C47.0128 18.5427 47.0916 18.6033 47.1522 18.5831C47.2128 18.5629 47.2391 18.4679 47.2047 18.3811C47.1704 18.2942 47.0956 18.2235 47.033 18.2437C46.9704 18.2639 46.9462 18.3488 46.9805 18.4457Z" fill="#263238"/>
<path d="M48.0558 18.0961C48.0881 18.1931 48.1669 18.2537 48.2275 18.2335C48.2881 18.2133 48.3143 18.1183 48.28 18.0315C48.2457 17.9446 48.1709 17.8739 48.1083 17.8941C48.0457 17.9143 48.0235 18.0012 48.0558 18.0961Z" fill="#263238"/>
<path d="M48.0505 19.1524L47.7572 18.3027C47.9623 18.5402 48.1963 18.7512 48.4537 18.9309C48.4067 18.9943 48.3466 19.0468 48.2774 19.085C48.2075 19.1236 48.1301 19.1466 48.0505 19.1524Z" stroke="black" stroke-width="0.02"/>
<path d="M47.8054 19.5579C47.8125 19.5548 47.8181 19.5491 47.8211 19.542C47.8241 19.5348 47.8242 19.5268 47.8215 19.5195C47.8184 19.5124 47.8128 19.5066 47.8057 19.5033C47.7987 19.4999 47.7907 19.4993 47.7831 19.5014C47.6657 19.5456 47.5396 19.5619 47.4148 19.5489C47.2899 19.5359 47.1699 19.4941 47.064 19.4266C47.0584 19.4211 47.0507 19.418 47.0428 19.418C47.0349 19.418 47.0273 19.4211 47.0216 19.4266C47.0165 19.4325 47.0137 19.44 47.0137 19.4478C47.0137 19.4556 47.0165 19.4632 47.0216 19.469C47.1353 19.5462 47.266 19.5946 47.4025 19.6101C47.5391 19.6256 47.6773 19.6077 47.8054 19.5579Z" fill="#263238"/>
<path d="M46.537 18.2024C46.5454 18.1995 46.553 18.1947 46.5593 18.1884C46.5656 18.1821 46.5704 18.1745 46.5733 18.166C46.5934 18.0954 46.6304 18.0307 46.6811 17.9776C46.7317 17.9244 46.7946 17.8844 46.8642 17.861C46.8718 17.8592 46.8789 17.8558 46.8851 17.8511C46.8914 17.8463 46.8965 17.8403 46.9003 17.8335C46.9041 17.8267 46.9065 17.8191 46.9072 17.8113C46.9079 17.8036 46.907 17.7957 46.9046 17.7883C46.9003 17.7732 46.8904 17.7603 46.8768 17.7524C46.8632 17.7445 46.8471 17.7421 46.8319 17.7459C46.7436 17.774 46.6636 17.8234 46.5989 17.8896C46.5341 17.9558 46.4865 18.0368 46.4602 18.1256C46.4566 18.1363 46.4561 18.1478 46.4586 18.1588C46.4612 18.1698 46.4668 18.1798 46.4748 18.1878C46.4828 18.1958 46.4928 18.2014 46.5038 18.204C46.5148 18.2065 46.5263 18.206 46.537 18.2024Z" fill="#263238"/>
<path d="M48.4049 17.5548C48.4136 17.5513 48.4212 17.5458 48.4272 17.5387C48.4377 17.5274 48.4435 17.5126 48.4435 17.4973C48.4435 17.4819 48.4377 17.4671 48.4272 17.4558C48.3584 17.3911 48.2755 17.3433 48.185 17.3163C48.0945 17.2893 47.999 17.2838 47.906 17.3003C47.8986 17.3024 47.8916 17.3059 47.8855 17.3107C47.8795 17.3155 47.8744 17.3215 47.8707 17.3282C47.8669 17.335 47.8645 17.3424 47.8637 17.3501C47.8628 17.3578 47.8634 17.3656 47.8656 17.373C47.8675 17.3807 47.8709 17.3878 47.8756 17.3941C47.8803 17.4004 47.8862 17.4057 47.893 17.4096C47.8998 17.4136 47.9073 17.4162 47.9151 17.4172C47.9228 17.4181 47.9308 17.4176 47.9383 17.4154C48.0109 17.4042 48.0851 17.4099 48.1552 17.432C48.2252 17.454 48.2893 17.4919 48.3423 17.5427C48.3506 17.5503 48.3608 17.5555 48.3719 17.5577C48.383 17.5598 48.3944 17.5588 48.4049 17.5548Z" fill="#263238"/>
<path d="M42.9782 25.1548C42.9885 25.128 42.9977 25.1042 43.0057 25.0837L44.518 25.6954C44.5096 25.7207 44.4996 25.751 44.4881 25.786C44.4505 25.9007 44.3972 26.0651 44.3341 26.2641C44.2079 26.6621 44.0427 27.1989 43.8869 27.7536C43.7312 28.3077 43.5843 28.8818 43.4952 29.3536C43.4506 29.5893 43.42 29.8021 43.4104 29.9755C43.4055 30.0621 43.4058 30.1411 43.4129 30.2094C43.4197 30.276 43.4338 30.3397 43.4613 30.3913C43.6684 30.7827 44.0485 31.285 44.4528 31.7857C44.6541 32.035 44.8628 32.2855 45.0612 32.5237L45.0661 32.5296C45.2542 32.7554 45.4326 32.9696 45.5873 33.1619C45.5323 33.4078 45.4218 33.6377 45.2645 33.8342C44.6074 33.5059 43.7743 32.8668 43.082 32.208C42.7243 31.8676 42.407 31.5246 42.1731 31.2201C42.0561 31.0678 41.961 30.9265 41.8923 30.8012C41.8229 30.6747 41.7836 30.5702 41.7721 30.4902C41.7132 30.0625 41.7602 29.5063 41.8679 28.9062C41.9752 28.3077 42.1413 27.6732 42.3155 27.0922C42.4897 26.5115 42.6715 25.9858 42.8099 25.6052C42.879 25.415 42.9372 25.2611 42.9782 25.1548Z" stroke="black" stroke-width="0.2"/>
<path d="M43.7417 22.9026C42.358 23.3511 42.1641 26.4275 42.1641 26.4275L44.3053 27.5264C44.9209 26.7936 45.3628 25.9311 45.5981 25.0034C45.9718 23.442 44.9577 22.5087 43.7417 22.9026Z" fill="#407BFF"/>
<path d="M47.6037 63.4283C47.6883 63.4272 47.7698 63.3965 47.834 63.3415C47.8541 63.3203 47.8685 63.2943 47.8759 63.2661C47.8833 63.2379 47.8835 63.2082 47.8764 63.1799C47.874 63.1628 47.8672 63.1468 47.8565 63.1333C47.8459 63.1198 47.8318 63.1094 47.8158 63.1031C47.6704 63.0466 47.2987 63.3314 47.2563 63.3637C47.2534 63.3686 47.252 63.3742 47.252 63.3799C47.252 63.3855 47.2534 63.3911 47.2563 63.396C47.2576 63.4015 47.2607 63.4065 47.265 63.4102C47.2694 63.4138 47.2748 63.4159 47.2805 63.4162C47.3874 63.4332 47.4959 63.4373 47.6037 63.4283ZM47.7552 63.1536C47.7685 63.1504 47.7823 63.1504 47.7956 63.1536C47.8019 63.1565 47.8073 63.161 47.8112 63.1667C47.8151 63.1724 47.8174 63.179 47.8178 63.1859C47.8229 63.2052 47.8232 63.2254 47.8186 63.2448C47.814 63.2641 47.8047 63.2821 47.7916 63.297C47.6591 63.3738 47.5025 63.3976 47.3532 63.3637C47.4716 63.2653 47.6082 63.1912 47.7552 63.1455V63.1536Z" fill="#407BFF"/>
<path d="M47.2791 63.4103C47.2791 63.4103 47.2791 63.4103 47.2932 63.4103C47.4144 63.3275 47.6285 63.0306 47.5841 62.8952C47.5769 62.8741 47.5628 62.8561 47.5441 62.844C47.5255 62.8319 47.5032 62.8265 47.4811 62.8286C47.4584 62.8278 47.4359 62.8319 47.4149 62.8406C47.394 62.8493 47.3752 62.8624 47.3599 62.8791C47.2306 63.0104 47.2467 63.3719 47.2467 63.3861C47.2463 63.3916 47.2477 63.3971 47.2506 63.4018C47.2535 63.4066 47.2578 63.4102 47.2629 63.4123L47.2791 63.4103ZM47.4669 62.8811H47.4811C47.5194 62.8811 47.5255 62.8993 47.5275 62.9053C47.5538 62.9861 47.4205 63.2083 47.3053 63.3093C47.2959 63.1677 47.3305 63.0266 47.4043 62.9053C47.4228 62.8893 47.4465 62.8807 47.471 62.8811H47.4669Z" fill="#407BFF"/>
<path d="M54.9442 62.6792C55.0508 62.6789 55.1538 62.641 55.2351 62.5721C55.2536 62.5529 55.2669 62.5293 55.2736 62.5034C55.2803 62.4776 55.2803 62.4505 55.2735 62.4247C55.2704 62.4084 55.2635 62.3932 55.2533 62.3802C55.2431 62.3671 55.2299 62.3568 55.2149 62.3499C55.0533 62.2813 54.5847 62.5843 54.5321 62.6186C54.5274 62.6224 54.5238 62.6274 54.5217 62.6331C54.5196 62.6388 54.519 62.6449 54.52 62.6509C54.5216 62.6568 54.525 62.6622 54.5297 62.6661C54.5344 62.6701 54.5402 62.6725 54.5463 62.6731C54.6784 62.6875 54.8117 62.6896 54.9442 62.6792ZM55.1361 62.3984C55.1547 62.394 55.1741 62.394 55.1927 62.3984C55.1988 62.401 55.2041 62.4051 55.208 62.4105C55.2119 62.4158 55.2143 62.4221 55.2149 62.4287C55.2194 62.4456 55.2196 62.4634 55.2153 62.4803C55.2111 62.4973 55.2026 62.5129 55.1907 62.5257C55.124 62.6024 54.92 62.6327 54.6392 62.6166C54.7944 62.5153 54.9659 62.4415 55.1462 62.3984H55.1361Z" fill="#407BFF"/>
<path d="M54.5534 62.6719H54.5655C54.7069 62.5911 54.9695 62.2921 54.9311 62.1548C54.921 62.1224 54.8928 62.0841 54.8099 62.0841C54.7807 62.0833 54.7517 62.0888 54.7249 62.1003C54.698 62.1118 54.674 62.129 54.6544 62.1507C54.557 62.2974 54.5102 62.4719 54.5211 62.6476C54.5211 62.6526 54.5225 62.6574 54.5249 62.6616C54.5274 62.6659 54.531 62.6694 54.5352 62.6719C54.538 62.6733 54.5412 62.674 54.5443 62.674C54.5475 62.674 54.5506 62.6733 54.5534 62.6719ZM54.7938 62.1386H54.812C54.8665 62.1386 54.8726 62.1588 54.8746 62.1649C54.8988 62.2477 54.7231 62.48 54.5797 62.587C54.5756 62.4434 54.6166 62.3022 54.6968 62.183C54.7231 62.1575 54.7573 62.1419 54.7938 62.1386Z" fill="#407BFF"/>
<path d="M44.819 33.4104L45.4152 33.0619L46.4086 33.0956L45.8008 34.135C45.7763 34.1316 45.7452 34.1267 45.7093 34.1197C45.6149 34.1014 45.489 34.069 45.361 34.0131C45.1199 33.9079 44.8852 33.727 44.819 33.4104Z" stroke="black" stroke-width="0.2"/>
<path d="M46.6085 33.1484L47.0009 33.4399L46.3794 34.38L45.9862 34.198L46.6085 33.1484Z" stroke="black" stroke-width="0.2"/>
</svg>
