<svg width="24" height="24" viewBox="0 0 24 24" fill="none" xmlns="http://www.w3.org/2000/svg">
<g id="Frame">
<g id="Group">
<g id="Group_2">
<path id="Vector" d="M12.6103 18.2811C12.3332 18.2867 12.2389 18.2896 11.9532 18.2896C7.90799 18.2896 4.62866 17.7115 4.62866 16.9984C4.62866 16.3896 7.01882 15.8792 10.2351 15.7429M13.5728 15.7389C16.8388 15.8688 19.2778 16.3834 19.2778 16.9984C19.2778 17.2591 18.8396 17.5017 18.086 17.7046L17.7576 17.8036M11.9528 16.2162C11.9528 13.9081 13.7006 11.5188 15.1592 10.1359C16.0549 9.28667 16.6134 8.08559 16.6134 6.75392C16.6134 4.1689 14.5087 2.07547 11.9195 2.09379C9.4079 2.11156 7.34629 4.1434 7.29402 6.65454C7.26547 8.02625 7.82976 9.26647 8.74818 10.1368C10.2059 11.5182 11.9528 13.8094 11.9528 16.2124V16.2162Z" stroke="#26234F" stroke-width="0.703125" stroke-miterlimit="10" stroke-linecap="round" stroke-linejoin="round"/>
<path id="Vector_2" d="M11.9532 8.04281C12.6572 8.04281 13.2279 7.4721 13.2279 6.76809C13.2279 6.06408 12.6572 5.49337 11.9532 5.49337C11.2492 5.49337 10.6785 6.06408 10.6785 6.76809C10.6785 7.4721 11.2492 8.04281 11.9532 8.04281Z" stroke="#26234F" stroke-width="0.703125" stroke-miterlimit="10" stroke-linecap="round" stroke-linejoin="round"/>
<path id="Vector_3" d="M3.04755 14.8575C3.79775 14.8575 4.4059 14.2494 4.4059 13.4992C4.4059 12.749 3.79775 12.1408 3.04755 12.1408C2.29736 12.1408 1.68921 12.749 1.68921 13.4992C1.68921 14.2494 2.29736 14.8575 3.04755 14.8575Z" stroke="#26234F" stroke-width="0.703125" stroke-miterlimit="10" stroke-linecap="round" stroke-linejoin="round"/>
<g id="Vector_4">
<path d="M3.04761 14.8575V16.9135V14.8575Z" fill="#26234F"/>
<path d="M3.04761 14.8575V16.9135" stroke="#26234F" stroke-width="0.703125" stroke-miterlimit="10" stroke-linecap="round" stroke-linejoin="round"/>
</g>
<path id="Vector_5" d="M15.2551 19.7103C16.0053 19.7103 16.6134 19.1022 16.6134 18.352C16.6134 17.6018 16.0053 16.9937 15.2551 16.9937C14.5049 16.9937 13.8967 17.6018 13.8967 18.352C13.8967 19.1022 14.5049 19.7103 15.2551 19.7103Z" stroke="#26234F" stroke-width="0.703125" stroke-miterlimit="10" stroke-linecap="round" stroke-linejoin="round"/>
<g id="Vector_6">
<path d="M15.2551 19.7107V21.7668V19.7107Z" fill="#26234F"/>
<path d="M15.2551 19.7107V21.7668" stroke="#26234F" stroke-width="0.703125" stroke-miterlimit="10" stroke-linecap="round" stroke-linejoin="round"/>
</g>
<path id="Vector_7" d="M21.0578 14.9981C21.808 14.9981 22.4162 14.39 22.4162 13.6398C22.4162 12.8896 21.808 12.2815 21.0578 12.2815C20.3076 12.2815 19.6995 12.8896 19.6995 13.6398C19.6995 14.39 20.3076 14.9981 21.0578 14.9981Z" stroke="#26234F" stroke-width="0.703125" stroke-miterlimit="10" stroke-linecap="round" stroke-linejoin="round"/>
<path id="Vector_8" d="M21.0579 14.9981V17.0541M13.8967 20.6971C13.2492 20.7249 12.6012 20.7387 11.9532 20.7386C5.67101 20.7386 0.578369 19.4613 0.578369 17.8856C0.578369 17.489 0.901103 17.1112 1.48432 16.768M22.6764 16.9316C23.0983 17.2299 23.3279 17.551 23.3279 17.8856C23.3279 19.0684 20.6927 20.083 16.6044 20.5155" stroke="#26234F" stroke-width="0.703125" stroke-miterlimit="10" stroke-linecap="round" stroke-linejoin="round"/>
</g>
</g>
</g>
</svg>
