<svg xmlns="http://www.w3.org/2000/svg" width="26" height="26" viewBox="0 0 26 26" fill="none">
<path d="M23.9199 17.2819C23.4475 17.3446 22.9671 17.3002 22.5143 17.1519C22.1303 17.023 21.7804 16.8091 21.4905 16.5262C21.207 16.2324 20.8394 16.0337 20.4383 15.9575C20.4072 15.9555 20.376 15.9555 20.3449 15.9575L19.9712 15.3928C20.1846 15.4401 20.4025 15.4646 20.6212 15.4659C21.1998 15.4771 21.7695 15.3217 22.2624 15.0182C22.7552 14.7147 23.1504 14.2759 23.4008 13.7541C23.6513 13.2323 23.7464 12.6495 23.6749 12.0752C23.6034 11.5008 23.3683 10.9591 22.9975 10.5147C22.6268 10.0702 22.1361 9.74167 21.5839 9.56827C21.0317 9.39487 20.4413 9.38389 19.883 9.53664C19.3247 9.68939 18.8221 9.99943 18.4351 10.4298C18.0481 10.8602 17.793 11.3928 17.7002 11.9641L15.5958 8.77906C15.5777 8.75129 15.568 8.71882 15.568 8.68563C15.568 8.65243 15.5777 8.61996 15.5958 8.59219C15.6081 8.56578 15.6276 8.54338 15.652 8.52757C15.6764 8.51175 15.7049 8.50317 15.734 8.50281H19.2602C19.7386 8.50281 20.1974 8.31278 20.5357 7.97451C20.8739 7.63624 21.064 7.17745 21.064 6.69906C21.064 6.22068 20.8739 5.76189 20.5357 5.42362C20.1974 5.08535 19.7386 4.89531 19.2602 4.89531H12.2687C12.0178 4.89563 11.7708 4.95724 11.5492 5.07477C11.3276 5.1923 11.1381 5.3622 10.9971 5.56969C10.8517 5.78439 10.7612 6.03149 10.7336 6.28932C10.706 6.54714 10.742 6.80781 10.8387 7.04844L12.7887 11.9478C12.8528 12.1037 12.8633 12.2766 12.8185 12.4392C12.7736 12.6017 12.6759 12.7447 12.5408 12.8456L8.2224 16.0956C8.09947 16.0836 7.97565 16.0836 7.85272 16.0956C7.55137 16.1336 7.26325 16.2422 7.01178 16.4125C6.76034 16.5688 6.49679 16.7046 6.22365 16.8188C5.56131 17.0891 4.86098 17.255 4.14771 17.3103C4.04057 17.3196 3.94148 17.371 3.87218 17.4533C3.80288 17.5355 3.76902 17.6419 3.77803 17.7491C3.78213 17.8025 3.79675 17.8545 3.82106 17.9023C3.84536 17.95 3.87887 17.9925 3.91965 18.0272C3.96042 18.062 4.00767 18.0883 4.05866 18.1047C4.10966 18.1211 4.16339 18.1273 4.21678 18.1228C5.01226 18.0575 5.79313 17.8712 6.5324 17.5703C6.84014 17.4463 7.13762 17.2983 7.42209 17.1275C7.57799 17.0146 7.75943 16.942 7.95021 16.9163C8.43365 16.8553 8.73022 17.0869 9.14053 17.4038C9.58107 17.8015 10.1269 18.0639 10.7127 18.1594C11.0573 18.1841 11.4032 18.1353 11.7274 18.0163C12.0517 17.8972 12.347 17.7106 12.5937 17.4688C12.9902 17.0952 13.5044 16.8711 14.048 16.835C14.6485 16.8427 15.2259 17.0679 15.673 17.4688C16.1499 17.8816 16.7496 18.1258 17.3793 18.1634C17.499 18.1636 17.6186 18.1541 17.7368 18.135C18.3596 18.0171 18.9287 17.7041 19.3618 17.2413C19.7437 16.8919 19.959 16.7131 20.3043 16.7659C20.5509 16.8252 20.7734 16.9584 20.9421 17.1478C21.315 17.5003 21.7599 17.7678 22.2462 17.9319C22.8129 18.117 23.4138 18.1739 24.0052 18.0984C24.0602 18.094 24.1137 18.0784 24.1624 18.0525C24.2111 18.0267 24.2541 17.9913 24.2887 17.9483C24.3233 17.9054 24.3488 17.8558 24.3636 17.8027C24.3784 17.7496 24.3823 17.694 24.3749 17.6394C24.3689 17.5859 24.3523 17.5341 24.3261 17.4871C24.2998 17.44 24.2645 17.3987 24.2222 17.3654C24.1799 17.3322 24.1313 17.3076 24.0794 17.2933C24.0275 17.279 23.9733 17.2751 23.9199 17.2819ZM20.6212 10.2375C21.0597 10.2262 21.4916 10.3459 21.8618 10.5813C22.232 10.8167 22.5236 11.1572 22.6993 11.5591C22.875 11.9611 22.9269 12.4063 22.8483 12.8379C22.7697 13.2695 22.5642 13.6678 22.2581 13.982C21.952 14.2963 21.5591 14.5121 21.1297 14.6019C20.7003 14.6917 20.2539 14.6515 19.8475 14.4863C19.4411 14.3212 19.0932 14.0386 18.8482 13.6747C18.6032 13.3108 18.4722 12.8821 18.4721 12.4434C18.4683 12.1575 18.5209 11.8736 18.6269 11.608C18.7329 11.3423 18.8901 11.1002 19.0897 10.8953C19.2893 10.6905 19.5272 10.527 19.79 10.4141C20.0528 10.3012 20.3352 10.2412 20.6212 10.2375ZM18.8255 16.6562C18.5138 17.0061 18.098 17.2468 17.6393 17.3428C17.038 17.4362 16.6521 17.1641 16.1646 16.8188C15.5722 16.3102 14.8166 16.0319 14.0358 16.0347C13.3202 16.0784 12.6408 16.365 12.1102 16.8472C11.6796 17.1803 11.3668 17.4241 10.8102 17.355C10.3704 17.2756 9.96271 17.0711 9.63615 16.7659C9.48284 16.6421 9.32281 16.5268 9.15678 16.4206L13.0283 13.52C13.3052 13.3112 13.5058 13.0171 13.599 12.6831C13.6923 12.349 13.673 11.9936 13.5443 11.6716L11.5943 6.77219C11.546 6.65543 11.5278 6.52844 11.5413 6.40282C11.5547 6.27721 11.5995 6.15697 11.6715 6.05313C11.7304 5.9453 11.8165 5.8548 11.9213 5.79065C12.0261 5.72649 12.1458 5.69093 12.2687 5.6875H19.2521C19.515 5.6875 19.7671 5.79194 19.953 5.97783C20.1389 6.16373 20.2433 6.41585 20.2433 6.67875C20.2433 6.94165 20.1389 7.19377 19.953 7.37967C19.7671 7.56557 19.515 7.67 19.2521 7.67H15.7258C15.5497 7.67054 15.377 7.7188 15.226 7.80964C15.0751 7.90048 14.9516 8.03052 14.8687 8.18594C14.7844 8.34459 14.7444 8.52303 14.753 8.70248C14.7616 8.88192 14.8184 9.05573 14.9174 9.20563L19.4999 16.1241C19.2539 16.2728 19.0274 16.4516 18.8255 16.6562ZM22.169 20.2434C21.6965 20.3023 21.217 20.2579 20.7633 20.1134C20.3812 19.9865 20.0317 19.7771 19.7396 19.5C19.4581 19.2004 19.0904 18.996 18.6874 18.915C17.944 18.8013 17.4687 19.2238 17.0624 19.5934C16.7483 19.9434 16.3317 20.1851 15.8721 20.2841C15.2708 20.3734 14.889 20.1012 14.4015 19.76C13.808 19.2528 13.0534 18.9734 12.2727 18.9719C11.5566 19.0136 10.8766 19.3005 10.3471 19.7844C9.91646 20.1175 9.59959 20.3572 9.04709 20.2881C8.60723 20.2088 8.19958 20.0042 7.87303 19.6991C7.64084 19.4681 7.36192 19.2896 7.05502 19.1754C6.74811 19.0612 6.42032 19.0139 6.09365 19.0369C5.79231 19.0748 5.50418 19.1834 5.25272 19.3538C5.00221 19.5116 4.73852 19.6476 4.46459 19.76C3.80414 20.0254 3.10663 20.1871 2.39678 20.2394C2.28903 20.248 2.18913 20.2991 2.11903 20.3813C2.04894 20.4636 2.01441 20.5704 2.02303 20.6781C2.03165 20.7859 2.08271 20.8858 2.165 20.9559C2.24728 21.026 2.35403 21.0605 2.46178 21.0519C3.25881 20.9881 4.04124 20.8017 4.78147 20.4994C5.09475 20.3761 5.39769 20.228 5.6874 20.0566C5.84188 19.9438 6.02197 19.8712 6.21146 19.8453C6.69897 19.7844 6.99553 20.0159 7.40584 20.3328C7.84479 20.7329 8.39138 20.9956 8.97803 21.0884C9.32327 21.12 9.67125 21.0764 9.99804 20.9607C10.3248 20.845 10.6227 20.6599 10.8712 20.4181C11.2639 20.0485 11.7715 19.8248 12.3093 19.7844C12.9105 19.7921 13.4883 20.0189 13.9343 20.4222C14.4143 20.8389 15.0182 21.0859 15.6527 21.125C15.7725 21.1252 15.892 21.1156 16.0102 21.0966C16.6326 20.9801 17.2017 20.6685 17.6352 20.2069C18.0171 19.8575 18.2283 19.6747 18.5777 19.7316C18.8244 19.7882 19.0473 19.9203 19.2155 20.1094C19.5881 20.4634 20.033 20.7323 20.5196 20.8975C21.0856 21.0794 21.6847 21.1349 22.2746 21.06C22.3279 21.0539 22.3796 21.0373 22.4265 21.0112C22.4734 20.9851 22.5148 20.95 22.5482 20.908C22.5816 20.8659 22.6063 20.8177 22.6211 20.7661C22.6358 20.7144 22.6403 20.6604 22.6341 20.607C22.628 20.5537 22.6114 20.5021 22.5853 20.4551C22.5592 20.4082 22.5242 20.3668 22.4821 20.3335C22.44 20.3001 22.3918 20.2753 22.3402 20.2605C22.2885 20.2458 22.2345 20.2414 22.1812 20.2475L22.169 20.2434ZM5.21209 8.62063H8.41334C8.52108 8.62063 8.62442 8.57782 8.7006 8.50164C8.77679 8.42545 8.81959 8.32212 8.81959 8.21438C8.81959 8.10663 8.77679 8.0033 8.7006 7.92711C8.62442 7.85093 8.52108 7.80813 8.41334 7.80813H5.21209C5.10435 7.80813 5.00101 7.85093 4.92483 7.92711C4.84864 8.0033 4.80584 8.10663 4.80584 8.21438C4.80584 8.32212 4.84864 8.42545 4.92483 8.50164C5.00101 8.57782 5.10435 8.62063 5.21209 8.62063ZM3.62771 10.2172H6.81272C6.92046 10.2172 7.02379 10.1744 7.09998 10.0982C7.17616 10.022 7.21897 9.91868 7.21897 9.81094C7.21897 9.70319 7.17616 9.59986 7.09998 9.52368C7.02379 9.44749 6.92046 9.40469 6.81272 9.40469H3.62771C3.51997 9.40469 3.41664 9.44749 3.34045 9.52368C3.26427 9.59986 3.22146 9.70319 3.22146 9.81094C3.22146 9.91868 3.26427 10.022 3.34045 10.0982C3.41664 10.1744 3.51997 10.2172 3.62771 10.2172Z" fill="#26234F"/>
<path d="M8.00719 9.81094C8.00719 9.91868 8.04999 10.022 8.12618 10.0982C8.20236 10.1744 8.30569 10.2172 8.41344 10.2172H9.7175C9.82524 10.2172 9.92858 10.1744 10.0048 10.0982C10.0809 10.022 10.1238 9.91868 10.1238 9.81094C10.1238 9.70319 10.0809 9.59986 10.0048 9.52367C9.92858 9.44749 9.82524 9.40469 9.7175 9.40469H8.41344C8.30569 9.40469 8.20236 9.44749 8.12618 9.52367C8.04999 9.59986 8.00719 9.70319 8.00719 9.81094ZM7.66188 11.8097C7.76962 11.8097 7.87295 11.7669 7.94914 11.6907C8.02532 11.6145 8.06813 11.5112 8.06813 11.4034C8.06813 11.2957 8.02532 11.1924 7.94914 11.1162C7.87295 11.04 7.76962 10.9972 7.66188 10.9972H2.03125C1.92351 10.9972 1.82017 11.04 1.74399 11.1162C1.6678 11.1924 1.625 11.2957 1.625 11.4034C1.625 11.5112 1.6678 11.6145 1.74399 11.6907C1.82017 11.7669 1.92351 11.8097 2.03125 11.8097H7.66188Z" fill="#26234F"/>
</svg>