<svg xmlns="http://www.w3.org/2000/svg" width="26" height="26" viewBox="0 0 26 26" fill="none">
  <g clip-path="url(#clip0_126_1059)">
    <path d="M2.77408 17.1951C3.27474 17.6925 3.82893 18.1328 4.42654 18.5081L1.93031 21.0061C1.80952 21.1268 1.7137 21.2701 1.64832 21.4279C1.58295 21.5856 1.5493 21.7547 1.5493 21.9255C1.5493 22.0963 1.58295 22.2654 1.64832 22.4231C1.7137 22.5809 1.80952 22.7242 1.93031 22.845L3.15669 24.0711C3.27741 24.1919 3.42075 24.2878 3.57851 24.3531C3.73627 24.4185 3.90537 24.4522 4.07615 24.4522C4.24692 24.4522 4.41602 24.4185 4.57378 24.3531C4.73155 24.2878 4.87488 24.1919 4.9956 24.0711L9.1032 19.9635H9.14347C9.24205 19.9623 9.33969 19.9441 9.43209 19.9098C9.46439 19.9073 9.49628 19.9011 9.5271 19.8911C11.4115 19.1146 12.9314 18.9378 14.3107 19.3374C14.7467 19.4641 15.164 19.6481 15.5516 19.8846C15.5698 20.0829 15.6564 20.2687 15.7966 20.4102L21.0052 25.6184C21.5128 26.1259 22.3356 26.1259 22.8434 25.6184L24.0687 24.3931C24.1894 24.2724 24.2852 24.1291 24.3505 23.9713C24.4158 23.8136 24.4494 23.6446 24.4494 23.4739C24.4494 23.3032 24.4158 23.1341 24.3505 22.9764C24.2852 22.8186 24.1894 22.6753 24.0687 22.5546L22.2292 20.7182L19.4678 17.9568C19.6999 17.8818 19.929 17.7979 20.1547 17.7055C22.4691 16.7349 24.3098 14.8941 25.28 12.5796C25.7409 11.4791 25.9851 10.3 25.999 9.10704C26.0163 7.92421 25.8013 6.74947 25.3663 5.64939C24.9157 4.51646 24.2387 3.4874 23.3766 2.62521C22.5145 1.76302 21.4855 1.08584 20.3526 0.635105C19.2519 0.201715 18.0773 -0.0131307 16.8944 0.00256847C15.7017 0.0164221 14.5229 0.260207 13.4225 0.720563C12.7036 1.02168 12.0249 1.41086 11.4019 1.87916C10.6531 1.6745 9.88155 1.56476 9.10539 1.5525C7.92237 1.53574 6.74748 1.75034 5.64677 2.18423C4.51303 2.63359 3.4833 3.31034 2.62104 4.17278C1.75877 5.03522 1.08223 6.06508 0.633097 7.19892C0.198861 8.29933 -0.0158997 9.47406 0.000916421 10.6569C0.0154059 11.8493 0.258988 13.0278 0.718404 14.1283C1.19545 15.2757 1.89399 16.3179 2.77408 17.1951ZM5.30006 22.5395L4.38033 21.6195C4.29723 21.5498 4.19098 21.5138 4.08259 21.5186C3.9742 21.5234 3.87156 21.5687 3.79497 21.6455C3.71836 21.7223 3.67335 21.8251 3.66884 21.9335C3.66432 22.0418 3.70064 22.148 3.77059 22.2309L4.69053 23.1508L4.38368 23.4572C4.30093 23.5358 4.19121 23.5795 4.07714 23.5795C3.96307 23.5795 3.85334 23.5358 3.77059 23.4572L2.54299 22.2309C2.4617 22.1496 2.41603 22.0393 2.41603 21.9243C2.41603 21.8093 2.4617 21.6991 2.54299 21.6178L4.07384 20.0869L4.99382 21.0069C5.07553 21.0858 5.18498 21.1295 5.29858 21.1284C5.41217 21.1274 5.52083 21.0818 5.60112 21.0015C5.68148 20.9212 5.72708 20.8125 5.72809 20.6989C5.72909 20.5853 5.68543 20.4759 5.60651 20.3942L4.68657 19.4742L5.20882 18.9522C5.4167 19.0575 5.62519 19.1622 5.84135 19.2525C6.53127 19.5368 7.25279 19.7373 7.99046 19.8498L5.30006 22.5395ZM10.9495 18.5175L16.9664 12.5006C16.645 13.6784 16.641 14.9202 16.9547 16.1001C17.0912 16.572 17.2852 17.0253 17.5323 17.4498L15.8991 19.083C15.475 18.8354 15.022 18.6411 14.5503 18.5044C13.37 18.1905 12.1275 18.1951 10.9495 18.5175V18.5175ZM23.456 23.7818L22.2292 25.0072C22.1479 25.0883 22.0377 25.1339 21.9229 25.1339C21.808 25.1339 21.6978 25.0883 21.6165 25.0072L21.3115 24.7007L22.2292 23.7814C22.2697 23.7412 22.3018 23.6934 22.3237 23.6408C22.3457 23.5882 22.357 23.5317 22.3571 23.4747C22.3572 23.4177 22.3461 23.3612 22.3243 23.3085C22.3025 23.2558 22.2706 23.2079 22.2303 23.1676C22.1899 23.1273 22.1421 23.0953 22.0894 23.0736C22.0367 23.0518 21.9802 23.0406 21.9232 23.0407C21.8662 23.0408 21.8097 23.0522 21.7571 23.0741C21.7045 23.0961 21.6567 23.1282 21.6165 23.1687L20.6976 24.088L18.8591 22.2495L19.778 21.3306C19.8569 21.2488 19.9005 21.1394 19.8995 21.0258C19.8985 20.9122 19.853 20.8036 19.7726 20.7232C19.6923 20.6429 19.5837 20.5973 19.4701 20.5963C19.3565 20.5953 19.247 20.639 19.1653 20.7178L18.2464 21.6368L16.4079 19.7983L18.2464 17.9598L18.8591 18.5731L17.9395 19.492C17.8857 19.5458 17.847 19.6128 17.8273 19.6863C17.8076 19.7597 17.8076 19.8371 17.8272 19.9106C17.8469 19.9841 17.8855 20.0511 17.9393 20.1049C17.9931 20.1588 18.0601 20.1975 18.1335 20.2172C18.207 20.2369 18.2844 20.237 18.3579 20.2173C18.4314 20.1976 18.4984 20.159 18.5522 20.1052L19.4714 19.1856L21.3099 21.0241L20.3907 21.9433C20.3353 21.9967 20.2952 22.0639 20.2744 22.1379C20.2536 22.212 20.253 22.2902 20.2725 22.3647C20.292 22.4391 20.3309 22.5069 20.3853 22.5613C20.4398 22.6157 20.5077 22.6545 20.5821 22.6739C20.6565 22.6935 20.7347 22.6928 20.8088 22.6721C20.8828 22.6513 20.95 22.6112 21.0034 22.5559L21.926 21.6368L23.4576 23.1687C23.5387 23.2502 23.5842 23.3605 23.584 23.4755C23.5835 23.5905 23.5375 23.7006 23.456 23.7817V23.7818ZM13.7555 1.51914C14.7539 1.10218 15.8232 0.881509 16.905 0.869189C17.9752 0.852362 19.0383 1.04667 20.0334 1.441C21.0563 1.84812 21.9853 2.45964 22.7637 3.23815C23.5421 4.01667 24.1535 4.94581 24.5605 5.96873C24.954 6.96394 25.1483 8.02669 25.1325 9.09673C25.1201 10.1785 24.8994 11.2477 24.4826 12.246C23.6 14.3489 21.9272 16.0215 19.8241 16.9036C19.4749 17.0462 19.1163 17.1645 18.7508 17.2578C18.6282 17.1703 18.4848 17.1167 18.3349 17.1023C18.0985 16.7146 17.9145 16.2974 17.7876 15.8614C17.3889 14.4821 17.5652 12.9625 18.3418 11.079C18.3508 11.0501 18.3565 11.0203 18.3591 10.9902C18.3978 10.8866 18.4163 10.7766 18.4136 10.6661C18.3758 9.54127 18.1345 8.43264 17.7013 7.39391C16.7327 5.07889 14.892 3.238 12.5771 2.26913C12.5297 2.24968 12.4813 2.23617 12.4335 2.21754C12.8532 1.94701 13.2955 1.71334 13.7555 1.51914ZM1.43939 7.51724C1.84492 6.49386 2.45579 5.56439 3.23432 4.78616C4.01286 4.00793 4.94257 3.39742 5.96611 2.9923C6.92864 2.61218 7.95455 2.41813 8.98941 2.42044H9.09549C10.177 2.43314 11.2464 2.65372 12.2447 3.07025C14.3471 3.95141 16.0189 5.62358 16.8995 7.72614C17.2935 8.66894 17.5116 9.67588 17.543 10.6972L11.1254 17.118L11.1206 17.121L11.1177 17.1253L9.14606 19.0969L9.14388 19.0999C8.12333 19.0657 7.11743 18.8468 6.17496 18.4539C4.07118 17.5728 2.39826 15.8997 1.51734 13.7958C1.10131 12.7973 0.880717 11.7283 0.867537 10.6466C0.851919 9.57615 1.0462 8.513 1.43939 7.51724Z" fill="#26234F"/>
    <path d="M15.3006 8.39132C15.5464 8.98238 15.7069 9.60542 15.7773 10.2416C15.7835 10.2982 15.8008 10.353 15.8282 10.4029C15.8556 10.4528 15.8926 10.4968 15.937 10.5325C15.9815 10.5681 16.0325 10.5946 16.0872 10.6105C16.1418 10.6264 16.1991 10.6314 16.2557 10.6251C16.3696 10.6125 16.4739 10.5553 16.5457 10.4659C16.6174 10.3766 16.6509 10.2625 16.6387 10.1485C16.5591 9.43032 16.3778 8.72707 16.1002 8.0599C15.7094 7.12198 15.1375 6.27033 14.4172 5.55372C14.3355 5.47483 14.226 5.4312 14.1124 5.4322C13.9988 5.43321 13.8902 5.47878 13.8099 5.55911C13.7295 5.63943 13.684 5.74809 13.683 5.86168C13.682 5.97527 13.7256 6.08472 13.8045 6.16645C14.4446 6.80253 14.953 7.55857 15.3006 8.39132ZM2.71892 13.7301C2.7902 13.7303 2.86043 13.7129 2.92337 13.6794C2.98631 13.646 3.04002 13.5975 3.07975 13.5383C3.11947 13.4791 3.14398 13.4111 3.1511 13.3401C3.15822 13.2692 3.14774 13.1976 3.12057 13.1317C2.92219 12.6493 2.78042 12.1455 2.6981 11.6304L2.6717 9.63715C2.73949 9.13053 2.86747 8.6338 3.05294 8.15749C3.08148 8.08664 3.09079 8.0095 3.07993 7.93389C3.06907 7.85829 3.03841 7.78689 2.99107 7.72694C2.94373 7.667 2.88139 7.62062 2.81036 7.59253C2.73933 7.56443 2.66213 7.55561 2.58659 7.56695C2.51106 7.57837 2.43988 7.60953 2.38026 7.65729C2.32064 7.70505 2.27468 7.7677 2.24704 7.83891C1.89522 8.72871 1.72096 9.67876 1.73409 10.6355C1.74582 11.6066 1.94413 12.5665 2.31823 13.4628C2.35104 13.542 2.40663 13.6097 2.47795 13.6573C2.54928 13.7049 2.63318 13.7302 2.71892 13.7301ZM23.1149 12.1473C23.221 12.1914 23.3403 12.1915 23.4466 12.1476C23.5528 12.1037 23.6372 12.0194 23.6813 11.9132C24.0554 11.0171 24.2538 10.0574 24.2657 9.08637C24.2799 8.12837 24.1062 7.17688 23.7545 6.28568C23.7269 6.21444 23.6809 6.15177 23.6213 6.10401C23.5617 6.05625 23.4905 6.0251 23.4149 6.01371C23.3394 6.00231 23.2622 6.01109 23.1912 6.03915C23.1201 6.06721 23.0578 6.11356 23.0104 6.17349C22.9631 6.23343 22.9324 6.30482 22.9216 6.38043C22.9107 6.45603 22.92 6.53317 22.9486 6.604C23.1342 7.08049 23.2622 7.57743 23.3298 8.08427L23.3034 10.0773C23.2211 10.5926 23.0794 11.0966 22.881 11.5792C22.8589 11.6319 22.8474 11.6883 22.8472 11.7454C22.847 11.8025 22.8581 11.8591 22.8798 11.9118C22.9015 11.9646 22.9335 12.0126 22.9738 12.053C23.0142 12.0934 23.0621 12.1255 23.1149 12.1473ZM10.4 23.4011C10.4 24.8369 11.5641 26.0009 13 26.0009C14.4358 26.0009 15.5998 24.8369 15.5998 23.4011C15.5998 21.9652 14.4358 20.8011 13 20.8011C11.5647 20.8027 10.4016 21.9658 10.4 23.4011ZM14.7332 23.4011C14.7332 24.3583 13.9573 25.1343 13 25.1343C12.0428 25.1343 11.2666 24.3583 11.2666 23.4011C11.2666 22.4438 12.0428 21.6677 13 21.6677C13.9572 21.6677 14.7332 22.4438 14.7332 23.4011Z" fill="#26234F"/>
    <path d="M12.259 22.66C12.1979 22.7207 12.1562 22.7981 12.1393 22.8825C12.1224 22.9669 12.131 23.0544 12.164 23.1339C12.197 23.2134 12.2529 23.2812 12.3246 23.3288C12.3963 23.3764 12.4806 23.4015 12.5666 23.4011C12.5957 23.4003 12.6246 23.3973 12.6533 23.3923C12.6804 23.3876 12.7067 23.3788 12.7313 23.3663C12.7589 23.3569 12.7851 23.3437 12.8092 23.3272C12.832 23.3114 12.8536 23.294 12.8742 23.2753C12.9147 23.2349 12.9467 23.187 12.9686 23.1342C12.9905 23.0814 13.0017 23.0248 13.0017 22.9677C13.0017 22.9105 12.9905 22.8539 12.9686 22.8012C12.9467 22.7484 12.9147 22.7004 12.8742 22.66C12.7044 22.4901 12.4289 22.4901 12.259 22.66Z" fill="#26234F"/>
  </g>
  <defs>
    <clipPath id="clip0_126_1059">
      <rect width="26" height="26" fill="white"/>
    </clipPath>
  </defs>
</svg>