<svg xmlns="http://www.w3.org/2000/svg" width="26" height="26" viewBox="0 0 26 26" fill="none">
  <path d="M25.0152 2.29948C24.9506 2.24442 24.8747 2.20413 24.7929 2.18141C24.7111 2.15868 24.6253 2.15407 24.5415 2.1679C23.6249 2.31786 18.7603 3.06592 13 3.06592C7.23978 3.06592 2.37519 2.31786 1.45854 2.1679C1.37475 2.15418 1.28897 2.15884 1.20716 2.18156C1.12536 2.20428 1.04946 2.24452 0.984746 2.29948C0.919994 2.35442 0.867985 2.42281 0.832337 2.49988C0.796689 2.57696 0.778256 2.66087 0.77832 2.74579V7.39832C0.779479 7.49872 0.820177 7.59462 0.891585 7.66521C0.962994 7.7358 1.05935 7.77539 1.15976 7.77539C1.26017 7.77539 1.35653 7.7358 1.42794 7.66521C1.49935 7.59462 1.54005 7.49872 1.54121 7.39832V2.9539C3.08054 3.1976 7.59357 3.82881 13 3.82881C18.4062 3.82881 22.9192 3.19765 24.4588 2.9539V7.39629C24.4588 7.60698 24.6296 7.77771 24.8403 7.77771C25.0509 7.77771 25.2217 7.60693 25.2217 7.39629V2.74579C25.2217 2.5736 25.1464 2.41094 25.0152 2.29948ZM24.8404 8.79161C24.7903 8.7916 24.7407 8.80146 24.6944 8.82063C24.6482 8.83979 24.6061 8.86789 24.5707 8.90331C24.5353 8.93873 24.5072 8.98078 24.488 9.02705C24.4688 9.07333 24.459 9.12294 24.459 9.17303V13.6138C22.9197 13.3701 18.4067 12.7389 13.0002 12.7389C7.59403 12.7389 3.08105 13.37 1.54141 13.6138V9.17303C1.54141 9.12294 1.53154 9.07334 1.51238 9.02706C1.49321 8.98079 1.46511 8.93874 1.4297 8.90332C1.39428 8.8679 1.35223 8.83981 1.30595 8.82064C1.25968 8.80147 1.21008 8.79161 1.15999 8.79161C1.1099 8.79161 1.06031 8.80147 1.01403 8.82064C0.967754 8.83981 0.925707 8.8679 0.890289 8.90332C0.854871 8.93874 0.826776 8.98079 0.807608 9.02706C0.78844 9.07334 0.778574 9.12294 0.778574 9.17303V13.8218C0.778419 13.9068 0.796791 13.9907 0.832408 14.0678C0.868025 14.1449 0.92003 14.2133 0.984797 14.2682C1.04946 14.3232 1.12534 14.3635 1.20716 14.3862C1.28897 14.4089 1.37476 14.4136 1.45854 14.3997C2.37524 14.2498 7.23983 13.5017 13.0001 13.5017C18.7604 13.5017 23.625 14.2498 24.5416 14.3997C24.6254 14.4136 24.7112 14.4089 24.793 14.3862C24.8748 14.3635 24.9507 14.3232 25.0154 14.2682C25.0802 14.2132 25.1322 14.1448 25.1678 14.0678C25.2035 13.9907 25.2219 13.9068 25.2218 13.8218V9.17303C25.2218 9.12294 25.212 9.07333 25.1928 9.02705C25.1736 8.98078 25.1455 8.93873 25.1101 8.90331C25.0747 8.86789 25.0327 8.83979 24.9864 8.82063C24.9401 8.80146 24.8905 8.7916 24.8404 8.79161Z" fill="#26234F"/>
  <path d="M23.4469 4.12715C23.3687 4.05843 23.2768 4.00716 23.1773 3.97675C23.0777 3.94634 22.9728 3.93749 22.8696 3.95078C20.6012 4.24318 17.0476 4.59164 13 4.59164C8.95207 4.59164 5.39861 4.24313 3.13041 3.95073C3.02717 3.93742 2.92228 3.94626 2.82273 3.97667C2.72318 4.00708 2.63125 4.05837 2.55308 4.1271C2.47483 4.19594 2.41215 4.28066 2.36921 4.37562C2.32627 4.47058 2.30405 4.5736 2.30405 4.67782V11.8897C2.30398 11.9939 2.32612 12.0969 2.369 12.1918C2.41188 12.2867 2.47452 12.3714 2.55272 12.4402C2.63092 12.509 2.7229 12.5604 2.82252 12.5908C2.92214 12.6213 3.0271 12.6301 3.13041 12.6168C5.39876 12.3244 8.95243 11.9759 13 11.9759C17.0479 11.9759 20.6014 12.3244 22.8696 12.6168C22.9728 12.6301 23.0777 12.6212 23.1773 12.5908C23.2768 12.5604 23.3687 12.5091 23.4469 12.4404C23.5252 12.3716 23.5879 12.2869 23.6308 12.1919C23.6737 12.097 23.6959 11.9939 23.696 11.8897V4.67787C23.696 4.46703 23.6052 4.26629 23.4469 4.12715ZM13 11.2131C8.93217 11.2131 5.35895 11.5616 3.06693 11.8559V4.71174C5.35874 5.00607 8.93181 5.35453 13 5.35453C17.0678 5.35453 20.6411 5.00607 22.9331 4.71174V11.8559C20.6413 11.5616 17.0682 11.2131 13 11.2131ZM25.5236 21.7509H24.959V19.7862C24.959 18.8751 24.2178 18.1339 23.3068 18.1339H22.6533V17.0728C22.6533 16.1618 21.9121 15.4206 21.001 15.4206H18.9094C18.399 15.4206 17.9419 15.6534 17.6386 16.0182C17.3353 15.6534 16.8783 15.4206 16.3678 15.4206H14.2762C13.7658 15.4206 13.3088 15.6534 13.0054 16.0182C12.7021 15.6534 12.2451 15.4206 11.7346 15.4206H9.64311C9.13265 15.4206 8.67557 15.6534 8.37225 16.0182C8.06894 15.6534 7.61191 15.4206 7.10145 15.4206H5.00982C4.09881 15.4206 3.35761 16.1618 3.35761 17.0728V18.1339H2.68237C1.77135 18.1339 1.03015 18.8751 1.03015 19.7862V21.7509H0.47643C0.213688 21.7509 0 21.9646 0 22.2273V23.3634C0 23.6262 0.213738 23.8399 0.47643 23.8399H25.5235C25.7863 23.8399 25.9999 23.6261 25.9999 23.3634V22.2273C26 21.9646 25.7863 21.7509 25.5236 21.7509ZM22.2718 18.8968L23.3067 18.8968C23.7971 18.8968 24.1961 19.2958 24.1961 19.7862V21.7509H20.3258V19.7862C20.3258 19.762 20.3275 19.7384 20.3294 19.7148C20.3308 19.696 20.3333 19.6775 20.3359 19.659C20.3374 19.6484 20.3389 19.6378 20.3408 19.6273C20.344 19.6097 20.3479 19.5924 20.3521 19.5752C20.3547 19.5644 20.3574 19.5536 20.3604 19.543C20.3652 19.5263 20.3705 19.5099 20.3762 19.4936C20.3799 19.4831 20.3836 19.4727 20.3877 19.4624C20.4044 19.42 20.4244 19.379 20.4472 19.3396C20.4755 19.291 20.5084 19.2452 20.5454 19.2028C20.5509 19.1966 20.5565 19.1905 20.5621 19.1844C20.5754 19.17 20.5891 19.1559 20.6033 19.1423C20.6088 19.1372 20.6144 19.1322 20.62 19.1272C20.635 19.1136 20.6504 19.1003 20.6663 19.0878C20.6718 19.0834 20.6775 19.0794 20.6831 19.0753C20.6996 19.0628 20.7165 19.0507 20.7339 19.0394C20.7396 19.0357 20.7455 19.0324 20.7513 19.0288C20.769 19.0179 20.787 19.0073 20.8055 18.9976C20.8118 18.9943 20.8185 18.9914 20.8249 18.9882C20.8433 18.9792 20.8618 18.9704 20.8808 18.9626C20.8886 18.9594 20.8966 18.9568 20.9045 18.9539C20.9226 18.947 20.9409 18.9403 20.9596 18.9346C20.9698 18.9316 20.9803 18.9293 20.9906 18.9266C21.0075 18.9222 21.0244 18.9175 21.0417 18.914C21.0563 18.9111 21.0713 18.9094 21.0862 18.9072C21.0997 18.9053 21.1131 18.9027 21.1269 18.9013C21.1562 18.8984 21.1856 18.8969 21.2151 18.8968H22.2718ZM18.02 17.0728C18.02 16.5824 18.419 16.1834 18.9094 16.1834H21.001C21.4914 16.1834 21.8904 16.5824 21.8904 17.0728V18.1339H21.2152C21.1848 18.1339 21.1546 18.1349 21.1246 18.1365C21.1166 18.137 21.1087 18.1378 21.1007 18.1384C21.0784 18.1399 21.0561 18.1417 21.0341 18.1441C21.026 18.145 21.018 18.1462 21.0099 18.1472C20.9876 18.15 20.9654 18.1531 20.9435 18.1567C20.9367 18.1578 20.9298 18.1591 20.923 18.1603C20.8993 18.1646 20.8757 18.1693 20.8522 18.1746L20.8383 18.1778C20.8104 18.1843 20.7826 18.1916 20.7551 18.1996C20.4378 18.2921 20.1554 18.4773 19.9443 18.7316C19.7331 18.4773 19.4508 18.292 19.1335 18.1996L19.1291 18.1984C19.0985 18.1896 19.0676 18.1817 19.0365 18.1746C19.0129 18.1693 18.9893 18.1646 18.9656 18.1603C18.9588 18.1591 18.9521 18.1579 18.9453 18.1567C18.9233 18.153 18.9011 18.1499 18.8788 18.1471C18.8708 18.1461 18.8627 18.145 18.8546 18.144C18.8325 18.1417 18.8102 18.1398 18.788 18.1383C18.78 18.1377 18.7721 18.1369 18.7641 18.1365C18.7339 18.1348 18.7037 18.1339 18.6735 18.1339H18.02V17.0728ZM17.6386 18.8968V18.8968H18.6735C18.7033 18.8968 18.7327 18.8983 18.7617 18.9012C18.7756 18.9026 18.7891 18.9052 18.8027 18.9072C18.8175 18.9094 18.8324 18.9111 18.8469 18.914C18.8643 18.9175 18.8813 18.9222 18.8984 18.9267C18.9086 18.9293 18.9189 18.9316 18.929 18.9346C18.9479 18.9402 18.9662 18.9471 18.9846 18.954C18.9923 18.9569 19.0002 18.9594 19.0078 18.9625C19.027 18.9703 19.0457 18.9792 19.0641 18.9883C19.0704 18.9914 19.0769 18.9942 19.0831 18.9975C19.1018 19.0072 19.1199 19.0179 19.1378 19.029C19.1434 19.0324 19.1492 19.0357 19.1547 19.0393C19.1723 19.0506 19.1893 19.0629 19.206 19.0754C19.2115 19.0795 19.2169 19.0834 19.2223 19.0876C19.2384 19.1003 19.2538 19.1137 19.269 19.1274C19.2744 19.1323 19.28 19.1371 19.2853 19.1422C19.2996 19.1558 19.3133 19.17 19.3267 19.1845C19.3323 19.1905 19.3379 19.1965 19.3432 19.2027C19.3557 19.217 19.3676 19.2318 19.3791 19.2468C19.3959 19.2683 19.4115 19.2908 19.4259 19.3139C19.4405 19.3372 19.4542 19.3612 19.4666 19.3857C19.4792 19.4107 19.4907 19.4361 19.501 19.4621C19.5051 19.4726 19.5089 19.4833 19.5127 19.4941C19.5183 19.5101 19.5236 19.5262 19.5282 19.5425C19.5314 19.5536 19.5341 19.5648 19.5369 19.576C19.5409 19.5928 19.5448 19.6096 19.5479 19.6267C19.5499 19.6378 19.5514 19.649 19.553 19.6603C19.5556 19.678 19.5579 19.6959 19.5593 19.714C19.5612 19.7379 19.563 19.7618 19.563 19.7862V21.7509H15.6926V19.7862C15.6926 19.762 15.6944 19.7384 15.6962 19.7148C15.6977 19.696 15.7001 19.6775 15.7028 19.659C15.7043 19.6484 15.7057 19.6378 15.7077 19.6273C15.7109 19.6097 15.7148 19.5924 15.719 19.5752C15.7216 19.5644 15.7243 19.5536 15.7273 19.543C15.732 19.5263 15.7374 19.5099 15.7431 19.4936C15.7468 19.4831 15.7505 19.4727 15.7545 19.4624C15.7713 19.42 15.7912 19.379 15.8141 19.3396C15.8424 19.291 15.8753 19.2452 15.9123 19.2028C15.9177 19.1966 15.9234 19.1905 15.929 19.1844C15.9423 19.17 15.956 19.1559 15.9702 19.1423C15.9756 19.1372 15.9813 19.1322 15.9869 19.1272C16.0019 19.1136 16.0173 19.1003 16.0332 19.0878C16.0386 19.0834 16.0443 19.0794 16.0499 19.0753C16.0665 19.0628 16.0833 19.0507 16.1008 19.0394C16.1064 19.0357 16.1124 19.0324 16.1182 19.0288C16.1359 19.0179 16.1539 19.0073 16.1724 18.9976C16.1787 18.9943 16.1854 18.9914 16.1918 18.9882C16.2102 18.9792 16.2287 18.9704 16.2477 18.9626C16.2554 18.9594 16.2635 18.9568 16.2713 18.9539C16.2895 18.947 16.3077 18.9403 16.3265 18.9346C16.3366 18.9316 16.3471 18.9293 16.3575 18.9266C16.3744 18.9222 16.3913 18.9175 16.4085 18.914C16.4232 18.9111 16.4381 18.9094 16.453 18.9072C16.4666 18.9053 16.48 18.9027 16.4937 18.9013C16.5231 18.8984 16.5525 18.8969 16.582 18.8968H17.6386ZM14.2762 16.1834H16.3678C16.8582 16.1834 17.2572 16.5824 17.2572 17.0728V18.1339H16.582C16.5516 18.1339 16.5214 18.1349 16.4915 18.1365C16.4834 18.137 16.4755 18.1378 16.4675 18.1384C16.4452 18.1399 16.423 18.1417 16.4009 18.1441C16.3928 18.145 16.3848 18.1462 16.3767 18.1472C16.3545 18.15 16.3323 18.1531 16.3103 18.1567C16.3035 18.1578 16.2967 18.1591 16.2899 18.1603C16.2662 18.1646 16.2426 18.1693 16.2191 18.1746L16.2052 18.1778C16.1772 18.1843 16.1495 18.1916 16.1219 18.1996C15.8047 18.2921 15.5223 18.4773 15.3112 18.7316C15.1 18.4773 14.8176 18.292 14.5003 18.1996L14.496 18.1984C14.4654 18.1896 14.4345 18.1817 14.4033 18.1746C14.3798 18.1693 14.3562 18.1646 14.3324 18.1603C14.3257 18.1591 14.3189 18.1579 14.3121 18.1567C14.2901 18.153 14.268 18.1499 14.2457 18.1471C14.2376 18.1461 14.2296 18.145 14.2215 18.144C14.1993 18.1417 14.1771 18.1398 14.1549 18.1383C14.1469 18.1377 14.139 18.1369 14.1309 18.1365C14.1008 18.1348 14.0706 18.1339 14.0404 18.1339H13.3869V17.0728C13.3869 16.5824 13.7858 16.1834 14.2762 16.1834ZM13.0054 18.8968H14.0404C14.0701 18.8968 14.0995 18.8983 14.1286 18.9012C14.1424 18.9026 14.1559 18.9052 14.1695 18.9072C14.1843 18.9094 14.1993 18.9111 14.2137 18.914C14.2311 18.9175 14.2482 18.9222 14.2652 18.9267C14.2754 18.9293 14.2857 18.9316 14.2958 18.9346C14.3147 18.9402 14.3331 18.9471 14.3514 18.954C14.3591 18.9569 14.367 18.9594 14.3746 18.9625C14.3938 18.9703 14.4125 18.9792 14.431 18.9883C14.4373 18.9914 14.4437 18.9942 14.4499 18.9975C14.4686 19.0072 14.4867 19.0179 14.5046 19.029C14.5102 19.0324 14.516 19.0357 14.5216 19.0393C14.5391 19.0506 14.5561 19.0629 14.5728 19.0754C14.5783 19.0795 14.5838 19.0834 14.5891 19.0876C14.6052 19.1003 14.6206 19.1137 14.6358 19.1274C14.6413 19.1323 14.6468 19.1371 14.6521 19.1422C14.6664 19.1558 14.6801 19.17 14.6936 19.1845C14.6991 19.1905 14.7047 19.1965 14.7101 19.2027C14.7225 19.217 14.7344 19.2318 14.7459 19.2468C14.7627 19.2683 14.7783 19.2908 14.7927 19.3139C14.8074 19.3372 14.821 19.3612 14.8335 19.3857C14.846 19.4107 14.8575 19.4361 14.8678 19.4621C14.8719 19.4726 14.8758 19.4833 14.8795 19.4941C14.8851 19.5101 14.8904 19.5262 14.8951 19.5425C14.8982 19.5536 14.9009 19.5648 14.9037 19.576C14.9078 19.5928 14.9116 19.6096 14.9147 19.6267C14.9167 19.6378 14.9183 19.649 14.9198 19.6603C14.9224 19.678 14.9247 19.6959 14.9261 19.714C14.9281 19.7379 14.9298 19.7618 14.9298 19.7862V21.7509H11.0594V19.7862C11.0594 19.7604 11.0612 19.735 11.0633 19.7097L11.0637 19.7071C11.0984 19.3101 11.3997 18.9883 11.7797 18.9133C11.7872 18.9119 11.795 18.9111 11.8026 18.9098C11.8223 18.9065 11.842 18.9031 11.8621 18.9011C11.8907 18.8983 11.9195 18.8968 11.9488 18.8968H13.0054ZM8.75367 17.0728C8.75367 16.5824 9.15271 16.1834 9.64311 16.1834H11.7346C12.225 16.1834 12.624 16.5824 12.624 17.0728V18.1339H11.9488C11.919 18.1339 11.8895 18.1348 11.8601 18.1364C11.8442 18.1372 11.8286 18.1387 11.8128 18.14C11.8002 18.141 11.7875 18.1418 11.7751 18.1431C11.7525 18.1455 11.7301 18.1485 11.7077 18.1517C11.7034 18.1524 11.6989 18.1529 11.6946 18.1535C11.2906 18.2149 10.9349 18.42 10.6836 18.7189C10.3807 18.3586 9.92631 18.1339 9.41809 18.1339H8.75367V17.0728ZM8.3722 18.8968V18.8968H9.40713C9.89752 18.8968 10.2965 19.2958 10.2965 19.7862V21.7509H6.42616V19.7862C6.42616 19.7604 6.42789 19.735 6.43002 19.7097L6.43038 19.7071C6.46516 19.3101 6.7664 18.9883 7.14645 18.9134C7.15401 18.9119 7.16183 18.9111 7.16945 18.9099C7.18915 18.9065 7.20886 18.9032 7.22891 18.9012C7.25745 18.8984 7.2863 18.8968 7.31555 18.8968H8.3722ZM4.12044 17.0728C4.12044 16.5824 4.51943 16.1834 5.00982 16.1834H7.1014C7.5918 16.1834 7.99078 16.5824 7.99078 17.0728V18.1339H7.31565C7.28584 18.1339 7.25628 18.1348 7.22688 18.1364C7.21104 18.1372 7.19535 18.1387 7.17961 18.14C7.16701 18.141 7.15437 18.1418 7.14187 18.1431C7.11941 18.1455 7.09699 18.1484 7.07464 18.1517C7.07022 18.1524 7.06575 18.1529 7.06134 18.1535C6.65732 18.2149 6.3017 18.42 6.05038 18.7189C5.74742 18.3586 5.29308 18.1339 4.78486 18.1339H4.12044V17.0728ZM1.79298 19.7862C1.79298 19.2958 2.19197 18.8968 2.68237 18.8968H4.77395C5.26434 18.8968 5.66333 19.2958 5.66333 19.7862V21.7509H1.79298V19.7862ZM25.2371 23.077H0.762887V22.5138H25.2371V23.077Z" fill="#26234F"/>
</svg>