<svg width="6" height="21" viewBox="0 0 6 21" fill="none" xmlns="http://www.w3.org/2000/svg">
<path fill-rule="evenodd" clip-rule="evenodd" d="M3.15263 7.89648C1.7743 7.89648 0.646571 9.02421 0.646571 10.4025C0.646571 11.7809 1.7743 12.9086 3.15263 12.9086C4.53096 12.9086 5.65869 11.7809 5.65869 10.4025C5.65869 9.02421 4.53096 7.89648 3.15263 7.89648ZM3.15263 0.37793C1.7743 0.37793 0.646571 1.50566 0.646571 2.88399C0.646571 4.26232 1.7743 5.39004 3.15263 5.39004C4.53096 5.39004 5.65869 4.26232 5.65869 2.88399C5.65869 1.50566 4.53096 0.37793 3.15263 0.37793ZM3.15254 15.4143C1.77421 15.4143 0.646484 16.542 0.646484 17.9203C0.646484 19.2987 1.77421 20.4264 3.15254 20.4264C4.53087 20.4264 5.6586 19.2987 5.6586 17.9203C5.6586 16.542 4.53087 15.4143 3.15254 15.4143Z" fill="#435971"/>
<path fill-rule="evenodd" clip-rule="evenodd" d="M3.15263 7.89648C1.7743 7.89648 0.646571 9.02421 0.646571 10.4025C0.646571 11.7809 1.7743 12.9086 3.15263 12.9086C4.53096 12.9086 5.65869 11.7809 5.65869 10.4025C5.65869 9.02421 4.53096 7.89648 3.15263 7.89648ZM3.15263 0.37793C1.7743 0.37793 0.646571 1.50566 0.646571 2.88399C0.646571 4.26232 1.7743 5.39004 3.15263 5.39004C4.53096 5.39004 5.65869 4.26232 5.65869 2.88399C5.65869 1.50566 4.53096 0.37793 3.15263 0.37793ZM3.15254 15.4143C1.77421 15.4143 0.646484 16.542 0.646484 17.9203C0.646484 19.2987 1.77421 20.4264 3.15254 20.4264C4.53087 20.4264 5.6586 19.2987 5.6586 17.9203C5.6586 16.542 4.53087 15.4143 3.15254 15.4143Z" fill="white" fill-opacity="0.5"/>
</svg>
