<svg width="20" height="20" viewBox="0 0 20 20" fill="none" xmlns="http://www.w3.org/2000/svg">
<g id="Frame">
<g id="Group">
<path id="Vector" d="M12.5 1.25H2.5C2.16848 1.25 1.85054 1.3817 1.61612 1.61612C1.3817 1.85054 1.25 2.16848 1.25 2.5V12.5C1.25 12.8315 1.3817 13.1495 1.61612 13.3839C1.85054 13.6183 2.16848 13.75 2.5 13.75H12.5C12.8315 13.75 13.1495 13.6183 13.3839 13.3839C13.6183 13.1495 13.75 12.8315 13.75 12.5V2.5C13.75 2.16848 13.6183 1.85054 13.3839 1.61612C13.1495 1.3817 12.8315 1.25 12.5 1.25Z" fill="#40537E"/>
<path id="Vector_2" d="M2.5 2.5H12.5V12.5H2.5V2.5Z" fill="#7D8DB3"/>
<path id="Vector_3" d="M12.5 2.1875H2.5C2.41712 2.1875 2.33763 2.22042 2.27903 2.27903C2.22042 2.33763 2.1875 2.41712 2.1875 2.5V12.5C2.1875 12.5829 2.22042 12.6624 2.27903 12.721C2.33763 12.7796 2.41712 12.8125 2.5 12.8125H4.6875C4.77038 12.8125 4.84987 12.7796 4.90847 12.721C4.96708 12.6624 5 12.5829 5 12.5C5 12.4171 4.96708 12.3376 4.90847 12.279C4.84987 12.2204 4.77038 12.1875 4.6875 12.1875H2.8125V2.8125H5.3125V5.9375H4.375C4.29212 5.9375 4.21263 5.97042 4.15403 6.02903C4.09542 6.08763 4.0625 6.16712 4.0625 6.25C4.0625 6.33288 4.09542 6.41237 4.15403 6.47097C4.21263 6.52958 4.29212 6.5625 4.375 6.5625H6.875C6.95788 6.5625 7.03737 6.52958 7.09597 6.47097C7.15458 6.41237 7.1875 6.33288 7.1875 6.25C7.1875 6.16712 7.15458 6.08763 7.09597 6.02903C7.03737 5.97042 6.95788 5.9375 6.875 5.9375H5.9375V2.8125H8.4375V8.4375C8.4375 8.52038 8.47042 8.59987 8.52903 8.65847C8.58763 8.71708 8.66712 8.75 8.75 8.75C8.83288 8.75 8.91237 8.71708 8.97097 8.65847C9.02958 8.59987 9.0625 8.52038 9.0625 8.4375V2.8125H12.1875V12.1875H9.0625V10.3125C9.0625 10.2296 9.02958 10.1501 8.97097 10.0915C8.91237 10.0329 8.83288 10 8.75 10C8.66712 10 8.58763 10.0329 8.52903 10.0915C8.47042 10.1501 8.4375 10.2296 8.4375 10.3125V12.1875H6.5625C6.47962 12.1875 6.40013 12.2204 6.34153 12.279C6.28292 12.3376 6.25 12.4171 6.25 12.5C6.25 12.5829 6.28292 12.6624 6.34153 12.721C6.40013 12.7796 6.47962 12.8125 6.5625 12.8125H12.5C12.5829 12.8125 12.6624 12.7796 12.721 12.721C12.7796 12.6624 12.8125 12.5829 12.8125 12.5V2.5C12.8125 2.41712 12.7796 2.33763 12.721 2.27903C12.6624 2.22042 12.5829 2.1875 12.5 2.1875Z" fill="#F2D891"/>
<path id="Vector_4" d="M15.8459 2.27906L15.2209 1.65406C15.1919 1.62502 15.1574 1.60198 15.1195 1.58625C15.0816 1.57053 15.041 1.56244 14.9999 1.56244C14.9589 1.56244 14.9183 1.57053 14.8803 1.58625C14.8424 1.60198 14.808 1.62502 14.779 1.65406L14.154 2.27906C14.125 2.30808 14.102 2.34252 14.0863 2.38043C14.0706 2.41834 14.0625 2.45897 14.0625 2.5C14.0625 2.54103 14.0706 2.58166 14.0863 2.61957C14.102 2.65748 14.125 2.69193 14.154 2.72094C14.183 2.74995 14.2175 2.77297 14.2554 2.78867C14.2933 2.80437 14.3339 2.81245 14.3749 2.81245C14.416 2.81245 14.4566 2.80437 14.4945 2.78867C14.5324 2.77297 14.5669 2.74995 14.5959 2.72094L14.6874 2.62938V14.6875H2.62932L2.72088 14.5959C2.74989 14.5669 2.77291 14.5325 2.78861 14.4946C2.80431 14.4567 2.81239 14.416 2.81239 14.375C2.81239 14.334 2.80431 14.2933 2.78861 14.2554C2.77291 14.2175 2.74989 14.1831 2.72088 14.1541C2.69186 14.1251 2.65742 14.102 2.61951 14.0863C2.5816 14.0706 2.54097 14.0625 2.49994 14.0625C2.45891 14.0625 2.41828 14.0706 2.38037 14.0863C2.34246 14.102 2.30802 14.1251 2.279 14.1541L1.654 14.7791C1.62496 14.8081 1.60191 14.8425 1.58619 14.8804C1.57047 14.9183 1.56238 14.959 1.56238 15C1.56238 15.041 1.57047 15.0817 1.58619 15.1196C1.60191 15.1575 1.62496 15.1919 1.654 15.2209L2.279 15.8459C2.30796 15.8751 2.34238 15.8982 2.3803 15.9139C2.41822 15.9297 2.45888 15.9378 2.49994 15.9378C2.54101 15.9378 2.58167 15.9297 2.61958 15.9139C2.6575 15.8982 2.69192 15.8751 2.72088 15.8459C2.74992 15.8169 2.77297 15.7825 2.78869 15.7446C2.80441 15.7067 2.8125 15.666 2.8125 15.625C2.8125 15.584 2.80441 15.5433 2.78869 15.5054C2.77297 15.4675 2.74992 15.4331 2.72088 15.4041L2.62932 15.3125H14.9999C15.0828 15.3125 15.1623 15.2796 15.2209 15.221C15.2795 15.1624 15.3124 15.0829 15.3124 15V2.62938L15.404 2.72094C15.433 2.75006 15.4674 2.77317 15.5053 2.78894C15.5432 2.80471 15.5839 2.81283 15.6249 2.81283C15.666 2.81283 15.7067 2.80471 15.7446 2.78894C15.7825 2.77317 15.8169 2.75006 15.8459 2.72094C15.8749 2.69194 15.898 2.6575 15.9137 2.61959C15.9294 2.58168 15.9375 2.54104 15.9375 2.5C15.9375 2.45896 15.9294 2.41832 15.9137 2.38041C15.898 2.3425 15.8749 2.30806 15.8459 2.27906Z" fill="#FC6559"/>
<path id="Vector_5" d="M15 10.9375C14.8957 10.9387 14.7914 10.944 14.6875 10.9534V14.6875H10.9534C10.9453 14.7909 10.9375 14.8944 10.9375 15C10.9375 15.1056 10.9453 15.2091 10.9534 15.3125H15C15.0829 15.3125 15.1624 15.2796 15.221 15.221C15.2796 15.1624 15.3125 15.0829 15.3125 15V10.9534C15.2086 10.944 15.1043 10.9387 15 10.9375Z" fill="#0082AA"/>
<path id="Vector_6" d="M15 18.75C17.0711 18.75 18.75 17.0711 18.75 15C18.75 12.9289 17.0711 11.25 15 11.25C12.9289 11.25 11.25 12.9289 11.25 15C11.25 17.0711 12.9289 18.75 15 18.75Z" fill="#7D8DB3"/>
<g id="Group_2">
<path id="Vector_7" d="M14.375 14.0625C14.135 14.0625 13.9159 14.1531 13.75 14.3019C13.5784 14.1476 13.3558 14.0623 13.125 14.0625C12.6081 14.0625 12.1875 14.4831 12.1875 15V16.25C12.1875 16.3329 12.2204 16.4124 12.279 16.471C12.3376 16.5296 12.4171 16.5625 12.5 16.5625C12.5829 16.5625 12.6624 16.5296 12.721 16.471C12.7796 16.4124 12.8125 16.3329 12.8125 16.25V15C12.8125 14.8278 12.9528 14.6875 13.125 14.6875C13.2972 14.6875 13.4375 14.8278 13.4375 15V16.25C13.4375 16.3329 13.4704 16.4124 13.529 16.471C13.5876 16.5296 13.6671 16.5625 13.75 16.5625C13.8329 16.5625 13.9124 16.5296 13.971 16.471C14.0296 16.4124 14.0625 16.3329 14.0625 16.25V15C14.0625 14.8278 14.2028 14.6875 14.375 14.6875C14.5472 14.6875 14.6875 14.8278 14.6875 15V16.25C14.6875 16.3329 14.7204 16.4124 14.779 16.471C14.8376 16.5296 14.9171 16.5625 15 16.5625C15.0829 16.5625 15.1624 16.5296 15.221 16.471C15.2796 16.4124 15.3125 16.3329 15.3125 16.25V15C15.3125 14.4831 14.8919 14.0625 14.375 14.0625ZM16.7353 14.4819L17.4672 14.1159C17.5712 14.0643 17.6587 13.9845 17.7197 13.8857C17.7807 13.7869 17.8129 13.673 17.8125 13.5569V13.4375C17.8125 13.0928 17.5322 12.8125 17.1875 12.8125H16.25C16.1671 12.8125 16.0876 12.8454 16.029 12.904C15.9704 12.9626 15.9375 13.0421 15.9375 13.125C15.9375 13.2079 15.9704 13.2874 16.029 13.346C16.0876 13.4046 16.1671 13.4375 16.25 13.4375H17.1875V13.5569L16.4556 13.9228C16.2995 14.0002 16.1683 14.1198 16.0767 14.268C15.9851 14.4162 15.9369 14.587 15.9375 14.7613V15C15.9375 15.0829 15.9704 15.1624 16.029 15.221C16.0876 15.2796 16.1671 15.3125 16.25 15.3125H17.5C17.5829 15.3125 17.6624 15.2796 17.721 15.221C17.7796 15.1624 17.8125 15.0829 17.8125 15C17.8125 14.9171 17.7796 14.8376 17.721 14.779C17.6624 14.7204 17.5829 14.6875 17.5 14.6875H16.5712C16.5818 14.6433 16.602 14.6019 16.6304 14.5664C16.6587 14.5309 16.6945 14.502 16.7353 14.4819Z" fill="#F0F0F0"/>
</g>
</g>
</g>
</svg>
