<svg width="15" height="15" viewBox="0 0 15 15" fill="none" xmlns="http://www.w3.org/2000/svg">
<g id="Frame" clip-path="url(#clip0_1300_163)">
<g id="Group">
<path id="Vector" d="M11.579 5.07422H2.90609C2.89715 5.18083 2.86494 4.61148 3.49289 14.0312C3.52597 14.5283 3.94242 14.918 4.4409 14.918H10.0442C10.5427 14.918 10.9591 14.5283 10.9922 14.0312C11.6207 4.60336 11.5877 5.17867 11.579 5.07422ZM5.53054 13.1663C5.28768 13.187 5.07762 13.0077 5.05668 12.7685L4.61918 7.73723C4.59812 7.49633 4.7764 7.28441 5.01703 7.26336C5.25765 7.24258 5.46984 7.42059 5.4909 7.66121L5.9284 12.6925C5.94945 12.9334 5.77117 13.1453 5.53054 13.1663ZM7.68004 12.7305C7.68004 12.9722 7.48426 13.168 7.24254 13.168C7.00082 13.168 6.80504 12.9722 6.80504 12.7305V7.69922C6.80504 7.4575 7.00082 7.26172 7.24254 7.26172C7.48426 7.26172 7.68004 7.4575 7.68004 7.69922V12.7305ZM9.8659 7.73723L9.4284 12.7685C9.40871 12.9963 9.21758 13.168 8.99308 13.168C8.73455 13.168 8.53445 12.9469 8.55668 12.6925L8.99418 7.66121C9.01523 7.42059 9.22715 7.24258 9.46804 7.26336C9.70867 7.28441 9.88695 7.49633 9.8659 7.73723ZM11.7611 2.44922H9.64551C9.64994 2.39166 9.64879 2.43467 9.64879 1.86816C9.64879 1.34426 9.2225 0.917969 8.69859 0.917969H5.78648C5.26258 0.917969 4.83629 1.34426 4.83629 1.86816C4.83629 2.42373 4.83511 2.39144 4.83957 2.44922H2.72398C2.20008 2.44922 1.77379 2.87551 1.77379 3.39941C1.77379 4.18098 1.77256 4.14393 1.77679 4.19922H12.7083C12.7126 4.14308 12.7113 4.17647 12.7113 3.39941C12.7113 2.87551 12.285 2.44922 11.7611 2.44922ZM8.77379 2.37402C8.77379 2.41559 8.74015 2.44922 8.69859 2.44922H5.78648C5.74492 2.44922 5.71129 2.41559 5.71129 2.37402V1.86816C5.71129 1.8266 5.74492 1.79297 5.78648 1.79297H8.69859C8.74015 1.79297 8.77379 1.8266 8.77379 1.86816V2.37402Z" fill="#D34434"/>
</g>
</g>
<defs>
<clipPath id="clip0_1300_163">
<rect width="14" height="14" fill="white" transform="translate(0.242554 0.917969)"/>
</clipPath>
</defs>
</svg>
