<svg width="33" height="32" viewBox="0 0 33 32" fill="none" xmlns="http://www.w3.org/2000/svg">
<g clip-path="url(#clip0_805_369)">
<path d="M17.7369 15.4551L24.938 25.7553H21.9827L16.1064 17.3503V17.3498L15.2436 16.1159L8.37915 6.29688H11.3345L16.8741 14.2212L17.7369 15.4551Z" fill="#696CFF"/>
<path d="M29.2091 0H4.12442C2.21485 0 0.666748 1.5481 0.666748 3.45767V28.5423C0.666748 30.4519 2.21485 32 4.12442 32H29.2091C31.1186 32 32.6667 30.4519 32.6667 28.5423V3.45767C32.6667 1.5481 31.1186 0 29.2091 0ZM21.0774 27.1366L15.1309 18.4823L7.68588 27.1366H5.76171L14.2765 17.2393L5.76171 4.84694H12.2561L17.887 13.042L24.9369 4.84694H26.8611L18.7417 14.2852H18.7411L27.5718 27.1366H21.0774Z" fill="#696CFF"/>
</g>
<defs>
<clipPath id="clip0_805_369">
<rect width="32" height="32" fill="white" transform="translate(0.666748)"/>
</clipPath>
</defs>
</svg>
