<svg width="86" height="86" viewBox="0 0 86 86" fill="none" xmlns="http://www.w3.org/2000/svg">
<g id="Frame">
<g id="Group">
<path id="Vector" d="M73.9346 13.8107V72.1768C73.9346 76.4768 70.444 79.9674 66.1567 79.9674H10.3199C6.01988 79.9674 2.5293 76.4768 2.5293 72.1768V13.8107C2.5293 9.51066 6.01988 6.03271 10.3199 6.03271H66.1567C70.444 6.03271 73.9346 9.51066 73.9346 13.8107Z" fill="#DBDBDB"/>
<path id="Vector_2" d="M73.9346 13.8107V20.7412H2.5293V13.8107C2.5293 9.51066 6.01988 6.03271 10.3199 6.03271H66.1567C70.444 6.03271 73.9346 9.51066 73.9346 13.8107Z" fill="#26234F"/>
<path id="Vector_3" d="M13.3928 26.1959H7.15022C6.98251 26.1959 6.82167 26.1292 6.70308 26.0106C6.58449 25.8921 6.51787 25.7312 6.51787 25.5635C6.51787 25.3958 6.58449 25.235 6.70308 25.1164C6.82167 24.9978 6.98251 24.9312 7.15022 24.9312H13.3953C13.563 24.9312 13.7239 24.9978 13.8425 25.1164C13.9611 25.235 14.0277 25.3958 14.0277 25.5635C14.0277 25.7312 13.9611 25.8921 13.8425 26.0106C13.7239 26.1292 13.563 26.1959 13.3953 26.1959H13.3928ZM19.906 26.1959H16.6494C16.4817 26.1959 16.3209 26.1292 16.2023 26.0106C16.0837 25.8921 16.0171 25.7312 16.0171 25.5635C16.0171 25.3958 16.0837 25.235 16.2023 25.1164C16.3209 24.9978 16.4817 24.9312 16.6494 24.9312H19.9048C20.0725 24.9312 20.2333 24.9978 20.3519 25.1164C20.4705 25.235 20.5371 25.3958 20.5371 25.5635C20.5371 25.7312 20.4705 25.8921 20.3519 26.0106C20.2333 26.1292 20.0738 26.1959 19.906 26.1959ZM9.62904 30.0469H7.14895C6.98124 30.0469 6.8204 29.9803 6.70181 29.8617C6.58322 29.7431 6.5166 29.5822 6.5166 29.4145C6.5166 29.2468 6.58322 29.086 6.70181 28.9674C6.8204 28.8488 6.98124 28.7822 7.14895 28.7822H9.62904C9.79675 28.7822 9.9576 28.8488 10.0762 28.9674C10.1948 29.086 10.2614 29.2468 10.2614 29.4145C10.2614 29.5822 10.1948 29.7431 10.0762 29.8617C9.9576 29.9803 9.79675 30.0469 9.62904 30.0469ZM19.906 30.0469H12.6618C12.4941 30.0469 12.3333 29.9803 12.2147 29.8617C12.0961 29.7431 12.0295 29.5822 12.0295 29.4145C12.0295 29.2468 12.0961 29.086 12.2147 28.9674C12.3333 28.8488 12.4941 28.7822 12.6618 28.7822H19.9048C20.0725 28.7822 20.2333 28.8488 20.3519 28.9674C20.4705 29.086 20.5371 29.2468 20.5371 29.4145C20.5371 29.5822 20.4705 29.7431 20.3519 29.8617C20.2333 29.9803 20.0738 30.0469 19.906 30.0469ZM13.3928 33.8967H7.15022C6.98251 33.8967 6.82167 33.83 6.70308 33.7114C6.58449 33.5929 6.51787 33.432 6.51787 33.2643C6.51787 33.0966 6.58449 32.9357 6.70308 32.8172C6.82167 32.6986 6.98251 32.6319 7.15022 32.6319H13.3953C13.563 32.6319 13.7239 32.6986 13.8425 32.8172C13.9611 32.9357 14.0277 33.0966 14.0277 33.2643C14.0277 33.432 13.9611 33.5929 13.8425 33.7114C13.7239 33.83 13.563 33.8967 13.3953 33.8967H13.3928Z" fill="black"/>
<path id="Vector_4" d="M11.0841 15.6977C12.3602 15.6977 13.3947 14.6632 13.3947 13.387C13.3947 12.1109 12.3602 11.0764 11.0841 11.0764C9.80794 11.0764 8.77344 12.1109 8.77344 13.387C8.77344 14.6632 9.80794 15.6977 11.0841 15.6977Z" fill="white"/>
<path id="Vector_5" d="M19.0977 15.6977C20.3738 15.6977 21.4083 14.6632 21.4083 13.387C21.4083 12.1109 20.3738 11.0764 19.0977 11.0764C17.8216 11.0764 16.7871 12.1109 16.7871 13.387C16.7871 14.6632 17.8216 15.6977 19.0977 15.6977Z" fill="white"/>
<path id="Vector_6" d="M27.1114 15.6977C28.3875 15.6977 29.422 14.6632 29.422 13.387C29.422 12.1109 28.3875 11.0764 27.1114 11.0764C25.8353 11.0764 24.8008 12.1109 24.8008 13.387C24.8008 14.6632 25.8353 15.6977 27.1114 15.6977Z" fill="white"/>
<path id="Vector_7" d="M67.6866 13.1403C67.6866 14.2659 66.7634 15.1892 65.6252 15.1892H44.6943C43.556 15.1892 42.6328 14.2659 42.6328 13.1403C42.6328 12.0021 43.556 11.0789 44.6943 11.0789H65.6252C66.7634 11.0789 67.6866 12.0021 67.6866 13.1403Z" fill="white"/>
<path id="Vector_8" d="M38.2293 69.4261C48.763 69.4261 57.3023 60.8868 57.3023 50.3531C57.3023 39.8193 48.763 31.28 38.2293 31.28C27.6955 31.28 19.1562 39.8193 19.1562 50.3531C19.1562 60.8868 27.6955 69.4261 38.2293 69.4261Z" fill="#26234F"/>
<path id="Vector_9" d="M44.0754 52.359L36.4618 57.1016C34.8936 58.0881 32.8574 56.9498 32.8574 55.1034V45.6054C32.8574 43.7463 34.8936 42.6207 36.4618 43.6072L44.0754 48.3498C45.5551 49.2731 45.5551 51.4357 44.0754 52.359Z" fill="white"/>
<path id="Vector_10" d="M66.3817 79.965C75.8195 79.965 83.4704 72.3141 83.4704 62.8763C83.4704 53.4385 75.8195 45.7876 66.3817 45.7876C56.9438 45.7876 49.293 53.4385 49.293 62.8763C49.293 72.3141 56.9438 79.965 66.3817 79.965Z" fill="#304056"/>
<path id="Vector_11" d="M79.1322 62.8813C79.1322 63.0963 79.1322 63.2986 79.1196 63.5136C78.9755 66.4543 77.813 69.2533 75.8313 71.4307C74.71 72.6745 73.3541 73.6846 71.8414 74.403C70.3286 75.1214 68.6889 75.5339 67.0163 75.6169C66.8013 75.6295 66.599 75.6295 66.384 75.6295C66.169 75.6295 65.9666 75.6295 65.7516 75.6169C62.8089 75.4714 60.0091 74.304 57.8346 72.316C57.531 72.0504 57.2275 71.7469 56.9366 71.4307C54.9551 69.2532 53.7926 66.4543 53.6484 63.5136C53.6357 63.2986 53.6357 63.0963 53.6357 62.8813C53.6357 62.6663 53.6357 62.4639 53.6484 62.2489C53.8002 59.2136 55.0143 56.4439 56.9493 54.3319C57.2275 54.0157 57.531 53.7122 57.8346 53.4466C60.0091 51.4585 62.8089 50.2912 65.7516 50.1457C65.9666 50.1331 66.169 50.1331 66.384 50.1331C69.545 50.1325 72.5929 51.3093 74.9334 53.4339C75.2369 53.7122 75.5404 54.0157 75.8187 54.3319C77.9555 56.6658 79.1381 59.7169 79.1322 62.8813Z" fill="white"/>
<path id="Vector_12" d="M67.0163 50.1457V51.4863C67.0163 51.8278 66.7255 52.1186 66.384 52.1186C66.0299 52.1186 65.7516 51.8278 65.7516 51.4863V50.1457C65.9666 50.1331 66.169 50.1331 66.384 50.1331C66.599 50.1331 66.8013 50.1331 67.0163 50.1457ZM67.0163 74.2763V75.6169C66.8013 75.6295 66.599 75.6295 66.384 75.6295C66.169 75.6295 65.9666 75.6295 65.7516 75.6169V74.2763C65.7516 73.9222 66.0299 73.6439 66.384 73.6439C66.7255 73.6439 67.0163 73.9222 67.0163 74.2763ZM55.6213 62.8813C55.6213 63.2228 55.3304 63.5136 54.989 63.5136H53.6484C53.6357 63.2986 53.6357 63.0963 53.6357 62.8813C53.6357 62.6663 53.6357 62.4639 53.6484 62.2489H54.989C55.3304 62.2489 55.6213 62.5272 55.6213 62.8813ZM79.1322 62.8813C79.1322 63.0963 79.1322 63.2986 79.1196 63.5136H77.779C77.4249 63.5136 77.1466 63.2228 77.1466 62.8813C77.1466 62.5272 77.4249 62.2489 77.779 62.2489H79.1196C79.1322 62.4639 79.1322 62.6663 79.1322 62.8813ZM58.7704 55.2678C58.644 55.3942 58.4796 55.4575 58.3278 55.4575C58.1634 55.4575 57.999 55.3942 57.8725 55.2678L56.9493 54.3319C57.2275 54.0157 57.531 53.7122 57.8346 53.4466L58.7704 54.3698C59.0234 54.6228 59.0234 55.0148 58.7704 55.2678ZM75.8313 71.4307C75.5404 71.7469 75.2369 72.0504 74.9334 72.3286L73.9849 71.3801C73.8691 71.2593 73.8044 71.0985 73.8044 70.9311C73.8044 70.7638 73.8691 70.603 73.9849 70.4822C74.2378 70.2419 74.6425 70.2419 74.8828 70.4822L75.8313 71.4307ZM58.7704 71.3801L57.8346 72.316C57.531 72.0504 57.2275 71.7469 56.9366 71.4307L57.8725 70.4822C58.1254 70.2419 58.5175 70.2419 58.7704 70.4822C59.0234 70.7351 59.0234 71.1272 58.7704 71.3801ZM75.8187 54.3319L74.8828 55.2678C74.7563 55.3942 74.6046 55.4575 74.4402 55.4575C74.2757 55.4575 74.1113 55.3942 73.9849 55.2678C73.8691 55.147 73.8044 54.9861 73.8044 54.8188C73.8044 54.6515 73.8691 54.4906 73.9849 54.3698L74.9334 53.4339C75.2369 53.7122 75.5404 54.0157 75.8187 54.3319ZM71.2961 68.4245C71.2132 68.4246 71.1311 68.4084 71.0545 68.3767C70.9779 68.345 70.9083 68.2985 70.8497 68.2399L65.9337 63.3239C65.8751 63.2651 65.8285 63.1953 65.7969 63.1185C65.7652 63.0416 65.7489 62.9593 65.7491 62.8762V53.8639C65.7491 53.6962 65.8157 53.5354 65.9343 53.4168C66.0529 53.2982 66.2137 53.2316 66.3814 53.2316C66.5492 53.2316 66.71 53.2982 66.8286 53.4168C66.9472 53.5354 67.0138 53.6962 67.0138 53.8639V62.6157L71.7438 67.3457C71.8325 67.4341 71.8929 67.5469 71.9174 67.6697C71.9419 67.7925 71.9293 67.9199 71.8814 68.0356C71.8334 68.1512 71.7522 68.2501 71.648 68.3196C71.5438 68.389 71.4213 68.4247 71.2961 68.4245Z" fill="black"/>
<path id="Vector_13" d="M66.3813 64.9098C67.5045 64.9098 68.4149 63.9993 68.4149 62.8762C68.4149 61.753 67.5045 60.8425 66.3813 60.8425C65.2581 60.8425 64.3477 61.753 64.3477 62.8762C64.3477 63.9993 65.2581 64.9098 66.3813 64.9098Z" fill="#304056"/>
</g>
</g>
</svg>
