<svg width="86" height="86" viewBox="0 0 86 86" fill="none" xmlns="http://www.w3.org/2000/svg">
<g id="Frame">
<g id="Group">
<g id="Group_2">
<path id="Vector" opacity="0.4" d="M77.9371 31.8272V60.9167C78.1489 62.7325 77.9471 64.5727 77.3467 66.2994C76.7463 68.0261 75.7629 69.5946 74.4702 70.8873C73.1775 72.18 71.6091 73.1634 69.8823 73.7638C68.1556 74.3642 66.3154 74.566 64.4996 74.3542H21.4996C19.6838 74.566 17.8436 74.3642 16.1168 73.7638C14.3901 73.1634 12.8216 72.18 11.5289 70.8873C10.2363 69.5946 9.25288 68.0261 8.65248 66.2994C8.05209 64.5727 7.85025 62.7325 8.06208 60.9167V25.0833C7.85025 23.2675 8.05209 21.4273 8.65248 19.7006C9.25288 17.9738 10.2363 16.4054 11.5289 15.1127C12.8216 13.82 14.3901 12.8366 16.1168 12.2362C17.8436 11.6358 19.6838 11.434 21.4996 11.6458H53.0329C53.1915 11.65 53.3471 11.6892 53.4888 11.7606C53.6304 11.832 53.7545 11.9338 53.8521 12.0589C53.9497 12.1839 54.0184 12.3289 54.0534 12.4837C54.0883 12.6384 54.0886 12.7989 54.0542 12.9537C53.2087 17.1406 54.059 21.4919 56.4184 25.0525C58.7778 28.6131 62.4536 31.0921 66.6388 31.9454C69.9514 32.6076 73.3883 32.2128 76.4643 30.8167C76.6283 30.7513 76.8059 30.7274 76.9814 30.747C77.1568 30.7666 77.3248 30.829 77.4703 30.9289C77.6159 31.0288 77.7346 31.163 77.8161 31.3197C77.8975 31.4763 77.939 31.6506 77.9371 31.8272Z" fill="#26234F"/>
<path id="Vector_2" d="M72.2472 50.7472L56.2942 34.7942C55.6185 34.1211 54.7037 33.7432 53.75 33.7432C52.7963 33.7432 51.8815 34.1211 51.2058 34.7942L33.5042 52.4959C33.1693 52.8242 32.719 53.0081 32.25 53.0081C31.781 53.0081 31.3307 52.8242 30.9958 52.4959L27.6275 49.1276C26.9519 48.4545 26.037 48.0766 25.0833 48.0766C24.1296 48.0766 23.2148 48.4545 22.5392 49.1276L13.7528 57.9139C13.5512 58.1153 13.4378 58.3886 13.4375 58.6736V60.9167C13.4375 66.5784 15.8383 68.9792 21.5 68.9792H64.5C70.1617 68.9792 72.5625 66.5784 72.5625 60.9167V51.5069C72.5623 51.2219 72.4488 50.9486 72.2472 50.7472ZM28.6667 36.7292C28.0785 36.7313 27.4956 36.6176 26.9513 36.3944C26.4071 36.1713 25.9121 35.8431 25.4947 35.4287C24.6517 34.5917 24.1757 33.4541 24.1714 32.2662C24.1671 31.0782 24.6349 29.9373 25.4719 29.0942C26.3089 28.2512 27.4465 27.7752 28.6344 27.7709H28.6667C29.8546 27.7709 30.9939 28.2428 31.8339 29.0828C32.6739 29.9228 33.1458 31.0621 33.1458 32.2501C33.1458 33.438 32.6739 34.5773 31.8339 35.4173C30.9939 36.2573 29.8546 36.7292 28.6667 36.7292ZM77.1492 14.2259L71.7742 8.8509C71.2698 8.34849 70.5869 8.06641 69.875 8.06641C69.1631 8.06641 68.4802 8.34849 67.9758 8.8509L62.6008 14.2259C62.1261 14.7354 61.8677 15.4092 61.88 16.1054C61.8922 16.8017 62.1743 17.466 62.6667 17.9584C63.1591 18.4508 63.8234 18.7328 64.5196 18.7451C65.2159 18.7574 65.8897 18.499 66.3992 18.0242L67.1875 17.2395V25.0834C67.1875 25.7962 67.4706 26.4797 67.9747 26.9837C68.4787 27.4878 69.1622 27.7709 69.875 27.7709C70.5878 27.7709 71.2714 27.4878 71.7754 26.9837C72.2794 26.4797 72.5625 25.7962 72.5625 25.0834V17.2395L73.3508 18.0242C73.8603 18.499 74.5341 18.7574 75.2304 18.7451C75.9266 18.7328 76.5909 18.4508 77.0833 17.9584C77.5757 17.466 77.8578 16.8017 77.87 16.1054C77.8823 15.4092 77.6239 14.7354 77.1492 14.2259Z" fill="#26234F"/>
</g>
</g>
</g>
</svg>
