<svg width="20" height="20" viewBox="0 0 20 20" fill="none" xmlns="http://www.w3.org/2000/svg">
<g id="Frame" clip-path="url(#clip0_126_1245)">
<g id="Group">
<path id="Vector" d="M8.75 3.125C8.22491 3.12579 7.70112 3.17728 7.18593 3.27875V3.80656C7.18309 3.97387 7.12672 4.13587 7.0251 4.26882C6.92348 4.40176 6.78195 4.49866 6.62125 4.54531C6.24057 4.66635 5.87099 4.81983 5.51656 5.00406C5.36978 5.08499 5.20092 5.11673 5.03478 5.09463C4.86863 5.07252 4.71395 4.99774 4.59343 4.88125L4.21812 4.50625C3.34513 5.09415 2.59396 5.84521 2.00593 6.71812L2.38093 7.09312C2.49754 7.21363 2.57243 7.36835 2.59459 7.53456C2.61675 7.70078 2.58502 7.86972 2.50406 8.01656C2.31984 8.37089 2.16636 8.74037 2.04531 9.12094C1.99871 9.2817 1.90184 9.4233 1.76889 9.52498C1.63594 9.62666 1.47391 9.68307 1.30656 9.68594H0.778746C0.573589 10.7186 0.573589 11.7814 0.778746 12.8141H1.30656C1.47387 12.8169 1.63587 12.8733 1.76881 12.9749C1.90176 13.0765 1.99866 13.218 2.04531 13.3787C2.16635 13.7594 2.31982 14.129 2.50406 14.4834C2.58491 14.6302 2.61661 14.799 2.59451 14.9651C2.57241 15.1311 2.49766 15.2858 2.38125 15.4062L2.00625 15.7816C2.59413 16.6546 3.34519 17.4057 4.21812 17.9938L4.59312 17.6188C4.71362 17.5021 4.86835 17.4273 5.03456 17.4051C5.20077 17.3829 5.36971 17.4147 5.51656 17.4956C5.87098 17.6799 6.24057 17.8334 6.62125 17.9544C6.78195 18.001 6.92348 18.0979 7.0251 18.2309C7.12672 18.3638 7.18309 18.5258 7.18593 18.6931V19.2209C8.21855 19.4261 9.28144 19.4261 10.3141 19.2209V18.6931C10.3169 18.5258 10.3733 18.3638 10.4749 18.2309C10.5765 18.0979 10.718 18.001 10.8787 17.9544C11.2594 17.8334 11.629 17.6799 11.9834 17.4956C12.1302 17.4147 12.2991 17.383 12.4652 17.4051C12.6314 17.4272 12.786 17.5019 12.9066 17.6184L13.2819 17.9934C14.1549 17.4056 14.9061 16.6545 15.4941 15.7816L15.1191 15.4066C15.0024 15.2861 14.9276 15.1313 14.9054 14.9651C14.8832 14.7989 14.915 14.63 14.9959 14.4831C15.1802 14.1287 15.3336 13.7591 15.4547 13.3784C15.5013 13.2177 15.5982 13.0762 15.7312 12.9746C15.8641 12.873 16.0261 12.8166 16.1934 12.8138H16.7212C16.8227 12.2987 16.8742 11.775 16.875 11.25H8.75V3.125Z" fill="#7D8DB3"/>
<path id="Vector_2" d="M3.4375 11.25C3.4375 12.659 3.99721 14.0102 4.9935 15.0065C5.98978 16.0028 7.34104 16.5625 8.75 16.5625C10.159 16.5625 11.5102 16.0028 12.5065 15.0065C13.5028 14.0102 14.0625 12.659 14.0625 11.25H8.75V5.9375C7.34104 5.9375 5.98978 6.49721 4.9935 7.4935C3.99721 8.48978 3.4375 9.84104 3.4375 11.25Z" fill="#C2DAF2"/>
<path id="Vector_3" d="M10.3125 2.02441V9.83691H18.125C18.125 7.76491 17.3019 5.77777 15.8368 4.31264C14.3716 2.84751 12.3845 2.02441 10.3125 2.02441Z" fill="#F2D891"/>
<path id="Vector_4" d="M13.2812 5.25348C13.3986 5.24715 13.5136 5.28739 13.6014 5.36546C13.6892 5.44353 13.7426 5.55311 13.75 5.67035H14.375C14.3706 5.44232 14.2919 5.22196 14.1509 5.04268C14.0099 4.86341 13.8143 4.73499 13.5938 4.67691V4.21191H12.9688V4.67691C12.7482 4.73499 12.5526 4.86341 12.4116 5.04268C12.2706 5.22196 12.1919 5.44232 12.1875 5.67035C12.195 5.95333 12.3142 6.22183 12.5192 6.41705C12.7242 6.61227 12.9982 6.7183 13.2812 6.71191C13.3616 6.72137 13.4375 6.75387 13.4999 6.80548C13.5622 6.8571 13.6083 6.92563 13.6325 7.00283C13.6568 7.08002 13.6583 7.16259 13.6367 7.24059C13.6151 7.31858 13.5715 7.38868 13.511 7.44244C13.4505 7.49619 13.3757 7.53131 13.2958 7.54357C13.2158 7.55583 13.1339 7.5447 13.0601 7.51152C12.9863 7.47834 12.9237 7.42453 12.8797 7.35657C12.8358 7.28861 12.8125 7.2094 12.8125 7.12848H12.1875C12.192 7.35645 12.2707 7.57674 12.4117 7.75595C12.5527 7.93517 12.7482 8.06354 12.9688 8.1216V8.58691H13.5938V8.1216C13.8143 8.06354 14.0098 7.93517 14.1508 7.75595C14.2918 7.57674 14.3705 7.35645 14.375 7.12848C14.3675 6.84549 14.2483 6.577 14.0433 6.38178C13.8383 6.18656 13.5643 6.08053 13.2812 6.08691C13.2223 6.09396 13.1626 6.08843 13.106 6.07071C13.0494 6.05298 12.9972 6.02346 12.9528 5.98408C12.9085 5.94471 12.8729 5.89637 12.8486 5.84227C12.8243 5.78816 12.8117 5.72952 12.8117 5.6702C12.8117 5.61088 12.8243 5.55223 12.8486 5.49812C12.8729 5.44402 12.9085 5.39568 12.9528 5.35631C12.9972 5.31693 13.0494 5.28741 13.106 5.26968C13.1626 5.25196 13.2223 5.24643 13.2812 5.25348Z" fill="black"/>
<path id="Vector_5" d="M10 2.02441V9.83691C10 9.91979 10.0329 9.99928 10.0915 10.0579C10.1501 10.1165 10.2296 10.1494 10.3125 10.1494H18.125C18.2079 10.1494 18.2874 10.1165 18.346 10.0579C18.4046 9.99928 18.4375 9.91979 18.4375 9.83691C18.435 7.68279 17.5782 5.61761 16.055 4.09441C14.5318 2.57122 12.4666 1.7144 10.3125 1.71191C10.2296 1.71191 10.1501 1.74484 10.0915 1.80344C10.0329 1.86205 10 1.94153 10 2.02441ZM10.625 2.34316C12.5037 2.42389 14.2837 3.2064 15.6134 4.53605C16.943 5.8657 17.7255 7.64574 17.8062 9.52441H10.625V2.34316Z" fill="black"/>
<path id="Vector_6" d="M1.30623 13.1266C1.40736 13.129 1.50498 13.1641 1.58451 13.2267C1.66404 13.2892 1.72121 13.3757 1.74748 13.4734C1.87402 13.8711 2.0344 14.2572 2.22686 14.6275C2.27662 14.7156 2.297 14.8172 2.28503 14.9176C2.27306 15.0181 2.22936 15.112 2.16029 15.1859L1.78529 15.5609C1.73398 15.6122 1.70208 15.6797 1.69507 15.7519C1.68805 15.824 1.70636 15.8964 1.74686 15.9566C2.35646 16.8637 3.13655 17.6438 4.04373 18.2534C4.1038 18.294 4.17615 18.3124 4.24831 18.3054C4.32046 18.2984 4.38792 18.2664 4.43904 18.215L4.81436 17.8397C4.88821 17.7708 4.98206 17.7272 5.08234 17.7152C5.18262 17.7031 5.28412 17.7233 5.37217 17.7728C5.74257 17.9653 6.12877 18.1258 6.52654 18.2525C6.62418 18.2788 6.71072 18.3359 6.77323 18.4153C6.83574 18.4948 6.87089 18.5924 6.87342 18.6934V19.2213C6.87345 19.2937 6.89865 19.3639 6.9447 19.4198C6.99076 19.4757 7.05482 19.5139 7.12592 19.5278C8.19817 19.7406 9.30179 19.7406 10.374 19.5278C10.4451 19.5139 10.5092 19.4757 10.5553 19.4198C10.6013 19.3639 10.6265 19.2937 10.6265 19.2213V18.6934C10.6291 18.5924 10.6643 18.4949 10.7268 18.4155C10.7893 18.3361 10.8758 18.2791 10.9734 18.2528C11.3711 18.126 11.7571 17.9656 12.1275 17.7731C12.2155 17.7234 12.3171 17.703 12.4174 17.715C12.5178 17.727 12.6118 17.7706 12.6856 17.8397L13.0606 18.215C13.1118 18.2665 13.1794 18.2985 13.2517 18.3055C13.324 18.3124 13.3965 18.2939 13.4565 18.2531C14.3637 17.6435 15.1438 16.8634 15.7534 15.9563C15.7938 15.8961 15.8121 15.8238 15.8051 15.7517C15.7981 15.6796 15.7662 15.6122 15.715 15.5609L15.34 15.1859C15.2708 15.1121 15.227 15.0181 15.215 14.9177C15.203 14.8172 15.2233 14.7156 15.2731 14.6275C15.4656 14.2572 15.6259 13.8711 15.7525 13.4734C15.7787 13.3758 15.8359 13.2893 15.9153 13.2268C15.9948 13.1642 16.0923 13.1291 16.1934 13.1266H16.7212C16.7937 13.1265 16.8639 13.1013 16.9199 13.0552C16.9758 13.009 17.0139 12.9449 17.0278 12.8737C17.1329 12.3389 17.1864 11.7951 17.1875 11.25C17.1875 11.1671 17.1546 11.0876 17.096 11.029C17.0373 10.9704 16.9579 10.9375 16.875 10.9375H9.06248V3.125C9.06248 3.04212 9.02956 2.96263 8.97095 2.90403C8.91235 2.84542 8.83286 2.8125 8.74998 2.8125C8.20477 2.8134 7.66091 2.86677 7.12592 2.97188C7.05477 2.9858 6.99067 3.02402 6.94461 3.08001C6.89854 3.13599 6.87337 3.20625 6.87342 3.27875V3.80656C6.87082 3.90758 6.83565 4.00506 6.77314 4.08447C6.71063 4.16387 6.62413 4.22095 6.52654 4.24719C6.12888 4.37401 5.7427 4.53438 5.37217 4.72656C5.28431 4.77656 5.18275 4.7971 5.08237 4.78518C4.98198 4.77326 4.88806 4.7295 4.81436 4.66031L4.43936 4.285C4.38815 4.23349 4.32056 4.20149 4.24826 4.19453C4.17597 4.18757 4.10351 4.20608 4.04342 4.24687C3.13623 4.85648 2.35615 5.63657 1.74654 6.54375C1.70613 6.60388 1.68787 6.67619 1.69488 6.7483C1.70189 6.82041 1.73374 6.88784 1.78498 6.93906L2.15998 7.31406C2.22914 7.38789 2.27293 7.48187 2.28495 7.58232C2.29698 7.68277 2.27663 7.78443 2.22686 7.8725C2.0344 8.24279 1.87402 8.62889 1.74748 9.02656C1.72122 9.1242 1.6641 9.21073 1.58464 9.27325C1.50517 9.33576 1.40762 9.37091 1.30654 9.37344H0.779043C0.706543 9.37339 0.636284 9.39856 0.580299 9.44462C0.524314 9.49069 0.486088 9.55479 0.472168 9.62594C0.259277 10.6981 0.259277 11.8016 0.472168 12.8737C0.486014 12.9449 0.524167 13.009 0.580093 13.0552C0.636019 13.1013 0.70624 13.1265 0.778731 13.1266H1.30623ZM8.74998 11.5625H13.7019C13.643 12.5173 13.3098 13.4347 12.7422 14.2047C12.1746 14.9747 11.3968 15.5644 10.5022 15.9031C9.6076 16.2418 8.63424 16.315 7.69903 16.114C6.76383 15.913 5.90654 15.4462 5.23015 14.7698C4.55375 14.0934 4.08701 13.2362 3.88597 12.3009C3.68494 11.3657 3.75816 10.3924 4.09685 9.49778C4.43554 8.60318 5.0253 7.82538 5.79528 7.25779C6.56526 6.69021 7.48272 6.35698 8.43748 6.29812V11.25C8.43748 11.3329 8.4704 11.4124 8.52901 11.471C8.58762 11.5296 8.6671 11.5625 8.74998 11.5625ZM1.04061 9.99813H1.30623C1.5399 9.99524 1.76652 9.91776 1.95305 9.77699C2.13958 9.63623 2.27624 9.43954 2.34311 9.21562C2.45877 8.8521 2.60534 8.49914 2.78123 8.16062C2.89275 7.95486 2.93552 7.71881 2.90331 7.487C2.87109 7.25518 2.76557 7.03975 2.60217 6.87219L2.41217 6.68219C2.90302 6.00065 3.50072 5.40285 4.18217 4.91188L4.37217 5.1025C4.53977 5.26585 4.75522 5.37131 4.98703 5.40347C5.21885 5.43563 5.45487 5.39281 5.66061 5.28125C5.99922 5.10557 6.35216 4.959 6.71561 4.84312C6.93948 4.77625 7.13614 4.63963 7.27695 4.45318C7.41776 4.26673 7.49535 4.04019 7.49842 3.80656V3.54031C7.80924 3.48953 8.12282 3.45739 8.43748 3.44406V5.67312C7.05517 5.74958 5.75039 6.33623 4.77579 7.31949C3.80119 8.30275 3.22611 9.61266 3.16189 10.9956C3.09768 12.3785 3.54889 13.7361 4.42818 14.8055C5.30746 15.8748 6.55226 16.5798 7.92154 16.7841C8.19147 16.8229 8.46383 16.8424 8.73654 16.8425C10.1679 16.8481 11.5467 16.303 12.5873 15.3201C13.6279 14.3373 14.2507 12.9919 14.3269 11.5625H16.5559C16.5426 11.8772 16.5104 12.1907 16.4597 12.5016H16.1934C15.9598 12.5046 15.7333 12.5822 15.5468 12.723C15.3604 12.8638 15.2237 13.0605 15.1569 13.2844C15.0412 13.6479 14.8946 14.0009 14.7187 14.3394C14.6072 14.5451 14.5644 14.7812 14.5967 15.013C14.6289 15.2448 14.7344 15.4603 14.8978 15.6278L15.0878 15.8178C14.5969 16.4993 13.9992 17.0972 13.3178 17.5881L13.1278 17.3975C12.9602 17.2341 12.7448 17.1285 12.513 17.0964C12.2811 17.0642 12.0451 17.1071 11.8394 17.2188C11.5008 17.3946 11.1479 17.5412 10.7844 17.6569C10.5605 17.7238 10.3638 17.8604 10.223 18.0468C10.0822 18.2333 10.0046 18.4598 10.0015 18.6934V18.9597C9.17277 19.0964 8.3272 19.0964 7.49842 18.9597V18.6934C7.49537 18.4599 7.41782 18.2333 7.27707 18.0469C7.13633 17.8604 6.93973 17.7238 6.71592 17.6569C6.35215 17.5412 5.99897 17.3945 5.66029 17.2184C5.45459 17.107 5.21863 17.0643 4.98692 17.0966C4.75521 17.1289 4.53991 17.2344 4.37248 17.3978L4.18186 17.5884C3.50049 17.0973 2.9029 16.4994 2.41217 15.8178L2.60248 15.6278C2.76579 15.4602 2.87122 15.2447 2.90338 15.0129C2.93554 14.7811 2.89274 14.5451 2.78123 14.3394C2.60534 14.0009 2.45877 13.6479 2.34311 13.2844C2.27623 13.0605 2.13961 12.8638 1.95316 12.723C1.76671 12.5822 1.54017 12.5046 1.30654 12.5016H1.04029C0.903088 11.6728 0.903088 10.8272 1.04029 9.99844L1.04061 9.99813ZM16.5069 3.05L17.8325 1.72406L18.2744 2.16594L16.9487 3.49156L16.5069 3.05ZM14.5612 1.93906L15.2512 0.195312L15.8325 0.425312L15.1425 2.16906L14.5612 1.93906ZM17.8315 4.855L19.5753 4.165L19.8053 4.74625L18.0615 5.43625L17.8315 4.855Z" fill="black"/>
<path id="Vector_7" d="M5.93733 11.2497C5.93535 10.6507 6.12549 10.0667 6.47983 9.5837C6.83418 9.10066 7.33406 8.74396 7.90608 8.56598L7.71858 7.96973C7.25858 8.11475 6.83421 8.35488 6.473 8.67452C6.1118 8.99415 5.82184 9.38617 5.62193 9.82511C5.42203 10.2641 5.31664 10.7401 5.31262 11.2224C5.3086 11.7047 5.40603 12.1825 5.59858 12.6247L6.1714 12.3747C6.01624 12.02 5.93653 11.6369 5.93733 11.2497ZM6.49983 12.9372L5.99983 13.3129C6.19556 13.573 6.427 13.8042 6.68733 13.9997L7.06296 13.4997C6.84973 13.3396 6.66016 13.1503 6.49983 12.9372ZM7.37483 14.401C7.81705 14.5936 8.29482 14.6911 8.77714 14.6871C9.25946 14.6831 9.73555 14.5777 10.1745 14.3778C10.6135 14.1779 11.0055 13.8879 11.3251 13.5266C11.6447 13.1654 11.8848 12.741 12.0298 12.281L11.4336 12.0935C11.3149 12.4698 11.1184 12.8171 10.8569 13.1126C10.5954 13.4081 10.2746 13.6454 9.91551 13.809C9.55638 13.9726 9.16687 14.0589 8.77224 14.0622C8.37762 14.0656 7.98669 13.9859 7.62483 13.8285L7.37483 14.401Z" fill="black"/>
</g>
</g>
<defs>
<clipPath id="clip0_126_1245">
<rect width="20" height="20" fill="white"/>
</clipPath>
</defs>
</svg>
