<svg width="41" height="41" viewBox="0 0 41 41" fill="none" xmlns="http://www.w3.org/2000/svg">
<g id="Frame">
<g id="Group">
<path id="Vector" d="M36.8313 18.3477L34.5079 15.6485C34.0638 15.136 33.705 14.1794 33.705 13.496V10.5919C33.705 8.78104 32.2188 7.29479 30.4079 7.29479H27.5038C26.8375 7.29479 25.8638 6.93604 25.3513 6.49187L22.6521 4.16854C21.4734 3.16062 19.5429 3.16062 18.3471 4.16854L15.665 6.50895C15.1525 6.93604 14.1788 7.29479 13.5125 7.29479H10.5571C8.74627 7.29479 7.26001 8.78104 7.26001 10.5919V13.5131C7.26001 14.1794 6.90126 15.136 6.47418 15.6485L4.16793 18.3648C3.1771 19.5435 3.1771 21.4569 4.16793 22.6356L6.47418 25.3519C6.90126 25.8644 7.26001 26.821 7.26001 27.4873V30.4085C7.26001 32.2194 8.74627 33.7056 10.5571 33.7056H13.5125C14.1788 33.7056 15.1525 34.0644 15.665 34.5085L18.3642 36.8319C19.5429 37.8398 21.4734 37.8398 22.6692 36.8319L25.3684 34.5085C25.8809 34.0644 26.8375 33.7056 27.5209 33.7056H30.425C32.2359 33.7056 33.7221 32.2194 33.7221 30.4085V27.5044C33.7221 26.8381 34.0809 25.8644 34.525 25.3519L36.8484 22.6527C37.8392 21.474 37.8392 19.5265 36.8313 18.3477ZM27.6063 17.2715L19.355 25.5227C19.1148 25.7626 18.7891 25.8974 18.4496 25.8974C18.1101 25.8974 17.7844 25.7626 17.5442 25.5227L13.41 21.3885C12.9146 20.8931 12.9146 20.0731 13.41 19.5777C13.9054 19.0823 14.7254 19.0823 15.2209 19.5777L18.4496 22.8065L25.7954 15.4606C26.2909 14.9652 27.1109 14.9652 27.6063 15.4606C28.1017 15.956 28.1017 16.776 27.6063 17.2715Z" fill="url(#paint0_linear_187_555)"/>
</g>
</g>
<defs>
<linearGradient id="paint0_linear_187_555" x1="20.5064" y1="3.41345" x2="20.5064" y2="37.5887" gradientUnits="userSpaceOnUse">
<stop stop-color="#138BD7"/>
<stop offset="1" stop-color="#62AAFB"/>
</linearGradient>
</defs>
</svg>
